%TF.GenerationSoftware,KiCad,Pcbnew,8.0.6-8.0.6-0~ubuntu24.04.1*%
%TF.CreationDate,2024-10-19T21:07:49+02:00*%
%TF.ProjectId,ESP_PLC,4553505f-504c-4432-9e6b-696361645f70,rev?*%
%TF.SameCoordinates,Original*%
%TF.FileFunction,Drillmap*%
%TF.FilePolarity,Positive*%
%FSLAX45Y45*%
G04 Gerber Fmt 4.5, Leading zero omitted, Abs format (unit mm)*
G04 Created by KiCad (PCBNEW 8.0.6-8.0.6-0~ubuntu24.04.1) date 2024-10-19 21:07:49*
%MOMM*%
%LPD*%
G01*
G04 APERTURE LIST*
%ADD10C,0.050000*%
%ADD11C,0.200000*%
%ADD12C,0.100000*%
%ADD13C,0.325120*%
G04 APERTURE END LIST*
D10*
X14200000Y-8100000D02*
X14200000Y-10400000D01*
X13700000Y-10900000D02*
X14200000Y-10400000D01*
X13700000Y-7600000D02*
X14200000Y-8100000D01*
X23200000Y-6700000D02*
X13700000Y-6700000D01*
X23200000Y-6700000D02*
X23200000Y-15100000D01*
X13700000Y-15100000D02*
X23200000Y-15100000D01*
X13700000Y-7600000D02*
X13700000Y-6700000D01*
X13700000Y-10900000D02*
X13700000Y-15100000D01*
D11*
D12*
X13973500Y-7365500D02*
X14038500Y-7430500D01*
X14038500Y-7365500D02*
X13973500Y-7430500D01*
X14551500Y-7365500D02*
X14616500Y-7430500D01*
X14616500Y-7365500D02*
X14551500Y-7430500D01*
D13*
X21581560Y-12614500D02*
G75*
G02*
X21256440Y-12614500I-162560J0D01*
G01*
X21256440Y-12614500D02*
G75*
G02*
X21581560Y-12614500I162560J0D01*
G01*
X22724560Y-12614500D02*
G75*
G02*
X22399440Y-12614500I-162560J0D01*
G01*
X22399440Y-12614500D02*
G75*
G02*
X22724560Y-12614500I162560J0D01*
G01*
D11*
X13958277Y-15413984D02*
X13958277Y-15213984D01*
X13958277Y-15213984D02*
X14005896Y-15213984D01*
X14005896Y-15213984D02*
X14034467Y-15223508D01*
X14034467Y-15223508D02*
X14053515Y-15242555D01*
X14053515Y-15242555D02*
X14063039Y-15261603D01*
X14063039Y-15261603D02*
X14072562Y-15299698D01*
X14072562Y-15299698D02*
X14072562Y-15328269D01*
X14072562Y-15328269D02*
X14063039Y-15366365D01*
X14063039Y-15366365D02*
X14053515Y-15385412D01*
X14053515Y-15385412D02*
X14034467Y-15404460D01*
X14034467Y-15404460D02*
X14005896Y-15413984D01*
X14005896Y-15413984D02*
X13958277Y-15413984D01*
X14158277Y-15413984D02*
X14158277Y-15280650D01*
X14158277Y-15318746D02*
X14167801Y-15299698D01*
X14167801Y-15299698D02*
X14177324Y-15290174D01*
X14177324Y-15290174D02*
X14196372Y-15280650D01*
X14196372Y-15280650D02*
X14215420Y-15280650D01*
X14282086Y-15413984D02*
X14282086Y-15280650D01*
X14282086Y-15213984D02*
X14272562Y-15223508D01*
X14272562Y-15223508D02*
X14282086Y-15233031D01*
X14282086Y-15233031D02*
X14291610Y-15223508D01*
X14291610Y-15223508D02*
X14282086Y-15213984D01*
X14282086Y-15213984D02*
X14282086Y-15233031D01*
X14405896Y-15413984D02*
X14386848Y-15404460D01*
X14386848Y-15404460D02*
X14377324Y-15385412D01*
X14377324Y-15385412D02*
X14377324Y-15213984D01*
X14510658Y-15413984D02*
X14491610Y-15404460D01*
X14491610Y-15404460D02*
X14482086Y-15385412D01*
X14482086Y-15385412D02*
X14482086Y-15213984D01*
X14739229Y-15413984D02*
X14739229Y-15213984D01*
X14739229Y-15213984D02*
X14805896Y-15356841D01*
X14805896Y-15356841D02*
X14872562Y-15213984D01*
X14872562Y-15213984D02*
X14872562Y-15413984D01*
X15053515Y-15413984D02*
X15053515Y-15309222D01*
X15053515Y-15309222D02*
X15043991Y-15290174D01*
X15043991Y-15290174D02*
X15024943Y-15280650D01*
X15024943Y-15280650D02*
X14986848Y-15280650D01*
X14986848Y-15280650D02*
X14967801Y-15290174D01*
X15053515Y-15404460D02*
X15034467Y-15413984D01*
X15034467Y-15413984D02*
X14986848Y-15413984D01*
X14986848Y-15413984D02*
X14967801Y-15404460D01*
X14967801Y-15404460D02*
X14958277Y-15385412D01*
X14958277Y-15385412D02*
X14958277Y-15366365D01*
X14958277Y-15366365D02*
X14967801Y-15347317D01*
X14967801Y-15347317D02*
X14986848Y-15337793D01*
X14986848Y-15337793D02*
X15034467Y-15337793D01*
X15034467Y-15337793D02*
X15053515Y-15328269D01*
X15148753Y-15280650D02*
X15148753Y-15480650D01*
X15148753Y-15290174D02*
X15167801Y-15280650D01*
X15167801Y-15280650D02*
X15205896Y-15280650D01*
X15205896Y-15280650D02*
X15224943Y-15290174D01*
X15224943Y-15290174D02*
X15234467Y-15299698D01*
X15234467Y-15299698D02*
X15243991Y-15318746D01*
X15243991Y-15318746D02*
X15243991Y-15375888D01*
X15243991Y-15375888D02*
X15234467Y-15394936D01*
X15234467Y-15394936D02*
X15224943Y-15404460D01*
X15224943Y-15404460D02*
X15205896Y-15413984D01*
X15205896Y-15413984D02*
X15167801Y-15413984D01*
X15167801Y-15413984D02*
X15148753Y-15404460D01*
X15329705Y-15394936D02*
X15339229Y-15404460D01*
X15339229Y-15404460D02*
X15329705Y-15413984D01*
X15329705Y-15413984D02*
X15320182Y-15404460D01*
X15320182Y-15404460D02*
X15329705Y-15394936D01*
X15329705Y-15394936D02*
X15329705Y-15413984D01*
X15329705Y-15290174D02*
X15339229Y-15299698D01*
X15339229Y-15299698D02*
X15329705Y-15309222D01*
X15329705Y-15309222D02*
X15320182Y-15299698D01*
X15320182Y-15299698D02*
X15329705Y-15290174D01*
X15329705Y-15290174D02*
X15329705Y-15309222D01*
D12*
X13632500Y-15710000D02*
X13697500Y-15775000D01*
X13697500Y-15710000D02*
X13632500Y-15775000D01*
D11*
X13996372Y-15633984D02*
X14015420Y-15633984D01*
X14015420Y-15633984D02*
X14034467Y-15643508D01*
X14034467Y-15643508D02*
X14043991Y-15653031D01*
X14043991Y-15653031D02*
X14053515Y-15672079D01*
X14053515Y-15672079D02*
X14063039Y-15710174D01*
X14063039Y-15710174D02*
X14063039Y-15757793D01*
X14063039Y-15757793D02*
X14053515Y-15795888D01*
X14053515Y-15795888D02*
X14043991Y-15814936D01*
X14043991Y-15814936D02*
X14034467Y-15824460D01*
X14034467Y-15824460D02*
X14015420Y-15833984D01*
X14015420Y-15833984D02*
X13996372Y-15833984D01*
X13996372Y-15833984D02*
X13977324Y-15824460D01*
X13977324Y-15824460D02*
X13967801Y-15814936D01*
X13967801Y-15814936D02*
X13958277Y-15795888D01*
X13958277Y-15795888D02*
X13948753Y-15757793D01*
X13948753Y-15757793D02*
X13948753Y-15710174D01*
X13948753Y-15710174D02*
X13958277Y-15672079D01*
X13958277Y-15672079D02*
X13967801Y-15653031D01*
X13967801Y-15653031D02*
X13977324Y-15643508D01*
X13977324Y-15643508D02*
X13996372Y-15633984D01*
X14148753Y-15814936D02*
X14158277Y-15824460D01*
X14158277Y-15824460D02*
X14148753Y-15833984D01*
X14148753Y-15833984D02*
X14139229Y-15824460D01*
X14139229Y-15824460D02*
X14148753Y-15814936D01*
X14148753Y-15814936D02*
X14148753Y-15833984D01*
X14329705Y-15633984D02*
X14291610Y-15633984D01*
X14291610Y-15633984D02*
X14272562Y-15643508D01*
X14272562Y-15643508D02*
X14263039Y-15653031D01*
X14263039Y-15653031D02*
X14243991Y-15681603D01*
X14243991Y-15681603D02*
X14234467Y-15719698D01*
X14234467Y-15719698D02*
X14234467Y-15795888D01*
X14234467Y-15795888D02*
X14243991Y-15814936D01*
X14243991Y-15814936D02*
X14253515Y-15824460D01*
X14253515Y-15824460D02*
X14272562Y-15833984D01*
X14272562Y-15833984D02*
X14310658Y-15833984D01*
X14310658Y-15833984D02*
X14329705Y-15824460D01*
X14329705Y-15824460D02*
X14339229Y-15814936D01*
X14339229Y-15814936D02*
X14348753Y-15795888D01*
X14348753Y-15795888D02*
X14348753Y-15748269D01*
X14348753Y-15748269D02*
X14339229Y-15729222D01*
X14339229Y-15729222D02*
X14329705Y-15719698D01*
X14329705Y-15719698D02*
X14310658Y-15710174D01*
X14310658Y-15710174D02*
X14272562Y-15710174D01*
X14272562Y-15710174D02*
X14253515Y-15719698D01*
X14253515Y-15719698D02*
X14243991Y-15729222D01*
X14243991Y-15729222D02*
X14234467Y-15748269D01*
X14529705Y-15633984D02*
X14434467Y-15633984D01*
X14434467Y-15633984D02*
X14424943Y-15729222D01*
X14424943Y-15729222D02*
X14434467Y-15719698D01*
X14434467Y-15719698D02*
X14453515Y-15710174D01*
X14453515Y-15710174D02*
X14501134Y-15710174D01*
X14501134Y-15710174D02*
X14520182Y-15719698D01*
X14520182Y-15719698D02*
X14529705Y-15729222D01*
X14529705Y-15729222D02*
X14539229Y-15748269D01*
X14539229Y-15748269D02*
X14539229Y-15795888D01*
X14539229Y-15795888D02*
X14529705Y-15814936D01*
X14529705Y-15814936D02*
X14520182Y-15824460D01*
X14520182Y-15824460D02*
X14501134Y-15833984D01*
X14501134Y-15833984D02*
X14453515Y-15833984D01*
X14453515Y-15833984D02*
X14434467Y-15824460D01*
X14434467Y-15824460D02*
X14424943Y-15814936D01*
X14663039Y-15633984D02*
X14682086Y-15633984D01*
X14682086Y-15633984D02*
X14701134Y-15643508D01*
X14701134Y-15643508D02*
X14710658Y-15653031D01*
X14710658Y-15653031D02*
X14720182Y-15672079D01*
X14720182Y-15672079D02*
X14729705Y-15710174D01*
X14729705Y-15710174D02*
X14729705Y-15757793D01*
X14729705Y-15757793D02*
X14720182Y-15795888D01*
X14720182Y-15795888D02*
X14710658Y-15814936D01*
X14710658Y-15814936D02*
X14701134Y-15824460D01*
X14701134Y-15824460D02*
X14682086Y-15833984D01*
X14682086Y-15833984D02*
X14663039Y-15833984D01*
X14663039Y-15833984D02*
X14643991Y-15824460D01*
X14643991Y-15824460D02*
X14634467Y-15814936D01*
X14634467Y-15814936D02*
X14624943Y-15795888D01*
X14624943Y-15795888D02*
X14615420Y-15757793D01*
X14615420Y-15757793D02*
X14615420Y-15710174D01*
X14615420Y-15710174D02*
X14624943Y-15672079D01*
X14624943Y-15672079D02*
X14634467Y-15653031D01*
X14634467Y-15653031D02*
X14643991Y-15643508D01*
X14643991Y-15643508D02*
X14663039Y-15633984D01*
X14815420Y-15833984D02*
X14815420Y-15700650D01*
X14815420Y-15719698D02*
X14824943Y-15710174D01*
X14824943Y-15710174D02*
X14843991Y-15700650D01*
X14843991Y-15700650D02*
X14872563Y-15700650D01*
X14872563Y-15700650D02*
X14891610Y-15710174D01*
X14891610Y-15710174D02*
X14901134Y-15729222D01*
X14901134Y-15729222D02*
X14901134Y-15833984D01*
X14901134Y-15729222D02*
X14910658Y-15710174D01*
X14910658Y-15710174D02*
X14929705Y-15700650D01*
X14929705Y-15700650D02*
X14958277Y-15700650D01*
X14958277Y-15700650D02*
X14977324Y-15710174D01*
X14977324Y-15710174D02*
X14986848Y-15729222D01*
X14986848Y-15729222D02*
X14986848Y-15833984D01*
X15082086Y-15833984D02*
X15082086Y-15700650D01*
X15082086Y-15719698D02*
X15091610Y-15710174D01*
X15091610Y-15710174D02*
X15110658Y-15700650D01*
X15110658Y-15700650D02*
X15139229Y-15700650D01*
X15139229Y-15700650D02*
X15158277Y-15710174D01*
X15158277Y-15710174D02*
X15167801Y-15729222D01*
X15167801Y-15729222D02*
X15167801Y-15833984D01*
X15167801Y-15729222D02*
X15177324Y-15710174D01*
X15177324Y-15710174D02*
X15196372Y-15700650D01*
X15196372Y-15700650D02*
X15224943Y-15700650D01*
X15224943Y-15700650D02*
X15243991Y-15710174D01*
X15243991Y-15710174D02*
X15253515Y-15729222D01*
X15253515Y-15729222D02*
X15253515Y-15833984D01*
X15643991Y-15624460D02*
X15472563Y-15881603D01*
X15901134Y-15633984D02*
X15920182Y-15633984D01*
X15920182Y-15633984D02*
X15939229Y-15643508D01*
X15939229Y-15643508D02*
X15948753Y-15653031D01*
X15948753Y-15653031D02*
X15958277Y-15672079D01*
X15958277Y-15672079D02*
X15967801Y-15710174D01*
X15967801Y-15710174D02*
X15967801Y-15757793D01*
X15967801Y-15757793D02*
X15958277Y-15795888D01*
X15958277Y-15795888D02*
X15948753Y-15814936D01*
X15948753Y-15814936D02*
X15939229Y-15824460D01*
X15939229Y-15824460D02*
X15920182Y-15833984D01*
X15920182Y-15833984D02*
X15901134Y-15833984D01*
X15901134Y-15833984D02*
X15882086Y-15824460D01*
X15882086Y-15824460D02*
X15872563Y-15814936D01*
X15872563Y-15814936D02*
X15863039Y-15795888D01*
X15863039Y-15795888D02*
X15853515Y-15757793D01*
X15853515Y-15757793D02*
X15853515Y-15710174D01*
X15853515Y-15710174D02*
X15863039Y-15672079D01*
X15863039Y-15672079D02*
X15872563Y-15653031D01*
X15872563Y-15653031D02*
X15882086Y-15643508D01*
X15882086Y-15643508D02*
X15901134Y-15633984D01*
X16053515Y-15814936D02*
X16063039Y-15824460D01*
X16063039Y-15824460D02*
X16053515Y-15833984D01*
X16053515Y-15833984D02*
X16043991Y-15824460D01*
X16043991Y-15824460D02*
X16053515Y-15814936D01*
X16053515Y-15814936D02*
X16053515Y-15833984D01*
X16186848Y-15633984D02*
X16205896Y-15633984D01*
X16205896Y-15633984D02*
X16224944Y-15643508D01*
X16224944Y-15643508D02*
X16234467Y-15653031D01*
X16234467Y-15653031D02*
X16243991Y-15672079D01*
X16243991Y-15672079D02*
X16253515Y-15710174D01*
X16253515Y-15710174D02*
X16253515Y-15757793D01*
X16253515Y-15757793D02*
X16243991Y-15795888D01*
X16243991Y-15795888D02*
X16234467Y-15814936D01*
X16234467Y-15814936D02*
X16224944Y-15824460D01*
X16224944Y-15824460D02*
X16205896Y-15833984D01*
X16205896Y-15833984D02*
X16186848Y-15833984D01*
X16186848Y-15833984D02*
X16167801Y-15824460D01*
X16167801Y-15824460D02*
X16158277Y-15814936D01*
X16158277Y-15814936D02*
X16148753Y-15795888D01*
X16148753Y-15795888D02*
X16139229Y-15757793D01*
X16139229Y-15757793D02*
X16139229Y-15710174D01*
X16139229Y-15710174D02*
X16148753Y-15672079D01*
X16148753Y-15672079D02*
X16158277Y-15653031D01*
X16158277Y-15653031D02*
X16167801Y-15643508D01*
X16167801Y-15643508D02*
X16186848Y-15633984D01*
X16329706Y-15653031D02*
X16339229Y-15643508D01*
X16339229Y-15643508D02*
X16358277Y-15633984D01*
X16358277Y-15633984D02*
X16405896Y-15633984D01*
X16405896Y-15633984D02*
X16424944Y-15643508D01*
X16424944Y-15643508D02*
X16434467Y-15653031D01*
X16434467Y-15653031D02*
X16443991Y-15672079D01*
X16443991Y-15672079D02*
X16443991Y-15691127D01*
X16443991Y-15691127D02*
X16434467Y-15719698D01*
X16434467Y-15719698D02*
X16320182Y-15833984D01*
X16320182Y-15833984D02*
X16443991Y-15833984D01*
X16624944Y-15633984D02*
X16529706Y-15633984D01*
X16529706Y-15633984D02*
X16520182Y-15729222D01*
X16520182Y-15729222D02*
X16529706Y-15719698D01*
X16529706Y-15719698D02*
X16548753Y-15710174D01*
X16548753Y-15710174D02*
X16596372Y-15710174D01*
X16596372Y-15710174D02*
X16615420Y-15719698D01*
X16615420Y-15719698D02*
X16624944Y-15729222D01*
X16624944Y-15729222D02*
X16634467Y-15748269D01*
X16634467Y-15748269D02*
X16634467Y-15795888D01*
X16634467Y-15795888D02*
X16624944Y-15814936D01*
X16624944Y-15814936D02*
X16615420Y-15824460D01*
X16615420Y-15824460D02*
X16596372Y-15833984D01*
X16596372Y-15833984D02*
X16548753Y-15833984D01*
X16548753Y-15833984D02*
X16529706Y-15824460D01*
X16529706Y-15824460D02*
X16520182Y-15814936D01*
X16805896Y-15633984D02*
X16767801Y-15633984D01*
X16767801Y-15633984D02*
X16748753Y-15643508D01*
X16748753Y-15643508D02*
X16739229Y-15653031D01*
X16739229Y-15653031D02*
X16720182Y-15681603D01*
X16720182Y-15681603D02*
X16710658Y-15719698D01*
X16710658Y-15719698D02*
X16710658Y-15795888D01*
X16710658Y-15795888D02*
X16720182Y-15814936D01*
X16720182Y-15814936D02*
X16729706Y-15824460D01*
X16729706Y-15824460D02*
X16748753Y-15833984D01*
X16748753Y-15833984D02*
X16786849Y-15833984D01*
X16786849Y-15833984D02*
X16805896Y-15824460D01*
X16805896Y-15824460D02*
X16815420Y-15814936D01*
X16815420Y-15814936D02*
X16824944Y-15795888D01*
X16824944Y-15795888D02*
X16824944Y-15748269D01*
X16824944Y-15748269D02*
X16815420Y-15729222D01*
X16815420Y-15729222D02*
X16805896Y-15719698D01*
X16805896Y-15719698D02*
X16786849Y-15710174D01*
X16786849Y-15710174D02*
X16748753Y-15710174D01*
X16748753Y-15710174D02*
X16729706Y-15719698D01*
X16729706Y-15719698D02*
X16720182Y-15729222D01*
X16720182Y-15729222D02*
X16710658Y-15748269D01*
X16901134Y-15633984D02*
X16901134Y-15672079D01*
X16977325Y-15633984D02*
X16977325Y-15672079D01*
X17272563Y-15910174D02*
X17263039Y-15900650D01*
X17263039Y-15900650D02*
X17243991Y-15872079D01*
X17243991Y-15872079D02*
X17234468Y-15853031D01*
X17234468Y-15853031D02*
X17224944Y-15824460D01*
X17224944Y-15824460D02*
X17215420Y-15776841D01*
X17215420Y-15776841D02*
X17215420Y-15738746D01*
X17215420Y-15738746D02*
X17224944Y-15691127D01*
X17224944Y-15691127D02*
X17234468Y-15662555D01*
X17234468Y-15662555D02*
X17243991Y-15643508D01*
X17243991Y-15643508D02*
X17263039Y-15614936D01*
X17263039Y-15614936D02*
X17272563Y-15605412D01*
X17339230Y-15653031D02*
X17348753Y-15643508D01*
X17348753Y-15643508D02*
X17367801Y-15633984D01*
X17367801Y-15633984D02*
X17415420Y-15633984D01*
X17415420Y-15633984D02*
X17434468Y-15643508D01*
X17434468Y-15643508D02*
X17443991Y-15653031D01*
X17443991Y-15653031D02*
X17453515Y-15672079D01*
X17453515Y-15672079D02*
X17453515Y-15691127D01*
X17453515Y-15691127D02*
X17443991Y-15719698D01*
X17443991Y-15719698D02*
X17329706Y-15833984D01*
X17329706Y-15833984D02*
X17453515Y-15833984D01*
X17691611Y-15833984D02*
X17691611Y-15633984D01*
X17777325Y-15833984D02*
X17777325Y-15729222D01*
X17777325Y-15729222D02*
X17767801Y-15710174D01*
X17767801Y-15710174D02*
X17748753Y-15700650D01*
X17748753Y-15700650D02*
X17720182Y-15700650D01*
X17720182Y-15700650D02*
X17701134Y-15710174D01*
X17701134Y-15710174D02*
X17691611Y-15719698D01*
X17901134Y-15833984D02*
X17882087Y-15824460D01*
X17882087Y-15824460D02*
X17872563Y-15814936D01*
X17872563Y-15814936D02*
X17863039Y-15795888D01*
X17863039Y-15795888D02*
X17863039Y-15738746D01*
X17863039Y-15738746D02*
X17872563Y-15719698D01*
X17872563Y-15719698D02*
X17882087Y-15710174D01*
X17882087Y-15710174D02*
X17901134Y-15700650D01*
X17901134Y-15700650D02*
X17929706Y-15700650D01*
X17929706Y-15700650D02*
X17948753Y-15710174D01*
X17948753Y-15710174D02*
X17958277Y-15719698D01*
X17958277Y-15719698D02*
X17967801Y-15738746D01*
X17967801Y-15738746D02*
X17967801Y-15795888D01*
X17967801Y-15795888D02*
X17958277Y-15814936D01*
X17958277Y-15814936D02*
X17948753Y-15824460D01*
X17948753Y-15824460D02*
X17929706Y-15833984D01*
X17929706Y-15833984D02*
X17901134Y-15833984D01*
X18082087Y-15833984D02*
X18063039Y-15824460D01*
X18063039Y-15824460D02*
X18053515Y-15805412D01*
X18053515Y-15805412D02*
X18053515Y-15633984D01*
X18234468Y-15824460D02*
X18215420Y-15833984D01*
X18215420Y-15833984D02*
X18177325Y-15833984D01*
X18177325Y-15833984D02*
X18158277Y-15824460D01*
X18158277Y-15824460D02*
X18148753Y-15805412D01*
X18148753Y-15805412D02*
X18148753Y-15729222D01*
X18148753Y-15729222D02*
X18158277Y-15710174D01*
X18158277Y-15710174D02*
X18177325Y-15700650D01*
X18177325Y-15700650D02*
X18215420Y-15700650D01*
X18215420Y-15700650D02*
X18234468Y-15710174D01*
X18234468Y-15710174D02*
X18243992Y-15729222D01*
X18243992Y-15729222D02*
X18243992Y-15748269D01*
X18243992Y-15748269D02*
X18148753Y-15767317D01*
X18320182Y-15824460D02*
X18339230Y-15833984D01*
X18339230Y-15833984D02*
X18377325Y-15833984D01*
X18377325Y-15833984D02*
X18396373Y-15824460D01*
X18396373Y-15824460D02*
X18405896Y-15805412D01*
X18405896Y-15805412D02*
X18405896Y-15795888D01*
X18405896Y-15795888D02*
X18396373Y-15776841D01*
X18396373Y-15776841D02*
X18377325Y-15767317D01*
X18377325Y-15767317D02*
X18348753Y-15767317D01*
X18348753Y-15767317D02*
X18329706Y-15757793D01*
X18329706Y-15757793D02*
X18320182Y-15738746D01*
X18320182Y-15738746D02*
X18320182Y-15729222D01*
X18320182Y-15729222D02*
X18329706Y-15710174D01*
X18329706Y-15710174D02*
X18348753Y-15700650D01*
X18348753Y-15700650D02*
X18377325Y-15700650D01*
X18377325Y-15700650D02*
X18396373Y-15710174D01*
X18472563Y-15910174D02*
X18482087Y-15900650D01*
X18482087Y-15900650D02*
X18501134Y-15872079D01*
X18501134Y-15872079D02*
X18510658Y-15853031D01*
X18510658Y-15853031D02*
X18520182Y-15824460D01*
X18520182Y-15824460D02*
X18529706Y-15776841D01*
X18529706Y-15776841D02*
X18529706Y-15738746D01*
X18529706Y-15738746D02*
X18520182Y-15691127D01*
X18520182Y-15691127D02*
X18510658Y-15662555D01*
X18510658Y-15662555D02*
X18501134Y-15643508D01*
X18501134Y-15643508D02*
X18482087Y-15614936D01*
X18482087Y-15614936D02*
X18472563Y-15605412D01*
X18834468Y-15910174D02*
X18824944Y-15900650D01*
X18824944Y-15900650D02*
X18805896Y-15872079D01*
X18805896Y-15872079D02*
X18796373Y-15853031D01*
X18796373Y-15853031D02*
X18786849Y-15824460D01*
X18786849Y-15824460D02*
X18777325Y-15776841D01*
X18777325Y-15776841D02*
X18777325Y-15738746D01*
X18777325Y-15738746D02*
X18786849Y-15691127D01*
X18786849Y-15691127D02*
X18796373Y-15662555D01*
X18796373Y-15662555D02*
X18805896Y-15643508D01*
X18805896Y-15643508D02*
X18824944Y-15614936D01*
X18824944Y-15614936D02*
X18834468Y-15605412D01*
X18910658Y-15700650D02*
X18910658Y-15833984D01*
X18910658Y-15719698D02*
X18920182Y-15710174D01*
X18920182Y-15710174D02*
X18939230Y-15700650D01*
X18939230Y-15700650D02*
X18967801Y-15700650D01*
X18967801Y-15700650D02*
X18986849Y-15710174D01*
X18986849Y-15710174D02*
X18996373Y-15729222D01*
X18996373Y-15729222D02*
X18996373Y-15833984D01*
X19120182Y-15833984D02*
X19101134Y-15824460D01*
X19101134Y-15824460D02*
X19091611Y-15814936D01*
X19091611Y-15814936D02*
X19082087Y-15795888D01*
X19082087Y-15795888D02*
X19082087Y-15738746D01*
X19082087Y-15738746D02*
X19091611Y-15719698D01*
X19091611Y-15719698D02*
X19101134Y-15710174D01*
X19101134Y-15710174D02*
X19120182Y-15700650D01*
X19120182Y-15700650D02*
X19148754Y-15700650D01*
X19148754Y-15700650D02*
X19167801Y-15710174D01*
X19167801Y-15710174D02*
X19177325Y-15719698D01*
X19177325Y-15719698D02*
X19186849Y-15738746D01*
X19186849Y-15738746D02*
X19186849Y-15795888D01*
X19186849Y-15795888D02*
X19177325Y-15814936D01*
X19177325Y-15814936D02*
X19167801Y-15824460D01*
X19167801Y-15824460D02*
X19148754Y-15833984D01*
X19148754Y-15833984D02*
X19120182Y-15833984D01*
X19243992Y-15700650D02*
X19320182Y-15700650D01*
X19272563Y-15633984D02*
X19272563Y-15805412D01*
X19272563Y-15805412D02*
X19282087Y-15824460D01*
X19282087Y-15824460D02*
X19301134Y-15833984D01*
X19301134Y-15833984D02*
X19320182Y-15833984D01*
X19539230Y-15700650D02*
X19539230Y-15900650D01*
X19539230Y-15710174D02*
X19558277Y-15700650D01*
X19558277Y-15700650D02*
X19596373Y-15700650D01*
X19596373Y-15700650D02*
X19615420Y-15710174D01*
X19615420Y-15710174D02*
X19624944Y-15719698D01*
X19624944Y-15719698D02*
X19634468Y-15738746D01*
X19634468Y-15738746D02*
X19634468Y-15795888D01*
X19634468Y-15795888D02*
X19624944Y-15814936D01*
X19624944Y-15814936D02*
X19615420Y-15824460D01*
X19615420Y-15824460D02*
X19596373Y-15833984D01*
X19596373Y-15833984D02*
X19558277Y-15833984D01*
X19558277Y-15833984D02*
X19539230Y-15824460D01*
X19748754Y-15833984D02*
X19729706Y-15824460D01*
X19729706Y-15824460D02*
X19720182Y-15805412D01*
X19720182Y-15805412D02*
X19720182Y-15633984D01*
X19910658Y-15833984D02*
X19910658Y-15729222D01*
X19910658Y-15729222D02*
X19901135Y-15710174D01*
X19901135Y-15710174D02*
X19882087Y-15700650D01*
X19882087Y-15700650D02*
X19843992Y-15700650D01*
X19843992Y-15700650D02*
X19824944Y-15710174D01*
X19910658Y-15824460D02*
X19891611Y-15833984D01*
X19891611Y-15833984D02*
X19843992Y-15833984D01*
X19843992Y-15833984D02*
X19824944Y-15824460D01*
X19824944Y-15824460D02*
X19815420Y-15805412D01*
X19815420Y-15805412D02*
X19815420Y-15786365D01*
X19815420Y-15786365D02*
X19824944Y-15767317D01*
X19824944Y-15767317D02*
X19843992Y-15757793D01*
X19843992Y-15757793D02*
X19891611Y-15757793D01*
X19891611Y-15757793D02*
X19910658Y-15748269D01*
X19977325Y-15700650D02*
X20053515Y-15700650D01*
X20005896Y-15633984D02*
X20005896Y-15805412D01*
X20005896Y-15805412D02*
X20015420Y-15824460D01*
X20015420Y-15824460D02*
X20034468Y-15833984D01*
X20034468Y-15833984D02*
X20053515Y-15833984D01*
X20196373Y-15824460D02*
X20177325Y-15833984D01*
X20177325Y-15833984D02*
X20139230Y-15833984D01*
X20139230Y-15833984D02*
X20120182Y-15824460D01*
X20120182Y-15824460D02*
X20110658Y-15805412D01*
X20110658Y-15805412D02*
X20110658Y-15729222D01*
X20110658Y-15729222D02*
X20120182Y-15710174D01*
X20120182Y-15710174D02*
X20139230Y-15700650D01*
X20139230Y-15700650D02*
X20177325Y-15700650D01*
X20177325Y-15700650D02*
X20196373Y-15710174D01*
X20196373Y-15710174D02*
X20205896Y-15729222D01*
X20205896Y-15729222D02*
X20205896Y-15748269D01*
X20205896Y-15748269D02*
X20110658Y-15767317D01*
X20377325Y-15833984D02*
X20377325Y-15633984D01*
X20377325Y-15824460D02*
X20358277Y-15833984D01*
X20358277Y-15833984D02*
X20320182Y-15833984D01*
X20320182Y-15833984D02*
X20301135Y-15824460D01*
X20301135Y-15824460D02*
X20291611Y-15814936D01*
X20291611Y-15814936D02*
X20282087Y-15795888D01*
X20282087Y-15795888D02*
X20282087Y-15738746D01*
X20282087Y-15738746D02*
X20291611Y-15719698D01*
X20291611Y-15719698D02*
X20301135Y-15710174D01*
X20301135Y-15710174D02*
X20320182Y-15700650D01*
X20320182Y-15700650D02*
X20358277Y-15700650D01*
X20358277Y-15700650D02*
X20377325Y-15710174D01*
X20453516Y-15910174D02*
X20463039Y-15900650D01*
X20463039Y-15900650D02*
X20482087Y-15872079D01*
X20482087Y-15872079D02*
X20491611Y-15853031D01*
X20491611Y-15853031D02*
X20501135Y-15824460D01*
X20501135Y-15824460D02*
X20510658Y-15776841D01*
X20510658Y-15776841D02*
X20510658Y-15738746D01*
X20510658Y-15738746D02*
X20501135Y-15691127D01*
X20501135Y-15691127D02*
X20491611Y-15662555D01*
X20491611Y-15662555D02*
X20482087Y-15643508D01*
X20482087Y-15643508D02*
X20463039Y-15614936D01*
X20463039Y-15614936D02*
X20453516Y-15605412D01*
X13697500Y-16006500D02*
G75*
G02*
X13497500Y-16006500I-100000J0D01*
G01*
X13497500Y-16006500D02*
G75*
G02*
X13697500Y-16006500I100000J0D01*
G01*
X13939229Y-15897984D02*
X14063039Y-15897984D01*
X14063039Y-15897984D02*
X13996372Y-15974174D01*
X13996372Y-15974174D02*
X14024943Y-15974174D01*
X14024943Y-15974174D02*
X14043991Y-15983698D01*
X14043991Y-15983698D02*
X14053515Y-15993222D01*
X14053515Y-15993222D02*
X14063039Y-16012269D01*
X14063039Y-16012269D02*
X14063039Y-16059888D01*
X14063039Y-16059888D02*
X14053515Y-16078936D01*
X14053515Y-16078936D02*
X14043991Y-16088460D01*
X14043991Y-16088460D02*
X14024943Y-16097984D01*
X14024943Y-16097984D02*
X13967801Y-16097984D01*
X13967801Y-16097984D02*
X13948753Y-16088460D01*
X13948753Y-16088460D02*
X13939229Y-16078936D01*
X14148753Y-16078936D02*
X14158277Y-16088460D01*
X14158277Y-16088460D02*
X14148753Y-16097984D01*
X14148753Y-16097984D02*
X14139229Y-16088460D01*
X14139229Y-16088460D02*
X14148753Y-16078936D01*
X14148753Y-16078936D02*
X14148753Y-16097984D01*
X14234467Y-15917031D02*
X14243991Y-15907508D01*
X14243991Y-15907508D02*
X14263039Y-15897984D01*
X14263039Y-15897984D02*
X14310658Y-15897984D01*
X14310658Y-15897984D02*
X14329705Y-15907508D01*
X14329705Y-15907508D02*
X14339229Y-15917031D01*
X14339229Y-15917031D02*
X14348753Y-15936079D01*
X14348753Y-15936079D02*
X14348753Y-15955127D01*
X14348753Y-15955127D02*
X14339229Y-15983698D01*
X14339229Y-15983698D02*
X14224943Y-16097984D01*
X14224943Y-16097984D02*
X14348753Y-16097984D01*
X14529705Y-15897984D02*
X14434467Y-15897984D01*
X14434467Y-15897984D02*
X14424943Y-15993222D01*
X14424943Y-15993222D02*
X14434467Y-15983698D01*
X14434467Y-15983698D02*
X14453515Y-15974174D01*
X14453515Y-15974174D02*
X14501134Y-15974174D01*
X14501134Y-15974174D02*
X14520182Y-15983698D01*
X14520182Y-15983698D02*
X14529705Y-15993222D01*
X14529705Y-15993222D02*
X14539229Y-16012269D01*
X14539229Y-16012269D02*
X14539229Y-16059888D01*
X14539229Y-16059888D02*
X14529705Y-16078936D01*
X14529705Y-16078936D02*
X14520182Y-16088460D01*
X14520182Y-16088460D02*
X14501134Y-16097984D01*
X14501134Y-16097984D02*
X14453515Y-16097984D01*
X14453515Y-16097984D02*
X14434467Y-16088460D01*
X14434467Y-16088460D02*
X14424943Y-16078936D01*
X14729705Y-16097984D02*
X14615420Y-16097984D01*
X14672562Y-16097984D02*
X14672562Y-15897984D01*
X14672562Y-15897984D02*
X14653515Y-15926555D01*
X14653515Y-15926555D02*
X14634467Y-15945603D01*
X14634467Y-15945603D02*
X14615420Y-15955127D01*
X14815420Y-16097984D02*
X14815420Y-15964650D01*
X14815420Y-15983698D02*
X14824943Y-15974174D01*
X14824943Y-15974174D02*
X14843991Y-15964650D01*
X14843991Y-15964650D02*
X14872563Y-15964650D01*
X14872563Y-15964650D02*
X14891610Y-15974174D01*
X14891610Y-15974174D02*
X14901134Y-15993222D01*
X14901134Y-15993222D02*
X14901134Y-16097984D01*
X14901134Y-15993222D02*
X14910658Y-15974174D01*
X14910658Y-15974174D02*
X14929705Y-15964650D01*
X14929705Y-15964650D02*
X14958277Y-15964650D01*
X14958277Y-15964650D02*
X14977324Y-15974174D01*
X14977324Y-15974174D02*
X14986848Y-15993222D01*
X14986848Y-15993222D02*
X14986848Y-16097984D01*
X15082086Y-16097984D02*
X15082086Y-15964650D01*
X15082086Y-15983698D02*
X15091610Y-15974174D01*
X15091610Y-15974174D02*
X15110658Y-15964650D01*
X15110658Y-15964650D02*
X15139229Y-15964650D01*
X15139229Y-15964650D02*
X15158277Y-15974174D01*
X15158277Y-15974174D02*
X15167801Y-15993222D01*
X15167801Y-15993222D02*
X15167801Y-16097984D01*
X15167801Y-15993222D02*
X15177324Y-15974174D01*
X15177324Y-15974174D02*
X15196372Y-15964650D01*
X15196372Y-15964650D02*
X15224943Y-15964650D01*
X15224943Y-15964650D02*
X15243991Y-15974174D01*
X15243991Y-15974174D02*
X15253515Y-15993222D01*
X15253515Y-15993222D02*
X15253515Y-16097984D01*
X15643991Y-15888460D02*
X15472563Y-16145603D01*
X15901134Y-15897984D02*
X15920182Y-15897984D01*
X15920182Y-15897984D02*
X15939229Y-15907508D01*
X15939229Y-15907508D02*
X15948753Y-15917031D01*
X15948753Y-15917031D02*
X15958277Y-15936079D01*
X15958277Y-15936079D02*
X15967801Y-15974174D01*
X15967801Y-15974174D02*
X15967801Y-16021793D01*
X15967801Y-16021793D02*
X15958277Y-16059888D01*
X15958277Y-16059888D02*
X15948753Y-16078936D01*
X15948753Y-16078936D02*
X15939229Y-16088460D01*
X15939229Y-16088460D02*
X15920182Y-16097984D01*
X15920182Y-16097984D02*
X15901134Y-16097984D01*
X15901134Y-16097984D02*
X15882086Y-16088460D01*
X15882086Y-16088460D02*
X15872563Y-16078936D01*
X15872563Y-16078936D02*
X15863039Y-16059888D01*
X15863039Y-16059888D02*
X15853515Y-16021793D01*
X15853515Y-16021793D02*
X15853515Y-15974174D01*
X15853515Y-15974174D02*
X15863039Y-15936079D01*
X15863039Y-15936079D02*
X15872563Y-15917031D01*
X15872563Y-15917031D02*
X15882086Y-15907508D01*
X15882086Y-15907508D02*
X15901134Y-15897984D01*
X16053515Y-16078936D02*
X16063039Y-16088460D01*
X16063039Y-16088460D02*
X16053515Y-16097984D01*
X16053515Y-16097984D02*
X16043991Y-16088460D01*
X16043991Y-16088460D02*
X16053515Y-16078936D01*
X16053515Y-16078936D02*
X16053515Y-16097984D01*
X16253515Y-16097984D02*
X16139229Y-16097984D01*
X16196372Y-16097984D02*
X16196372Y-15897984D01*
X16196372Y-15897984D02*
X16177325Y-15926555D01*
X16177325Y-15926555D02*
X16158277Y-15945603D01*
X16158277Y-15945603D02*
X16139229Y-15955127D01*
X16329706Y-15917031D02*
X16339229Y-15907508D01*
X16339229Y-15907508D02*
X16358277Y-15897984D01*
X16358277Y-15897984D02*
X16405896Y-15897984D01*
X16405896Y-15897984D02*
X16424944Y-15907508D01*
X16424944Y-15907508D02*
X16434467Y-15917031D01*
X16434467Y-15917031D02*
X16443991Y-15936079D01*
X16443991Y-15936079D02*
X16443991Y-15955127D01*
X16443991Y-15955127D02*
X16434467Y-15983698D01*
X16434467Y-15983698D02*
X16320182Y-16097984D01*
X16320182Y-16097984D02*
X16443991Y-16097984D01*
X16558277Y-15983698D02*
X16539229Y-15974174D01*
X16539229Y-15974174D02*
X16529706Y-15964650D01*
X16529706Y-15964650D02*
X16520182Y-15945603D01*
X16520182Y-15945603D02*
X16520182Y-15936079D01*
X16520182Y-15936079D02*
X16529706Y-15917031D01*
X16529706Y-15917031D02*
X16539229Y-15907508D01*
X16539229Y-15907508D02*
X16558277Y-15897984D01*
X16558277Y-15897984D02*
X16596372Y-15897984D01*
X16596372Y-15897984D02*
X16615420Y-15907508D01*
X16615420Y-15907508D02*
X16624944Y-15917031D01*
X16624944Y-15917031D02*
X16634467Y-15936079D01*
X16634467Y-15936079D02*
X16634467Y-15945603D01*
X16634467Y-15945603D02*
X16624944Y-15964650D01*
X16624944Y-15964650D02*
X16615420Y-15974174D01*
X16615420Y-15974174D02*
X16596372Y-15983698D01*
X16596372Y-15983698D02*
X16558277Y-15983698D01*
X16558277Y-15983698D02*
X16539229Y-15993222D01*
X16539229Y-15993222D02*
X16529706Y-16002746D01*
X16529706Y-16002746D02*
X16520182Y-16021793D01*
X16520182Y-16021793D02*
X16520182Y-16059888D01*
X16520182Y-16059888D02*
X16529706Y-16078936D01*
X16529706Y-16078936D02*
X16539229Y-16088460D01*
X16539229Y-16088460D02*
X16558277Y-16097984D01*
X16558277Y-16097984D02*
X16596372Y-16097984D01*
X16596372Y-16097984D02*
X16615420Y-16088460D01*
X16615420Y-16088460D02*
X16624944Y-16078936D01*
X16624944Y-16078936D02*
X16634467Y-16059888D01*
X16634467Y-16059888D02*
X16634467Y-16021793D01*
X16634467Y-16021793D02*
X16624944Y-16002746D01*
X16624944Y-16002746D02*
X16615420Y-15993222D01*
X16615420Y-15993222D02*
X16596372Y-15983698D01*
X16758277Y-15897984D02*
X16777325Y-15897984D01*
X16777325Y-15897984D02*
X16796372Y-15907508D01*
X16796372Y-15907508D02*
X16805896Y-15917031D01*
X16805896Y-15917031D02*
X16815420Y-15936079D01*
X16815420Y-15936079D02*
X16824944Y-15974174D01*
X16824944Y-15974174D02*
X16824944Y-16021793D01*
X16824944Y-16021793D02*
X16815420Y-16059888D01*
X16815420Y-16059888D02*
X16805896Y-16078936D01*
X16805896Y-16078936D02*
X16796372Y-16088460D01*
X16796372Y-16088460D02*
X16777325Y-16097984D01*
X16777325Y-16097984D02*
X16758277Y-16097984D01*
X16758277Y-16097984D02*
X16739229Y-16088460D01*
X16739229Y-16088460D02*
X16729706Y-16078936D01*
X16729706Y-16078936D02*
X16720182Y-16059888D01*
X16720182Y-16059888D02*
X16710658Y-16021793D01*
X16710658Y-16021793D02*
X16710658Y-15974174D01*
X16710658Y-15974174D02*
X16720182Y-15936079D01*
X16720182Y-15936079D02*
X16729706Y-15917031D01*
X16729706Y-15917031D02*
X16739229Y-15907508D01*
X16739229Y-15907508D02*
X16758277Y-15897984D01*
X16901134Y-15897984D02*
X16901134Y-15936079D01*
X16977325Y-15897984D02*
X16977325Y-15936079D01*
X17272563Y-16174174D02*
X17263039Y-16164650D01*
X17263039Y-16164650D02*
X17243991Y-16136079D01*
X17243991Y-16136079D02*
X17234468Y-16117031D01*
X17234468Y-16117031D02*
X17224944Y-16088460D01*
X17224944Y-16088460D02*
X17215420Y-16040841D01*
X17215420Y-16040841D02*
X17215420Y-16002746D01*
X17215420Y-16002746D02*
X17224944Y-15955127D01*
X17224944Y-15955127D02*
X17234468Y-15926555D01*
X17234468Y-15926555D02*
X17243991Y-15907508D01*
X17243991Y-15907508D02*
X17263039Y-15878936D01*
X17263039Y-15878936D02*
X17272563Y-15869412D01*
X17339230Y-15917031D02*
X17348753Y-15907508D01*
X17348753Y-15907508D02*
X17367801Y-15897984D01*
X17367801Y-15897984D02*
X17415420Y-15897984D01*
X17415420Y-15897984D02*
X17434468Y-15907508D01*
X17434468Y-15907508D02*
X17443991Y-15917031D01*
X17443991Y-15917031D02*
X17453515Y-15936079D01*
X17453515Y-15936079D02*
X17453515Y-15955127D01*
X17453515Y-15955127D02*
X17443991Y-15983698D01*
X17443991Y-15983698D02*
X17329706Y-16097984D01*
X17329706Y-16097984D02*
X17453515Y-16097984D01*
X17691611Y-16097984D02*
X17691611Y-15897984D01*
X17777325Y-16097984D02*
X17777325Y-15993222D01*
X17777325Y-15993222D02*
X17767801Y-15974174D01*
X17767801Y-15974174D02*
X17748753Y-15964650D01*
X17748753Y-15964650D02*
X17720182Y-15964650D01*
X17720182Y-15964650D02*
X17701134Y-15974174D01*
X17701134Y-15974174D02*
X17691611Y-15983698D01*
X17901134Y-16097984D02*
X17882087Y-16088460D01*
X17882087Y-16088460D02*
X17872563Y-16078936D01*
X17872563Y-16078936D02*
X17863039Y-16059888D01*
X17863039Y-16059888D02*
X17863039Y-16002746D01*
X17863039Y-16002746D02*
X17872563Y-15983698D01*
X17872563Y-15983698D02*
X17882087Y-15974174D01*
X17882087Y-15974174D02*
X17901134Y-15964650D01*
X17901134Y-15964650D02*
X17929706Y-15964650D01*
X17929706Y-15964650D02*
X17948753Y-15974174D01*
X17948753Y-15974174D02*
X17958277Y-15983698D01*
X17958277Y-15983698D02*
X17967801Y-16002746D01*
X17967801Y-16002746D02*
X17967801Y-16059888D01*
X17967801Y-16059888D02*
X17958277Y-16078936D01*
X17958277Y-16078936D02*
X17948753Y-16088460D01*
X17948753Y-16088460D02*
X17929706Y-16097984D01*
X17929706Y-16097984D02*
X17901134Y-16097984D01*
X18082087Y-16097984D02*
X18063039Y-16088460D01*
X18063039Y-16088460D02*
X18053515Y-16069412D01*
X18053515Y-16069412D02*
X18053515Y-15897984D01*
X18234468Y-16088460D02*
X18215420Y-16097984D01*
X18215420Y-16097984D02*
X18177325Y-16097984D01*
X18177325Y-16097984D02*
X18158277Y-16088460D01*
X18158277Y-16088460D02*
X18148753Y-16069412D01*
X18148753Y-16069412D02*
X18148753Y-15993222D01*
X18148753Y-15993222D02*
X18158277Y-15974174D01*
X18158277Y-15974174D02*
X18177325Y-15964650D01*
X18177325Y-15964650D02*
X18215420Y-15964650D01*
X18215420Y-15964650D02*
X18234468Y-15974174D01*
X18234468Y-15974174D02*
X18243992Y-15993222D01*
X18243992Y-15993222D02*
X18243992Y-16012269D01*
X18243992Y-16012269D02*
X18148753Y-16031317D01*
X18320182Y-16088460D02*
X18339230Y-16097984D01*
X18339230Y-16097984D02*
X18377325Y-16097984D01*
X18377325Y-16097984D02*
X18396373Y-16088460D01*
X18396373Y-16088460D02*
X18405896Y-16069412D01*
X18405896Y-16069412D02*
X18405896Y-16059888D01*
X18405896Y-16059888D02*
X18396373Y-16040841D01*
X18396373Y-16040841D02*
X18377325Y-16031317D01*
X18377325Y-16031317D02*
X18348753Y-16031317D01*
X18348753Y-16031317D02*
X18329706Y-16021793D01*
X18329706Y-16021793D02*
X18320182Y-16002746D01*
X18320182Y-16002746D02*
X18320182Y-15993222D01*
X18320182Y-15993222D02*
X18329706Y-15974174D01*
X18329706Y-15974174D02*
X18348753Y-15964650D01*
X18348753Y-15964650D02*
X18377325Y-15964650D01*
X18377325Y-15964650D02*
X18396373Y-15974174D01*
X18472563Y-16174174D02*
X18482087Y-16164650D01*
X18482087Y-16164650D02*
X18501134Y-16136079D01*
X18501134Y-16136079D02*
X18510658Y-16117031D01*
X18510658Y-16117031D02*
X18520182Y-16088460D01*
X18520182Y-16088460D02*
X18529706Y-16040841D01*
X18529706Y-16040841D02*
X18529706Y-16002746D01*
X18529706Y-16002746D02*
X18520182Y-15955127D01*
X18520182Y-15955127D02*
X18510658Y-15926555D01*
X18510658Y-15926555D02*
X18501134Y-15907508D01*
X18501134Y-15907508D02*
X18482087Y-15878936D01*
X18482087Y-15878936D02*
X18472563Y-15869412D01*
X18834468Y-16174174D02*
X18824944Y-16164650D01*
X18824944Y-16164650D02*
X18805896Y-16136079D01*
X18805896Y-16136079D02*
X18796373Y-16117031D01*
X18796373Y-16117031D02*
X18786849Y-16088460D01*
X18786849Y-16088460D02*
X18777325Y-16040841D01*
X18777325Y-16040841D02*
X18777325Y-16002746D01*
X18777325Y-16002746D02*
X18786849Y-15955127D01*
X18786849Y-15955127D02*
X18796373Y-15926555D01*
X18796373Y-15926555D02*
X18805896Y-15907508D01*
X18805896Y-15907508D02*
X18824944Y-15878936D01*
X18824944Y-15878936D02*
X18834468Y-15869412D01*
X18910658Y-15964650D02*
X18910658Y-16097984D01*
X18910658Y-15983698D02*
X18920182Y-15974174D01*
X18920182Y-15974174D02*
X18939230Y-15964650D01*
X18939230Y-15964650D02*
X18967801Y-15964650D01*
X18967801Y-15964650D02*
X18986849Y-15974174D01*
X18986849Y-15974174D02*
X18996373Y-15993222D01*
X18996373Y-15993222D02*
X18996373Y-16097984D01*
X19120182Y-16097984D02*
X19101134Y-16088460D01*
X19101134Y-16088460D02*
X19091611Y-16078936D01*
X19091611Y-16078936D02*
X19082087Y-16059888D01*
X19082087Y-16059888D02*
X19082087Y-16002746D01*
X19082087Y-16002746D02*
X19091611Y-15983698D01*
X19091611Y-15983698D02*
X19101134Y-15974174D01*
X19101134Y-15974174D02*
X19120182Y-15964650D01*
X19120182Y-15964650D02*
X19148754Y-15964650D01*
X19148754Y-15964650D02*
X19167801Y-15974174D01*
X19167801Y-15974174D02*
X19177325Y-15983698D01*
X19177325Y-15983698D02*
X19186849Y-16002746D01*
X19186849Y-16002746D02*
X19186849Y-16059888D01*
X19186849Y-16059888D02*
X19177325Y-16078936D01*
X19177325Y-16078936D02*
X19167801Y-16088460D01*
X19167801Y-16088460D02*
X19148754Y-16097984D01*
X19148754Y-16097984D02*
X19120182Y-16097984D01*
X19243992Y-15964650D02*
X19320182Y-15964650D01*
X19272563Y-15897984D02*
X19272563Y-16069412D01*
X19272563Y-16069412D02*
X19282087Y-16088460D01*
X19282087Y-16088460D02*
X19301134Y-16097984D01*
X19301134Y-16097984D02*
X19320182Y-16097984D01*
X19539230Y-15964650D02*
X19539230Y-16164650D01*
X19539230Y-15974174D02*
X19558277Y-15964650D01*
X19558277Y-15964650D02*
X19596373Y-15964650D01*
X19596373Y-15964650D02*
X19615420Y-15974174D01*
X19615420Y-15974174D02*
X19624944Y-15983698D01*
X19624944Y-15983698D02*
X19634468Y-16002746D01*
X19634468Y-16002746D02*
X19634468Y-16059888D01*
X19634468Y-16059888D02*
X19624944Y-16078936D01*
X19624944Y-16078936D02*
X19615420Y-16088460D01*
X19615420Y-16088460D02*
X19596373Y-16097984D01*
X19596373Y-16097984D02*
X19558277Y-16097984D01*
X19558277Y-16097984D02*
X19539230Y-16088460D01*
X19748754Y-16097984D02*
X19729706Y-16088460D01*
X19729706Y-16088460D02*
X19720182Y-16069412D01*
X19720182Y-16069412D02*
X19720182Y-15897984D01*
X19910658Y-16097984D02*
X19910658Y-15993222D01*
X19910658Y-15993222D02*
X19901135Y-15974174D01*
X19901135Y-15974174D02*
X19882087Y-15964650D01*
X19882087Y-15964650D02*
X19843992Y-15964650D01*
X19843992Y-15964650D02*
X19824944Y-15974174D01*
X19910658Y-16088460D02*
X19891611Y-16097984D01*
X19891611Y-16097984D02*
X19843992Y-16097984D01*
X19843992Y-16097984D02*
X19824944Y-16088460D01*
X19824944Y-16088460D02*
X19815420Y-16069412D01*
X19815420Y-16069412D02*
X19815420Y-16050365D01*
X19815420Y-16050365D02*
X19824944Y-16031317D01*
X19824944Y-16031317D02*
X19843992Y-16021793D01*
X19843992Y-16021793D02*
X19891611Y-16021793D01*
X19891611Y-16021793D02*
X19910658Y-16012269D01*
X19977325Y-15964650D02*
X20053515Y-15964650D01*
X20005896Y-15897984D02*
X20005896Y-16069412D01*
X20005896Y-16069412D02*
X20015420Y-16088460D01*
X20015420Y-16088460D02*
X20034468Y-16097984D01*
X20034468Y-16097984D02*
X20053515Y-16097984D01*
X20196373Y-16088460D02*
X20177325Y-16097984D01*
X20177325Y-16097984D02*
X20139230Y-16097984D01*
X20139230Y-16097984D02*
X20120182Y-16088460D01*
X20120182Y-16088460D02*
X20110658Y-16069412D01*
X20110658Y-16069412D02*
X20110658Y-15993222D01*
X20110658Y-15993222D02*
X20120182Y-15974174D01*
X20120182Y-15974174D02*
X20139230Y-15964650D01*
X20139230Y-15964650D02*
X20177325Y-15964650D01*
X20177325Y-15964650D02*
X20196373Y-15974174D01*
X20196373Y-15974174D02*
X20205896Y-15993222D01*
X20205896Y-15993222D02*
X20205896Y-16012269D01*
X20205896Y-16012269D02*
X20110658Y-16031317D01*
X20377325Y-16097984D02*
X20377325Y-15897984D01*
X20377325Y-16088460D02*
X20358277Y-16097984D01*
X20358277Y-16097984D02*
X20320182Y-16097984D01*
X20320182Y-16097984D02*
X20301135Y-16088460D01*
X20301135Y-16088460D02*
X20291611Y-16078936D01*
X20291611Y-16078936D02*
X20282087Y-16059888D01*
X20282087Y-16059888D02*
X20282087Y-16002746D01*
X20282087Y-16002746D02*
X20291611Y-15983698D01*
X20291611Y-15983698D02*
X20301135Y-15974174D01*
X20301135Y-15974174D02*
X20320182Y-15964650D01*
X20320182Y-15964650D02*
X20358277Y-15964650D01*
X20358277Y-15964650D02*
X20377325Y-15974174D01*
X20453516Y-16174174D02*
X20463039Y-16164650D01*
X20463039Y-16164650D02*
X20482087Y-16136079D01*
X20482087Y-16136079D02*
X20491611Y-16117031D01*
X20491611Y-16117031D02*
X20501135Y-16088460D01*
X20501135Y-16088460D02*
X20510658Y-16040841D01*
X20510658Y-16040841D02*
X20510658Y-16002746D01*
X20510658Y-16002746D02*
X20501135Y-15955127D01*
X20501135Y-15955127D02*
X20491611Y-15926555D01*
X20491611Y-15926555D02*
X20482087Y-15907508D01*
X20482087Y-15907508D02*
X20463039Y-15878936D01*
X20463039Y-15878936D02*
X20453516Y-15869412D01*
M02*
