%TF.GenerationSoftware,KiCad,Pcbnew,8.0.6-8.0.6-0~ubuntu24.04.1*%
%TF.CreationDate,2024-10-19T21:07:49+02:00*%
%TF.ProjectId,ESP_PLC,4553505f-504c-4432-9e6b-696361645f70,rev?*%
%TF.SameCoordinates,Original*%
%TF.FileFunction,Drillmap*%
%TF.FilePolarity,Positive*%
%FSLAX45Y45*%
G04 Gerber Fmt 4.5, Leading zero omitted, Abs format (unit mm)*
G04 Created by KiCad (PCBNEW 8.0.6-8.0.6-0~ubuntu24.04.1) date 2024-10-19 21:07:49*
%MOMM*%
%LPD*%
G01*
G04 APERTURE LIST*
%ADD10C,0.050000*%
%ADD11C,0.200000*%
%ADD12C,0.100000*%
%ADD13C,0.101600*%
%ADD14C,0.130000*%
%ADD15C,0.165100*%
%ADD16C,0.320000*%
G04 APERTURE END LIST*
D10*
X14200000Y-8100000D02*
X14200000Y-10400000D01*
X13700000Y-10900000D02*
X14200000Y-10400000D01*
X13700000Y-7600000D02*
X14200000Y-8100000D01*
X23200000Y-6700000D02*
X13700000Y-6700000D01*
X23200000Y-6700000D02*
X23200000Y-15100000D01*
X13700000Y-15100000D02*
X23200000Y-15100000D01*
X13700000Y-7600000D02*
X13700000Y-6700000D01*
X13700000Y-10900000D02*
X13700000Y-15100000D01*
D11*
D12*
X13875000Y-7615000D02*
X13905000Y-7645000D01*
X13905000Y-7615000D02*
X13875000Y-7645000D01*
X14275000Y-8285000D02*
X14305000Y-8315000D01*
X14305000Y-8285000D02*
X14275000Y-8315000D01*
X14275000Y-8509450D02*
X14305000Y-8539450D01*
X14305000Y-8509450D02*
X14275000Y-8539450D01*
X14275000Y-8709450D02*
X14305000Y-8739450D01*
X14305000Y-8709450D02*
X14275000Y-8739450D01*
X14275000Y-8909450D02*
X14305000Y-8939450D01*
X14305000Y-8909450D02*
X14275000Y-8939450D01*
X14275000Y-9109450D02*
X14305000Y-9139450D01*
X14305000Y-9109450D02*
X14275000Y-9139450D01*
X14275000Y-9309450D02*
X14305000Y-9339450D01*
X14305000Y-9309450D02*
X14275000Y-9339450D01*
X14275000Y-9509450D02*
X14305000Y-9539450D01*
X14305000Y-9509450D02*
X14275000Y-9539450D01*
X14275000Y-9709450D02*
X14305000Y-9739450D01*
X14305000Y-9709450D02*
X14275000Y-9739450D01*
X14275000Y-9909450D02*
X14305000Y-9939450D01*
X14305000Y-9909450D02*
X14275000Y-9939450D01*
X14285000Y-8035000D02*
X14315000Y-8065000D01*
X14315000Y-8035000D02*
X14285000Y-8065000D01*
X14316000Y-11420000D02*
X14346000Y-11450000D01*
X14346000Y-11420000D02*
X14316000Y-11450000D01*
X14325000Y-10775000D02*
X14355000Y-10805000D01*
X14355000Y-10775000D02*
X14325000Y-10805000D01*
X14465000Y-8265000D02*
X14495000Y-8295000D01*
X14495000Y-8265000D02*
X14465000Y-8295000D01*
X14475000Y-10525000D02*
X14505000Y-10555000D01*
X14505000Y-10525000D02*
X14475000Y-10555000D01*
X14555000Y-9795000D02*
X14585000Y-9825000D01*
X14585000Y-9795000D02*
X14555000Y-9825000D01*
X14575000Y-8265000D02*
X14605000Y-8295000D01*
X14605000Y-8265000D02*
X14575000Y-8295000D01*
X14600000Y-10420000D02*
X14630000Y-10450000D01*
X14630000Y-10420000D02*
X14600000Y-10450000D01*
X14610000Y-10295000D02*
X14640000Y-10325000D01*
X14640000Y-10295000D02*
X14610000Y-10325000D01*
X14645000Y-7635000D02*
X14675000Y-7665000D01*
X14675000Y-7635000D02*
X14645000Y-7665000D01*
X14705000Y-9775000D02*
X14735000Y-9805000D01*
X14735000Y-9775000D02*
X14705000Y-9805000D01*
X14715000Y-10285000D02*
X14745000Y-10315000D01*
X14745000Y-10285000D02*
X14715000Y-10315000D01*
X14755000Y-8269000D02*
X14785000Y-8299000D01*
X14785000Y-8269000D02*
X14755000Y-8299000D01*
X14810000Y-9044450D02*
X14840000Y-9074450D01*
X14840000Y-9044450D02*
X14810000Y-9074450D01*
X14810000Y-9209450D02*
X14840000Y-9239450D01*
X14840000Y-9209450D02*
X14810000Y-9239450D01*
X14810000Y-9374450D02*
X14840000Y-9404450D01*
X14840000Y-9374450D02*
X14810000Y-9404450D01*
X14815000Y-10285000D02*
X14845000Y-10315000D01*
X14845000Y-10285000D02*
X14815000Y-10315000D01*
X14825000Y-10475000D02*
X14855000Y-10505000D01*
X14855000Y-10475000D02*
X14825000Y-10505000D01*
X14845000Y-7925000D02*
X14875000Y-7955000D01*
X14875000Y-7925000D02*
X14845000Y-7955000D01*
X14885000Y-10015000D02*
X14915000Y-10045000D01*
X14915000Y-10015000D02*
X14885000Y-10045000D01*
X14971000Y-10779829D02*
X15001000Y-10809829D01*
X15001000Y-10779829D02*
X14971000Y-10809829D01*
X14975000Y-9044450D02*
X15005000Y-9074450D01*
X15005000Y-9044450D02*
X14975000Y-9074450D01*
X14975000Y-9209450D02*
X15005000Y-9239450D01*
X15005000Y-9209450D02*
X14975000Y-9239450D01*
X14975000Y-9374450D02*
X15005000Y-9404450D01*
X15005000Y-9374450D02*
X14975000Y-9404450D01*
X15105000Y-10295000D02*
X15135000Y-10325000D01*
X15135000Y-10295000D02*
X15105000Y-10325000D01*
X15140000Y-9044450D02*
X15170000Y-9074450D01*
X15170000Y-9044450D02*
X15140000Y-9074450D01*
X15140000Y-9209450D02*
X15170000Y-9239450D01*
X15170000Y-9209450D02*
X15140000Y-9239450D01*
X15140000Y-9374450D02*
X15170000Y-9404450D01*
X15170000Y-9374450D02*
X15140000Y-9404450D01*
X15236652Y-10168201D02*
X15266652Y-10198201D01*
X15266652Y-10168201D02*
X15236652Y-10198201D01*
X15295000Y-11430001D02*
X15325000Y-11460001D01*
X15325000Y-11430001D02*
X15295000Y-11460001D01*
X15335000Y-9549450D02*
X15365000Y-9579450D01*
X15365000Y-9549450D02*
X15335000Y-9579450D01*
X15365000Y-10390000D02*
X15395000Y-10420000D01*
X15395000Y-10390000D02*
X15365000Y-10420000D01*
X15565000Y-8375000D02*
X15595000Y-8405000D01*
X15595000Y-8375000D02*
X15565000Y-8405000D01*
X15635000Y-10360000D02*
X15665000Y-10390000D01*
X15665000Y-10360000D02*
X15635000Y-10390000D01*
X15675000Y-8509450D02*
X15705000Y-8539450D01*
X15705000Y-8509450D02*
X15675000Y-8539450D01*
X15675000Y-9909450D02*
X15705000Y-9939450D01*
X15705000Y-9909450D02*
X15675000Y-9939450D01*
X15675000Y-10050000D02*
X15705000Y-10080000D01*
X15705000Y-10050000D02*
X15675000Y-10080000D01*
X15795001Y-9804449D02*
X15825001Y-9834449D01*
X15825001Y-9804449D02*
X15795001Y-9834449D01*
X15843813Y-10009110D02*
X15873813Y-10039110D01*
X15873813Y-10009110D02*
X15843813Y-10039110D01*
X15877245Y-8696689D02*
X15907245Y-8726689D01*
X15907245Y-8696689D02*
X15877245Y-8726689D01*
X15900000Y-10365000D02*
X15930000Y-10395000D01*
X15930000Y-10365000D02*
X15900000Y-10395000D01*
X15904743Y-9696753D02*
X15934743Y-9726753D01*
X15934743Y-9696753D02*
X15904743Y-9726753D01*
X15915449Y-9946713D02*
X15945449Y-9976713D01*
X15945449Y-9946713D02*
X15915449Y-9976713D01*
X15991000Y-11405000D02*
X16021000Y-11435000D01*
X16021000Y-11405000D02*
X15991000Y-11435000D01*
X15995000Y-9695000D02*
X16025000Y-9725000D01*
X16025000Y-9695000D02*
X15995000Y-9725000D01*
X15995000Y-10660000D02*
X16025000Y-10690000D01*
X16025000Y-10660000D02*
X15995000Y-10690000D01*
X16004999Y-9915000D02*
X16034999Y-9945000D01*
X16034999Y-9915000D02*
X16004999Y-9945000D01*
X16026307Y-9494701D02*
X16056307Y-9524701D01*
X16056307Y-9494701D02*
X16026307Y-9524701D01*
X16035000Y-8115000D02*
X16065000Y-8145000D01*
X16065000Y-8115000D02*
X16035000Y-8145000D01*
X16100000Y-9415000D02*
X16130000Y-9445000D01*
X16130000Y-9415000D02*
X16100000Y-9445000D01*
X16165000Y-10295000D02*
X16195000Y-10325000D01*
X16195000Y-10295000D02*
X16165000Y-10325000D01*
X16175000Y-9335000D02*
X16205000Y-9365000D01*
X16205000Y-9335000D02*
X16175000Y-9365000D01*
X16655000Y-10775000D02*
X16685000Y-10805000D01*
X16685000Y-10775000D02*
X16655000Y-10805000D01*
X16805000Y-8005000D02*
X16835000Y-8035000D01*
X16835000Y-8005000D02*
X16805000Y-8035000D01*
X16990000Y-11435000D02*
X17020000Y-11465000D01*
X17020000Y-11435000D02*
X16990000Y-11465000D01*
X17692000Y-11405000D02*
X17722000Y-11435000D01*
X17722000Y-11405000D02*
X17692000Y-11435000D01*
X17710000Y-10610000D02*
X17740000Y-10640000D01*
X17740000Y-10610000D02*
X17710000Y-10640000D01*
X18258969Y-8910000D02*
X18288969Y-8940000D01*
X18288969Y-8910000D02*
X18258969Y-8940000D01*
X18355000Y-10775000D02*
X18385000Y-10805000D01*
X18385000Y-10775000D02*
X18355000Y-10805000D01*
X18356000Y-8910000D02*
X18386000Y-8940000D01*
X18386000Y-8910000D02*
X18356000Y-8940000D01*
X18500000Y-9185000D02*
X18530000Y-9215000D01*
X18530000Y-9185000D02*
X18500000Y-9215000D01*
X18690000Y-11435001D02*
X18720000Y-11465001D01*
X18720000Y-11435001D02*
X18690000Y-11465001D01*
X18830000Y-10565000D02*
X18860000Y-10595000D01*
X18860000Y-10565000D02*
X18830000Y-10595000D01*
X19241001Y-8550000D02*
X19271001Y-8580000D01*
X19271001Y-8550000D02*
X19241001Y-8580000D01*
X19381000Y-11395000D02*
X19411000Y-11425000D01*
X19411000Y-11395000D02*
X19381000Y-11425000D01*
X19385000Y-10775000D02*
X19415000Y-10805000D01*
X19415000Y-10775000D02*
X19385000Y-10805000D01*
X19815000Y-8465000D02*
X19845000Y-8495000D01*
X19845000Y-8465000D02*
X19815000Y-8495000D01*
X19875000Y-10630000D02*
X19905000Y-10660000D01*
X19905000Y-10630000D02*
X19875000Y-10660000D01*
X20075000Y-7975000D02*
X20105000Y-8005000D01*
X20105000Y-7975000D02*
X20075000Y-8005000D01*
X20145000Y-8245000D02*
X20175000Y-8275000D01*
X20175000Y-8245000D02*
X20145000Y-8275000D01*
X20225000Y-7975000D02*
X20255000Y-8005000D01*
X20255000Y-7975000D02*
X20225000Y-8005000D01*
X20375000Y-11430000D02*
X20405000Y-11460000D01*
X20405000Y-11430000D02*
X20375000Y-11460000D01*
X20435000Y-8465000D02*
X20465000Y-8495000D01*
X20465000Y-8465000D02*
X20435000Y-8495000D01*
X20550000Y-8840000D02*
X20580000Y-8870000D01*
X20580000Y-8840000D02*
X20550000Y-8870000D01*
X20635000Y-8325000D02*
X20665000Y-8355000D01*
X20665000Y-8325000D02*
X20635000Y-8355000D01*
X20885000Y-8345000D02*
X20915000Y-8375000D01*
X20915000Y-8345000D02*
X20885000Y-8375000D01*
X20902500Y-8922500D02*
X20932500Y-8952500D01*
X20932500Y-8922500D02*
X20902500Y-8952500D01*
X21015000Y-8345000D02*
X21045000Y-8375000D01*
X21045000Y-8345000D02*
X21015000Y-8375000D01*
X21085000Y-6895000D02*
X21115000Y-6925000D01*
X21115000Y-6895000D02*
X21085000Y-6925000D01*
X21085000Y-7885000D02*
X21115000Y-7915000D01*
X21115000Y-7885000D02*
X21085000Y-7915000D01*
X21225000Y-7555000D02*
X21255000Y-7585000D01*
X21255000Y-7555000D02*
X21225000Y-7585000D01*
X21340000Y-9270000D02*
X21370000Y-9300000D01*
X21370000Y-9270000D02*
X21340000Y-9300000D01*
X21365000Y-7655000D02*
X21395000Y-7685000D01*
X21395000Y-7655000D02*
X21365000Y-7685000D01*
X21480500Y-10895000D02*
X21510500Y-10925000D01*
X21510500Y-10895000D02*
X21480500Y-10925000D01*
X21555000Y-10503664D02*
X21585000Y-10533664D01*
X21585000Y-10503664D02*
X21555000Y-10533664D01*
X21644001Y-10374001D02*
X21674001Y-10404001D01*
X21674001Y-10374001D02*
X21644001Y-10404001D01*
X21705000Y-8612000D02*
X21735000Y-8642000D01*
X21735000Y-8612000D02*
X21705000Y-8642000D01*
X21841252Y-9860000D02*
X21871252Y-9890000D01*
X21871252Y-9860000D02*
X21841252Y-9890000D01*
X21885000Y-8502000D02*
X21915000Y-8532000D01*
X21915000Y-8502000D02*
X21885000Y-8532000D01*
X21931250Y-9800000D02*
X21961250Y-9830000D01*
X21961250Y-9800000D02*
X21931250Y-9830000D01*
X22045000Y-9855000D02*
X22075000Y-9885000D01*
X22075000Y-9855000D02*
X22045000Y-9885000D01*
X22045000Y-10375000D02*
X22075000Y-10405000D01*
X22075000Y-10375000D02*
X22045000Y-10405000D01*
X22055000Y-10585000D02*
X22085000Y-10615000D01*
X22085000Y-10585000D02*
X22055000Y-10615000D01*
X22070460Y-10190065D02*
X22100460Y-10220065D01*
X22100460Y-10190065D02*
X22070460Y-10220065D01*
X22145000Y-9765000D02*
X22175000Y-9795000D01*
X22175000Y-9765000D02*
X22145000Y-9795000D01*
X22180000Y-9285000D02*
X22210000Y-9315000D01*
X22210000Y-9285000D02*
X22180000Y-9315000D01*
X22255000Y-10255000D02*
X22285000Y-10285000D01*
X22285000Y-10255000D02*
X22255000Y-10285000D01*
X22279999Y-9825000D02*
X22309999Y-9855000D01*
X22309999Y-9825000D02*
X22279999Y-9855000D01*
X22311250Y-9560000D02*
X22341250Y-9590000D01*
X22341250Y-9560000D02*
X22311250Y-9590000D01*
X22335000Y-8465000D02*
X22365000Y-8495000D01*
X22365000Y-8465000D02*
X22335000Y-8495000D01*
X22355000Y-9325000D02*
X22385000Y-9355000D01*
X22385000Y-9325000D02*
X22355000Y-9355000D01*
X22426000Y-8945000D02*
X22456000Y-8975000D01*
X22456000Y-8945000D02*
X22426000Y-8975000D01*
X22455000Y-10295000D02*
X22485000Y-10325000D01*
X22485000Y-10295000D02*
X22455000Y-10325000D01*
X22465000Y-8702000D02*
X22495000Y-8732000D01*
X22495000Y-8702000D02*
X22465000Y-8732000D01*
X22475000Y-10025000D02*
X22505000Y-10055000D01*
X22505000Y-10025000D02*
X22475000Y-10055000D01*
X22535000Y-8995000D02*
X22565000Y-9025000D01*
X22565000Y-8995000D02*
X22535000Y-9025000D01*
X22555000Y-10235000D02*
X22585000Y-10265000D01*
X22585000Y-10235000D02*
X22555000Y-10265000D01*
X22679192Y-9691939D02*
X22709192Y-9721939D01*
X22709192Y-9691939D02*
X22679192Y-9721939D01*
X22685000Y-9885000D02*
X22715000Y-9915000D01*
X22715000Y-9885000D02*
X22685000Y-9915000D01*
X22705000Y-9365000D02*
X22735000Y-9395000D01*
X22735000Y-9365000D02*
X22705000Y-9395000D01*
X22915000Y-9245000D02*
X22945000Y-9275000D01*
X22945000Y-9245000D02*
X22915000Y-9275000D01*
X13893000Y-7030000D02*
G75*
G02*
X13833000Y-7030000I-30000J0D01*
G01*
X13833000Y-7030000D02*
G75*
G02*
X13893000Y-7030000I30000J0D01*
G01*
X13893000Y-7070000D02*
X13893000Y-6990000D01*
X13833000Y-6990000D02*
G75*
G02*
X13893000Y-6990000I30000J0D01*
G01*
X13833000Y-6990000D02*
X13833000Y-7070000D01*
X13833000Y-7070000D02*
G75*
G03*
X13893000Y-7070000I30000J0D01*
G01*
X13893000Y-7450000D02*
G75*
G02*
X13833000Y-7450000I-30000J0D01*
G01*
X13833000Y-7450000D02*
G75*
G02*
X13893000Y-7450000I30000J0D01*
G01*
X13893000Y-7505000D02*
X13893000Y-7395000D01*
X13833000Y-7395000D02*
G75*
G02*
X13893000Y-7395000I30000J0D01*
G01*
X13833000Y-7395000D02*
X13833000Y-7505000D01*
X13833000Y-7505000D02*
G75*
G03*
X13893000Y-7505000I30000J0D01*
G01*
X14757000Y-7030000D02*
G75*
G02*
X14697000Y-7030000I-30000J0D01*
G01*
X14697000Y-7030000D02*
G75*
G02*
X14757000Y-7030000I30000J0D01*
G01*
X14757000Y-7070000D02*
X14757000Y-6990000D01*
X14697000Y-6990000D02*
G75*
G02*
X14757000Y-6990000I30000J0D01*
G01*
X14697000Y-6990000D02*
X14697000Y-7070000D01*
X14697000Y-7070000D02*
G75*
G03*
X14757000Y-7070000I30000J0D01*
G01*
X14757000Y-7450000D02*
G75*
G02*
X14697000Y-7450000I-30000J0D01*
G01*
X14697000Y-7450000D02*
G75*
G02*
X14757000Y-7450000I30000J0D01*
G01*
X14757000Y-7505000D02*
X14757000Y-7395000D01*
X14697000Y-7395000D02*
G75*
G02*
X14757000Y-7395000I30000J0D01*
G01*
X14697000Y-7395000D02*
X14697000Y-7505000D01*
X14697000Y-7505000D02*
G75*
G03*
X14757000Y-7505000I30000J0D01*
G01*
X21546000Y-13459050D02*
X21546000Y-13547950D01*
X21501550Y-13503500D02*
X21590450Y-13503500D01*
X21673000Y-13205050D02*
X21673000Y-13293950D01*
X21628550Y-13249500D02*
X21717450Y-13249500D01*
X21800000Y-13459050D02*
X21800000Y-13547950D01*
X21755550Y-13503500D02*
X21844450Y-13503500D01*
X21927000Y-13205050D02*
X21927000Y-13293950D01*
X21882550Y-13249500D02*
X21971450Y-13249500D01*
X22054000Y-13459050D02*
X22054000Y-13547950D01*
X22009550Y-13503500D02*
X22098450Y-13503500D01*
X22181000Y-13205050D02*
X22181000Y-13293950D01*
X22136550Y-13249500D02*
X22225450Y-13249500D01*
X22308000Y-13459050D02*
X22308000Y-13547950D01*
X22263550Y-13503500D02*
X22352450Y-13503500D01*
X22435000Y-13205050D02*
X22435000Y-13293950D01*
X22390550Y-13249500D02*
X22479450Y-13249500D01*
X15100320Y-10986820D02*
X15100320Y-10923180D01*
X15036680Y-10923180D01*
X15036680Y-10986820D01*
X15100320Y-10986820D01*
X15354320Y-10986820D02*
X15354320Y-10923180D01*
X15290680Y-10923180D01*
X15290680Y-10986820D01*
X15354320Y-10986820D01*
X16786987Y-10986820D02*
X16786987Y-10923180D01*
X16723346Y-10923180D01*
X16723346Y-10986820D01*
X16786987Y-10986820D01*
X17040987Y-10986820D02*
X17040987Y-10923180D01*
X16977347Y-10923180D01*
X16977347Y-10986820D01*
X17040987Y-10986820D01*
X18473653Y-10986820D02*
X18473653Y-10923180D01*
X18410013Y-10923180D01*
X18410013Y-10986820D01*
X18473653Y-10986820D01*
X18727653Y-10986820D02*
X18727653Y-10923180D01*
X18664013Y-10923180D01*
X18664013Y-10986820D01*
X18727653Y-10986820D01*
X20160320Y-10986820D02*
X20160320Y-10923180D01*
X20096680Y-10923180D01*
X20096680Y-10986820D01*
X20160320Y-10986820D01*
X20414320Y-10986820D02*
X20414320Y-10923180D01*
X20350680Y-10923180D01*
X20350680Y-10986820D01*
X20414320Y-10986820D01*
X11830000Y-8380000D02*
X11880000Y-8330000D01*
X11830000Y-8280000D01*
X11780000Y-8330000D01*
X11830000Y-8380000D01*
X12084000Y-8380000D02*
X12134000Y-8330000D01*
X12084000Y-8280000D01*
X12034000Y-8330000D01*
X12084000Y-8380000D01*
X12338000Y-8380000D02*
X12388000Y-8330000D01*
X12338000Y-8280000D01*
X12288000Y-8330000D01*
X12338000Y-8380000D01*
X12592000Y-8380000D02*
X12642000Y-8330000D01*
X12592000Y-8280000D01*
X12542000Y-8330000D01*
X12592000Y-8380000D01*
D13*
X21309780Y-12152220D02*
X21411380Y-12253820D01*
X21411380Y-12152220D02*
X21309780Y-12253820D01*
X21411380Y-12203020D02*
G75*
G02*
X21309780Y-12203020I-50800J0D01*
G01*
X21309780Y-12203020D02*
G75*
G02*
X21411380Y-12203020I50800J0D01*
G01*
X21561240Y-12152220D02*
X21662840Y-12253820D01*
X21662840Y-12152220D02*
X21561240Y-12253820D01*
X21662840Y-12203020D02*
G75*
G02*
X21561240Y-12203020I-50800J0D01*
G01*
X21561240Y-12203020D02*
G75*
G02*
X21662840Y-12203020I50800J0D01*
G01*
X22320700Y-12152220D02*
X22422300Y-12253820D01*
X22422300Y-12152220D02*
X22320700Y-12253820D01*
X22422300Y-12203020D02*
G75*
G02*
X22320700Y-12203020I-50800J0D01*
G01*
X22320700Y-12203020D02*
G75*
G02*
X22422300Y-12203020I50800J0D01*
G01*
X22572160Y-12152220D02*
X22673760Y-12253820D01*
X22673760Y-12152220D02*
X22572160Y-12253820D01*
X22673760Y-12203020D02*
G75*
G02*
X22572160Y-12203020I-50800J0D01*
G01*
X22572160Y-12203020D02*
G75*
G02*
X22673760Y-12203020I50800J0D01*
G01*
D14*
X14071750Y-12076750D02*
X14201750Y-12206750D01*
X14201750Y-12076750D02*
X14071750Y-12206750D01*
X14136750Y-12076750D02*
X14136750Y-12206750D01*
X14071750Y-12141750D02*
X14201750Y-12141750D01*
X14071750Y-13296750D02*
X14201750Y-13426750D01*
X14201750Y-13296750D02*
X14071750Y-13426750D01*
X14136750Y-13296750D02*
X14136750Y-13426750D01*
X14071750Y-13361750D02*
X14201750Y-13361750D01*
X14300000Y-14574500D02*
X14430000Y-14704500D01*
X14430000Y-14574500D02*
X14300000Y-14704500D01*
X14365000Y-14574500D02*
X14365000Y-14704500D01*
X14300000Y-14639500D02*
X14430000Y-14639500D01*
X14671750Y-11876750D02*
X14801750Y-12006750D01*
X14801750Y-11876750D02*
X14671750Y-12006750D01*
X14736750Y-11876750D02*
X14736750Y-12006750D01*
X14671750Y-11941750D02*
X14801750Y-11941750D01*
X14800000Y-14574500D02*
X14930000Y-14704500D01*
X14930000Y-14574500D02*
X14800000Y-14704500D01*
X14865000Y-14574500D02*
X14865000Y-14704500D01*
X14800000Y-14639500D02*
X14930000Y-14639500D01*
X15115000Y-7105000D02*
X15245000Y-7235000D01*
X15245000Y-7105000D02*
X15115000Y-7235000D01*
X15180000Y-7105000D02*
X15180000Y-7235000D01*
X15115000Y-7170000D02*
X15245000Y-7170000D01*
X15271750Y-12076750D02*
X15401750Y-12206750D01*
X15401750Y-12076750D02*
X15271750Y-12206750D01*
X15336750Y-12076750D02*
X15336750Y-12206750D01*
X15271750Y-12141750D02*
X15401750Y-12141750D01*
X15271750Y-13296750D02*
X15401750Y-13426750D01*
X15401750Y-13296750D02*
X15271750Y-13426750D01*
X15336750Y-13296750D02*
X15336750Y-13426750D01*
X15271750Y-13361750D02*
X15401750Y-13361750D01*
X15615000Y-7105000D02*
X15745000Y-7235000D01*
X15745000Y-7105000D02*
X15615000Y-7235000D01*
X15680000Y-7105000D02*
X15680000Y-7235000D01*
X15615000Y-7170000D02*
X15745000Y-7170000D01*
X15753417Y-12076750D02*
X15883417Y-12206750D01*
X15883417Y-12076750D02*
X15753417Y-12206750D01*
X15818417Y-12076750D02*
X15818417Y-12206750D01*
X15753417Y-12141750D02*
X15883417Y-12141750D01*
X15753417Y-13296750D02*
X15883417Y-13426750D01*
X15883417Y-13296750D02*
X15753417Y-13426750D01*
X15818417Y-13296750D02*
X15818417Y-13426750D01*
X15753417Y-13361750D02*
X15883417Y-13361750D01*
X15980000Y-14579500D02*
X16110000Y-14709500D01*
X16110000Y-14579500D02*
X15980000Y-14709500D01*
X16045000Y-14579500D02*
X16045000Y-14709500D01*
X15980000Y-14644500D02*
X16110000Y-14644500D01*
X16115000Y-7105000D02*
X16245000Y-7235000D01*
X16245000Y-7105000D02*
X16115000Y-7235000D01*
X16180000Y-7105000D02*
X16180000Y-7235000D01*
X16115000Y-7170000D02*
X16245000Y-7170000D01*
X16353417Y-11876750D02*
X16483417Y-12006750D01*
X16483417Y-11876750D02*
X16353417Y-12006750D01*
X16418417Y-11876750D02*
X16418417Y-12006750D01*
X16353417Y-11941750D02*
X16483417Y-11941750D01*
X16480000Y-14579500D02*
X16610000Y-14709500D01*
X16610000Y-14579500D02*
X16480000Y-14709500D01*
X16545000Y-14579500D02*
X16545000Y-14709500D01*
X16480000Y-14644500D02*
X16610000Y-14644500D01*
X16615000Y-7105000D02*
X16745000Y-7235000D01*
X16745000Y-7105000D02*
X16615000Y-7235000D01*
X16680000Y-7105000D02*
X16680000Y-7235000D01*
X16615000Y-7170000D02*
X16745000Y-7170000D01*
X16953417Y-12076750D02*
X17083417Y-12206750D01*
X17083417Y-12076750D02*
X16953417Y-12206750D01*
X17018417Y-12076750D02*
X17018417Y-12206750D01*
X16953417Y-12141750D02*
X17083417Y-12141750D01*
X16953417Y-13296750D02*
X17083417Y-13426750D01*
X17083417Y-13296750D02*
X16953417Y-13426750D01*
X17018417Y-13296750D02*
X17018417Y-13426750D01*
X16953417Y-13361750D02*
X17083417Y-13361750D01*
X17115000Y-7105000D02*
X17245000Y-7235000D01*
X17245000Y-7105000D02*
X17115000Y-7235000D01*
X17180000Y-7105000D02*
X17180000Y-7235000D01*
X17115000Y-7170000D02*
X17245000Y-7170000D01*
X17435083Y-12076750D02*
X17565083Y-12206750D01*
X17565083Y-12076750D02*
X17435083Y-12206750D01*
X17500083Y-12076750D02*
X17500083Y-12206750D01*
X17435083Y-12141750D02*
X17565083Y-12141750D01*
X17435083Y-13296750D02*
X17565083Y-13426750D01*
X17565083Y-13296750D02*
X17435083Y-13426750D01*
X17500083Y-13296750D02*
X17500083Y-13426750D01*
X17435083Y-13361750D02*
X17565083Y-13361750D01*
X17615000Y-7105000D02*
X17745000Y-7235000D01*
X17745000Y-7105000D02*
X17615000Y-7235000D01*
X17680000Y-7105000D02*
X17680000Y-7235000D01*
X17615000Y-7170000D02*
X17745000Y-7170000D01*
X17660000Y-14574500D02*
X17790000Y-14704500D01*
X17790000Y-14574500D02*
X17660000Y-14704500D01*
X17725000Y-14574500D02*
X17725000Y-14704500D01*
X17660000Y-14639500D02*
X17790000Y-14639500D01*
X18035083Y-11876750D02*
X18165083Y-12006750D01*
X18165083Y-11876750D02*
X18035083Y-12006750D01*
X18100083Y-11876750D02*
X18100083Y-12006750D01*
X18035083Y-11941750D02*
X18165083Y-11941750D01*
X18115000Y-7105000D02*
X18245000Y-7235000D01*
X18245000Y-7105000D02*
X18115000Y-7235000D01*
X18180000Y-7105000D02*
X18180000Y-7235000D01*
X18115000Y-7170000D02*
X18245000Y-7170000D01*
X18160000Y-14574500D02*
X18290000Y-14704500D01*
X18290000Y-14574500D02*
X18160000Y-14704500D01*
X18225000Y-14574500D02*
X18225000Y-14704500D01*
X18160000Y-14639500D02*
X18290000Y-14639500D01*
X18615000Y-7105000D02*
X18745000Y-7235000D01*
X18745000Y-7105000D02*
X18615000Y-7235000D01*
X18680000Y-7105000D02*
X18680000Y-7235000D01*
X18615000Y-7170000D02*
X18745000Y-7170000D01*
X18635083Y-12076750D02*
X18765083Y-12206750D01*
X18765083Y-12076750D02*
X18635083Y-12206750D01*
X18700083Y-12076750D02*
X18700083Y-12206750D01*
X18635083Y-12141750D02*
X18765083Y-12141750D01*
X18635083Y-13296750D02*
X18765083Y-13426750D01*
X18765083Y-13296750D02*
X18635083Y-13426750D01*
X18700083Y-13296750D02*
X18700083Y-13426750D01*
X18635083Y-13361750D02*
X18765083Y-13361750D01*
X19115000Y-7105000D02*
X19245000Y-7235000D01*
X19245000Y-7105000D02*
X19115000Y-7235000D01*
X19180000Y-7105000D02*
X19180000Y-7235000D01*
X19115000Y-7170000D02*
X19245000Y-7170000D01*
X19116750Y-12076750D02*
X19246750Y-12206750D01*
X19246750Y-12076750D02*
X19116750Y-12206750D01*
X19181750Y-12076750D02*
X19181750Y-12206750D01*
X19116750Y-12141750D02*
X19246750Y-12141750D01*
X19116750Y-13296750D02*
X19246750Y-13426750D01*
X19246750Y-13296750D02*
X19116750Y-13426750D01*
X19181750Y-13296750D02*
X19181750Y-13426750D01*
X19116750Y-13361750D02*
X19246750Y-13361750D01*
X19340000Y-14576250D02*
X19470000Y-14706250D01*
X19470000Y-14576250D02*
X19340000Y-14706250D01*
X19405000Y-14576250D02*
X19405000Y-14706250D01*
X19340000Y-14641250D02*
X19470000Y-14641250D01*
X19615000Y-7105000D02*
X19745000Y-7235000D01*
X19745000Y-7105000D02*
X19615000Y-7235000D01*
X19680000Y-7105000D02*
X19680000Y-7235000D01*
X19615000Y-7170000D02*
X19745000Y-7170000D01*
X19716750Y-11876750D02*
X19846750Y-12006750D01*
X19846750Y-11876750D02*
X19716750Y-12006750D01*
X19781750Y-11876750D02*
X19781750Y-12006750D01*
X19716750Y-11941750D02*
X19846750Y-11941750D01*
X19840000Y-14576250D02*
X19970000Y-14706250D01*
X19970000Y-14576250D02*
X19840000Y-14706250D01*
X19905000Y-14576250D02*
X19905000Y-14706250D01*
X19840000Y-14641250D02*
X19970000Y-14641250D01*
X20115000Y-7105000D02*
X20245000Y-7235000D01*
X20245000Y-7105000D02*
X20115000Y-7235000D01*
X20180000Y-7105000D02*
X20180000Y-7235000D01*
X20115000Y-7170000D02*
X20245000Y-7170000D01*
X20316750Y-12076750D02*
X20446750Y-12206750D01*
X20446750Y-12076750D02*
X20316750Y-12206750D01*
X20381750Y-12076750D02*
X20381750Y-12206750D01*
X20316750Y-12141750D02*
X20446750Y-12141750D01*
X20316750Y-13296750D02*
X20446750Y-13426750D01*
X20446750Y-13296750D02*
X20316750Y-13426750D01*
X20381750Y-13296750D02*
X20381750Y-13426750D01*
X20316750Y-13361750D02*
X20446750Y-13361750D01*
X20615000Y-7105000D02*
X20745000Y-7235000D01*
X20745000Y-7105000D02*
X20615000Y-7235000D01*
X20680000Y-7105000D02*
X20680000Y-7235000D01*
X20615000Y-7170000D02*
X20745000Y-7170000D01*
X21805000Y-7115000D02*
X21935000Y-7245000D01*
X21935000Y-7115000D02*
X21805000Y-7245000D01*
X21870000Y-7115000D02*
X21870000Y-7245000D01*
X21805000Y-7180000D02*
X21935000Y-7180000D01*
X22305000Y-7115000D02*
X22435000Y-7245000D01*
X22435000Y-7115000D02*
X22305000Y-7245000D01*
X22370000Y-7115000D02*
X22370000Y-7245000D01*
X22305000Y-7180000D02*
X22435000Y-7180000D01*
X22805000Y-7115000D02*
X22935000Y-7245000D01*
X22935000Y-7115000D02*
X22805000Y-7245000D01*
X22870000Y-7115000D02*
X22870000Y-7245000D01*
X22805000Y-7180000D02*
X22935000Y-7180000D01*
D15*
X21120550Y-12920570D02*
X21285650Y-13085670D01*
X21285650Y-12920570D02*
X21120550Y-13085670D01*
X21261472Y-13061492D02*
X21261472Y-12944748D01*
X21144728Y-12944748D01*
X21144728Y-13061492D01*
X21261472Y-13061492D01*
X22695350Y-12920570D02*
X22860450Y-13085670D01*
X22860450Y-12920570D02*
X22695350Y-13085670D01*
X22836272Y-13061492D02*
X22836272Y-12944748D01*
X22719528Y-12944748D01*
X22719528Y-13061492D01*
X22836272Y-13061492D01*
D16*
X16340000Y-5680000D02*
X16660000Y-6000000D01*
X16660000Y-5680000D02*
X16340000Y-6000000D01*
X16500000Y-6000000D02*
X16660000Y-5840000D01*
X16500000Y-5680000D01*
X16340000Y-5840000D01*
X16500000Y-6000000D01*
X20340000Y-10240000D02*
X20660000Y-10560000D01*
X20660000Y-10240000D02*
X20340000Y-10560000D01*
X20500000Y-10560000D02*
X20660000Y-10400000D01*
X20500000Y-10240000D01*
X20340000Y-10400000D01*
X20500000Y-10560000D01*
X22590000Y-7840000D02*
X22910000Y-8160000D01*
X22910000Y-7840000D02*
X22590000Y-8160000D01*
X22750000Y-8160000D02*
X22910000Y-8000000D01*
X22750000Y-7840000D01*
X22590000Y-8000000D01*
X22750000Y-8160000D01*
X22595000Y-14500000D02*
X22915000Y-14820000D01*
X22915000Y-14500000D02*
X22595000Y-14820000D01*
X22755000Y-14820000D02*
X22915000Y-14660000D01*
X22755000Y-14500000D01*
X22595000Y-14660000D01*
X22755000Y-14820000D01*
D11*
X13958277Y-15413984D02*
X13958277Y-15213984D01*
X13958277Y-15213984D02*
X14005896Y-15213984D01*
X14005896Y-15213984D02*
X14034467Y-15223508D01*
X14034467Y-15223508D02*
X14053515Y-15242555D01*
X14053515Y-15242555D02*
X14063039Y-15261603D01*
X14063039Y-15261603D02*
X14072562Y-15299698D01*
X14072562Y-15299698D02*
X14072562Y-15328269D01*
X14072562Y-15328269D02*
X14063039Y-15366365D01*
X14063039Y-15366365D02*
X14053515Y-15385412D01*
X14053515Y-15385412D02*
X14034467Y-15404460D01*
X14034467Y-15404460D02*
X14005896Y-15413984D01*
X14005896Y-15413984D02*
X13958277Y-15413984D01*
X14158277Y-15413984D02*
X14158277Y-15280650D01*
X14158277Y-15318746D02*
X14167801Y-15299698D01*
X14167801Y-15299698D02*
X14177324Y-15290174D01*
X14177324Y-15290174D02*
X14196372Y-15280650D01*
X14196372Y-15280650D02*
X14215420Y-15280650D01*
X14282086Y-15413984D02*
X14282086Y-15280650D01*
X14282086Y-15213984D02*
X14272562Y-15223508D01*
X14272562Y-15223508D02*
X14282086Y-15233031D01*
X14282086Y-15233031D02*
X14291610Y-15223508D01*
X14291610Y-15223508D02*
X14282086Y-15213984D01*
X14282086Y-15213984D02*
X14282086Y-15233031D01*
X14405896Y-15413984D02*
X14386848Y-15404460D01*
X14386848Y-15404460D02*
X14377324Y-15385412D01*
X14377324Y-15385412D02*
X14377324Y-15213984D01*
X14510658Y-15413984D02*
X14491610Y-15404460D01*
X14491610Y-15404460D02*
X14482086Y-15385412D01*
X14482086Y-15385412D02*
X14482086Y-15213984D01*
X14739229Y-15413984D02*
X14739229Y-15213984D01*
X14739229Y-15213984D02*
X14805896Y-15356841D01*
X14805896Y-15356841D02*
X14872562Y-15213984D01*
X14872562Y-15213984D02*
X14872562Y-15413984D01*
X15053515Y-15413984D02*
X15053515Y-15309222D01*
X15053515Y-15309222D02*
X15043991Y-15290174D01*
X15043991Y-15290174D02*
X15024943Y-15280650D01*
X15024943Y-15280650D02*
X14986848Y-15280650D01*
X14986848Y-15280650D02*
X14967801Y-15290174D01*
X15053515Y-15404460D02*
X15034467Y-15413984D01*
X15034467Y-15413984D02*
X14986848Y-15413984D01*
X14986848Y-15413984D02*
X14967801Y-15404460D01*
X14967801Y-15404460D02*
X14958277Y-15385412D01*
X14958277Y-15385412D02*
X14958277Y-15366365D01*
X14958277Y-15366365D02*
X14967801Y-15347317D01*
X14967801Y-15347317D02*
X14986848Y-15337793D01*
X14986848Y-15337793D02*
X15034467Y-15337793D01*
X15034467Y-15337793D02*
X15053515Y-15328269D01*
X15148753Y-15280650D02*
X15148753Y-15480650D01*
X15148753Y-15290174D02*
X15167801Y-15280650D01*
X15167801Y-15280650D02*
X15205896Y-15280650D01*
X15205896Y-15280650D02*
X15224943Y-15290174D01*
X15224943Y-15290174D02*
X15234467Y-15299698D01*
X15234467Y-15299698D02*
X15243991Y-15318746D01*
X15243991Y-15318746D02*
X15243991Y-15375888D01*
X15243991Y-15375888D02*
X15234467Y-15394936D01*
X15234467Y-15394936D02*
X15224943Y-15404460D01*
X15224943Y-15404460D02*
X15205896Y-15413984D01*
X15205896Y-15413984D02*
X15167801Y-15413984D01*
X15167801Y-15413984D02*
X15148753Y-15404460D01*
X15329705Y-15394936D02*
X15339229Y-15404460D01*
X15339229Y-15404460D02*
X15329705Y-15413984D01*
X15329705Y-15413984D02*
X15320182Y-15404460D01*
X15320182Y-15404460D02*
X15329705Y-15394936D01*
X15329705Y-15394936D02*
X15329705Y-15413984D01*
X15329705Y-15290174D02*
X15339229Y-15299698D01*
X15339229Y-15299698D02*
X15329705Y-15309222D01*
X15329705Y-15309222D02*
X15320182Y-15299698D01*
X15320182Y-15299698D02*
X15329705Y-15290174D01*
X15329705Y-15290174D02*
X15329705Y-15309222D01*
D12*
X13667500Y-15727500D02*
X13697500Y-15757500D01*
X13697500Y-15727500D02*
X13667500Y-15757500D01*
D11*
X13996372Y-15633984D02*
X14015420Y-15633984D01*
X14015420Y-15633984D02*
X14034467Y-15643508D01*
X14034467Y-15643508D02*
X14043991Y-15653031D01*
X14043991Y-15653031D02*
X14053515Y-15672079D01*
X14053515Y-15672079D02*
X14063039Y-15710174D01*
X14063039Y-15710174D02*
X14063039Y-15757793D01*
X14063039Y-15757793D02*
X14053515Y-15795888D01*
X14053515Y-15795888D02*
X14043991Y-15814936D01*
X14043991Y-15814936D02*
X14034467Y-15824460D01*
X14034467Y-15824460D02*
X14015420Y-15833984D01*
X14015420Y-15833984D02*
X13996372Y-15833984D01*
X13996372Y-15833984D02*
X13977324Y-15824460D01*
X13977324Y-15824460D02*
X13967801Y-15814936D01*
X13967801Y-15814936D02*
X13958277Y-15795888D01*
X13958277Y-15795888D02*
X13948753Y-15757793D01*
X13948753Y-15757793D02*
X13948753Y-15710174D01*
X13948753Y-15710174D02*
X13958277Y-15672079D01*
X13958277Y-15672079D02*
X13967801Y-15653031D01*
X13967801Y-15653031D02*
X13977324Y-15643508D01*
X13977324Y-15643508D02*
X13996372Y-15633984D01*
X14148753Y-15814936D02*
X14158277Y-15824460D01*
X14158277Y-15824460D02*
X14148753Y-15833984D01*
X14148753Y-15833984D02*
X14139229Y-15824460D01*
X14139229Y-15824460D02*
X14148753Y-15814936D01*
X14148753Y-15814936D02*
X14148753Y-15833984D01*
X14224943Y-15633984D02*
X14348753Y-15633984D01*
X14348753Y-15633984D02*
X14282086Y-15710174D01*
X14282086Y-15710174D02*
X14310658Y-15710174D01*
X14310658Y-15710174D02*
X14329705Y-15719698D01*
X14329705Y-15719698D02*
X14339229Y-15729222D01*
X14339229Y-15729222D02*
X14348753Y-15748269D01*
X14348753Y-15748269D02*
X14348753Y-15795888D01*
X14348753Y-15795888D02*
X14339229Y-15814936D01*
X14339229Y-15814936D02*
X14329705Y-15824460D01*
X14329705Y-15824460D02*
X14310658Y-15833984D01*
X14310658Y-15833984D02*
X14253515Y-15833984D01*
X14253515Y-15833984D02*
X14234467Y-15824460D01*
X14234467Y-15824460D02*
X14224943Y-15814936D01*
X14472562Y-15633984D02*
X14491610Y-15633984D01*
X14491610Y-15633984D02*
X14510658Y-15643508D01*
X14510658Y-15643508D02*
X14520182Y-15653031D01*
X14520182Y-15653031D02*
X14529705Y-15672079D01*
X14529705Y-15672079D02*
X14539229Y-15710174D01*
X14539229Y-15710174D02*
X14539229Y-15757793D01*
X14539229Y-15757793D02*
X14529705Y-15795888D01*
X14529705Y-15795888D02*
X14520182Y-15814936D01*
X14520182Y-15814936D02*
X14510658Y-15824460D01*
X14510658Y-15824460D02*
X14491610Y-15833984D01*
X14491610Y-15833984D02*
X14472562Y-15833984D01*
X14472562Y-15833984D02*
X14453515Y-15824460D01*
X14453515Y-15824460D02*
X14443991Y-15814936D01*
X14443991Y-15814936D02*
X14434467Y-15795888D01*
X14434467Y-15795888D02*
X14424943Y-15757793D01*
X14424943Y-15757793D02*
X14424943Y-15710174D01*
X14424943Y-15710174D02*
X14434467Y-15672079D01*
X14434467Y-15672079D02*
X14443991Y-15653031D01*
X14443991Y-15653031D02*
X14453515Y-15643508D01*
X14453515Y-15643508D02*
X14472562Y-15633984D01*
X14663039Y-15633984D02*
X14682086Y-15633984D01*
X14682086Y-15633984D02*
X14701134Y-15643508D01*
X14701134Y-15643508D02*
X14710658Y-15653031D01*
X14710658Y-15653031D02*
X14720182Y-15672079D01*
X14720182Y-15672079D02*
X14729705Y-15710174D01*
X14729705Y-15710174D02*
X14729705Y-15757793D01*
X14729705Y-15757793D02*
X14720182Y-15795888D01*
X14720182Y-15795888D02*
X14710658Y-15814936D01*
X14710658Y-15814936D02*
X14701134Y-15824460D01*
X14701134Y-15824460D02*
X14682086Y-15833984D01*
X14682086Y-15833984D02*
X14663039Y-15833984D01*
X14663039Y-15833984D02*
X14643991Y-15824460D01*
X14643991Y-15824460D02*
X14634467Y-15814936D01*
X14634467Y-15814936D02*
X14624943Y-15795888D01*
X14624943Y-15795888D02*
X14615420Y-15757793D01*
X14615420Y-15757793D02*
X14615420Y-15710174D01*
X14615420Y-15710174D02*
X14624943Y-15672079D01*
X14624943Y-15672079D02*
X14634467Y-15653031D01*
X14634467Y-15653031D02*
X14643991Y-15643508D01*
X14643991Y-15643508D02*
X14663039Y-15633984D01*
X14815420Y-15833984D02*
X14815420Y-15700650D01*
X14815420Y-15719698D02*
X14824943Y-15710174D01*
X14824943Y-15710174D02*
X14843991Y-15700650D01*
X14843991Y-15700650D02*
X14872563Y-15700650D01*
X14872563Y-15700650D02*
X14891610Y-15710174D01*
X14891610Y-15710174D02*
X14901134Y-15729222D01*
X14901134Y-15729222D02*
X14901134Y-15833984D01*
X14901134Y-15729222D02*
X14910658Y-15710174D01*
X14910658Y-15710174D02*
X14929705Y-15700650D01*
X14929705Y-15700650D02*
X14958277Y-15700650D01*
X14958277Y-15700650D02*
X14977324Y-15710174D01*
X14977324Y-15710174D02*
X14986848Y-15729222D01*
X14986848Y-15729222D02*
X14986848Y-15833984D01*
X15082086Y-15833984D02*
X15082086Y-15700650D01*
X15082086Y-15719698D02*
X15091610Y-15710174D01*
X15091610Y-15710174D02*
X15110658Y-15700650D01*
X15110658Y-15700650D02*
X15139229Y-15700650D01*
X15139229Y-15700650D02*
X15158277Y-15710174D01*
X15158277Y-15710174D02*
X15167801Y-15729222D01*
X15167801Y-15729222D02*
X15167801Y-15833984D01*
X15167801Y-15729222D02*
X15177324Y-15710174D01*
X15177324Y-15710174D02*
X15196372Y-15700650D01*
X15196372Y-15700650D02*
X15224943Y-15700650D01*
X15224943Y-15700650D02*
X15243991Y-15710174D01*
X15243991Y-15710174D02*
X15253515Y-15729222D01*
X15253515Y-15729222D02*
X15253515Y-15833984D01*
X15643991Y-15624460D02*
X15472563Y-15881603D01*
X15901134Y-15633984D02*
X15920182Y-15633984D01*
X15920182Y-15633984D02*
X15939229Y-15643508D01*
X15939229Y-15643508D02*
X15948753Y-15653031D01*
X15948753Y-15653031D02*
X15958277Y-15672079D01*
X15958277Y-15672079D02*
X15967801Y-15710174D01*
X15967801Y-15710174D02*
X15967801Y-15757793D01*
X15967801Y-15757793D02*
X15958277Y-15795888D01*
X15958277Y-15795888D02*
X15948753Y-15814936D01*
X15948753Y-15814936D02*
X15939229Y-15824460D01*
X15939229Y-15824460D02*
X15920182Y-15833984D01*
X15920182Y-15833984D02*
X15901134Y-15833984D01*
X15901134Y-15833984D02*
X15882086Y-15824460D01*
X15882086Y-15824460D02*
X15872563Y-15814936D01*
X15872563Y-15814936D02*
X15863039Y-15795888D01*
X15863039Y-15795888D02*
X15853515Y-15757793D01*
X15853515Y-15757793D02*
X15853515Y-15710174D01*
X15853515Y-15710174D02*
X15863039Y-15672079D01*
X15863039Y-15672079D02*
X15872563Y-15653031D01*
X15872563Y-15653031D02*
X15882086Y-15643508D01*
X15882086Y-15643508D02*
X15901134Y-15633984D01*
X16053515Y-15814936D02*
X16063039Y-15824460D01*
X16063039Y-15824460D02*
X16053515Y-15833984D01*
X16053515Y-15833984D02*
X16043991Y-15824460D01*
X16043991Y-15824460D02*
X16053515Y-15814936D01*
X16053515Y-15814936D02*
X16053515Y-15833984D01*
X16186848Y-15633984D02*
X16205896Y-15633984D01*
X16205896Y-15633984D02*
X16224944Y-15643508D01*
X16224944Y-15643508D02*
X16234467Y-15653031D01*
X16234467Y-15653031D02*
X16243991Y-15672079D01*
X16243991Y-15672079D02*
X16253515Y-15710174D01*
X16253515Y-15710174D02*
X16253515Y-15757793D01*
X16253515Y-15757793D02*
X16243991Y-15795888D01*
X16243991Y-15795888D02*
X16234467Y-15814936D01*
X16234467Y-15814936D02*
X16224944Y-15824460D01*
X16224944Y-15824460D02*
X16205896Y-15833984D01*
X16205896Y-15833984D02*
X16186848Y-15833984D01*
X16186848Y-15833984D02*
X16167801Y-15824460D01*
X16167801Y-15824460D02*
X16158277Y-15814936D01*
X16158277Y-15814936D02*
X16148753Y-15795888D01*
X16148753Y-15795888D02*
X16139229Y-15757793D01*
X16139229Y-15757793D02*
X16139229Y-15710174D01*
X16139229Y-15710174D02*
X16148753Y-15672079D01*
X16148753Y-15672079D02*
X16158277Y-15653031D01*
X16158277Y-15653031D02*
X16167801Y-15643508D01*
X16167801Y-15643508D02*
X16186848Y-15633984D01*
X16443991Y-15833984D02*
X16329706Y-15833984D01*
X16386848Y-15833984D02*
X16386848Y-15633984D01*
X16386848Y-15633984D02*
X16367801Y-15662555D01*
X16367801Y-15662555D02*
X16348753Y-15681603D01*
X16348753Y-15681603D02*
X16329706Y-15691127D01*
X16634467Y-15833984D02*
X16520182Y-15833984D01*
X16577325Y-15833984D02*
X16577325Y-15633984D01*
X16577325Y-15633984D02*
X16558277Y-15662555D01*
X16558277Y-15662555D02*
X16539229Y-15681603D01*
X16539229Y-15681603D02*
X16520182Y-15691127D01*
X16748753Y-15719698D02*
X16729706Y-15710174D01*
X16729706Y-15710174D02*
X16720182Y-15700650D01*
X16720182Y-15700650D02*
X16710658Y-15681603D01*
X16710658Y-15681603D02*
X16710658Y-15672079D01*
X16710658Y-15672079D02*
X16720182Y-15653031D01*
X16720182Y-15653031D02*
X16729706Y-15643508D01*
X16729706Y-15643508D02*
X16748753Y-15633984D01*
X16748753Y-15633984D02*
X16786849Y-15633984D01*
X16786849Y-15633984D02*
X16805896Y-15643508D01*
X16805896Y-15643508D02*
X16815420Y-15653031D01*
X16815420Y-15653031D02*
X16824944Y-15672079D01*
X16824944Y-15672079D02*
X16824944Y-15681603D01*
X16824944Y-15681603D02*
X16815420Y-15700650D01*
X16815420Y-15700650D02*
X16805896Y-15710174D01*
X16805896Y-15710174D02*
X16786849Y-15719698D01*
X16786849Y-15719698D02*
X16748753Y-15719698D01*
X16748753Y-15719698D02*
X16729706Y-15729222D01*
X16729706Y-15729222D02*
X16720182Y-15738746D01*
X16720182Y-15738746D02*
X16710658Y-15757793D01*
X16710658Y-15757793D02*
X16710658Y-15795888D01*
X16710658Y-15795888D02*
X16720182Y-15814936D01*
X16720182Y-15814936D02*
X16729706Y-15824460D01*
X16729706Y-15824460D02*
X16748753Y-15833984D01*
X16748753Y-15833984D02*
X16786849Y-15833984D01*
X16786849Y-15833984D02*
X16805896Y-15824460D01*
X16805896Y-15824460D02*
X16815420Y-15814936D01*
X16815420Y-15814936D02*
X16824944Y-15795888D01*
X16824944Y-15795888D02*
X16824944Y-15757793D01*
X16824944Y-15757793D02*
X16815420Y-15738746D01*
X16815420Y-15738746D02*
X16805896Y-15729222D01*
X16805896Y-15729222D02*
X16786849Y-15719698D01*
X16901134Y-15633984D02*
X16901134Y-15672079D01*
X16977325Y-15633984D02*
X16977325Y-15672079D01*
X17272563Y-15910174D02*
X17263039Y-15900650D01*
X17263039Y-15900650D02*
X17243991Y-15872079D01*
X17243991Y-15872079D02*
X17234468Y-15853031D01*
X17234468Y-15853031D02*
X17224944Y-15824460D01*
X17224944Y-15824460D02*
X17215420Y-15776841D01*
X17215420Y-15776841D02*
X17215420Y-15738746D01*
X17215420Y-15738746D02*
X17224944Y-15691127D01*
X17224944Y-15691127D02*
X17234468Y-15662555D01*
X17234468Y-15662555D02*
X17243991Y-15643508D01*
X17243991Y-15643508D02*
X17263039Y-15614936D01*
X17263039Y-15614936D02*
X17272563Y-15605412D01*
X17453515Y-15833984D02*
X17339230Y-15833984D01*
X17396372Y-15833984D02*
X17396372Y-15633984D01*
X17396372Y-15633984D02*
X17377325Y-15662555D01*
X17377325Y-15662555D02*
X17358277Y-15681603D01*
X17358277Y-15681603D02*
X17339230Y-15691127D01*
X17529706Y-15653031D02*
X17539230Y-15643508D01*
X17539230Y-15643508D02*
X17558277Y-15633984D01*
X17558277Y-15633984D02*
X17605896Y-15633984D01*
X17605896Y-15633984D02*
X17624944Y-15643508D01*
X17624944Y-15643508D02*
X17634468Y-15653031D01*
X17634468Y-15653031D02*
X17643991Y-15672079D01*
X17643991Y-15672079D02*
X17643991Y-15691127D01*
X17643991Y-15691127D02*
X17634468Y-15719698D01*
X17634468Y-15719698D02*
X17520182Y-15833984D01*
X17520182Y-15833984D02*
X17643991Y-15833984D01*
X17834468Y-15833984D02*
X17720182Y-15833984D01*
X17777325Y-15833984D02*
X17777325Y-15633984D01*
X17777325Y-15633984D02*
X17758277Y-15662555D01*
X17758277Y-15662555D02*
X17739230Y-15681603D01*
X17739230Y-15681603D02*
X17720182Y-15691127D01*
X18072563Y-15833984D02*
X18072563Y-15633984D01*
X18158277Y-15833984D02*
X18158277Y-15729222D01*
X18158277Y-15729222D02*
X18148753Y-15710174D01*
X18148753Y-15710174D02*
X18129706Y-15700650D01*
X18129706Y-15700650D02*
X18101134Y-15700650D01*
X18101134Y-15700650D02*
X18082087Y-15710174D01*
X18082087Y-15710174D02*
X18072563Y-15719698D01*
X18282087Y-15833984D02*
X18263039Y-15824460D01*
X18263039Y-15824460D02*
X18253515Y-15814936D01*
X18253515Y-15814936D02*
X18243992Y-15795888D01*
X18243992Y-15795888D02*
X18243992Y-15738746D01*
X18243992Y-15738746D02*
X18253515Y-15719698D01*
X18253515Y-15719698D02*
X18263039Y-15710174D01*
X18263039Y-15710174D02*
X18282087Y-15700650D01*
X18282087Y-15700650D02*
X18310658Y-15700650D01*
X18310658Y-15700650D02*
X18329706Y-15710174D01*
X18329706Y-15710174D02*
X18339230Y-15719698D01*
X18339230Y-15719698D02*
X18348753Y-15738746D01*
X18348753Y-15738746D02*
X18348753Y-15795888D01*
X18348753Y-15795888D02*
X18339230Y-15814936D01*
X18339230Y-15814936D02*
X18329706Y-15824460D01*
X18329706Y-15824460D02*
X18310658Y-15833984D01*
X18310658Y-15833984D02*
X18282087Y-15833984D01*
X18463039Y-15833984D02*
X18443992Y-15824460D01*
X18443992Y-15824460D02*
X18434468Y-15805412D01*
X18434468Y-15805412D02*
X18434468Y-15633984D01*
X18615420Y-15824460D02*
X18596373Y-15833984D01*
X18596373Y-15833984D02*
X18558277Y-15833984D01*
X18558277Y-15833984D02*
X18539230Y-15824460D01*
X18539230Y-15824460D02*
X18529706Y-15805412D01*
X18529706Y-15805412D02*
X18529706Y-15729222D01*
X18529706Y-15729222D02*
X18539230Y-15710174D01*
X18539230Y-15710174D02*
X18558277Y-15700650D01*
X18558277Y-15700650D02*
X18596373Y-15700650D01*
X18596373Y-15700650D02*
X18615420Y-15710174D01*
X18615420Y-15710174D02*
X18624944Y-15729222D01*
X18624944Y-15729222D02*
X18624944Y-15748269D01*
X18624944Y-15748269D02*
X18529706Y-15767317D01*
X18701134Y-15824460D02*
X18720182Y-15833984D01*
X18720182Y-15833984D02*
X18758277Y-15833984D01*
X18758277Y-15833984D02*
X18777325Y-15824460D01*
X18777325Y-15824460D02*
X18786849Y-15805412D01*
X18786849Y-15805412D02*
X18786849Y-15795888D01*
X18786849Y-15795888D02*
X18777325Y-15776841D01*
X18777325Y-15776841D02*
X18758277Y-15767317D01*
X18758277Y-15767317D02*
X18729706Y-15767317D01*
X18729706Y-15767317D02*
X18710658Y-15757793D01*
X18710658Y-15757793D02*
X18701134Y-15738746D01*
X18701134Y-15738746D02*
X18701134Y-15729222D01*
X18701134Y-15729222D02*
X18710658Y-15710174D01*
X18710658Y-15710174D02*
X18729706Y-15700650D01*
X18729706Y-15700650D02*
X18758277Y-15700650D01*
X18758277Y-15700650D02*
X18777325Y-15710174D01*
X18853515Y-15910174D02*
X18863039Y-15900650D01*
X18863039Y-15900650D02*
X18882087Y-15872079D01*
X18882087Y-15872079D02*
X18891611Y-15853031D01*
X18891611Y-15853031D02*
X18901134Y-15824460D01*
X18901134Y-15824460D02*
X18910658Y-15776841D01*
X18910658Y-15776841D02*
X18910658Y-15738746D01*
X18910658Y-15738746D02*
X18901134Y-15691127D01*
X18901134Y-15691127D02*
X18891611Y-15662555D01*
X18891611Y-15662555D02*
X18882087Y-15643508D01*
X18882087Y-15643508D02*
X18863039Y-15614936D01*
X18863039Y-15614936D02*
X18853515Y-15605412D01*
D12*
X13697500Y-16006500D02*
G75*
G02*
X13637500Y-16006500I-30000J0D01*
G01*
X13637500Y-16006500D02*
G75*
G02*
X13697500Y-16006500I30000J0D01*
G01*
D11*
X13996372Y-15897984D02*
X14015420Y-15897984D01*
X14015420Y-15897984D02*
X14034467Y-15907508D01*
X14034467Y-15907508D02*
X14043991Y-15917031D01*
X14043991Y-15917031D02*
X14053515Y-15936079D01*
X14053515Y-15936079D02*
X14063039Y-15974174D01*
X14063039Y-15974174D02*
X14063039Y-16021793D01*
X14063039Y-16021793D02*
X14053515Y-16059888D01*
X14053515Y-16059888D02*
X14043991Y-16078936D01*
X14043991Y-16078936D02*
X14034467Y-16088460D01*
X14034467Y-16088460D02*
X14015420Y-16097984D01*
X14015420Y-16097984D02*
X13996372Y-16097984D01*
X13996372Y-16097984D02*
X13977324Y-16088460D01*
X13977324Y-16088460D02*
X13967801Y-16078936D01*
X13967801Y-16078936D02*
X13958277Y-16059888D01*
X13958277Y-16059888D02*
X13948753Y-16021793D01*
X13948753Y-16021793D02*
X13948753Y-15974174D01*
X13948753Y-15974174D02*
X13958277Y-15936079D01*
X13958277Y-15936079D02*
X13967801Y-15917031D01*
X13967801Y-15917031D02*
X13977324Y-15907508D01*
X13977324Y-15907508D02*
X13996372Y-15897984D01*
X14148753Y-16078936D02*
X14158277Y-16088460D01*
X14158277Y-16088460D02*
X14148753Y-16097984D01*
X14148753Y-16097984D02*
X14139229Y-16088460D01*
X14139229Y-16088460D02*
X14148753Y-16078936D01*
X14148753Y-16078936D02*
X14148753Y-16097984D01*
X14329705Y-15897984D02*
X14291610Y-15897984D01*
X14291610Y-15897984D02*
X14272562Y-15907508D01*
X14272562Y-15907508D02*
X14263039Y-15917031D01*
X14263039Y-15917031D02*
X14243991Y-15945603D01*
X14243991Y-15945603D02*
X14234467Y-15983698D01*
X14234467Y-15983698D02*
X14234467Y-16059888D01*
X14234467Y-16059888D02*
X14243991Y-16078936D01*
X14243991Y-16078936D02*
X14253515Y-16088460D01*
X14253515Y-16088460D02*
X14272562Y-16097984D01*
X14272562Y-16097984D02*
X14310658Y-16097984D01*
X14310658Y-16097984D02*
X14329705Y-16088460D01*
X14329705Y-16088460D02*
X14339229Y-16078936D01*
X14339229Y-16078936D02*
X14348753Y-16059888D01*
X14348753Y-16059888D02*
X14348753Y-16012269D01*
X14348753Y-16012269D02*
X14339229Y-15993222D01*
X14339229Y-15993222D02*
X14329705Y-15983698D01*
X14329705Y-15983698D02*
X14310658Y-15974174D01*
X14310658Y-15974174D02*
X14272562Y-15974174D01*
X14272562Y-15974174D02*
X14253515Y-15983698D01*
X14253515Y-15983698D02*
X14243991Y-15993222D01*
X14243991Y-15993222D02*
X14234467Y-16012269D01*
X14472562Y-15897984D02*
X14491610Y-15897984D01*
X14491610Y-15897984D02*
X14510658Y-15907508D01*
X14510658Y-15907508D02*
X14520182Y-15917031D01*
X14520182Y-15917031D02*
X14529705Y-15936079D01*
X14529705Y-15936079D02*
X14539229Y-15974174D01*
X14539229Y-15974174D02*
X14539229Y-16021793D01*
X14539229Y-16021793D02*
X14529705Y-16059888D01*
X14529705Y-16059888D02*
X14520182Y-16078936D01*
X14520182Y-16078936D02*
X14510658Y-16088460D01*
X14510658Y-16088460D02*
X14491610Y-16097984D01*
X14491610Y-16097984D02*
X14472562Y-16097984D01*
X14472562Y-16097984D02*
X14453515Y-16088460D01*
X14453515Y-16088460D02*
X14443991Y-16078936D01*
X14443991Y-16078936D02*
X14434467Y-16059888D01*
X14434467Y-16059888D02*
X14424943Y-16021793D01*
X14424943Y-16021793D02*
X14424943Y-15974174D01*
X14424943Y-15974174D02*
X14434467Y-15936079D01*
X14434467Y-15936079D02*
X14443991Y-15917031D01*
X14443991Y-15917031D02*
X14453515Y-15907508D01*
X14453515Y-15907508D02*
X14472562Y-15897984D01*
X14663039Y-15897984D02*
X14682086Y-15897984D01*
X14682086Y-15897984D02*
X14701134Y-15907508D01*
X14701134Y-15907508D02*
X14710658Y-15917031D01*
X14710658Y-15917031D02*
X14720182Y-15936079D01*
X14720182Y-15936079D02*
X14729705Y-15974174D01*
X14729705Y-15974174D02*
X14729705Y-16021793D01*
X14729705Y-16021793D02*
X14720182Y-16059888D01*
X14720182Y-16059888D02*
X14710658Y-16078936D01*
X14710658Y-16078936D02*
X14701134Y-16088460D01*
X14701134Y-16088460D02*
X14682086Y-16097984D01*
X14682086Y-16097984D02*
X14663039Y-16097984D01*
X14663039Y-16097984D02*
X14643991Y-16088460D01*
X14643991Y-16088460D02*
X14634467Y-16078936D01*
X14634467Y-16078936D02*
X14624943Y-16059888D01*
X14624943Y-16059888D02*
X14615420Y-16021793D01*
X14615420Y-16021793D02*
X14615420Y-15974174D01*
X14615420Y-15974174D02*
X14624943Y-15936079D01*
X14624943Y-15936079D02*
X14634467Y-15917031D01*
X14634467Y-15917031D02*
X14643991Y-15907508D01*
X14643991Y-15907508D02*
X14663039Y-15897984D01*
X14815420Y-16097984D02*
X14815420Y-15964650D01*
X14815420Y-15983698D02*
X14824943Y-15974174D01*
X14824943Y-15974174D02*
X14843991Y-15964650D01*
X14843991Y-15964650D02*
X14872563Y-15964650D01*
X14872563Y-15964650D02*
X14891610Y-15974174D01*
X14891610Y-15974174D02*
X14901134Y-15993222D01*
X14901134Y-15993222D02*
X14901134Y-16097984D01*
X14901134Y-15993222D02*
X14910658Y-15974174D01*
X14910658Y-15974174D02*
X14929705Y-15964650D01*
X14929705Y-15964650D02*
X14958277Y-15964650D01*
X14958277Y-15964650D02*
X14977324Y-15974174D01*
X14977324Y-15974174D02*
X14986848Y-15993222D01*
X14986848Y-15993222D02*
X14986848Y-16097984D01*
X15082086Y-16097984D02*
X15082086Y-15964650D01*
X15082086Y-15983698D02*
X15091610Y-15974174D01*
X15091610Y-15974174D02*
X15110658Y-15964650D01*
X15110658Y-15964650D02*
X15139229Y-15964650D01*
X15139229Y-15964650D02*
X15158277Y-15974174D01*
X15158277Y-15974174D02*
X15167801Y-15993222D01*
X15167801Y-15993222D02*
X15167801Y-16097984D01*
X15167801Y-15993222D02*
X15177324Y-15974174D01*
X15177324Y-15974174D02*
X15196372Y-15964650D01*
X15196372Y-15964650D02*
X15224943Y-15964650D01*
X15224943Y-15964650D02*
X15243991Y-15974174D01*
X15243991Y-15974174D02*
X15253515Y-15993222D01*
X15253515Y-15993222D02*
X15253515Y-16097984D01*
X15643991Y-15888460D02*
X15472563Y-16145603D01*
X15901134Y-15897984D02*
X15920182Y-15897984D01*
X15920182Y-15897984D02*
X15939229Y-15907508D01*
X15939229Y-15907508D02*
X15948753Y-15917031D01*
X15948753Y-15917031D02*
X15958277Y-15936079D01*
X15958277Y-15936079D02*
X15967801Y-15974174D01*
X15967801Y-15974174D02*
X15967801Y-16021793D01*
X15967801Y-16021793D02*
X15958277Y-16059888D01*
X15958277Y-16059888D02*
X15948753Y-16078936D01*
X15948753Y-16078936D02*
X15939229Y-16088460D01*
X15939229Y-16088460D02*
X15920182Y-16097984D01*
X15920182Y-16097984D02*
X15901134Y-16097984D01*
X15901134Y-16097984D02*
X15882086Y-16088460D01*
X15882086Y-16088460D02*
X15872563Y-16078936D01*
X15872563Y-16078936D02*
X15863039Y-16059888D01*
X15863039Y-16059888D02*
X15853515Y-16021793D01*
X15853515Y-16021793D02*
X15853515Y-15974174D01*
X15853515Y-15974174D02*
X15863039Y-15936079D01*
X15863039Y-15936079D02*
X15872563Y-15917031D01*
X15872563Y-15917031D02*
X15882086Y-15907508D01*
X15882086Y-15907508D02*
X15901134Y-15897984D01*
X16053515Y-16078936D02*
X16063039Y-16088460D01*
X16063039Y-16088460D02*
X16053515Y-16097984D01*
X16053515Y-16097984D02*
X16043991Y-16088460D01*
X16043991Y-16088460D02*
X16053515Y-16078936D01*
X16053515Y-16078936D02*
X16053515Y-16097984D01*
X16186848Y-15897984D02*
X16205896Y-15897984D01*
X16205896Y-15897984D02*
X16224944Y-15907508D01*
X16224944Y-15907508D02*
X16234467Y-15917031D01*
X16234467Y-15917031D02*
X16243991Y-15936079D01*
X16243991Y-15936079D02*
X16253515Y-15974174D01*
X16253515Y-15974174D02*
X16253515Y-16021793D01*
X16253515Y-16021793D02*
X16243991Y-16059888D01*
X16243991Y-16059888D02*
X16234467Y-16078936D01*
X16234467Y-16078936D02*
X16224944Y-16088460D01*
X16224944Y-16088460D02*
X16205896Y-16097984D01*
X16205896Y-16097984D02*
X16186848Y-16097984D01*
X16186848Y-16097984D02*
X16167801Y-16088460D01*
X16167801Y-16088460D02*
X16158277Y-16078936D01*
X16158277Y-16078936D02*
X16148753Y-16059888D01*
X16148753Y-16059888D02*
X16139229Y-16021793D01*
X16139229Y-16021793D02*
X16139229Y-15974174D01*
X16139229Y-15974174D02*
X16148753Y-15936079D01*
X16148753Y-15936079D02*
X16158277Y-15917031D01*
X16158277Y-15917031D02*
X16167801Y-15907508D01*
X16167801Y-15907508D02*
X16186848Y-15897984D01*
X16329706Y-15917031D02*
X16339229Y-15907508D01*
X16339229Y-15907508D02*
X16358277Y-15897984D01*
X16358277Y-15897984D02*
X16405896Y-15897984D01*
X16405896Y-15897984D02*
X16424944Y-15907508D01*
X16424944Y-15907508D02*
X16434467Y-15917031D01*
X16434467Y-15917031D02*
X16443991Y-15936079D01*
X16443991Y-15936079D02*
X16443991Y-15955127D01*
X16443991Y-15955127D02*
X16434467Y-15983698D01*
X16434467Y-15983698D02*
X16320182Y-16097984D01*
X16320182Y-16097984D02*
X16443991Y-16097984D01*
X16510658Y-15897984D02*
X16634467Y-15897984D01*
X16634467Y-15897984D02*
X16567801Y-15974174D01*
X16567801Y-15974174D02*
X16596372Y-15974174D01*
X16596372Y-15974174D02*
X16615420Y-15983698D01*
X16615420Y-15983698D02*
X16624944Y-15993222D01*
X16624944Y-15993222D02*
X16634467Y-16012269D01*
X16634467Y-16012269D02*
X16634467Y-16059888D01*
X16634467Y-16059888D02*
X16624944Y-16078936D01*
X16624944Y-16078936D02*
X16615420Y-16088460D01*
X16615420Y-16088460D02*
X16596372Y-16097984D01*
X16596372Y-16097984D02*
X16539229Y-16097984D01*
X16539229Y-16097984D02*
X16520182Y-16088460D01*
X16520182Y-16088460D02*
X16510658Y-16078936D01*
X16805896Y-15897984D02*
X16767801Y-15897984D01*
X16767801Y-15897984D02*
X16748753Y-15907508D01*
X16748753Y-15907508D02*
X16739229Y-15917031D01*
X16739229Y-15917031D02*
X16720182Y-15945603D01*
X16720182Y-15945603D02*
X16710658Y-15983698D01*
X16710658Y-15983698D02*
X16710658Y-16059888D01*
X16710658Y-16059888D02*
X16720182Y-16078936D01*
X16720182Y-16078936D02*
X16729706Y-16088460D01*
X16729706Y-16088460D02*
X16748753Y-16097984D01*
X16748753Y-16097984D02*
X16786849Y-16097984D01*
X16786849Y-16097984D02*
X16805896Y-16088460D01*
X16805896Y-16088460D02*
X16815420Y-16078936D01*
X16815420Y-16078936D02*
X16824944Y-16059888D01*
X16824944Y-16059888D02*
X16824944Y-16012269D01*
X16824944Y-16012269D02*
X16815420Y-15993222D01*
X16815420Y-15993222D02*
X16805896Y-15983698D01*
X16805896Y-15983698D02*
X16786849Y-15974174D01*
X16786849Y-15974174D02*
X16748753Y-15974174D01*
X16748753Y-15974174D02*
X16729706Y-15983698D01*
X16729706Y-15983698D02*
X16720182Y-15993222D01*
X16720182Y-15993222D02*
X16710658Y-16012269D01*
X16901134Y-15897984D02*
X16901134Y-15936079D01*
X16977325Y-15897984D02*
X16977325Y-15936079D01*
X17272563Y-16174174D02*
X17263039Y-16164650D01*
X17263039Y-16164650D02*
X17243991Y-16136079D01*
X17243991Y-16136079D02*
X17234468Y-16117031D01*
X17234468Y-16117031D02*
X17224944Y-16088460D01*
X17224944Y-16088460D02*
X17215420Y-16040841D01*
X17215420Y-16040841D02*
X17215420Y-16002746D01*
X17215420Y-16002746D02*
X17224944Y-15955127D01*
X17224944Y-15955127D02*
X17234468Y-15926555D01*
X17234468Y-15926555D02*
X17243991Y-15907508D01*
X17243991Y-15907508D02*
X17263039Y-15878936D01*
X17263039Y-15878936D02*
X17272563Y-15869412D01*
X17386849Y-15897984D02*
X17405896Y-15897984D01*
X17405896Y-15897984D02*
X17424944Y-15907508D01*
X17424944Y-15907508D02*
X17434468Y-15917031D01*
X17434468Y-15917031D02*
X17443991Y-15936079D01*
X17443991Y-15936079D02*
X17453515Y-15974174D01*
X17453515Y-15974174D02*
X17453515Y-16021793D01*
X17453515Y-16021793D02*
X17443991Y-16059888D01*
X17443991Y-16059888D02*
X17434468Y-16078936D01*
X17434468Y-16078936D02*
X17424944Y-16088460D01*
X17424944Y-16088460D02*
X17405896Y-16097984D01*
X17405896Y-16097984D02*
X17386849Y-16097984D01*
X17386849Y-16097984D02*
X17367801Y-16088460D01*
X17367801Y-16088460D02*
X17358277Y-16078936D01*
X17358277Y-16078936D02*
X17348753Y-16059888D01*
X17348753Y-16059888D02*
X17339230Y-16021793D01*
X17339230Y-16021793D02*
X17339230Y-15974174D01*
X17339230Y-15974174D02*
X17348753Y-15936079D01*
X17348753Y-15936079D02*
X17358277Y-15917031D01*
X17358277Y-15917031D02*
X17367801Y-15907508D01*
X17367801Y-15907508D02*
X17386849Y-15897984D01*
X17691611Y-16097984D02*
X17691611Y-15897984D01*
X17777325Y-16097984D02*
X17777325Y-15993222D01*
X17777325Y-15993222D02*
X17767801Y-15974174D01*
X17767801Y-15974174D02*
X17748753Y-15964650D01*
X17748753Y-15964650D02*
X17720182Y-15964650D01*
X17720182Y-15964650D02*
X17701134Y-15974174D01*
X17701134Y-15974174D02*
X17691611Y-15983698D01*
X17901134Y-16097984D02*
X17882087Y-16088460D01*
X17882087Y-16088460D02*
X17872563Y-16078936D01*
X17872563Y-16078936D02*
X17863039Y-16059888D01*
X17863039Y-16059888D02*
X17863039Y-16002746D01*
X17863039Y-16002746D02*
X17872563Y-15983698D01*
X17872563Y-15983698D02*
X17882087Y-15974174D01*
X17882087Y-15974174D02*
X17901134Y-15964650D01*
X17901134Y-15964650D02*
X17929706Y-15964650D01*
X17929706Y-15964650D02*
X17948753Y-15974174D01*
X17948753Y-15974174D02*
X17958277Y-15983698D01*
X17958277Y-15983698D02*
X17967801Y-16002746D01*
X17967801Y-16002746D02*
X17967801Y-16059888D01*
X17967801Y-16059888D02*
X17958277Y-16078936D01*
X17958277Y-16078936D02*
X17948753Y-16088460D01*
X17948753Y-16088460D02*
X17929706Y-16097984D01*
X17929706Y-16097984D02*
X17901134Y-16097984D01*
X18082087Y-16097984D02*
X18063039Y-16088460D01*
X18063039Y-16088460D02*
X18053515Y-16069412D01*
X18053515Y-16069412D02*
X18053515Y-15897984D01*
X18234468Y-16088460D02*
X18215420Y-16097984D01*
X18215420Y-16097984D02*
X18177325Y-16097984D01*
X18177325Y-16097984D02*
X18158277Y-16088460D01*
X18158277Y-16088460D02*
X18148753Y-16069412D01*
X18148753Y-16069412D02*
X18148753Y-15993222D01*
X18148753Y-15993222D02*
X18158277Y-15974174D01*
X18158277Y-15974174D02*
X18177325Y-15964650D01*
X18177325Y-15964650D02*
X18215420Y-15964650D01*
X18215420Y-15964650D02*
X18234468Y-15974174D01*
X18234468Y-15974174D02*
X18243992Y-15993222D01*
X18243992Y-15993222D02*
X18243992Y-16012269D01*
X18243992Y-16012269D02*
X18148753Y-16031317D01*
X18320182Y-16088460D02*
X18339230Y-16097984D01*
X18339230Y-16097984D02*
X18377325Y-16097984D01*
X18377325Y-16097984D02*
X18396373Y-16088460D01*
X18396373Y-16088460D02*
X18405896Y-16069412D01*
X18405896Y-16069412D02*
X18405896Y-16059888D01*
X18405896Y-16059888D02*
X18396373Y-16040841D01*
X18396373Y-16040841D02*
X18377325Y-16031317D01*
X18377325Y-16031317D02*
X18348753Y-16031317D01*
X18348753Y-16031317D02*
X18329706Y-16021793D01*
X18329706Y-16021793D02*
X18320182Y-16002746D01*
X18320182Y-16002746D02*
X18320182Y-15993222D01*
X18320182Y-15993222D02*
X18329706Y-15974174D01*
X18329706Y-15974174D02*
X18348753Y-15964650D01*
X18348753Y-15964650D02*
X18377325Y-15964650D01*
X18377325Y-15964650D02*
X18396373Y-15974174D01*
X18643992Y-16021793D02*
X18796373Y-16021793D01*
X18720182Y-16097984D02*
X18720182Y-15945603D01*
X19129706Y-15964650D02*
X19129706Y-16097984D01*
X19082087Y-15888460D02*
X19034468Y-16031317D01*
X19034468Y-16031317D02*
X19158277Y-16031317D01*
X19377325Y-16088460D02*
X19396373Y-16097984D01*
X19396373Y-16097984D02*
X19434468Y-16097984D01*
X19434468Y-16097984D02*
X19453516Y-16088460D01*
X19453516Y-16088460D02*
X19463039Y-16069412D01*
X19463039Y-16069412D02*
X19463039Y-16059888D01*
X19463039Y-16059888D02*
X19453516Y-16040841D01*
X19453516Y-16040841D02*
X19434468Y-16031317D01*
X19434468Y-16031317D02*
X19405896Y-16031317D01*
X19405896Y-16031317D02*
X19386849Y-16021793D01*
X19386849Y-16021793D02*
X19377325Y-16002746D01*
X19377325Y-16002746D02*
X19377325Y-15993222D01*
X19377325Y-15993222D02*
X19386849Y-15974174D01*
X19386849Y-15974174D02*
X19405896Y-15964650D01*
X19405896Y-15964650D02*
X19434468Y-15964650D01*
X19434468Y-15964650D02*
X19453516Y-15974174D01*
X19577325Y-16097984D02*
X19558277Y-16088460D01*
X19558277Y-16088460D02*
X19548754Y-16069412D01*
X19548754Y-16069412D02*
X19548754Y-15897984D01*
X19682087Y-16097984D02*
X19663039Y-16088460D01*
X19663039Y-16088460D02*
X19653516Y-16078936D01*
X19653516Y-16078936D02*
X19643992Y-16059888D01*
X19643992Y-16059888D02*
X19643992Y-16002746D01*
X19643992Y-16002746D02*
X19653516Y-15983698D01*
X19653516Y-15983698D02*
X19663039Y-15974174D01*
X19663039Y-15974174D02*
X19682087Y-15964650D01*
X19682087Y-15964650D02*
X19710658Y-15964650D01*
X19710658Y-15964650D02*
X19729706Y-15974174D01*
X19729706Y-15974174D02*
X19739230Y-15983698D01*
X19739230Y-15983698D02*
X19748754Y-16002746D01*
X19748754Y-16002746D02*
X19748754Y-16059888D01*
X19748754Y-16059888D02*
X19739230Y-16078936D01*
X19739230Y-16078936D02*
X19729706Y-16088460D01*
X19729706Y-16088460D02*
X19710658Y-16097984D01*
X19710658Y-16097984D02*
X19682087Y-16097984D01*
X19805897Y-15964650D02*
X19882087Y-15964650D01*
X19834468Y-15897984D02*
X19834468Y-16069412D01*
X19834468Y-16069412D02*
X19843992Y-16088460D01*
X19843992Y-16088460D02*
X19863039Y-16097984D01*
X19863039Y-16097984D02*
X19882087Y-16097984D01*
X19939230Y-16088460D02*
X19958277Y-16097984D01*
X19958277Y-16097984D02*
X19996373Y-16097984D01*
X19996373Y-16097984D02*
X20015420Y-16088460D01*
X20015420Y-16088460D02*
X20024944Y-16069412D01*
X20024944Y-16069412D02*
X20024944Y-16059888D01*
X20024944Y-16059888D02*
X20015420Y-16040841D01*
X20015420Y-16040841D02*
X19996373Y-16031317D01*
X19996373Y-16031317D02*
X19967801Y-16031317D01*
X19967801Y-16031317D02*
X19948754Y-16021793D01*
X19948754Y-16021793D02*
X19939230Y-16002746D01*
X19939230Y-16002746D02*
X19939230Y-15993222D01*
X19939230Y-15993222D02*
X19948754Y-15974174D01*
X19948754Y-15974174D02*
X19967801Y-15964650D01*
X19967801Y-15964650D02*
X19996373Y-15964650D01*
X19996373Y-15964650D02*
X20015420Y-15974174D01*
X20091611Y-16174174D02*
X20101135Y-16164650D01*
X20101135Y-16164650D02*
X20120182Y-16136079D01*
X20120182Y-16136079D02*
X20129706Y-16117031D01*
X20129706Y-16117031D02*
X20139230Y-16088460D01*
X20139230Y-16088460D02*
X20148754Y-16040841D01*
X20148754Y-16040841D02*
X20148754Y-16002746D01*
X20148754Y-16002746D02*
X20139230Y-15955127D01*
X20139230Y-15955127D02*
X20129706Y-15926555D01*
X20129706Y-15926555D02*
X20120182Y-15907508D01*
X20120182Y-15907508D02*
X20101135Y-15878936D01*
X20101135Y-15878936D02*
X20091611Y-15869412D01*
D12*
X13653050Y-16226050D02*
X13653050Y-16314950D01*
X13608600Y-16270500D02*
X13697500Y-16270500D01*
D11*
X13996372Y-16161984D02*
X14015420Y-16161984D01*
X14015420Y-16161984D02*
X14034467Y-16171508D01*
X14034467Y-16171508D02*
X14043991Y-16181031D01*
X14043991Y-16181031D02*
X14053515Y-16200079D01*
X14053515Y-16200079D02*
X14063039Y-16238174D01*
X14063039Y-16238174D02*
X14063039Y-16285793D01*
X14063039Y-16285793D02*
X14053515Y-16323888D01*
X14053515Y-16323888D02*
X14043991Y-16342936D01*
X14043991Y-16342936D02*
X14034467Y-16352460D01*
X14034467Y-16352460D02*
X14015420Y-16361984D01*
X14015420Y-16361984D02*
X13996372Y-16361984D01*
X13996372Y-16361984D02*
X13977324Y-16352460D01*
X13977324Y-16352460D02*
X13967801Y-16342936D01*
X13967801Y-16342936D02*
X13958277Y-16323888D01*
X13958277Y-16323888D02*
X13948753Y-16285793D01*
X13948753Y-16285793D02*
X13948753Y-16238174D01*
X13948753Y-16238174D02*
X13958277Y-16200079D01*
X13958277Y-16200079D02*
X13967801Y-16181031D01*
X13967801Y-16181031D02*
X13977324Y-16171508D01*
X13977324Y-16171508D02*
X13996372Y-16161984D01*
X14148753Y-16342936D02*
X14158277Y-16352460D01*
X14158277Y-16352460D02*
X14148753Y-16361984D01*
X14148753Y-16361984D02*
X14139229Y-16352460D01*
X14139229Y-16352460D02*
X14148753Y-16342936D01*
X14148753Y-16342936D02*
X14148753Y-16361984D01*
X14272562Y-16247698D02*
X14253515Y-16238174D01*
X14253515Y-16238174D02*
X14243991Y-16228650D01*
X14243991Y-16228650D02*
X14234467Y-16209603D01*
X14234467Y-16209603D02*
X14234467Y-16200079D01*
X14234467Y-16200079D02*
X14243991Y-16181031D01*
X14243991Y-16181031D02*
X14253515Y-16171508D01*
X14253515Y-16171508D02*
X14272562Y-16161984D01*
X14272562Y-16161984D02*
X14310658Y-16161984D01*
X14310658Y-16161984D02*
X14329705Y-16171508D01*
X14329705Y-16171508D02*
X14339229Y-16181031D01*
X14339229Y-16181031D02*
X14348753Y-16200079D01*
X14348753Y-16200079D02*
X14348753Y-16209603D01*
X14348753Y-16209603D02*
X14339229Y-16228650D01*
X14339229Y-16228650D02*
X14329705Y-16238174D01*
X14329705Y-16238174D02*
X14310658Y-16247698D01*
X14310658Y-16247698D02*
X14272562Y-16247698D01*
X14272562Y-16247698D02*
X14253515Y-16257222D01*
X14253515Y-16257222D02*
X14243991Y-16266746D01*
X14243991Y-16266746D02*
X14234467Y-16285793D01*
X14234467Y-16285793D02*
X14234467Y-16323888D01*
X14234467Y-16323888D02*
X14243991Y-16342936D01*
X14243991Y-16342936D02*
X14253515Y-16352460D01*
X14253515Y-16352460D02*
X14272562Y-16361984D01*
X14272562Y-16361984D02*
X14310658Y-16361984D01*
X14310658Y-16361984D02*
X14329705Y-16352460D01*
X14329705Y-16352460D02*
X14339229Y-16342936D01*
X14339229Y-16342936D02*
X14348753Y-16323888D01*
X14348753Y-16323888D02*
X14348753Y-16285793D01*
X14348753Y-16285793D02*
X14339229Y-16266746D01*
X14339229Y-16266746D02*
X14329705Y-16257222D01*
X14329705Y-16257222D02*
X14310658Y-16247698D01*
X14463039Y-16247698D02*
X14443991Y-16238174D01*
X14443991Y-16238174D02*
X14434467Y-16228650D01*
X14434467Y-16228650D02*
X14424943Y-16209603D01*
X14424943Y-16209603D02*
X14424943Y-16200079D01*
X14424943Y-16200079D02*
X14434467Y-16181031D01*
X14434467Y-16181031D02*
X14443991Y-16171508D01*
X14443991Y-16171508D02*
X14463039Y-16161984D01*
X14463039Y-16161984D02*
X14501134Y-16161984D01*
X14501134Y-16161984D02*
X14520182Y-16171508D01*
X14520182Y-16171508D02*
X14529705Y-16181031D01*
X14529705Y-16181031D02*
X14539229Y-16200079D01*
X14539229Y-16200079D02*
X14539229Y-16209603D01*
X14539229Y-16209603D02*
X14529705Y-16228650D01*
X14529705Y-16228650D02*
X14520182Y-16238174D01*
X14520182Y-16238174D02*
X14501134Y-16247698D01*
X14501134Y-16247698D02*
X14463039Y-16247698D01*
X14463039Y-16247698D02*
X14443991Y-16257222D01*
X14443991Y-16257222D02*
X14434467Y-16266746D01*
X14434467Y-16266746D02*
X14424943Y-16285793D01*
X14424943Y-16285793D02*
X14424943Y-16323888D01*
X14424943Y-16323888D02*
X14434467Y-16342936D01*
X14434467Y-16342936D02*
X14443991Y-16352460D01*
X14443991Y-16352460D02*
X14463039Y-16361984D01*
X14463039Y-16361984D02*
X14501134Y-16361984D01*
X14501134Y-16361984D02*
X14520182Y-16352460D01*
X14520182Y-16352460D02*
X14529705Y-16342936D01*
X14529705Y-16342936D02*
X14539229Y-16323888D01*
X14539229Y-16323888D02*
X14539229Y-16285793D01*
X14539229Y-16285793D02*
X14529705Y-16266746D01*
X14529705Y-16266746D02*
X14520182Y-16257222D01*
X14520182Y-16257222D02*
X14501134Y-16247698D01*
X14634467Y-16361984D02*
X14672562Y-16361984D01*
X14672562Y-16361984D02*
X14691610Y-16352460D01*
X14691610Y-16352460D02*
X14701134Y-16342936D01*
X14701134Y-16342936D02*
X14720182Y-16314365D01*
X14720182Y-16314365D02*
X14729705Y-16276269D01*
X14729705Y-16276269D02*
X14729705Y-16200079D01*
X14729705Y-16200079D02*
X14720182Y-16181031D01*
X14720182Y-16181031D02*
X14710658Y-16171508D01*
X14710658Y-16171508D02*
X14691610Y-16161984D01*
X14691610Y-16161984D02*
X14653515Y-16161984D01*
X14653515Y-16161984D02*
X14634467Y-16171508D01*
X14634467Y-16171508D02*
X14624943Y-16181031D01*
X14624943Y-16181031D02*
X14615420Y-16200079D01*
X14615420Y-16200079D02*
X14615420Y-16247698D01*
X14615420Y-16247698D02*
X14624943Y-16266746D01*
X14624943Y-16266746D02*
X14634467Y-16276269D01*
X14634467Y-16276269D02*
X14653515Y-16285793D01*
X14653515Y-16285793D02*
X14691610Y-16285793D01*
X14691610Y-16285793D02*
X14710658Y-16276269D01*
X14710658Y-16276269D02*
X14720182Y-16266746D01*
X14720182Y-16266746D02*
X14729705Y-16247698D01*
X14815420Y-16361984D02*
X14815420Y-16228650D01*
X14815420Y-16247698D02*
X14824943Y-16238174D01*
X14824943Y-16238174D02*
X14843991Y-16228650D01*
X14843991Y-16228650D02*
X14872563Y-16228650D01*
X14872563Y-16228650D02*
X14891610Y-16238174D01*
X14891610Y-16238174D02*
X14901134Y-16257222D01*
X14901134Y-16257222D02*
X14901134Y-16361984D01*
X14901134Y-16257222D02*
X14910658Y-16238174D01*
X14910658Y-16238174D02*
X14929705Y-16228650D01*
X14929705Y-16228650D02*
X14958277Y-16228650D01*
X14958277Y-16228650D02*
X14977324Y-16238174D01*
X14977324Y-16238174D02*
X14986848Y-16257222D01*
X14986848Y-16257222D02*
X14986848Y-16361984D01*
X15082086Y-16361984D02*
X15082086Y-16228650D01*
X15082086Y-16247698D02*
X15091610Y-16238174D01*
X15091610Y-16238174D02*
X15110658Y-16228650D01*
X15110658Y-16228650D02*
X15139229Y-16228650D01*
X15139229Y-16228650D02*
X15158277Y-16238174D01*
X15158277Y-16238174D02*
X15167801Y-16257222D01*
X15167801Y-16257222D02*
X15167801Y-16361984D01*
X15167801Y-16257222D02*
X15177324Y-16238174D01*
X15177324Y-16238174D02*
X15196372Y-16228650D01*
X15196372Y-16228650D02*
X15224943Y-16228650D01*
X15224943Y-16228650D02*
X15243991Y-16238174D01*
X15243991Y-16238174D02*
X15253515Y-16257222D01*
X15253515Y-16257222D02*
X15253515Y-16361984D01*
X15643991Y-16152460D02*
X15472563Y-16409603D01*
X15901134Y-16161984D02*
X15920182Y-16161984D01*
X15920182Y-16161984D02*
X15939229Y-16171508D01*
X15939229Y-16171508D02*
X15948753Y-16181031D01*
X15948753Y-16181031D02*
X15958277Y-16200079D01*
X15958277Y-16200079D02*
X15967801Y-16238174D01*
X15967801Y-16238174D02*
X15967801Y-16285793D01*
X15967801Y-16285793D02*
X15958277Y-16323888D01*
X15958277Y-16323888D02*
X15948753Y-16342936D01*
X15948753Y-16342936D02*
X15939229Y-16352460D01*
X15939229Y-16352460D02*
X15920182Y-16361984D01*
X15920182Y-16361984D02*
X15901134Y-16361984D01*
X15901134Y-16361984D02*
X15882086Y-16352460D01*
X15882086Y-16352460D02*
X15872563Y-16342936D01*
X15872563Y-16342936D02*
X15863039Y-16323888D01*
X15863039Y-16323888D02*
X15853515Y-16285793D01*
X15853515Y-16285793D02*
X15853515Y-16238174D01*
X15853515Y-16238174D02*
X15863039Y-16200079D01*
X15863039Y-16200079D02*
X15872563Y-16181031D01*
X15872563Y-16181031D02*
X15882086Y-16171508D01*
X15882086Y-16171508D02*
X15901134Y-16161984D01*
X16053515Y-16342936D02*
X16063039Y-16352460D01*
X16063039Y-16352460D02*
X16053515Y-16361984D01*
X16053515Y-16361984D02*
X16043991Y-16352460D01*
X16043991Y-16352460D02*
X16053515Y-16342936D01*
X16053515Y-16342936D02*
X16053515Y-16361984D01*
X16186848Y-16161984D02*
X16205896Y-16161984D01*
X16205896Y-16161984D02*
X16224944Y-16171508D01*
X16224944Y-16171508D02*
X16234467Y-16181031D01*
X16234467Y-16181031D02*
X16243991Y-16200079D01*
X16243991Y-16200079D02*
X16253515Y-16238174D01*
X16253515Y-16238174D02*
X16253515Y-16285793D01*
X16253515Y-16285793D02*
X16243991Y-16323888D01*
X16243991Y-16323888D02*
X16234467Y-16342936D01*
X16234467Y-16342936D02*
X16224944Y-16352460D01*
X16224944Y-16352460D02*
X16205896Y-16361984D01*
X16205896Y-16361984D02*
X16186848Y-16361984D01*
X16186848Y-16361984D02*
X16167801Y-16352460D01*
X16167801Y-16352460D02*
X16158277Y-16342936D01*
X16158277Y-16342936D02*
X16148753Y-16323888D01*
X16148753Y-16323888D02*
X16139229Y-16285793D01*
X16139229Y-16285793D02*
X16139229Y-16238174D01*
X16139229Y-16238174D02*
X16148753Y-16200079D01*
X16148753Y-16200079D02*
X16158277Y-16181031D01*
X16158277Y-16181031D02*
X16167801Y-16171508D01*
X16167801Y-16171508D02*
X16186848Y-16161984D01*
X16320182Y-16161984D02*
X16443991Y-16161984D01*
X16443991Y-16161984D02*
X16377325Y-16238174D01*
X16377325Y-16238174D02*
X16405896Y-16238174D01*
X16405896Y-16238174D02*
X16424944Y-16247698D01*
X16424944Y-16247698D02*
X16434467Y-16257222D01*
X16434467Y-16257222D02*
X16443991Y-16276269D01*
X16443991Y-16276269D02*
X16443991Y-16323888D01*
X16443991Y-16323888D02*
X16434467Y-16342936D01*
X16434467Y-16342936D02*
X16424944Y-16352460D01*
X16424944Y-16352460D02*
X16405896Y-16361984D01*
X16405896Y-16361984D02*
X16348753Y-16361984D01*
X16348753Y-16361984D02*
X16329706Y-16352460D01*
X16329706Y-16352460D02*
X16320182Y-16342936D01*
X16624944Y-16161984D02*
X16529706Y-16161984D01*
X16529706Y-16161984D02*
X16520182Y-16257222D01*
X16520182Y-16257222D02*
X16529706Y-16247698D01*
X16529706Y-16247698D02*
X16548753Y-16238174D01*
X16548753Y-16238174D02*
X16596372Y-16238174D01*
X16596372Y-16238174D02*
X16615420Y-16247698D01*
X16615420Y-16247698D02*
X16624944Y-16257222D01*
X16624944Y-16257222D02*
X16634467Y-16276269D01*
X16634467Y-16276269D02*
X16634467Y-16323888D01*
X16634467Y-16323888D02*
X16624944Y-16342936D01*
X16624944Y-16342936D02*
X16615420Y-16352460D01*
X16615420Y-16352460D02*
X16596372Y-16361984D01*
X16596372Y-16361984D02*
X16548753Y-16361984D01*
X16548753Y-16361984D02*
X16529706Y-16352460D01*
X16529706Y-16352460D02*
X16520182Y-16342936D01*
X16758277Y-16161984D02*
X16777325Y-16161984D01*
X16777325Y-16161984D02*
X16796372Y-16171508D01*
X16796372Y-16171508D02*
X16805896Y-16181031D01*
X16805896Y-16181031D02*
X16815420Y-16200079D01*
X16815420Y-16200079D02*
X16824944Y-16238174D01*
X16824944Y-16238174D02*
X16824944Y-16285793D01*
X16824944Y-16285793D02*
X16815420Y-16323888D01*
X16815420Y-16323888D02*
X16805896Y-16342936D01*
X16805896Y-16342936D02*
X16796372Y-16352460D01*
X16796372Y-16352460D02*
X16777325Y-16361984D01*
X16777325Y-16361984D02*
X16758277Y-16361984D01*
X16758277Y-16361984D02*
X16739229Y-16352460D01*
X16739229Y-16352460D02*
X16729706Y-16342936D01*
X16729706Y-16342936D02*
X16720182Y-16323888D01*
X16720182Y-16323888D02*
X16710658Y-16285793D01*
X16710658Y-16285793D02*
X16710658Y-16238174D01*
X16710658Y-16238174D02*
X16720182Y-16200079D01*
X16720182Y-16200079D02*
X16729706Y-16181031D01*
X16729706Y-16181031D02*
X16739229Y-16171508D01*
X16739229Y-16171508D02*
X16758277Y-16161984D01*
X16901134Y-16161984D02*
X16901134Y-16200079D01*
X16977325Y-16161984D02*
X16977325Y-16200079D01*
X17272563Y-16438174D02*
X17263039Y-16428650D01*
X17263039Y-16428650D02*
X17243991Y-16400079D01*
X17243991Y-16400079D02*
X17234468Y-16381031D01*
X17234468Y-16381031D02*
X17224944Y-16352460D01*
X17224944Y-16352460D02*
X17215420Y-16304841D01*
X17215420Y-16304841D02*
X17215420Y-16266746D01*
X17215420Y-16266746D02*
X17224944Y-16219127D01*
X17224944Y-16219127D02*
X17234468Y-16190555D01*
X17234468Y-16190555D02*
X17243991Y-16171508D01*
X17243991Y-16171508D02*
X17263039Y-16142936D01*
X17263039Y-16142936D02*
X17272563Y-16133412D01*
X17377325Y-16247698D02*
X17358277Y-16238174D01*
X17358277Y-16238174D02*
X17348753Y-16228650D01*
X17348753Y-16228650D02*
X17339230Y-16209603D01*
X17339230Y-16209603D02*
X17339230Y-16200079D01*
X17339230Y-16200079D02*
X17348753Y-16181031D01*
X17348753Y-16181031D02*
X17358277Y-16171508D01*
X17358277Y-16171508D02*
X17377325Y-16161984D01*
X17377325Y-16161984D02*
X17415420Y-16161984D01*
X17415420Y-16161984D02*
X17434468Y-16171508D01*
X17434468Y-16171508D02*
X17443991Y-16181031D01*
X17443991Y-16181031D02*
X17453515Y-16200079D01*
X17453515Y-16200079D02*
X17453515Y-16209603D01*
X17453515Y-16209603D02*
X17443991Y-16228650D01*
X17443991Y-16228650D02*
X17434468Y-16238174D01*
X17434468Y-16238174D02*
X17415420Y-16247698D01*
X17415420Y-16247698D02*
X17377325Y-16247698D01*
X17377325Y-16247698D02*
X17358277Y-16257222D01*
X17358277Y-16257222D02*
X17348753Y-16266746D01*
X17348753Y-16266746D02*
X17339230Y-16285793D01*
X17339230Y-16285793D02*
X17339230Y-16323888D01*
X17339230Y-16323888D02*
X17348753Y-16342936D01*
X17348753Y-16342936D02*
X17358277Y-16352460D01*
X17358277Y-16352460D02*
X17377325Y-16361984D01*
X17377325Y-16361984D02*
X17415420Y-16361984D01*
X17415420Y-16361984D02*
X17434468Y-16352460D01*
X17434468Y-16352460D02*
X17443991Y-16342936D01*
X17443991Y-16342936D02*
X17453515Y-16323888D01*
X17453515Y-16323888D02*
X17453515Y-16285793D01*
X17453515Y-16285793D02*
X17443991Y-16266746D01*
X17443991Y-16266746D02*
X17434468Y-16257222D01*
X17434468Y-16257222D02*
X17415420Y-16247698D01*
X17691611Y-16361984D02*
X17691611Y-16161984D01*
X17777325Y-16361984D02*
X17777325Y-16257222D01*
X17777325Y-16257222D02*
X17767801Y-16238174D01*
X17767801Y-16238174D02*
X17748753Y-16228650D01*
X17748753Y-16228650D02*
X17720182Y-16228650D01*
X17720182Y-16228650D02*
X17701134Y-16238174D01*
X17701134Y-16238174D02*
X17691611Y-16247698D01*
X17901134Y-16361984D02*
X17882087Y-16352460D01*
X17882087Y-16352460D02*
X17872563Y-16342936D01*
X17872563Y-16342936D02*
X17863039Y-16323888D01*
X17863039Y-16323888D02*
X17863039Y-16266746D01*
X17863039Y-16266746D02*
X17872563Y-16247698D01*
X17872563Y-16247698D02*
X17882087Y-16238174D01*
X17882087Y-16238174D02*
X17901134Y-16228650D01*
X17901134Y-16228650D02*
X17929706Y-16228650D01*
X17929706Y-16228650D02*
X17948753Y-16238174D01*
X17948753Y-16238174D02*
X17958277Y-16247698D01*
X17958277Y-16247698D02*
X17967801Y-16266746D01*
X17967801Y-16266746D02*
X17967801Y-16323888D01*
X17967801Y-16323888D02*
X17958277Y-16342936D01*
X17958277Y-16342936D02*
X17948753Y-16352460D01*
X17948753Y-16352460D02*
X17929706Y-16361984D01*
X17929706Y-16361984D02*
X17901134Y-16361984D01*
X18082087Y-16361984D02*
X18063039Y-16352460D01*
X18063039Y-16352460D02*
X18053515Y-16333412D01*
X18053515Y-16333412D02*
X18053515Y-16161984D01*
X18234468Y-16352460D02*
X18215420Y-16361984D01*
X18215420Y-16361984D02*
X18177325Y-16361984D01*
X18177325Y-16361984D02*
X18158277Y-16352460D01*
X18158277Y-16352460D02*
X18148753Y-16333412D01*
X18148753Y-16333412D02*
X18148753Y-16257222D01*
X18148753Y-16257222D02*
X18158277Y-16238174D01*
X18158277Y-16238174D02*
X18177325Y-16228650D01*
X18177325Y-16228650D02*
X18215420Y-16228650D01*
X18215420Y-16228650D02*
X18234468Y-16238174D01*
X18234468Y-16238174D02*
X18243992Y-16257222D01*
X18243992Y-16257222D02*
X18243992Y-16276269D01*
X18243992Y-16276269D02*
X18148753Y-16295317D01*
X18320182Y-16352460D02*
X18339230Y-16361984D01*
X18339230Y-16361984D02*
X18377325Y-16361984D01*
X18377325Y-16361984D02*
X18396373Y-16352460D01*
X18396373Y-16352460D02*
X18405896Y-16333412D01*
X18405896Y-16333412D02*
X18405896Y-16323888D01*
X18405896Y-16323888D02*
X18396373Y-16304841D01*
X18396373Y-16304841D02*
X18377325Y-16295317D01*
X18377325Y-16295317D02*
X18348753Y-16295317D01*
X18348753Y-16295317D02*
X18329706Y-16285793D01*
X18329706Y-16285793D02*
X18320182Y-16266746D01*
X18320182Y-16266746D02*
X18320182Y-16257222D01*
X18320182Y-16257222D02*
X18329706Y-16238174D01*
X18329706Y-16238174D02*
X18348753Y-16228650D01*
X18348753Y-16228650D02*
X18377325Y-16228650D01*
X18377325Y-16228650D02*
X18396373Y-16238174D01*
X18472563Y-16438174D02*
X18482087Y-16428650D01*
X18482087Y-16428650D02*
X18501134Y-16400079D01*
X18501134Y-16400079D02*
X18510658Y-16381031D01*
X18510658Y-16381031D02*
X18520182Y-16352460D01*
X18520182Y-16352460D02*
X18529706Y-16304841D01*
X18529706Y-16304841D02*
X18529706Y-16266746D01*
X18529706Y-16266746D02*
X18520182Y-16219127D01*
X18520182Y-16219127D02*
X18510658Y-16190555D01*
X18510658Y-16190555D02*
X18501134Y-16171508D01*
X18501134Y-16171508D02*
X18482087Y-16142936D01*
X18482087Y-16142936D02*
X18472563Y-16133412D01*
D12*
X13684320Y-16566320D02*
X13684320Y-16502680D01*
X13620680Y-16502680D01*
X13620680Y-16566320D01*
X13684320Y-16566320D01*
D11*
X13996372Y-16425984D02*
X14015420Y-16425984D01*
X14015420Y-16425984D02*
X14034467Y-16435508D01*
X14034467Y-16435508D02*
X14043991Y-16445031D01*
X14043991Y-16445031D02*
X14053515Y-16464079D01*
X14053515Y-16464079D02*
X14063039Y-16502174D01*
X14063039Y-16502174D02*
X14063039Y-16549793D01*
X14063039Y-16549793D02*
X14053515Y-16587888D01*
X14053515Y-16587888D02*
X14043991Y-16606936D01*
X14043991Y-16606936D02*
X14034467Y-16616460D01*
X14034467Y-16616460D02*
X14015420Y-16625984D01*
X14015420Y-16625984D02*
X13996372Y-16625984D01*
X13996372Y-16625984D02*
X13977324Y-16616460D01*
X13977324Y-16616460D02*
X13967801Y-16606936D01*
X13967801Y-16606936D02*
X13958277Y-16587888D01*
X13958277Y-16587888D02*
X13948753Y-16549793D01*
X13948753Y-16549793D02*
X13948753Y-16502174D01*
X13948753Y-16502174D02*
X13958277Y-16464079D01*
X13958277Y-16464079D02*
X13967801Y-16445031D01*
X13967801Y-16445031D02*
X13977324Y-16435508D01*
X13977324Y-16435508D02*
X13996372Y-16425984D01*
X14148753Y-16606936D02*
X14158277Y-16616460D01*
X14158277Y-16616460D02*
X14148753Y-16625984D01*
X14148753Y-16625984D02*
X14139229Y-16616460D01*
X14139229Y-16616460D02*
X14148753Y-16606936D01*
X14148753Y-16606936D02*
X14148753Y-16625984D01*
X14253515Y-16625984D02*
X14291610Y-16625984D01*
X14291610Y-16625984D02*
X14310658Y-16616460D01*
X14310658Y-16616460D02*
X14320182Y-16606936D01*
X14320182Y-16606936D02*
X14339229Y-16578365D01*
X14339229Y-16578365D02*
X14348753Y-16540269D01*
X14348753Y-16540269D02*
X14348753Y-16464079D01*
X14348753Y-16464079D02*
X14339229Y-16445031D01*
X14339229Y-16445031D02*
X14329705Y-16435508D01*
X14329705Y-16435508D02*
X14310658Y-16425984D01*
X14310658Y-16425984D02*
X14272562Y-16425984D01*
X14272562Y-16425984D02*
X14253515Y-16435508D01*
X14253515Y-16435508D02*
X14243991Y-16445031D01*
X14243991Y-16445031D02*
X14234467Y-16464079D01*
X14234467Y-16464079D02*
X14234467Y-16511698D01*
X14234467Y-16511698D02*
X14243991Y-16530746D01*
X14243991Y-16530746D02*
X14253515Y-16540269D01*
X14253515Y-16540269D02*
X14272562Y-16549793D01*
X14272562Y-16549793D02*
X14310658Y-16549793D01*
X14310658Y-16549793D02*
X14329705Y-16540269D01*
X14329705Y-16540269D02*
X14339229Y-16530746D01*
X14339229Y-16530746D02*
X14348753Y-16511698D01*
X14472562Y-16425984D02*
X14491610Y-16425984D01*
X14491610Y-16425984D02*
X14510658Y-16435508D01*
X14510658Y-16435508D02*
X14520182Y-16445031D01*
X14520182Y-16445031D02*
X14529705Y-16464079D01*
X14529705Y-16464079D02*
X14539229Y-16502174D01*
X14539229Y-16502174D02*
X14539229Y-16549793D01*
X14539229Y-16549793D02*
X14529705Y-16587888D01*
X14529705Y-16587888D02*
X14520182Y-16606936D01*
X14520182Y-16606936D02*
X14510658Y-16616460D01*
X14510658Y-16616460D02*
X14491610Y-16625984D01*
X14491610Y-16625984D02*
X14472562Y-16625984D01*
X14472562Y-16625984D02*
X14453515Y-16616460D01*
X14453515Y-16616460D02*
X14443991Y-16606936D01*
X14443991Y-16606936D02*
X14434467Y-16587888D01*
X14434467Y-16587888D02*
X14424943Y-16549793D01*
X14424943Y-16549793D02*
X14424943Y-16502174D01*
X14424943Y-16502174D02*
X14434467Y-16464079D01*
X14434467Y-16464079D02*
X14443991Y-16445031D01*
X14443991Y-16445031D02*
X14453515Y-16435508D01*
X14453515Y-16435508D02*
X14472562Y-16425984D01*
X14663039Y-16425984D02*
X14682086Y-16425984D01*
X14682086Y-16425984D02*
X14701134Y-16435508D01*
X14701134Y-16435508D02*
X14710658Y-16445031D01*
X14710658Y-16445031D02*
X14720182Y-16464079D01*
X14720182Y-16464079D02*
X14729705Y-16502174D01*
X14729705Y-16502174D02*
X14729705Y-16549793D01*
X14729705Y-16549793D02*
X14720182Y-16587888D01*
X14720182Y-16587888D02*
X14710658Y-16606936D01*
X14710658Y-16606936D02*
X14701134Y-16616460D01*
X14701134Y-16616460D02*
X14682086Y-16625984D01*
X14682086Y-16625984D02*
X14663039Y-16625984D01*
X14663039Y-16625984D02*
X14643991Y-16616460D01*
X14643991Y-16616460D02*
X14634467Y-16606936D01*
X14634467Y-16606936D02*
X14624943Y-16587888D01*
X14624943Y-16587888D02*
X14615420Y-16549793D01*
X14615420Y-16549793D02*
X14615420Y-16502174D01*
X14615420Y-16502174D02*
X14624943Y-16464079D01*
X14624943Y-16464079D02*
X14634467Y-16445031D01*
X14634467Y-16445031D02*
X14643991Y-16435508D01*
X14643991Y-16435508D02*
X14663039Y-16425984D01*
X14815420Y-16625984D02*
X14815420Y-16492650D01*
X14815420Y-16511698D02*
X14824943Y-16502174D01*
X14824943Y-16502174D02*
X14843991Y-16492650D01*
X14843991Y-16492650D02*
X14872563Y-16492650D01*
X14872563Y-16492650D02*
X14891610Y-16502174D01*
X14891610Y-16502174D02*
X14901134Y-16521222D01*
X14901134Y-16521222D02*
X14901134Y-16625984D01*
X14901134Y-16521222D02*
X14910658Y-16502174D01*
X14910658Y-16502174D02*
X14929705Y-16492650D01*
X14929705Y-16492650D02*
X14958277Y-16492650D01*
X14958277Y-16492650D02*
X14977324Y-16502174D01*
X14977324Y-16502174D02*
X14986848Y-16521222D01*
X14986848Y-16521222D02*
X14986848Y-16625984D01*
X15082086Y-16625984D02*
X15082086Y-16492650D01*
X15082086Y-16511698D02*
X15091610Y-16502174D01*
X15091610Y-16502174D02*
X15110658Y-16492650D01*
X15110658Y-16492650D02*
X15139229Y-16492650D01*
X15139229Y-16492650D02*
X15158277Y-16502174D01*
X15158277Y-16502174D02*
X15167801Y-16521222D01*
X15167801Y-16521222D02*
X15167801Y-16625984D01*
X15167801Y-16521222D02*
X15177324Y-16502174D01*
X15177324Y-16502174D02*
X15196372Y-16492650D01*
X15196372Y-16492650D02*
X15224943Y-16492650D01*
X15224943Y-16492650D02*
X15243991Y-16502174D01*
X15243991Y-16502174D02*
X15253515Y-16521222D01*
X15253515Y-16521222D02*
X15253515Y-16625984D01*
X15643991Y-16416460D02*
X15472563Y-16673603D01*
X15901134Y-16425984D02*
X15920182Y-16425984D01*
X15920182Y-16425984D02*
X15939229Y-16435508D01*
X15939229Y-16435508D02*
X15948753Y-16445031D01*
X15948753Y-16445031D02*
X15958277Y-16464079D01*
X15958277Y-16464079D02*
X15967801Y-16502174D01*
X15967801Y-16502174D02*
X15967801Y-16549793D01*
X15967801Y-16549793D02*
X15958277Y-16587888D01*
X15958277Y-16587888D02*
X15948753Y-16606936D01*
X15948753Y-16606936D02*
X15939229Y-16616460D01*
X15939229Y-16616460D02*
X15920182Y-16625984D01*
X15920182Y-16625984D02*
X15901134Y-16625984D01*
X15901134Y-16625984D02*
X15882086Y-16616460D01*
X15882086Y-16616460D02*
X15872563Y-16606936D01*
X15872563Y-16606936D02*
X15863039Y-16587888D01*
X15863039Y-16587888D02*
X15853515Y-16549793D01*
X15853515Y-16549793D02*
X15853515Y-16502174D01*
X15853515Y-16502174D02*
X15863039Y-16464079D01*
X15863039Y-16464079D02*
X15872563Y-16445031D01*
X15872563Y-16445031D02*
X15882086Y-16435508D01*
X15882086Y-16435508D02*
X15901134Y-16425984D01*
X16053515Y-16606936D02*
X16063039Y-16616460D01*
X16063039Y-16616460D02*
X16053515Y-16625984D01*
X16053515Y-16625984D02*
X16043991Y-16616460D01*
X16043991Y-16616460D02*
X16053515Y-16606936D01*
X16053515Y-16606936D02*
X16053515Y-16625984D01*
X16186848Y-16425984D02*
X16205896Y-16425984D01*
X16205896Y-16425984D02*
X16224944Y-16435508D01*
X16224944Y-16435508D02*
X16234467Y-16445031D01*
X16234467Y-16445031D02*
X16243991Y-16464079D01*
X16243991Y-16464079D02*
X16253515Y-16502174D01*
X16253515Y-16502174D02*
X16253515Y-16549793D01*
X16253515Y-16549793D02*
X16243991Y-16587888D01*
X16243991Y-16587888D02*
X16234467Y-16606936D01*
X16234467Y-16606936D02*
X16224944Y-16616460D01*
X16224944Y-16616460D02*
X16205896Y-16625984D01*
X16205896Y-16625984D02*
X16186848Y-16625984D01*
X16186848Y-16625984D02*
X16167801Y-16616460D01*
X16167801Y-16616460D02*
X16158277Y-16606936D01*
X16158277Y-16606936D02*
X16148753Y-16587888D01*
X16148753Y-16587888D02*
X16139229Y-16549793D01*
X16139229Y-16549793D02*
X16139229Y-16502174D01*
X16139229Y-16502174D02*
X16148753Y-16464079D01*
X16148753Y-16464079D02*
X16158277Y-16445031D01*
X16158277Y-16445031D02*
X16167801Y-16435508D01*
X16167801Y-16435508D02*
X16186848Y-16425984D01*
X16320182Y-16425984D02*
X16443991Y-16425984D01*
X16443991Y-16425984D02*
X16377325Y-16502174D01*
X16377325Y-16502174D02*
X16405896Y-16502174D01*
X16405896Y-16502174D02*
X16424944Y-16511698D01*
X16424944Y-16511698D02*
X16434467Y-16521222D01*
X16434467Y-16521222D02*
X16443991Y-16540269D01*
X16443991Y-16540269D02*
X16443991Y-16587888D01*
X16443991Y-16587888D02*
X16434467Y-16606936D01*
X16434467Y-16606936D02*
X16424944Y-16616460D01*
X16424944Y-16616460D02*
X16405896Y-16625984D01*
X16405896Y-16625984D02*
X16348753Y-16625984D01*
X16348753Y-16625984D02*
X16329706Y-16616460D01*
X16329706Y-16616460D02*
X16320182Y-16606936D01*
X16624944Y-16425984D02*
X16529706Y-16425984D01*
X16529706Y-16425984D02*
X16520182Y-16521222D01*
X16520182Y-16521222D02*
X16529706Y-16511698D01*
X16529706Y-16511698D02*
X16548753Y-16502174D01*
X16548753Y-16502174D02*
X16596372Y-16502174D01*
X16596372Y-16502174D02*
X16615420Y-16511698D01*
X16615420Y-16511698D02*
X16624944Y-16521222D01*
X16624944Y-16521222D02*
X16634467Y-16540269D01*
X16634467Y-16540269D02*
X16634467Y-16587888D01*
X16634467Y-16587888D02*
X16624944Y-16606936D01*
X16624944Y-16606936D02*
X16615420Y-16616460D01*
X16615420Y-16616460D02*
X16596372Y-16625984D01*
X16596372Y-16625984D02*
X16548753Y-16625984D01*
X16548753Y-16625984D02*
X16529706Y-16616460D01*
X16529706Y-16616460D02*
X16520182Y-16606936D01*
X16805896Y-16492650D02*
X16805896Y-16625984D01*
X16758277Y-16416460D02*
X16710658Y-16559317D01*
X16710658Y-16559317D02*
X16834468Y-16559317D01*
X16901134Y-16425984D02*
X16901134Y-16464079D01*
X16977325Y-16425984D02*
X16977325Y-16464079D01*
X17272563Y-16702174D02*
X17263039Y-16692650D01*
X17263039Y-16692650D02*
X17243991Y-16664079D01*
X17243991Y-16664079D02*
X17234468Y-16645031D01*
X17234468Y-16645031D02*
X17224944Y-16616460D01*
X17224944Y-16616460D02*
X17215420Y-16568841D01*
X17215420Y-16568841D02*
X17215420Y-16530746D01*
X17215420Y-16530746D02*
X17224944Y-16483127D01*
X17224944Y-16483127D02*
X17234468Y-16454555D01*
X17234468Y-16454555D02*
X17243991Y-16435508D01*
X17243991Y-16435508D02*
X17263039Y-16406936D01*
X17263039Y-16406936D02*
X17272563Y-16397412D01*
X17377325Y-16511698D02*
X17358277Y-16502174D01*
X17358277Y-16502174D02*
X17348753Y-16492650D01*
X17348753Y-16492650D02*
X17339230Y-16473603D01*
X17339230Y-16473603D02*
X17339230Y-16464079D01*
X17339230Y-16464079D02*
X17348753Y-16445031D01*
X17348753Y-16445031D02*
X17358277Y-16435508D01*
X17358277Y-16435508D02*
X17377325Y-16425984D01*
X17377325Y-16425984D02*
X17415420Y-16425984D01*
X17415420Y-16425984D02*
X17434468Y-16435508D01*
X17434468Y-16435508D02*
X17443991Y-16445031D01*
X17443991Y-16445031D02*
X17453515Y-16464079D01*
X17453515Y-16464079D02*
X17453515Y-16473603D01*
X17453515Y-16473603D02*
X17443991Y-16492650D01*
X17443991Y-16492650D02*
X17434468Y-16502174D01*
X17434468Y-16502174D02*
X17415420Y-16511698D01*
X17415420Y-16511698D02*
X17377325Y-16511698D01*
X17377325Y-16511698D02*
X17358277Y-16521222D01*
X17358277Y-16521222D02*
X17348753Y-16530746D01*
X17348753Y-16530746D02*
X17339230Y-16549793D01*
X17339230Y-16549793D02*
X17339230Y-16587888D01*
X17339230Y-16587888D02*
X17348753Y-16606936D01*
X17348753Y-16606936D02*
X17358277Y-16616460D01*
X17358277Y-16616460D02*
X17377325Y-16625984D01*
X17377325Y-16625984D02*
X17415420Y-16625984D01*
X17415420Y-16625984D02*
X17434468Y-16616460D01*
X17434468Y-16616460D02*
X17443991Y-16606936D01*
X17443991Y-16606936D02*
X17453515Y-16587888D01*
X17453515Y-16587888D02*
X17453515Y-16549793D01*
X17453515Y-16549793D02*
X17443991Y-16530746D01*
X17443991Y-16530746D02*
X17434468Y-16521222D01*
X17434468Y-16521222D02*
X17415420Y-16511698D01*
X17691611Y-16625984D02*
X17691611Y-16425984D01*
X17777325Y-16625984D02*
X17777325Y-16521222D01*
X17777325Y-16521222D02*
X17767801Y-16502174D01*
X17767801Y-16502174D02*
X17748753Y-16492650D01*
X17748753Y-16492650D02*
X17720182Y-16492650D01*
X17720182Y-16492650D02*
X17701134Y-16502174D01*
X17701134Y-16502174D02*
X17691611Y-16511698D01*
X17901134Y-16625984D02*
X17882087Y-16616460D01*
X17882087Y-16616460D02*
X17872563Y-16606936D01*
X17872563Y-16606936D02*
X17863039Y-16587888D01*
X17863039Y-16587888D02*
X17863039Y-16530746D01*
X17863039Y-16530746D02*
X17872563Y-16511698D01*
X17872563Y-16511698D02*
X17882087Y-16502174D01*
X17882087Y-16502174D02*
X17901134Y-16492650D01*
X17901134Y-16492650D02*
X17929706Y-16492650D01*
X17929706Y-16492650D02*
X17948753Y-16502174D01*
X17948753Y-16502174D02*
X17958277Y-16511698D01*
X17958277Y-16511698D02*
X17967801Y-16530746D01*
X17967801Y-16530746D02*
X17967801Y-16587888D01*
X17967801Y-16587888D02*
X17958277Y-16606936D01*
X17958277Y-16606936D02*
X17948753Y-16616460D01*
X17948753Y-16616460D02*
X17929706Y-16625984D01*
X17929706Y-16625984D02*
X17901134Y-16625984D01*
X18082087Y-16625984D02*
X18063039Y-16616460D01*
X18063039Y-16616460D02*
X18053515Y-16597412D01*
X18053515Y-16597412D02*
X18053515Y-16425984D01*
X18234468Y-16616460D02*
X18215420Y-16625984D01*
X18215420Y-16625984D02*
X18177325Y-16625984D01*
X18177325Y-16625984D02*
X18158277Y-16616460D01*
X18158277Y-16616460D02*
X18148753Y-16597412D01*
X18148753Y-16597412D02*
X18148753Y-16521222D01*
X18148753Y-16521222D02*
X18158277Y-16502174D01*
X18158277Y-16502174D02*
X18177325Y-16492650D01*
X18177325Y-16492650D02*
X18215420Y-16492650D01*
X18215420Y-16492650D02*
X18234468Y-16502174D01*
X18234468Y-16502174D02*
X18243992Y-16521222D01*
X18243992Y-16521222D02*
X18243992Y-16540269D01*
X18243992Y-16540269D02*
X18148753Y-16559317D01*
X18320182Y-16616460D02*
X18339230Y-16625984D01*
X18339230Y-16625984D02*
X18377325Y-16625984D01*
X18377325Y-16625984D02*
X18396373Y-16616460D01*
X18396373Y-16616460D02*
X18405896Y-16597412D01*
X18405896Y-16597412D02*
X18405896Y-16587888D01*
X18405896Y-16587888D02*
X18396373Y-16568841D01*
X18396373Y-16568841D02*
X18377325Y-16559317D01*
X18377325Y-16559317D02*
X18348753Y-16559317D01*
X18348753Y-16559317D02*
X18329706Y-16549793D01*
X18329706Y-16549793D02*
X18320182Y-16530746D01*
X18320182Y-16530746D02*
X18320182Y-16521222D01*
X18320182Y-16521222D02*
X18329706Y-16502174D01*
X18329706Y-16502174D02*
X18348753Y-16492650D01*
X18348753Y-16492650D02*
X18377325Y-16492650D01*
X18377325Y-16492650D02*
X18396373Y-16502174D01*
X18472563Y-16702174D02*
X18482087Y-16692650D01*
X18482087Y-16692650D02*
X18501134Y-16664079D01*
X18501134Y-16664079D02*
X18510658Y-16645031D01*
X18510658Y-16645031D02*
X18520182Y-16616460D01*
X18520182Y-16616460D02*
X18529706Y-16568841D01*
X18529706Y-16568841D02*
X18529706Y-16530746D01*
X18529706Y-16530746D02*
X18520182Y-16483127D01*
X18520182Y-16483127D02*
X18510658Y-16454555D01*
X18510658Y-16454555D02*
X18501134Y-16435508D01*
X18501134Y-16435508D02*
X18482087Y-16406936D01*
X18482087Y-16406936D02*
X18472563Y-16397412D01*
D12*
X13647500Y-16848500D02*
X13697500Y-16798500D01*
X13647500Y-16748500D01*
X13597500Y-16798500D01*
X13647500Y-16848500D01*
D11*
X14063039Y-16889984D02*
X13948753Y-16889984D01*
X14005896Y-16889984D02*
X14005896Y-16689984D01*
X14005896Y-16689984D02*
X13986848Y-16718555D01*
X13986848Y-16718555D02*
X13967801Y-16737603D01*
X13967801Y-16737603D02*
X13948753Y-16747127D01*
X14148753Y-16870936D02*
X14158277Y-16880460D01*
X14158277Y-16880460D02*
X14148753Y-16889984D01*
X14148753Y-16889984D02*
X14139229Y-16880460D01*
X14139229Y-16880460D02*
X14148753Y-16870936D01*
X14148753Y-16870936D02*
X14148753Y-16889984D01*
X14282086Y-16689984D02*
X14301134Y-16689984D01*
X14301134Y-16689984D02*
X14320182Y-16699508D01*
X14320182Y-16699508D02*
X14329705Y-16709031D01*
X14329705Y-16709031D02*
X14339229Y-16728079D01*
X14339229Y-16728079D02*
X14348753Y-16766174D01*
X14348753Y-16766174D02*
X14348753Y-16813793D01*
X14348753Y-16813793D02*
X14339229Y-16851889D01*
X14339229Y-16851889D02*
X14329705Y-16870936D01*
X14329705Y-16870936D02*
X14320182Y-16880460D01*
X14320182Y-16880460D02*
X14301134Y-16889984D01*
X14301134Y-16889984D02*
X14282086Y-16889984D01*
X14282086Y-16889984D02*
X14263039Y-16880460D01*
X14263039Y-16880460D02*
X14253515Y-16870936D01*
X14253515Y-16870936D02*
X14243991Y-16851889D01*
X14243991Y-16851889D02*
X14234467Y-16813793D01*
X14234467Y-16813793D02*
X14234467Y-16766174D01*
X14234467Y-16766174D02*
X14243991Y-16728079D01*
X14243991Y-16728079D02*
X14253515Y-16709031D01*
X14253515Y-16709031D02*
X14263039Y-16699508D01*
X14263039Y-16699508D02*
X14282086Y-16689984D01*
X14472562Y-16689984D02*
X14491610Y-16689984D01*
X14491610Y-16689984D02*
X14510658Y-16699508D01*
X14510658Y-16699508D02*
X14520182Y-16709031D01*
X14520182Y-16709031D02*
X14529705Y-16728079D01*
X14529705Y-16728079D02*
X14539229Y-16766174D01*
X14539229Y-16766174D02*
X14539229Y-16813793D01*
X14539229Y-16813793D02*
X14529705Y-16851889D01*
X14529705Y-16851889D02*
X14520182Y-16870936D01*
X14520182Y-16870936D02*
X14510658Y-16880460D01*
X14510658Y-16880460D02*
X14491610Y-16889984D01*
X14491610Y-16889984D02*
X14472562Y-16889984D01*
X14472562Y-16889984D02*
X14453515Y-16880460D01*
X14453515Y-16880460D02*
X14443991Y-16870936D01*
X14443991Y-16870936D02*
X14434467Y-16851889D01*
X14434467Y-16851889D02*
X14424943Y-16813793D01*
X14424943Y-16813793D02*
X14424943Y-16766174D01*
X14424943Y-16766174D02*
X14434467Y-16728079D01*
X14434467Y-16728079D02*
X14443991Y-16709031D01*
X14443991Y-16709031D02*
X14453515Y-16699508D01*
X14453515Y-16699508D02*
X14472562Y-16689984D01*
X14663039Y-16689984D02*
X14682086Y-16689984D01*
X14682086Y-16689984D02*
X14701134Y-16699508D01*
X14701134Y-16699508D02*
X14710658Y-16709031D01*
X14710658Y-16709031D02*
X14720182Y-16728079D01*
X14720182Y-16728079D02*
X14729705Y-16766174D01*
X14729705Y-16766174D02*
X14729705Y-16813793D01*
X14729705Y-16813793D02*
X14720182Y-16851889D01*
X14720182Y-16851889D02*
X14710658Y-16870936D01*
X14710658Y-16870936D02*
X14701134Y-16880460D01*
X14701134Y-16880460D02*
X14682086Y-16889984D01*
X14682086Y-16889984D02*
X14663039Y-16889984D01*
X14663039Y-16889984D02*
X14643991Y-16880460D01*
X14643991Y-16880460D02*
X14634467Y-16870936D01*
X14634467Y-16870936D02*
X14624943Y-16851889D01*
X14624943Y-16851889D02*
X14615420Y-16813793D01*
X14615420Y-16813793D02*
X14615420Y-16766174D01*
X14615420Y-16766174D02*
X14624943Y-16728079D01*
X14624943Y-16728079D02*
X14634467Y-16709031D01*
X14634467Y-16709031D02*
X14643991Y-16699508D01*
X14643991Y-16699508D02*
X14663039Y-16689984D01*
X14815420Y-16889984D02*
X14815420Y-16756650D01*
X14815420Y-16775698D02*
X14824943Y-16766174D01*
X14824943Y-16766174D02*
X14843991Y-16756650D01*
X14843991Y-16756650D02*
X14872563Y-16756650D01*
X14872563Y-16756650D02*
X14891610Y-16766174D01*
X14891610Y-16766174D02*
X14901134Y-16785222D01*
X14901134Y-16785222D02*
X14901134Y-16889984D01*
X14901134Y-16785222D02*
X14910658Y-16766174D01*
X14910658Y-16766174D02*
X14929705Y-16756650D01*
X14929705Y-16756650D02*
X14958277Y-16756650D01*
X14958277Y-16756650D02*
X14977324Y-16766174D01*
X14977324Y-16766174D02*
X14986848Y-16785222D01*
X14986848Y-16785222D02*
X14986848Y-16889984D01*
X15082086Y-16889984D02*
X15082086Y-16756650D01*
X15082086Y-16775698D02*
X15091610Y-16766174D01*
X15091610Y-16766174D02*
X15110658Y-16756650D01*
X15110658Y-16756650D02*
X15139229Y-16756650D01*
X15139229Y-16756650D02*
X15158277Y-16766174D01*
X15158277Y-16766174D02*
X15167801Y-16785222D01*
X15167801Y-16785222D02*
X15167801Y-16889984D01*
X15167801Y-16785222D02*
X15177324Y-16766174D01*
X15177324Y-16766174D02*
X15196372Y-16756650D01*
X15196372Y-16756650D02*
X15224943Y-16756650D01*
X15224943Y-16756650D02*
X15243991Y-16766174D01*
X15243991Y-16766174D02*
X15253515Y-16785222D01*
X15253515Y-16785222D02*
X15253515Y-16889984D01*
X15643991Y-16680460D02*
X15472563Y-16937603D01*
X15901134Y-16689984D02*
X15920182Y-16689984D01*
X15920182Y-16689984D02*
X15939229Y-16699508D01*
X15939229Y-16699508D02*
X15948753Y-16709031D01*
X15948753Y-16709031D02*
X15958277Y-16728079D01*
X15958277Y-16728079D02*
X15967801Y-16766174D01*
X15967801Y-16766174D02*
X15967801Y-16813793D01*
X15967801Y-16813793D02*
X15958277Y-16851889D01*
X15958277Y-16851889D02*
X15948753Y-16870936D01*
X15948753Y-16870936D02*
X15939229Y-16880460D01*
X15939229Y-16880460D02*
X15920182Y-16889984D01*
X15920182Y-16889984D02*
X15901134Y-16889984D01*
X15901134Y-16889984D02*
X15882086Y-16880460D01*
X15882086Y-16880460D02*
X15872563Y-16870936D01*
X15872563Y-16870936D02*
X15863039Y-16851889D01*
X15863039Y-16851889D02*
X15853515Y-16813793D01*
X15853515Y-16813793D02*
X15853515Y-16766174D01*
X15853515Y-16766174D02*
X15863039Y-16728079D01*
X15863039Y-16728079D02*
X15872563Y-16709031D01*
X15872563Y-16709031D02*
X15882086Y-16699508D01*
X15882086Y-16699508D02*
X15901134Y-16689984D01*
X16053515Y-16870936D02*
X16063039Y-16880460D01*
X16063039Y-16880460D02*
X16053515Y-16889984D01*
X16053515Y-16889984D02*
X16043991Y-16880460D01*
X16043991Y-16880460D02*
X16053515Y-16870936D01*
X16053515Y-16870936D02*
X16053515Y-16889984D01*
X16186848Y-16689984D02*
X16205896Y-16689984D01*
X16205896Y-16689984D02*
X16224944Y-16699508D01*
X16224944Y-16699508D02*
X16234467Y-16709031D01*
X16234467Y-16709031D02*
X16243991Y-16728079D01*
X16243991Y-16728079D02*
X16253515Y-16766174D01*
X16253515Y-16766174D02*
X16253515Y-16813793D01*
X16253515Y-16813793D02*
X16243991Y-16851889D01*
X16243991Y-16851889D02*
X16234467Y-16870936D01*
X16234467Y-16870936D02*
X16224944Y-16880460D01*
X16224944Y-16880460D02*
X16205896Y-16889984D01*
X16205896Y-16889984D02*
X16186848Y-16889984D01*
X16186848Y-16889984D02*
X16167801Y-16880460D01*
X16167801Y-16880460D02*
X16158277Y-16870936D01*
X16158277Y-16870936D02*
X16148753Y-16851889D01*
X16148753Y-16851889D02*
X16139229Y-16813793D01*
X16139229Y-16813793D02*
X16139229Y-16766174D01*
X16139229Y-16766174D02*
X16148753Y-16728079D01*
X16148753Y-16728079D02*
X16158277Y-16709031D01*
X16158277Y-16709031D02*
X16167801Y-16699508D01*
X16167801Y-16699508D02*
X16186848Y-16689984D01*
X16320182Y-16689984D02*
X16443991Y-16689984D01*
X16443991Y-16689984D02*
X16377325Y-16766174D01*
X16377325Y-16766174D02*
X16405896Y-16766174D01*
X16405896Y-16766174D02*
X16424944Y-16775698D01*
X16424944Y-16775698D02*
X16434467Y-16785222D01*
X16434467Y-16785222D02*
X16443991Y-16804270D01*
X16443991Y-16804270D02*
X16443991Y-16851889D01*
X16443991Y-16851889D02*
X16434467Y-16870936D01*
X16434467Y-16870936D02*
X16424944Y-16880460D01*
X16424944Y-16880460D02*
X16405896Y-16889984D01*
X16405896Y-16889984D02*
X16348753Y-16889984D01*
X16348753Y-16889984D02*
X16329706Y-16880460D01*
X16329706Y-16880460D02*
X16320182Y-16870936D01*
X16539229Y-16889984D02*
X16577325Y-16889984D01*
X16577325Y-16889984D02*
X16596372Y-16880460D01*
X16596372Y-16880460D02*
X16605896Y-16870936D01*
X16605896Y-16870936D02*
X16624944Y-16842365D01*
X16624944Y-16842365D02*
X16634467Y-16804270D01*
X16634467Y-16804270D02*
X16634467Y-16728079D01*
X16634467Y-16728079D02*
X16624944Y-16709031D01*
X16624944Y-16709031D02*
X16615420Y-16699508D01*
X16615420Y-16699508D02*
X16596372Y-16689984D01*
X16596372Y-16689984D02*
X16558277Y-16689984D01*
X16558277Y-16689984D02*
X16539229Y-16699508D01*
X16539229Y-16699508D02*
X16529706Y-16709031D01*
X16529706Y-16709031D02*
X16520182Y-16728079D01*
X16520182Y-16728079D02*
X16520182Y-16775698D01*
X16520182Y-16775698D02*
X16529706Y-16794746D01*
X16529706Y-16794746D02*
X16539229Y-16804270D01*
X16539229Y-16804270D02*
X16558277Y-16813793D01*
X16558277Y-16813793D02*
X16596372Y-16813793D01*
X16596372Y-16813793D02*
X16615420Y-16804270D01*
X16615420Y-16804270D02*
X16624944Y-16794746D01*
X16624944Y-16794746D02*
X16634467Y-16775698D01*
X16805896Y-16756650D02*
X16805896Y-16889984D01*
X16758277Y-16680460D02*
X16710658Y-16823317D01*
X16710658Y-16823317D02*
X16834468Y-16823317D01*
X16901134Y-16689984D02*
X16901134Y-16728079D01*
X16977325Y-16689984D02*
X16977325Y-16728079D01*
X17272563Y-16966174D02*
X17263039Y-16956650D01*
X17263039Y-16956650D02*
X17243991Y-16928079D01*
X17243991Y-16928079D02*
X17234468Y-16909031D01*
X17234468Y-16909031D02*
X17224944Y-16880460D01*
X17224944Y-16880460D02*
X17215420Y-16832841D01*
X17215420Y-16832841D02*
X17215420Y-16794746D01*
X17215420Y-16794746D02*
X17224944Y-16747127D01*
X17224944Y-16747127D02*
X17234468Y-16718555D01*
X17234468Y-16718555D02*
X17243991Y-16699508D01*
X17243991Y-16699508D02*
X17263039Y-16670936D01*
X17263039Y-16670936D02*
X17272563Y-16661412D01*
X17434468Y-16756650D02*
X17434468Y-16889984D01*
X17386849Y-16680460D02*
X17339230Y-16823317D01*
X17339230Y-16823317D02*
X17463039Y-16823317D01*
X17691611Y-16889984D02*
X17691611Y-16689984D01*
X17777325Y-16889984D02*
X17777325Y-16785222D01*
X17777325Y-16785222D02*
X17767801Y-16766174D01*
X17767801Y-16766174D02*
X17748753Y-16756650D01*
X17748753Y-16756650D02*
X17720182Y-16756650D01*
X17720182Y-16756650D02*
X17701134Y-16766174D01*
X17701134Y-16766174D02*
X17691611Y-16775698D01*
X17901134Y-16889984D02*
X17882087Y-16880460D01*
X17882087Y-16880460D02*
X17872563Y-16870936D01*
X17872563Y-16870936D02*
X17863039Y-16851889D01*
X17863039Y-16851889D02*
X17863039Y-16794746D01*
X17863039Y-16794746D02*
X17872563Y-16775698D01*
X17872563Y-16775698D02*
X17882087Y-16766174D01*
X17882087Y-16766174D02*
X17901134Y-16756650D01*
X17901134Y-16756650D02*
X17929706Y-16756650D01*
X17929706Y-16756650D02*
X17948753Y-16766174D01*
X17948753Y-16766174D02*
X17958277Y-16775698D01*
X17958277Y-16775698D02*
X17967801Y-16794746D01*
X17967801Y-16794746D02*
X17967801Y-16851889D01*
X17967801Y-16851889D02*
X17958277Y-16870936D01*
X17958277Y-16870936D02*
X17948753Y-16880460D01*
X17948753Y-16880460D02*
X17929706Y-16889984D01*
X17929706Y-16889984D02*
X17901134Y-16889984D01*
X18082087Y-16889984D02*
X18063039Y-16880460D01*
X18063039Y-16880460D02*
X18053515Y-16861412D01*
X18053515Y-16861412D02*
X18053515Y-16689984D01*
X18234468Y-16880460D02*
X18215420Y-16889984D01*
X18215420Y-16889984D02*
X18177325Y-16889984D01*
X18177325Y-16889984D02*
X18158277Y-16880460D01*
X18158277Y-16880460D02*
X18148753Y-16861412D01*
X18148753Y-16861412D02*
X18148753Y-16785222D01*
X18148753Y-16785222D02*
X18158277Y-16766174D01*
X18158277Y-16766174D02*
X18177325Y-16756650D01*
X18177325Y-16756650D02*
X18215420Y-16756650D01*
X18215420Y-16756650D02*
X18234468Y-16766174D01*
X18234468Y-16766174D02*
X18243992Y-16785222D01*
X18243992Y-16785222D02*
X18243992Y-16804270D01*
X18243992Y-16804270D02*
X18148753Y-16823317D01*
X18320182Y-16880460D02*
X18339230Y-16889984D01*
X18339230Y-16889984D02*
X18377325Y-16889984D01*
X18377325Y-16889984D02*
X18396373Y-16880460D01*
X18396373Y-16880460D02*
X18405896Y-16861412D01*
X18405896Y-16861412D02*
X18405896Y-16851889D01*
X18405896Y-16851889D02*
X18396373Y-16832841D01*
X18396373Y-16832841D02*
X18377325Y-16823317D01*
X18377325Y-16823317D02*
X18348753Y-16823317D01*
X18348753Y-16823317D02*
X18329706Y-16813793D01*
X18329706Y-16813793D02*
X18320182Y-16794746D01*
X18320182Y-16794746D02*
X18320182Y-16785222D01*
X18320182Y-16785222D02*
X18329706Y-16766174D01*
X18329706Y-16766174D02*
X18348753Y-16756650D01*
X18348753Y-16756650D02*
X18377325Y-16756650D01*
X18377325Y-16756650D02*
X18396373Y-16766174D01*
X18472563Y-16966174D02*
X18482087Y-16956650D01*
X18482087Y-16956650D02*
X18501134Y-16928079D01*
X18501134Y-16928079D02*
X18510658Y-16909031D01*
X18510658Y-16909031D02*
X18520182Y-16880460D01*
X18520182Y-16880460D02*
X18529706Y-16832841D01*
X18529706Y-16832841D02*
X18529706Y-16794746D01*
X18529706Y-16794746D02*
X18520182Y-16747127D01*
X18520182Y-16747127D02*
X18510658Y-16718555D01*
X18510658Y-16718555D02*
X18501134Y-16699508D01*
X18501134Y-16699508D02*
X18482087Y-16670936D01*
X18482087Y-16670936D02*
X18472563Y-16661412D01*
D13*
X13595900Y-17011700D02*
X13697500Y-17113300D01*
X13697500Y-17011700D02*
X13595900Y-17113300D01*
X13697500Y-17062500D02*
G75*
G02*
X13595900Y-17062500I-50800J0D01*
G01*
X13595900Y-17062500D02*
G75*
G02*
X13697500Y-17062500I50800J0D01*
G01*
D11*
X14063039Y-17153984D02*
X13948753Y-17153984D01*
X14005896Y-17153984D02*
X14005896Y-16953984D01*
X14005896Y-16953984D02*
X13986848Y-16982555D01*
X13986848Y-16982555D02*
X13967801Y-17001603D01*
X13967801Y-17001603D02*
X13948753Y-17011127D01*
X14148753Y-17134936D02*
X14158277Y-17144460D01*
X14158277Y-17144460D02*
X14148753Y-17153984D01*
X14148753Y-17153984D02*
X14139229Y-17144460D01*
X14139229Y-17144460D02*
X14148753Y-17134936D01*
X14148753Y-17134936D02*
X14148753Y-17153984D01*
X14282086Y-16953984D02*
X14301134Y-16953984D01*
X14301134Y-16953984D02*
X14320182Y-16963508D01*
X14320182Y-16963508D02*
X14329705Y-16973031D01*
X14329705Y-16973031D02*
X14339229Y-16992079D01*
X14339229Y-16992079D02*
X14348753Y-17030174D01*
X14348753Y-17030174D02*
X14348753Y-17077793D01*
X14348753Y-17077793D02*
X14339229Y-17115889D01*
X14339229Y-17115889D02*
X14329705Y-17134936D01*
X14329705Y-17134936D02*
X14320182Y-17144460D01*
X14320182Y-17144460D02*
X14301134Y-17153984D01*
X14301134Y-17153984D02*
X14282086Y-17153984D01*
X14282086Y-17153984D02*
X14263039Y-17144460D01*
X14263039Y-17144460D02*
X14253515Y-17134936D01*
X14253515Y-17134936D02*
X14243991Y-17115889D01*
X14243991Y-17115889D02*
X14234467Y-17077793D01*
X14234467Y-17077793D02*
X14234467Y-17030174D01*
X14234467Y-17030174D02*
X14243991Y-16992079D01*
X14243991Y-16992079D02*
X14253515Y-16973031D01*
X14253515Y-16973031D02*
X14263039Y-16963508D01*
X14263039Y-16963508D02*
X14282086Y-16953984D01*
X14539229Y-17153984D02*
X14424943Y-17153984D01*
X14482086Y-17153984D02*
X14482086Y-16953984D01*
X14482086Y-16953984D02*
X14463039Y-16982555D01*
X14463039Y-16982555D02*
X14443991Y-17001603D01*
X14443991Y-17001603D02*
X14424943Y-17011127D01*
X14710658Y-16953984D02*
X14672562Y-16953984D01*
X14672562Y-16953984D02*
X14653515Y-16963508D01*
X14653515Y-16963508D02*
X14643991Y-16973031D01*
X14643991Y-16973031D02*
X14624943Y-17001603D01*
X14624943Y-17001603D02*
X14615420Y-17039698D01*
X14615420Y-17039698D02*
X14615420Y-17115889D01*
X14615420Y-17115889D02*
X14624943Y-17134936D01*
X14624943Y-17134936D02*
X14634467Y-17144460D01*
X14634467Y-17144460D02*
X14653515Y-17153984D01*
X14653515Y-17153984D02*
X14691610Y-17153984D01*
X14691610Y-17153984D02*
X14710658Y-17144460D01*
X14710658Y-17144460D02*
X14720182Y-17134936D01*
X14720182Y-17134936D02*
X14729705Y-17115889D01*
X14729705Y-17115889D02*
X14729705Y-17068270D01*
X14729705Y-17068270D02*
X14720182Y-17049222D01*
X14720182Y-17049222D02*
X14710658Y-17039698D01*
X14710658Y-17039698D02*
X14691610Y-17030174D01*
X14691610Y-17030174D02*
X14653515Y-17030174D01*
X14653515Y-17030174D02*
X14634467Y-17039698D01*
X14634467Y-17039698D02*
X14624943Y-17049222D01*
X14624943Y-17049222D02*
X14615420Y-17068270D01*
X14815420Y-17153984D02*
X14815420Y-17020650D01*
X14815420Y-17039698D02*
X14824943Y-17030174D01*
X14824943Y-17030174D02*
X14843991Y-17020650D01*
X14843991Y-17020650D02*
X14872563Y-17020650D01*
X14872563Y-17020650D02*
X14891610Y-17030174D01*
X14891610Y-17030174D02*
X14901134Y-17049222D01*
X14901134Y-17049222D02*
X14901134Y-17153984D01*
X14901134Y-17049222D02*
X14910658Y-17030174D01*
X14910658Y-17030174D02*
X14929705Y-17020650D01*
X14929705Y-17020650D02*
X14958277Y-17020650D01*
X14958277Y-17020650D02*
X14977324Y-17030174D01*
X14977324Y-17030174D02*
X14986848Y-17049222D01*
X14986848Y-17049222D02*
X14986848Y-17153984D01*
X15082086Y-17153984D02*
X15082086Y-17020650D01*
X15082086Y-17039698D02*
X15091610Y-17030174D01*
X15091610Y-17030174D02*
X15110658Y-17020650D01*
X15110658Y-17020650D02*
X15139229Y-17020650D01*
X15139229Y-17020650D02*
X15158277Y-17030174D01*
X15158277Y-17030174D02*
X15167801Y-17049222D01*
X15167801Y-17049222D02*
X15167801Y-17153984D01*
X15167801Y-17049222D02*
X15177324Y-17030174D01*
X15177324Y-17030174D02*
X15196372Y-17020650D01*
X15196372Y-17020650D02*
X15224943Y-17020650D01*
X15224943Y-17020650D02*
X15243991Y-17030174D01*
X15243991Y-17030174D02*
X15253515Y-17049222D01*
X15253515Y-17049222D02*
X15253515Y-17153984D01*
X15643991Y-16944460D02*
X15472563Y-17201603D01*
X15901134Y-16953984D02*
X15920182Y-16953984D01*
X15920182Y-16953984D02*
X15939229Y-16963508D01*
X15939229Y-16963508D02*
X15948753Y-16973031D01*
X15948753Y-16973031D02*
X15958277Y-16992079D01*
X15958277Y-16992079D02*
X15967801Y-17030174D01*
X15967801Y-17030174D02*
X15967801Y-17077793D01*
X15967801Y-17077793D02*
X15958277Y-17115889D01*
X15958277Y-17115889D02*
X15948753Y-17134936D01*
X15948753Y-17134936D02*
X15939229Y-17144460D01*
X15939229Y-17144460D02*
X15920182Y-17153984D01*
X15920182Y-17153984D02*
X15901134Y-17153984D01*
X15901134Y-17153984D02*
X15882086Y-17144460D01*
X15882086Y-17144460D02*
X15872563Y-17134936D01*
X15872563Y-17134936D02*
X15863039Y-17115889D01*
X15863039Y-17115889D02*
X15853515Y-17077793D01*
X15853515Y-17077793D02*
X15853515Y-17030174D01*
X15853515Y-17030174D02*
X15863039Y-16992079D01*
X15863039Y-16992079D02*
X15872563Y-16973031D01*
X15872563Y-16973031D02*
X15882086Y-16963508D01*
X15882086Y-16963508D02*
X15901134Y-16953984D01*
X16053515Y-17134936D02*
X16063039Y-17144460D01*
X16063039Y-17144460D02*
X16053515Y-17153984D01*
X16053515Y-17153984D02*
X16043991Y-17144460D01*
X16043991Y-17144460D02*
X16053515Y-17134936D01*
X16053515Y-17134936D02*
X16053515Y-17153984D01*
X16186848Y-16953984D02*
X16205896Y-16953984D01*
X16205896Y-16953984D02*
X16224944Y-16963508D01*
X16224944Y-16963508D02*
X16234467Y-16973031D01*
X16234467Y-16973031D02*
X16243991Y-16992079D01*
X16243991Y-16992079D02*
X16253515Y-17030174D01*
X16253515Y-17030174D02*
X16253515Y-17077793D01*
X16253515Y-17077793D02*
X16243991Y-17115889D01*
X16243991Y-17115889D02*
X16234467Y-17134936D01*
X16234467Y-17134936D02*
X16224944Y-17144460D01*
X16224944Y-17144460D02*
X16205896Y-17153984D01*
X16205896Y-17153984D02*
X16186848Y-17153984D01*
X16186848Y-17153984D02*
X16167801Y-17144460D01*
X16167801Y-17144460D02*
X16158277Y-17134936D01*
X16158277Y-17134936D02*
X16148753Y-17115889D01*
X16148753Y-17115889D02*
X16139229Y-17077793D01*
X16139229Y-17077793D02*
X16139229Y-17030174D01*
X16139229Y-17030174D02*
X16148753Y-16992079D01*
X16148753Y-16992079D02*
X16158277Y-16973031D01*
X16158277Y-16973031D02*
X16167801Y-16963508D01*
X16167801Y-16963508D02*
X16186848Y-16953984D01*
X16424944Y-17020650D02*
X16424944Y-17153984D01*
X16377325Y-16944460D02*
X16329706Y-17087317D01*
X16329706Y-17087317D02*
X16453515Y-17087317D01*
X16567801Y-16953984D02*
X16586848Y-16953984D01*
X16586848Y-16953984D02*
X16605896Y-16963508D01*
X16605896Y-16963508D02*
X16615420Y-16973031D01*
X16615420Y-16973031D02*
X16624944Y-16992079D01*
X16624944Y-16992079D02*
X16634467Y-17030174D01*
X16634467Y-17030174D02*
X16634467Y-17077793D01*
X16634467Y-17077793D02*
X16624944Y-17115889D01*
X16624944Y-17115889D02*
X16615420Y-17134936D01*
X16615420Y-17134936D02*
X16605896Y-17144460D01*
X16605896Y-17144460D02*
X16586848Y-17153984D01*
X16586848Y-17153984D02*
X16567801Y-17153984D01*
X16567801Y-17153984D02*
X16548753Y-17144460D01*
X16548753Y-17144460D02*
X16539229Y-17134936D01*
X16539229Y-17134936D02*
X16529706Y-17115889D01*
X16529706Y-17115889D02*
X16520182Y-17077793D01*
X16520182Y-17077793D02*
X16520182Y-17030174D01*
X16520182Y-17030174D02*
X16529706Y-16992079D01*
X16529706Y-16992079D02*
X16539229Y-16973031D01*
X16539229Y-16973031D02*
X16548753Y-16963508D01*
X16548753Y-16963508D02*
X16567801Y-16953984D01*
X16758277Y-16953984D02*
X16777325Y-16953984D01*
X16777325Y-16953984D02*
X16796372Y-16963508D01*
X16796372Y-16963508D02*
X16805896Y-16973031D01*
X16805896Y-16973031D02*
X16815420Y-16992079D01*
X16815420Y-16992079D02*
X16824944Y-17030174D01*
X16824944Y-17030174D02*
X16824944Y-17077793D01*
X16824944Y-17077793D02*
X16815420Y-17115889D01*
X16815420Y-17115889D02*
X16805896Y-17134936D01*
X16805896Y-17134936D02*
X16796372Y-17144460D01*
X16796372Y-17144460D02*
X16777325Y-17153984D01*
X16777325Y-17153984D02*
X16758277Y-17153984D01*
X16758277Y-17153984D02*
X16739229Y-17144460D01*
X16739229Y-17144460D02*
X16729706Y-17134936D01*
X16729706Y-17134936D02*
X16720182Y-17115889D01*
X16720182Y-17115889D02*
X16710658Y-17077793D01*
X16710658Y-17077793D02*
X16710658Y-17030174D01*
X16710658Y-17030174D02*
X16720182Y-16992079D01*
X16720182Y-16992079D02*
X16729706Y-16973031D01*
X16729706Y-16973031D02*
X16739229Y-16963508D01*
X16739229Y-16963508D02*
X16758277Y-16953984D01*
X16901134Y-16953984D02*
X16901134Y-16992079D01*
X16977325Y-16953984D02*
X16977325Y-16992079D01*
X17272563Y-17230174D02*
X17263039Y-17220650D01*
X17263039Y-17220650D02*
X17243991Y-17192079D01*
X17243991Y-17192079D02*
X17234468Y-17173031D01*
X17234468Y-17173031D02*
X17224944Y-17144460D01*
X17224944Y-17144460D02*
X17215420Y-17096841D01*
X17215420Y-17096841D02*
X17215420Y-17058746D01*
X17215420Y-17058746D02*
X17224944Y-17011127D01*
X17224944Y-17011127D02*
X17234468Y-16982555D01*
X17234468Y-16982555D02*
X17243991Y-16963508D01*
X17243991Y-16963508D02*
X17263039Y-16934936D01*
X17263039Y-16934936D02*
X17272563Y-16925412D01*
X17434468Y-17020650D02*
X17434468Y-17153984D01*
X17386849Y-16944460D02*
X17339230Y-17087317D01*
X17339230Y-17087317D02*
X17463039Y-17087317D01*
X17691611Y-17153984D02*
X17691611Y-16953984D01*
X17777325Y-17153984D02*
X17777325Y-17049222D01*
X17777325Y-17049222D02*
X17767801Y-17030174D01*
X17767801Y-17030174D02*
X17748753Y-17020650D01*
X17748753Y-17020650D02*
X17720182Y-17020650D01*
X17720182Y-17020650D02*
X17701134Y-17030174D01*
X17701134Y-17030174D02*
X17691611Y-17039698D01*
X17901134Y-17153984D02*
X17882087Y-17144460D01*
X17882087Y-17144460D02*
X17872563Y-17134936D01*
X17872563Y-17134936D02*
X17863039Y-17115889D01*
X17863039Y-17115889D02*
X17863039Y-17058746D01*
X17863039Y-17058746D02*
X17872563Y-17039698D01*
X17872563Y-17039698D02*
X17882087Y-17030174D01*
X17882087Y-17030174D02*
X17901134Y-17020650D01*
X17901134Y-17020650D02*
X17929706Y-17020650D01*
X17929706Y-17020650D02*
X17948753Y-17030174D01*
X17948753Y-17030174D02*
X17958277Y-17039698D01*
X17958277Y-17039698D02*
X17967801Y-17058746D01*
X17967801Y-17058746D02*
X17967801Y-17115889D01*
X17967801Y-17115889D02*
X17958277Y-17134936D01*
X17958277Y-17134936D02*
X17948753Y-17144460D01*
X17948753Y-17144460D02*
X17929706Y-17153984D01*
X17929706Y-17153984D02*
X17901134Y-17153984D01*
X18082087Y-17153984D02*
X18063039Y-17144460D01*
X18063039Y-17144460D02*
X18053515Y-17125412D01*
X18053515Y-17125412D02*
X18053515Y-16953984D01*
X18234468Y-17144460D02*
X18215420Y-17153984D01*
X18215420Y-17153984D02*
X18177325Y-17153984D01*
X18177325Y-17153984D02*
X18158277Y-17144460D01*
X18158277Y-17144460D02*
X18148753Y-17125412D01*
X18148753Y-17125412D02*
X18148753Y-17049222D01*
X18148753Y-17049222D02*
X18158277Y-17030174D01*
X18158277Y-17030174D02*
X18177325Y-17020650D01*
X18177325Y-17020650D02*
X18215420Y-17020650D01*
X18215420Y-17020650D02*
X18234468Y-17030174D01*
X18234468Y-17030174D02*
X18243992Y-17049222D01*
X18243992Y-17049222D02*
X18243992Y-17068270D01*
X18243992Y-17068270D02*
X18148753Y-17087317D01*
X18320182Y-17144460D02*
X18339230Y-17153984D01*
X18339230Y-17153984D02*
X18377325Y-17153984D01*
X18377325Y-17153984D02*
X18396373Y-17144460D01*
X18396373Y-17144460D02*
X18405896Y-17125412D01*
X18405896Y-17125412D02*
X18405896Y-17115889D01*
X18405896Y-17115889D02*
X18396373Y-17096841D01*
X18396373Y-17096841D02*
X18377325Y-17087317D01*
X18377325Y-17087317D02*
X18348753Y-17087317D01*
X18348753Y-17087317D02*
X18329706Y-17077793D01*
X18329706Y-17077793D02*
X18320182Y-17058746D01*
X18320182Y-17058746D02*
X18320182Y-17049222D01*
X18320182Y-17049222D02*
X18329706Y-17030174D01*
X18329706Y-17030174D02*
X18348753Y-17020650D01*
X18348753Y-17020650D02*
X18377325Y-17020650D01*
X18377325Y-17020650D02*
X18396373Y-17030174D01*
X18472563Y-17230174D02*
X18482087Y-17220650D01*
X18482087Y-17220650D02*
X18501134Y-17192079D01*
X18501134Y-17192079D02*
X18510658Y-17173031D01*
X18510658Y-17173031D02*
X18520182Y-17144460D01*
X18520182Y-17144460D02*
X18529706Y-17096841D01*
X18529706Y-17096841D02*
X18529706Y-17058746D01*
X18529706Y-17058746D02*
X18520182Y-17011127D01*
X18520182Y-17011127D02*
X18510658Y-16982555D01*
X18510658Y-16982555D02*
X18501134Y-16963508D01*
X18501134Y-16963508D02*
X18482087Y-16934936D01*
X18482087Y-16934936D02*
X18472563Y-16925412D01*
D14*
X13567500Y-17261500D02*
X13697500Y-17391500D01*
X13697500Y-17261500D02*
X13567500Y-17391500D01*
X13632500Y-17261500D02*
X13632500Y-17391500D01*
X13567500Y-17326500D02*
X13697500Y-17326500D01*
D11*
X14063039Y-17417984D02*
X13948753Y-17417984D01*
X14005896Y-17417984D02*
X14005896Y-17217984D01*
X14005896Y-17217984D02*
X13986848Y-17246555D01*
X13986848Y-17246555D02*
X13967801Y-17265603D01*
X13967801Y-17265603D02*
X13948753Y-17275127D01*
X14148753Y-17398936D02*
X14158277Y-17408460D01*
X14158277Y-17408460D02*
X14148753Y-17417984D01*
X14148753Y-17417984D02*
X14139229Y-17408460D01*
X14139229Y-17408460D02*
X14148753Y-17398936D01*
X14148753Y-17398936D02*
X14148753Y-17417984D01*
X14224943Y-17217984D02*
X14348753Y-17217984D01*
X14348753Y-17217984D02*
X14282086Y-17294174D01*
X14282086Y-17294174D02*
X14310658Y-17294174D01*
X14310658Y-17294174D02*
X14329705Y-17303698D01*
X14329705Y-17303698D02*
X14339229Y-17313222D01*
X14339229Y-17313222D02*
X14348753Y-17332270D01*
X14348753Y-17332270D02*
X14348753Y-17379889D01*
X14348753Y-17379889D02*
X14339229Y-17398936D01*
X14339229Y-17398936D02*
X14329705Y-17408460D01*
X14329705Y-17408460D02*
X14310658Y-17417984D01*
X14310658Y-17417984D02*
X14253515Y-17417984D01*
X14253515Y-17417984D02*
X14234467Y-17408460D01*
X14234467Y-17408460D02*
X14224943Y-17398936D01*
X14472562Y-17217984D02*
X14491610Y-17217984D01*
X14491610Y-17217984D02*
X14510658Y-17227508D01*
X14510658Y-17227508D02*
X14520182Y-17237031D01*
X14520182Y-17237031D02*
X14529705Y-17256079D01*
X14529705Y-17256079D02*
X14539229Y-17294174D01*
X14539229Y-17294174D02*
X14539229Y-17341793D01*
X14539229Y-17341793D02*
X14529705Y-17379889D01*
X14529705Y-17379889D02*
X14520182Y-17398936D01*
X14520182Y-17398936D02*
X14510658Y-17408460D01*
X14510658Y-17408460D02*
X14491610Y-17417984D01*
X14491610Y-17417984D02*
X14472562Y-17417984D01*
X14472562Y-17417984D02*
X14453515Y-17408460D01*
X14453515Y-17408460D02*
X14443991Y-17398936D01*
X14443991Y-17398936D02*
X14434467Y-17379889D01*
X14434467Y-17379889D02*
X14424943Y-17341793D01*
X14424943Y-17341793D02*
X14424943Y-17294174D01*
X14424943Y-17294174D02*
X14434467Y-17256079D01*
X14434467Y-17256079D02*
X14443991Y-17237031D01*
X14443991Y-17237031D02*
X14453515Y-17227508D01*
X14453515Y-17227508D02*
X14472562Y-17217984D01*
X14663039Y-17217984D02*
X14682086Y-17217984D01*
X14682086Y-17217984D02*
X14701134Y-17227508D01*
X14701134Y-17227508D02*
X14710658Y-17237031D01*
X14710658Y-17237031D02*
X14720182Y-17256079D01*
X14720182Y-17256079D02*
X14729705Y-17294174D01*
X14729705Y-17294174D02*
X14729705Y-17341793D01*
X14729705Y-17341793D02*
X14720182Y-17379889D01*
X14720182Y-17379889D02*
X14710658Y-17398936D01*
X14710658Y-17398936D02*
X14701134Y-17408460D01*
X14701134Y-17408460D02*
X14682086Y-17417984D01*
X14682086Y-17417984D02*
X14663039Y-17417984D01*
X14663039Y-17417984D02*
X14643991Y-17408460D01*
X14643991Y-17408460D02*
X14634467Y-17398936D01*
X14634467Y-17398936D02*
X14624943Y-17379889D01*
X14624943Y-17379889D02*
X14615420Y-17341793D01*
X14615420Y-17341793D02*
X14615420Y-17294174D01*
X14615420Y-17294174D02*
X14624943Y-17256079D01*
X14624943Y-17256079D02*
X14634467Y-17237031D01*
X14634467Y-17237031D02*
X14643991Y-17227508D01*
X14643991Y-17227508D02*
X14663039Y-17217984D01*
X14815420Y-17417984D02*
X14815420Y-17284650D01*
X14815420Y-17303698D02*
X14824943Y-17294174D01*
X14824943Y-17294174D02*
X14843991Y-17284650D01*
X14843991Y-17284650D02*
X14872563Y-17284650D01*
X14872563Y-17284650D02*
X14891610Y-17294174D01*
X14891610Y-17294174D02*
X14901134Y-17313222D01*
X14901134Y-17313222D02*
X14901134Y-17417984D01*
X14901134Y-17313222D02*
X14910658Y-17294174D01*
X14910658Y-17294174D02*
X14929705Y-17284650D01*
X14929705Y-17284650D02*
X14958277Y-17284650D01*
X14958277Y-17284650D02*
X14977324Y-17294174D01*
X14977324Y-17294174D02*
X14986848Y-17313222D01*
X14986848Y-17313222D02*
X14986848Y-17417984D01*
X15082086Y-17417984D02*
X15082086Y-17284650D01*
X15082086Y-17303698D02*
X15091610Y-17294174D01*
X15091610Y-17294174D02*
X15110658Y-17284650D01*
X15110658Y-17284650D02*
X15139229Y-17284650D01*
X15139229Y-17284650D02*
X15158277Y-17294174D01*
X15158277Y-17294174D02*
X15167801Y-17313222D01*
X15167801Y-17313222D02*
X15167801Y-17417984D01*
X15167801Y-17313222D02*
X15177324Y-17294174D01*
X15177324Y-17294174D02*
X15196372Y-17284650D01*
X15196372Y-17284650D02*
X15224943Y-17284650D01*
X15224943Y-17284650D02*
X15243991Y-17294174D01*
X15243991Y-17294174D02*
X15253515Y-17313222D01*
X15253515Y-17313222D02*
X15253515Y-17417984D01*
X15643991Y-17208460D02*
X15472563Y-17465603D01*
X15901134Y-17217984D02*
X15920182Y-17217984D01*
X15920182Y-17217984D02*
X15939229Y-17227508D01*
X15939229Y-17227508D02*
X15948753Y-17237031D01*
X15948753Y-17237031D02*
X15958277Y-17256079D01*
X15958277Y-17256079D02*
X15967801Y-17294174D01*
X15967801Y-17294174D02*
X15967801Y-17341793D01*
X15967801Y-17341793D02*
X15958277Y-17379889D01*
X15958277Y-17379889D02*
X15948753Y-17398936D01*
X15948753Y-17398936D02*
X15939229Y-17408460D01*
X15939229Y-17408460D02*
X15920182Y-17417984D01*
X15920182Y-17417984D02*
X15901134Y-17417984D01*
X15901134Y-17417984D02*
X15882086Y-17408460D01*
X15882086Y-17408460D02*
X15872563Y-17398936D01*
X15872563Y-17398936D02*
X15863039Y-17379889D01*
X15863039Y-17379889D02*
X15853515Y-17341793D01*
X15853515Y-17341793D02*
X15853515Y-17294174D01*
X15853515Y-17294174D02*
X15863039Y-17256079D01*
X15863039Y-17256079D02*
X15872563Y-17237031D01*
X15872563Y-17237031D02*
X15882086Y-17227508D01*
X15882086Y-17227508D02*
X15901134Y-17217984D01*
X16053515Y-17398936D02*
X16063039Y-17408460D01*
X16063039Y-17408460D02*
X16053515Y-17417984D01*
X16053515Y-17417984D02*
X16043991Y-17408460D01*
X16043991Y-17408460D02*
X16053515Y-17398936D01*
X16053515Y-17398936D02*
X16053515Y-17417984D01*
X16186848Y-17217984D02*
X16205896Y-17217984D01*
X16205896Y-17217984D02*
X16224944Y-17227508D01*
X16224944Y-17227508D02*
X16234467Y-17237031D01*
X16234467Y-17237031D02*
X16243991Y-17256079D01*
X16243991Y-17256079D02*
X16253515Y-17294174D01*
X16253515Y-17294174D02*
X16253515Y-17341793D01*
X16253515Y-17341793D02*
X16243991Y-17379889D01*
X16243991Y-17379889D02*
X16234467Y-17398936D01*
X16234467Y-17398936D02*
X16224944Y-17408460D01*
X16224944Y-17408460D02*
X16205896Y-17417984D01*
X16205896Y-17417984D02*
X16186848Y-17417984D01*
X16186848Y-17417984D02*
X16167801Y-17408460D01*
X16167801Y-17408460D02*
X16158277Y-17398936D01*
X16158277Y-17398936D02*
X16148753Y-17379889D01*
X16148753Y-17379889D02*
X16139229Y-17341793D01*
X16139229Y-17341793D02*
X16139229Y-17294174D01*
X16139229Y-17294174D02*
X16148753Y-17256079D01*
X16148753Y-17256079D02*
X16158277Y-17237031D01*
X16158277Y-17237031D02*
X16167801Y-17227508D01*
X16167801Y-17227508D02*
X16186848Y-17217984D01*
X16434467Y-17217984D02*
X16339229Y-17217984D01*
X16339229Y-17217984D02*
X16329706Y-17313222D01*
X16329706Y-17313222D02*
X16339229Y-17303698D01*
X16339229Y-17303698D02*
X16358277Y-17294174D01*
X16358277Y-17294174D02*
X16405896Y-17294174D01*
X16405896Y-17294174D02*
X16424944Y-17303698D01*
X16424944Y-17303698D02*
X16434467Y-17313222D01*
X16434467Y-17313222D02*
X16443991Y-17332270D01*
X16443991Y-17332270D02*
X16443991Y-17379889D01*
X16443991Y-17379889D02*
X16434467Y-17398936D01*
X16434467Y-17398936D02*
X16424944Y-17408460D01*
X16424944Y-17408460D02*
X16405896Y-17417984D01*
X16405896Y-17417984D02*
X16358277Y-17417984D01*
X16358277Y-17417984D02*
X16339229Y-17408460D01*
X16339229Y-17408460D02*
X16329706Y-17398936D01*
X16634467Y-17417984D02*
X16520182Y-17417984D01*
X16577325Y-17417984D02*
X16577325Y-17217984D01*
X16577325Y-17217984D02*
X16558277Y-17246555D01*
X16558277Y-17246555D02*
X16539229Y-17265603D01*
X16539229Y-17265603D02*
X16520182Y-17275127D01*
X16710658Y-17237031D02*
X16720182Y-17227508D01*
X16720182Y-17227508D02*
X16739229Y-17217984D01*
X16739229Y-17217984D02*
X16786849Y-17217984D01*
X16786849Y-17217984D02*
X16805896Y-17227508D01*
X16805896Y-17227508D02*
X16815420Y-17237031D01*
X16815420Y-17237031D02*
X16824944Y-17256079D01*
X16824944Y-17256079D02*
X16824944Y-17275127D01*
X16824944Y-17275127D02*
X16815420Y-17303698D01*
X16815420Y-17303698D02*
X16701134Y-17417984D01*
X16701134Y-17417984D02*
X16824944Y-17417984D01*
X16901134Y-17217984D02*
X16901134Y-17256079D01*
X16977325Y-17217984D02*
X16977325Y-17256079D01*
X17272563Y-17494174D02*
X17263039Y-17484650D01*
X17263039Y-17484650D02*
X17243991Y-17456079D01*
X17243991Y-17456079D02*
X17234468Y-17437031D01*
X17234468Y-17437031D02*
X17224944Y-17408460D01*
X17224944Y-17408460D02*
X17215420Y-17360841D01*
X17215420Y-17360841D02*
X17215420Y-17322746D01*
X17215420Y-17322746D02*
X17224944Y-17275127D01*
X17224944Y-17275127D02*
X17234468Y-17246555D01*
X17234468Y-17246555D02*
X17243991Y-17227508D01*
X17243991Y-17227508D02*
X17263039Y-17198936D01*
X17263039Y-17198936D02*
X17272563Y-17189412D01*
X17434468Y-17284650D02*
X17434468Y-17417984D01*
X17386849Y-17208460D02*
X17339230Y-17351317D01*
X17339230Y-17351317D02*
X17463039Y-17351317D01*
X17520182Y-17217984D02*
X17643991Y-17217984D01*
X17643991Y-17217984D02*
X17577325Y-17294174D01*
X17577325Y-17294174D02*
X17605896Y-17294174D01*
X17605896Y-17294174D02*
X17624944Y-17303698D01*
X17624944Y-17303698D02*
X17634468Y-17313222D01*
X17634468Y-17313222D02*
X17643991Y-17332270D01*
X17643991Y-17332270D02*
X17643991Y-17379889D01*
X17643991Y-17379889D02*
X17634468Y-17398936D01*
X17634468Y-17398936D02*
X17624944Y-17408460D01*
X17624944Y-17408460D02*
X17605896Y-17417984D01*
X17605896Y-17417984D02*
X17548753Y-17417984D01*
X17548753Y-17417984D02*
X17529706Y-17408460D01*
X17529706Y-17408460D02*
X17520182Y-17398936D01*
X17882087Y-17417984D02*
X17882087Y-17217984D01*
X17967801Y-17417984D02*
X17967801Y-17313222D01*
X17967801Y-17313222D02*
X17958277Y-17294174D01*
X17958277Y-17294174D02*
X17939230Y-17284650D01*
X17939230Y-17284650D02*
X17910658Y-17284650D01*
X17910658Y-17284650D02*
X17891611Y-17294174D01*
X17891611Y-17294174D02*
X17882087Y-17303698D01*
X18091611Y-17417984D02*
X18072563Y-17408460D01*
X18072563Y-17408460D02*
X18063039Y-17398936D01*
X18063039Y-17398936D02*
X18053515Y-17379889D01*
X18053515Y-17379889D02*
X18053515Y-17322746D01*
X18053515Y-17322746D02*
X18063039Y-17303698D01*
X18063039Y-17303698D02*
X18072563Y-17294174D01*
X18072563Y-17294174D02*
X18091611Y-17284650D01*
X18091611Y-17284650D02*
X18120182Y-17284650D01*
X18120182Y-17284650D02*
X18139230Y-17294174D01*
X18139230Y-17294174D02*
X18148753Y-17303698D01*
X18148753Y-17303698D02*
X18158277Y-17322746D01*
X18158277Y-17322746D02*
X18158277Y-17379889D01*
X18158277Y-17379889D02*
X18148753Y-17398936D01*
X18148753Y-17398936D02*
X18139230Y-17408460D01*
X18139230Y-17408460D02*
X18120182Y-17417984D01*
X18120182Y-17417984D02*
X18091611Y-17417984D01*
X18272563Y-17417984D02*
X18253515Y-17408460D01*
X18253515Y-17408460D02*
X18243992Y-17389412D01*
X18243992Y-17389412D02*
X18243992Y-17217984D01*
X18424944Y-17408460D02*
X18405896Y-17417984D01*
X18405896Y-17417984D02*
X18367801Y-17417984D01*
X18367801Y-17417984D02*
X18348753Y-17408460D01*
X18348753Y-17408460D02*
X18339230Y-17389412D01*
X18339230Y-17389412D02*
X18339230Y-17313222D01*
X18339230Y-17313222D02*
X18348753Y-17294174D01*
X18348753Y-17294174D02*
X18367801Y-17284650D01*
X18367801Y-17284650D02*
X18405896Y-17284650D01*
X18405896Y-17284650D02*
X18424944Y-17294174D01*
X18424944Y-17294174D02*
X18434468Y-17313222D01*
X18434468Y-17313222D02*
X18434468Y-17332270D01*
X18434468Y-17332270D02*
X18339230Y-17351317D01*
X18510658Y-17408460D02*
X18529706Y-17417984D01*
X18529706Y-17417984D02*
X18567801Y-17417984D01*
X18567801Y-17417984D02*
X18586849Y-17408460D01*
X18586849Y-17408460D02*
X18596373Y-17389412D01*
X18596373Y-17389412D02*
X18596373Y-17379889D01*
X18596373Y-17379889D02*
X18586849Y-17360841D01*
X18586849Y-17360841D02*
X18567801Y-17351317D01*
X18567801Y-17351317D02*
X18539230Y-17351317D01*
X18539230Y-17351317D02*
X18520182Y-17341793D01*
X18520182Y-17341793D02*
X18510658Y-17322746D01*
X18510658Y-17322746D02*
X18510658Y-17313222D01*
X18510658Y-17313222D02*
X18520182Y-17294174D01*
X18520182Y-17294174D02*
X18539230Y-17284650D01*
X18539230Y-17284650D02*
X18567801Y-17284650D01*
X18567801Y-17284650D02*
X18586849Y-17294174D01*
X18663039Y-17494174D02*
X18672563Y-17484650D01*
X18672563Y-17484650D02*
X18691611Y-17456079D01*
X18691611Y-17456079D02*
X18701134Y-17437031D01*
X18701134Y-17437031D02*
X18710658Y-17408460D01*
X18710658Y-17408460D02*
X18720182Y-17360841D01*
X18720182Y-17360841D02*
X18720182Y-17322746D01*
X18720182Y-17322746D02*
X18710658Y-17275127D01*
X18710658Y-17275127D02*
X18701134Y-17246555D01*
X18701134Y-17246555D02*
X18691611Y-17227508D01*
X18691611Y-17227508D02*
X18672563Y-17198936D01*
X18672563Y-17198936D02*
X18663039Y-17189412D01*
D15*
X13532400Y-17507950D02*
X13697500Y-17673050D01*
X13697500Y-17507950D02*
X13532400Y-17673050D01*
X13673322Y-17648872D02*
X13673322Y-17532128D01*
X13556578Y-17532128D01*
X13556578Y-17648872D01*
X13673322Y-17648872D01*
D11*
X14063039Y-17681984D02*
X13948753Y-17681984D01*
X14005896Y-17681984D02*
X14005896Y-17481984D01*
X14005896Y-17481984D02*
X13986848Y-17510555D01*
X13986848Y-17510555D02*
X13967801Y-17529603D01*
X13967801Y-17529603D02*
X13948753Y-17539127D01*
X14148753Y-17662936D02*
X14158277Y-17672460D01*
X14158277Y-17672460D02*
X14148753Y-17681984D01*
X14148753Y-17681984D02*
X14139229Y-17672460D01*
X14139229Y-17672460D02*
X14148753Y-17662936D01*
X14148753Y-17662936D02*
X14148753Y-17681984D01*
X14329705Y-17481984D02*
X14291610Y-17481984D01*
X14291610Y-17481984D02*
X14272562Y-17491508D01*
X14272562Y-17491508D02*
X14263039Y-17501031D01*
X14263039Y-17501031D02*
X14243991Y-17529603D01*
X14243991Y-17529603D02*
X14234467Y-17567698D01*
X14234467Y-17567698D02*
X14234467Y-17643889D01*
X14234467Y-17643889D02*
X14243991Y-17662936D01*
X14243991Y-17662936D02*
X14253515Y-17672460D01*
X14253515Y-17672460D02*
X14272562Y-17681984D01*
X14272562Y-17681984D02*
X14310658Y-17681984D01*
X14310658Y-17681984D02*
X14329705Y-17672460D01*
X14329705Y-17672460D02*
X14339229Y-17662936D01*
X14339229Y-17662936D02*
X14348753Y-17643889D01*
X14348753Y-17643889D02*
X14348753Y-17596270D01*
X14348753Y-17596270D02*
X14339229Y-17577222D01*
X14339229Y-17577222D02*
X14329705Y-17567698D01*
X14329705Y-17567698D02*
X14310658Y-17558174D01*
X14310658Y-17558174D02*
X14272562Y-17558174D01*
X14272562Y-17558174D02*
X14253515Y-17567698D01*
X14253515Y-17567698D02*
X14243991Y-17577222D01*
X14243991Y-17577222D02*
X14234467Y-17596270D01*
X14529705Y-17481984D02*
X14434467Y-17481984D01*
X14434467Y-17481984D02*
X14424943Y-17577222D01*
X14424943Y-17577222D02*
X14434467Y-17567698D01*
X14434467Y-17567698D02*
X14453515Y-17558174D01*
X14453515Y-17558174D02*
X14501134Y-17558174D01*
X14501134Y-17558174D02*
X14520182Y-17567698D01*
X14520182Y-17567698D02*
X14529705Y-17577222D01*
X14529705Y-17577222D02*
X14539229Y-17596270D01*
X14539229Y-17596270D02*
X14539229Y-17643889D01*
X14539229Y-17643889D02*
X14529705Y-17662936D01*
X14529705Y-17662936D02*
X14520182Y-17672460D01*
X14520182Y-17672460D02*
X14501134Y-17681984D01*
X14501134Y-17681984D02*
X14453515Y-17681984D01*
X14453515Y-17681984D02*
X14434467Y-17672460D01*
X14434467Y-17672460D02*
X14424943Y-17662936D01*
X14729705Y-17681984D02*
X14615420Y-17681984D01*
X14672562Y-17681984D02*
X14672562Y-17481984D01*
X14672562Y-17481984D02*
X14653515Y-17510555D01*
X14653515Y-17510555D02*
X14634467Y-17529603D01*
X14634467Y-17529603D02*
X14615420Y-17539127D01*
X14815420Y-17681984D02*
X14815420Y-17548650D01*
X14815420Y-17567698D02*
X14824943Y-17558174D01*
X14824943Y-17558174D02*
X14843991Y-17548650D01*
X14843991Y-17548650D02*
X14872563Y-17548650D01*
X14872563Y-17548650D02*
X14891610Y-17558174D01*
X14891610Y-17558174D02*
X14901134Y-17577222D01*
X14901134Y-17577222D02*
X14901134Y-17681984D01*
X14901134Y-17577222D02*
X14910658Y-17558174D01*
X14910658Y-17558174D02*
X14929705Y-17548650D01*
X14929705Y-17548650D02*
X14958277Y-17548650D01*
X14958277Y-17548650D02*
X14977324Y-17558174D01*
X14977324Y-17558174D02*
X14986848Y-17577222D01*
X14986848Y-17577222D02*
X14986848Y-17681984D01*
X15082086Y-17681984D02*
X15082086Y-17548650D01*
X15082086Y-17567698D02*
X15091610Y-17558174D01*
X15091610Y-17558174D02*
X15110658Y-17548650D01*
X15110658Y-17548650D02*
X15139229Y-17548650D01*
X15139229Y-17548650D02*
X15158277Y-17558174D01*
X15158277Y-17558174D02*
X15167801Y-17577222D01*
X15167801Y-17577222D02*
X15167801Y-17681984D01*
X15167801Y-17577222D02*
X15177324Y-17558174D01*
X15177324Y-17558174D02*
X15196372Y-17548650D01*
X15196372Y-17548650D02*
X15224943Y-17548650D01*
X15224943Y-17548650D02*
X15243991Y-17558174D01*
X15243991Y-17558174D02*
X15253515Y-17577222D01*
X15253515Y-17577222D02*
X15253515Y-17681984D01*
X15643991Y-17472460D02*
X15472563Y-17729603D01*
X15901134Y-17481984D02*
X15920182Y-17481984D01*
X15920182Y-17481984D02*
X15939229Y-17491508D01*
X15939229Y-17491508D02*
X15948753Y-17501031D01*
X15948753Y-17501031D02*
X15958277Y-17520079D01*
X15958277Y-17520079D02*
X15967801Y-17558174D01*
X15967801Y-17558174D02*
X15967801Y-17605793D01*
X15967801Y-17605793D02*
X15958277Y-17643889D01*
X15958277Y-17643889D02*
X15948753Y-17662936D01*
X15948753Y-17662936D02*
X15939229Y-17672460D01*
X15939229Y-17672460D02*
X15920182Y-17681984D01*
X15920182Y-17681984D02*
X15901134Y-17681984D01*
X15901134Y-17681984D02*
X15882086Y-17672460D01*
X15882086Y-17672460D02*
X15872563Y-17662936D01*
X15872563Y-17662936D02*
X15863039Y-17643889D01*
X15863039Y-17643889D02*
X15853515Y-17605793D01*
X15853515Y-17605793D02*
X15853515Y-17558174D01*
X15853515Y-17558174D02*
X15863039Y-17520079D01*
X15863039Y-17520079D02*
X15872563Y-17501031D01*
X15872563Y-17501031D02*
X15882086Y-17491508D01*
X15882086Y-17491508D02*
X15901134Y-17481984D01*
X16053515Y-17662936D02*
X16063039Y-17672460D01*
X16063039Y-17672460D02*
X16053515Y-17681984D01*
X16053515Y-17681984D02*
X16043991Y-17672460D01*
X16043991Y-17672460D02*
X16053515Y-17662936D01*
X16053515Y-17662936D02*
X16053515Y-17681984D01*
X16186848Y-17481984D02*
X16205896Y-17481984D01*
X16205896Y-17481984D02*
X16224944Y-17491508D01*
X16224944Y-17491508D02*
X16234467Y-17501031D01*
X16234467Y-17501031D02*
X16243991Y-17520079D01*
X16243991Y-17520079D02*
X16253515Y-17558174D01*
X16253515Y-17558174D02*
X16253515Y-17605793D01*
X16253515Y-17605793D02*
X16243991Y-17643889D01*
X16243991Y-17643889D02*
X16234467Y-17662936D01*
X16234467Y-17662936D02*
X16224944Y-17672460D01*
X16224944Y-17672460D02*
X16205896Y-17681984D01*
X16205896Y-17681984D02*
X16186848Y-17681984D01*
X16186848Y-17681984D02*
X16167801Y-17672460D01*
X16167801Y-17672460D02*
X16158277Y-17662936D01*
X16158277Y-17662936D02*
X16148753Y-17643889D01*
X16148753Y-17643889D02*
X16139229Y-17605793D01*
X16139229Y-17605793D02*
X16139229Y-17558174D01*
X16139229Y-17558174D02*
X16148753Y-17520079D01*
X16148753Y-17520079D02*
X16158277Y-17501031D01*
X16158277Y-17501031D02*
X16167801Y-17491508D01*
X16167801Y-17491508D02*
X16186848Y-17481984D01*
X16424944Y-17481984D02*
X16386848Y-17481984D01*
X16386848Y-17481984D02*
X16367801Y-17491508D01*
X16367801Y-17491508D02*
X16358277Y-17501031D01*
X16358277Y-17501031D02*
X16339229Y-17529603D01*
X16339229Y-17529603D02*
X16329706Y-17567698D01*
X16329706Y-17567698D02*
X16329706Y-17643889D01*
X16329706Y-17643889D02*
X16339229Y-17662936D01*
X16339229Y-17662936D02*
X16348753Y-17672460D01*
X16348753Y-17672460D02*
X16367801Y-17681984D01*
X16367801Y-17681984D02*
X16405896Y-17681984D01*
X16405896Y-17681984D02*
X16424944Y-17672460D01*
X16424944Y-17672460D02*
X16434467Y-17662936D01*
X16434467Y-17662936D02*
X16443991Y-17643889D01*
X16443991Y-17643889D02*
X16443991Y-17596270D01*
X16443991Y-17596270D02*
X16434467Y-17577222D01*
X16434467Y-17577222D02*
X16424944Y-17567698D01*
X16424944Y-17567698D02*
X16405896Y-17558174D01*
X16405896Y-17558174D02*
X16367801Y-17558174D01*
X16367801Y-17558174D02*
X16348753Y-17567698D01*
X16348753Y-17567698D02*
X16339229Y-17577222D01*
X16339229Y-17577222D02*
X16329706Y-17596270D01*
X16624944Y-17481984D02*
X16529706Y-17481984D01*
X16529706Y-17481984D02*
X16520182Y-17577222D01*
X16520182Y-17577222D02*
X16529706Y-17567698D01*
X16529706Y-17567698D02*
X16548753Y-17558174D01*
X16548753Y-17558174D02*
X16596372Y-17558174D01*
X16596372Y-17558174D02*
X16615420Y-17567698D01*
X16615420Y-17567698D02*
X16624944Y-17577222D01*
X16624944Y-17577222D02*
X16634467Y-17596270D01*
X16634467Y-17596270D02*
X16634467Y-17643889D01*
X16634467Y-17643889D02*
X16624944Y-17662936D01*
X16624944Y-17662936D02*
X16615420Y-17672460D01*
X16615420Y-17672460D02*
X16596372Y-17681984D01*
X16596372Y-17681984D02*
X16548753Y-17681984D01*
X16548753Y-17681984D02*
X16529706Y-17672460D01*
X16529706Y-17672460D02*
X16520182Y-17662936D01*
X16758277Y-17481984D02*
X16777325Y-17481984D01*
X16777325Y-17481984D02*
X16796372Y-17491508D01*
X16796372Y-17491508D02*
X16805896Y-17501031D01*
X16805896Y-17501031D02*
X16815420Y-17520079D01*
X16815420Y-17520079D02*
X16824944Y-17558174D01*
X16824944Y-17558174D02*
X16824944Y-17605793D01*
X16824944Y-17605793D02*
X16815420Y-17643889D01*
X16815420Y-17643889D02*
X16805896Y-17662936D01*
X16805896Y-17662936D02*
X16796372Y-17672460D01*
X16796372Y-17672460D02*
X16777325Y-17681984D01*
X16777325Y-17681984D02*
X16758277Y-17681984D01*
X16758277Y-17681984D02*
X16739229Y-17672460D01*
X16739229Y-17672460D02*
X16729706Y-17662936D01*
X16729706Y-17662936D02*
X16720182Y-17643889D01*
X16720182Y-17643889D02*
X16710658Y-17605793D01*
X16710658Y-17605793D02*
X16710658Y-17558174D01*
X16710658Y-17558174D02*
X16720182Y-17520079D01*
X16720182Y-17520079D02*
X16729706Y-17501031D01*
X16729706Y-17501031D02*
X16739229Y-17491508D01*
X16739229Y-17491508D02*
X16758277Y-17481984D01*
X16901134Y-17481984D02*
X16901134Y-17520079D01*
X16977325Y-17481984D02*
X16977325Y-17520079D01*
X17272563Y-17758174D02*
X17263039Y-17748650D01*
X17263039Y-17748650D02*
X17243991Y-17720079D01*
X17243991Y-17720079D02*
X17234468Y-17701031D01*
X17234468Y-17701031D02*
X17224944Y-17672460D01*
X17224944Y-17672460D02*
X17215420Y-17624841D01*
X17215420Y-17624841D02*
X17215420Y-17586746D01*
X17215420Y-17586746D02*
X17224944Y-17539127D01*
X17224944Y-17539127D02*
X17234468Y-17510555D01*
X17234468Y-17510555D02*
X17243991Y-17491508D01*
X17243991Y-17491508D02*
X17263039Y-17462936D01*
X17263039Y-17462936D02*
X17272563Y-17453412D01*
X17339230Y-17501031D02*
X17348753Y-17491508D01*
X17348753Y-17491508D02*
X17367801Y-17481984D01*
X17367801Y-17481984D02*
X17415420Y-17481984D01*
X17415420Y-17481984D02*
X17434468Y-17491508D01*
X17434468Y-17491508D02*
X17443991Y-17501031D01*
X17443991Y-17501031D02*
X17453515Y-17520079D01*
X17453515Y-17520079D02*
X17453515Y-17539127D01*
X17453515Y-17539127D02*
X17443991Y-17567698D01*
X17443991Y-17567698D02*
X17329706Y-17681984D01*
X17329706Y-17681984D02*
X17453515Y-17681984D01*
X17691611Y-17681984D02*
X17691611Y-17481984D01*
X17777325Y-17681984D02*
X17777325Y-17577222D01*
X17777325Y-17577222D02*
X17767801Y-17558174D01*
X17767801Y-17558174D02*
X17748753Y-17548650D01*
X17748753Y-17548650D02*
X17720182Y-17548650D01*
X17720182Y-17548650D02*
X17701134Y-17558174D01*
X17701134Y-17558174D02*
X17691611Y-17567698D01*
X17901134Y-17681984D02*
X17882087Y-17672460D01*
X17882087Y-17672460D02*
X17872563Y-17662936D01*
X17872563Y-17662936D02*
X17863039Y-17643889D01*
X17863039Y-17643889D02*
X17863039Y-17586746D01*
X17863039Y-17586746D02*
X17872563Y-17567698D01*
X17872563Y-17567698D02*
X17882087Y-17558174D01*
X17882087Y-17558174D02*
X17901134Y-17548650D01*
X17901134Y-17548650D02*
X17929706Y-17548650D01*
X17929706Y-17548650D02*
X17948753Y-17558174D01*
X17948753Y-17558174D02*
X17958277Y-17567698D01*
X17958277Y-17567698D02*
X17967801Y-17586746D01*
X17967801Y-17586746D02*
X17967801Y-17643889D01*
X17967801Y-17643889D02*
X17958277Y-17662936D01*
X17958277Y-17662936D02*
X17948753Y-17672460D01*
X17948753Y-17672460D02*
X17929706Y-17681984D01*
X17929706Y-17681984D02*
X17901134Y-17681984D01*
X18082087Y-17681984D02*
X18063039Y-17672460D01*
X18063039Y-17672460D02*
X18053515Y-17653412D01*
X18053515Y-17653412D02*
X18053515Y-17481984D01*
X18234468Y-17672460D02*
X18215420Y-17681984D01*
X18215420Y-17681984D02*
X18177325Y-17681984D01*
X18177325Y-17681984D02*
X18158277Y-17672460D01*
X18158277Y-17672460D02*
X18148753Y-17653412D01*
X18148753Y-17653412D02*
X18148753Y-17577222D01*
X18148753Y-17577222D02*
X18158277Y-17558174D01*
X18158277Y-17558174D02*
X18177325Y-17548650D01*
X18177325Y-17548650D02*
X18215420Y-17548650D01*
X18215420Y-17548650D02*
X18234468Y-17558174D01*
X18234468Y-17558174D02*
X18243992Y-17577222D01*
X18243992Y-17577222D02*
X18243992Y-17596270D01*
X18243992Y-17596270D02*
X18148753Y-17615317D01*
X18320182Y-17672460D02*
X18339230Y-17681984D01*
X18339230Y-17681984D02*
X18377325Y-17681984D01*
X18377325Y-17681984D02*
X18396373Y-17672460D01*
X18396373Y-17672460D02*
X18405896Y-17653412D01*
X18405896Y-17653412D02*
X18405896Y-17643889D01*
X18405896Y-17643889D02*
X18396373Y-17624841D01*
X18396373Y-17624841D02*
X18377325Y-17615317D01*
X18377325Y-17615317D02*
X18348753Y-17615317D01*
X18348753Y-17615317D02*
X18329706Y-17605793D01*
X18329706Y-17605793D02*
X18320182Y-17586746D01*
X18320182Y-17586746D02*
X18320182Y-17577222D01*
X18320182Y-17577222D02*
X18329706Y-17558174D01*
X18329706Y-17558174D02*
X18348753Y-17548650D01*
X18348753Y-17548650D02*
X18377325Y-17548650D01*
X18377325Y-17548650D02*
X18396373Y-17558174D01*
X18472563Y-17758174D02*
X18482087Y-17748650D01*
X18482087Y-17748650D02*
X18501134Y-17720079D01*
X18501134Y-17720079D02*
X18510658Y-17701031D01*
X18510658Y-17701031D02*
X18520182Y-17672460D01*
X18520182Y-17672460D02*
X18529706Y-17624841D01*
X18529706Y-17624841D02*
X18529706Y-17586746D01*
X18529706Y-17586746D02*
X18520182Y-17539127D01*
X18520182Y-17539127D02*
X18510658Y-17510555D01*
X18510658Y-17510555D02*
X18501134Y-17491508D01*
X18501134Y-17491508D02*
X18482087Y-17462936D01*
X18482087Y-17462936D02*
X18472563Y-17453412D01*
X13497500Y-17775600D02*
X13697500Y-17975600D01*
X13697500Y-17775600D02*
X13497500Y-17975600D01*
X13597500Y-17975600D02*
X13697500Y-17875600D01*
X13597500Y-17775600D01*
X13497500Y-17875600D01*
X13597500Y-17975600D01*
X13939229Y-17767084D02*
X14063039Y-17767084D01*
X14063039Y-17767084D02*
X13996372Y-17843274D01*
X13996372Y-17843274D02*
X14024943Y-17843274D01*
X14024943Y-17843274D02*
X14043991Y-17852798D01*
X14043991Y-17852798D02*
X14053515Y-17862322D01*
X14053515Y-17862322D02*
X14063039Y-17881370D01*
X14063039Y-17881370D02*
X14063039Y-17928989D01*
X14063039Y-17928989D02*
X14053515Y-17948036D01*
X14053515Y-17948036D02*
X14043991Y-17957560D01*
X14043991Y-17957560D02*
X14024943Y-17967084D01*
X14024943Y-17967084D02*
X13967801Y-17967084D01*
X13967801Y-17967084D02*
X13948753Y-17957560D01*
X13948753Y-17957560D02*
X13939229Y-17948036D01*
X14148753Y-17948036D02*
X14158277Y-17957560D01*
X14158277Y-17957560D02*
X14148753Y-17967084D01*
X14148753Y-17967084D02*
X14139229Y-17957560D01*
X14139229Y-17957560D02*
X14148753Y-17948036D01*
X14148753Y-17948036D02*
X14148753Y-17967084D01*
X14234467Y-17786131D02*
X14243991Y-17776608D01*
X14243991Y-17776608D02*
X14263039Y-17767084D01*
X14263039Y-17767084D02*
X14310658Y-17767084D01*
X14310658Y-17767084D02*
X14329705Y-17776608D01*
X14329705Y-17776608D02*
X14339229Y-17786131D01*
X14339229Y-17786131D02*
X14348753Y-17805179D01*
X14348753Y-17805179D02*
X14348753Y-17824227D01*
X14348753Y-17824227D02*
X14339229Y-17852798D01*
X14339229Y-17852798D02*
X14224943Y-17967084D01*
X14224943Y-17967084D02*
X14348753Y-17967084D01*
X14472562Y-17767084D02*
X14491610Y-17767084D01*
X14491610Y-17767084D02*
X14510658Y-17776608D01*
X14510658Y-17776608D02*
X14520182Y-17786131D01*
X14520182Y-17786131D02*
X14529705Y-17805179D01*
X14529705Y-17805179D02*
X14539229Y-17843274D01*
X14539229Y-17843274D02*
X14539229Y-17890893D01*
X14539229Y-17890893D02*
X14529705Y-17928989D01*
X14529705Y-17928989D02*
X14520182Y-17948036D01*
X14520182Y-17948036D02*
X14510658Y-17957560D01*
X14510658Y-17957560D02*
X14491610Y-17967084D01*
X14491610Y-17967084D02*
X14472562Y-17967084D01*
X14472562Y-17967084D02*
X14453515Y-17957560D01*
X14453515Y-17957560D02*
X14443991Y-17948036D01*
X14443991Y-17948036D02*
X14434467Y-17928989D01*
X14434467Y-17928989D02*
X14424943Y-17890893D01*
X14424943Y-17890893D02*
X14424943Y-17843274D01*
X14424943Y-17843274D02*
X14434467Y-17805179D01*
X14434467Y-17805179D02*
X14443991Y-17786131D01*
X14443991Y-17786131D02*
X14453515Y-17776608D01*
X14453515Y-17776608D02*
X14472562Y-17767084D01*
X14663039Y-17767084D02*
X14682086Y-17767084D01*
X14682086Y-17767084D02*
X14701134Y-17776608D01*
X14701134Y-17776608D02*
X14710658Y-17786131D01*
X14710658Y-17786131D02*
X14720182Y-17805179D01*
X14720182Y-17805179D02*
X14729705Y-17843274D01*
X14729705Y-17843274D02*
X14729705Y-17890893D01*
X14729705Y-17890893D02*
X14720182Y-17928989D01*
X14720182Y-17928989D02*
X14710658Y-17948036D01*
X14710658Y-17948036D02*
X14701134Y-17957560D01*
X14701134Y-17957560D02*
X14682086Y-17967084D01*
X14682086Y-17967084D02*
X14663039Y-17967084D01*
X14663039Y-17967084D02*
X14643991Y-17957560D01*
X14643991Y-17957560D02*
X14634467Y-17948036D01*
X14634467Y-17948036D02*
X14624943Y-17928989D01*
X14624943Y-17928989D02*
X14615420Y-17890893D01*
X14615420Y-17890893D02*
X14615420Y-17843274D01*
X14615420Y-17843274D02*
X14624943Y-17805179D01*
X14624943Y-17805179D02*
X14634467Y-17786131D01*
X14634467Y-17786131D02*
X14643991Y-17776608D01*
X14643991Y-17776608D02*
X14663039Y-17767084D01*
X14815420Y-17967084D02*
X14815420Y-17833750D01*
X14815420Y-17852798D02*
X14824943Y-17843274D01*
X14824943Y-17843274D02*
X14843991Y-17833750D01*
X14843991Y-17833750D02*
X14872563Y-17833750D01*
X14872563Y-17833750D02*
X14891610Y-17843274D01*
X14891610Y-17843274D02*
X14901134Y-17862322D01*
X14901134Y-17862322D02*
X14901134Y-17967084D01*
X14901134Y-17862322D02*
X14910658Y-17843274D01*
X14910658Y-17843274D02*
X14929705Y-17833750D01*
X14929705Y-17833750D02*
X14958277Y-17833750D01*
X14958277Y-17833750D02*
X14977324Y-17843274D01*
X14977324Y-17843274D02*
X14986848Y-17862322D01*
X14986848Y-17862322D02*
X14986848Y-17967084D01*
X15082086Y-17967084D02*
X15082086Y-17833750D01*
X15082086Y-17852798D02*
X15091610Y-17843274D01*
X15091610Y-17843274D02*
X15110658Y-17833750D01*
X15110658Y-17833750D02*
X15139229Y-17833750D01*
X15139229Y-17833750D02*
X15158277Y-17843274D01*
X15158277Y-17843274D02*
X15167801Y-17862322D01*
X15167801Y-17862322D02*
X15167801Y-17967084D01*
X15167801Y-17862322D02*
X15177324Y-17843274D01*
X15177324Y-17843274D02*
X15196372Y-17833750D01*
X15196372Y-17833750D02*
X15224943Y-17833750D01*
X15224943Y-17833750D02*
X15243991Y-17843274D01*
X15243991Y-17843274D02*
X15253515Y-17862322D01*
X15253515Y-17862322D02*
X15253515Y-17967084D01*
X15643991Y-17757560D02*
X15472563Y-18014703D01*
X15901134Y-17767084D02*
X15920182Y-17767084D01*
X15920182Y-17767084D02*
X15939229Y-17776608D01*
X15939229Y-17776608D02*
X15948753Y-17786131D01*
X15948753Y-17786131D02*
X15958277Y-17805179D01*
X15958277Y-17805179D02*
X15967801Y-17843274D01*
X15967801Y-17843274D02*
X15967801Y-17890893D01*
X15967801Y-17890893D02*
X15958277Y-17928989D01*
X15958277Y-17928989D02*
X15948753Y-17948036D01*
X15948753Y-17948036D02*
X15939229Y-17957560D01*
X15939229Y-17957560D02*
X15920182Y-17967084D01*
X15920182Y-17967084D02*
X15901134Y-17967084D01*
X15901134Y-17967084D02*
X15882086Y-17957560D01*
X15882086Y-17957560D02*
X15872563Y-17948036D01*
X15872563Y-17948036D02*
X15863039Y-17928989D01*
X15863039Y-17928989D02*
X15853515Y-17890893D01*
X15853515Y-17890893D02*
X15853515Y-17843274D01*
X15853515Y-17843274D02*
X15863039Y-17805179D01*
X15863039Y-17805179D02*
X15872563Y-17786131D01*
X15872563Y-17786131D02*
X15882086Y-17776608D01*
X15882086Y-17776608D02*
X15901134Y-17767084D01*
X16053515Y-17948036D02*
X16063039Y-17957560D01*
X16063039Y-17957560D02*
X16053515Y-17967084D01*
X16053515Y-17967084D02*
X16043991Y-17957560D01*
X16043991Y-17957560D02*
X16053515Y-17948036D01*
X16053515Y-17948036D02*
X16053515Y-17967084D01*
X16253515Y-17967084D02*
X16139229Y-17967084D01*
X16196372Y-17967084D02*
X16196372Y-17767084D01*
X16196372Y-17767084D02*
X16177325Y-17795655D01*
X16177325Y-17795655D02*
X16158277Y-17814703D01*
X16158277Y-17814703D02*
X16139229Y-17824227D01*
X16329706Y-17786131D02*
X16339229Y-17776608D01*
X16339229Y-17776608D02*
X16358277Y-17767084D01*
X16358277Y-17767084D02*
X16405896Y-17767084D01*
X16405896Y-17767084D02*
X16424944Y-17776608D01*
X16424944Y-17776608D02*
X16434467Y-17786131D01*
X16434467Y-17786131D02*
X16443991Y-17805179D01*
X16443991Y-17805179D02*
X16443991Y-17824227D01*
X16443991Y-17824227D02*
X16434467Y-17852798D01*
X16434467Y-17852798D02*
X16320182Y-17967084D01*
X16320182Y-17967084D02*
X16443991Y-17967084D01*
X16615420Y-17767084D02*
X16577325Y-17767084D01*
X16577325Y-17767084D02*
X16558277Y-17776608D01*
X16558277Y-17776608D02*
X16548753Y-17786131D01*
X16548753Y-17786131D02*
X16529706Y-17814703D01*
X16529706Y-17814703D02*
X16520182Y-17852798D01*
X16520182Y-17852798D02*
X16520182Y-17928989D01*
X16520182Y-17928989D02*
X16529706Y-17948036D01*
X16529706Y-17948036D02*
X16539229Y-17957560D01*
X16539229Y-17957560D02*
X16558277Y-17967084D01*
X16558277Y-17967084D02*
X16596372Y-17967084D01*
X16596372Y-17967084D02*
X16615420Y-17957560D01*
X16615420Y-17957560D02*
X16624944Y-17948036D01*
X16624944Y-17948036D02*
X16634467Y-17928989D01*
X16634467Y-17928989D02*
X16634467Y-17881370D01*
X16634467Y-17881370D02*
X16624944Y-17862322D01*
X16624944Y-17862322D02*
X16615420Y-17852798D01*
X16615420Y-17852798D02*
X16596372Y-17843274D01*
X16596372Y-17843274D02*
X16558277Y-17843274D01*
X16558277Y-17843274D02*
X16539229Y-17852798D01*
X16539229Y-17852798D02*
X16529706Y-17862322D01*
X16529706Y-17862322D02*
X16520182Y-17881370D01*
X16758277Y-17767084D02*
X16777325Y-17767084D01*
X16777325Y-17767084D02*
X16796372Y-17776608D01*
X16796372Y-17776608D02*
X16805896Y-17786131D01*
X16805896Y-17786131D02*
X16815420Y-17805179D01*
X16815420Y-17805179D02*
X16824944Y-17843274D01*
X16824944Y-17843274D02*
X16824944Y-17890893D01*
X16824944Y-17890893D02*
X16815420Y-17928989D01*
X16815420Y-17928989D02*
X16805896Y-17948036D01*
X16805896Y-17948036D02*
X16796372Y-17957560D01*
X16796372Y-17957560D02*
X16777325Y-17967084D01*
X16777325Y-17967084D02*
X16758277Y-17967084D01*
X16758277Y-17967084D02*
X16739229Y-17957560D01*
X16739229Y-17957560D02*
X16729706Y-17948036D01*
X16729706Y-17948036D02*
X16720182Y-17928989D01*
X16720182Y-17928989D02*
X16710658Y-17890893D01*
X16710658Y-17890893D02*
X16710658Y-17843274D01*
X16710658Y-17843274D02*
X16720182Y-17805179D01*
X16720182Y-17805179D02*
X16729706Y-17786131D01*
X16729706Y-17786131D02*
X16739229Y-17776608D01*
X16739229Y-17776608D02*
X16758277Y-17767084D01*
X16901134Y-17767084D02*
X16901134Y-17805179D01*
X16977325Y-17767084D02*
X16977325Y-17805179D01*
X17272563Y-18043274D02*
X17263039Y-18033750D01*
X17263039Y-18033750D02*
X17243991Y-18005179D01*
X17243991Y-18005179D02*
X17234468Y-17986131D01*
X17234468Y-17986131D02*
X17224944Y-17957560D01*
X17224944Y-17957560D02*
X17215420Y-17909941D01*
X17215420Y-17909941D02*
X17215420Y-17871846D01*
X17215420Y-17871846D02*
X17224944Y-17824227D01*
X17224944Y-17824227D02*
X17234468Y-17795655D01*
X17234468Y-17795655D02*
X17243991Y-17776608D01*
X17243991Y-17776608D02*
X17263039Y-17748036D01*
X17263039Y-17748036D02*
X17272563Y-17738512D01*
X17434468Y-17833750D02*
X17434468Y-17967084D01*
X17386849Y-17757560D02*
X17339230Y-17900417D01*
X17339230Y-17900417D02*
X17463039Y-17900417D01*
X17691611Y-17967084D02*
X17691611Y-17767084D01*
X17777325Y-17967084D02*
X17777325Y-17862322D01*
X17777325Y-17862322D02*
X17767801Y-17843274D01*
X17767801Y-17843274D02*
X17748753Y-17833750D01*
X17748753Y-17833750D02*
X17720182Y-17833750D01*
X17720182Y-17833750D02*
X17701134Y-17843274D01*
X17701134Y-17843274D02*
X17691611Y-17852798D01*
X17901134Y-17967084D02*
X17882087Y-17957560D01*
X17882087Y-17957560D02*
X17872563Y-17948036D01*
X17872563Y-17948036D02*
X17863039Y-17928989D01*
X17863039Y-17928989D02*
X17863039Y-17871846D01*
X17863039Y-17871846D02*
X17872563Y-17852798D01*
X17872563Y-17852798D02*
X17882087Y-17843274D01*
X17882087Y-17843274D02*
X17901134Y-17833750D01*
X17901134Y-17833750D02*
X17929706Y-17833750D01*
X17929706Y-17833750D02*
X17948753Y-17843274D01*
X17948753Y-17843274D02*
X17958277Y-17852798D01*
X17958277Y-17852798D02*
X17967801Y-17871846D01*
X17967801Y-17871846D02*
X17967801Y-17928989D01*
X17967801Y-17928989D02*
X17958277Y-17948036D01*
X17958277Y-17948036D02*
X17948753Y-17957560D01*
X17948753Y-17957560D02*
X17929706Y-17967084D01*
X17929706Y-17967084D02*
X17901134Y-17967084D01*
X18082087Y-17967084D02*
X18063039Y-17957560D01*
X18063039Y-17957560D02*
X18053515Y-17938512D01*
X18053515Y-17938512D02*
X18053515Y-17767084D01*
X18234468Y-17957560D02*
X18215420Y-17967084D01*
X18215420Y-17967084D02*
X18177325Y-17967084D01*
X18177325Y-17967084D02*
X18158277Y-17957560D01*
X18158277Y-17957560D02*
X18148753Y-17938512D01*
X18148753Y-17938512D02*
X18148753Y-17862322D01*
X18148753Y-17862322D02*
X18158277Y-17843274D01*
X18158277Y-17843274D02*
X18177325Y-17833750D01*
X18177325Y-17833750D02*
X18215420Y-17833750D01*
X18215420Y-17833750D02*
X18234468Y-17843274D01*
X18234468Y-17843274D02*
X18243992Y-17862322D01*
X18243992Y-17862322D02*
X18243992Y-17881370D01*
X18243992Y-17881370D02*
X18148753Y-17900417D01*
X18320182Y-17957560D02*
X18339230Y-17967084D01*
X18339230Y-17967084D02*
X18377325Y-17967084D01*
X18377325Y-17967084D02*
X18396373Y-17957560D01*
X18396373Y-17957560D02*
X18405896Y-17938512D01*
X18405896Y-17938512D02*
X18405896Y-17928989D01*
X18405896Y-17928989D02*
X18396373Y-17909941D01*
X18396373Y-17909941D02*
X18377325Y-17900417D01*
X18377325Y-17900417D02*
X18348753Y-17900417D01*
X18348753Y-17900417D02*
X18329706Y-17890893D01*
X18329706Y-17890893D02*
X18320182Y-17871846D01*
X18320182Y-17871846D02*
X18320182Y-17862322D01*
X18320182Y-17862322D02*
X18329706Y-17843274D01*
X18329706Y-17843274D02*
X18348753Y-17833750D01*
X18348753Y-17833750D02*
X18377325Y-17833750D01*
X18377325Y-17833750D02*
X18396373Y-17843274D01*
X18472563Y-18043274D02*
X18482087Y-18033750D01*
X18482087Y-18033750D02*
X18501134Y-18005179D01*
X18501134Y-18005179D02*
X18510658Y-17986131D01*
X18510658Y-17986131D02*
X18520182Y-17957560D01*
X18520182Y-17957560D02*
X18529706Y-17909941D01*
X18529706Y-17909941D02*
X18529706Y-17871846D01*
X18529706Y-17871846D02*
X18520182Y-17824227D01*
X18520182Y-17824227D02*
X18510658Y-17795655D01*
X18510658Y-17795655D02*
X18501134Y-17776608D01*
X18501134Y-17776608D02*
X18482087Y-17748036D01*
X18482087Y-17748036D02*
X18472563Y-17738512D01*
M02*
