%TF.GenerationSoftware,KiCad,Pcbnew,8.0.6-8.0.6-0~ubuntu24.04.1*%
%TF.CreationDate,2024-10-19T21:07:47+02:00*%
%TF.ProjectId,ESP_PLC,4553505f-504c-4432-9e6b-696361645f70,rev?*%
%TF.SameCoordinates,Original*%
%TF.FileFunction,Copper,L2,Bot*%
%TF.FilePolarity,Positive*%
%FSLAX46Y46*%
G04 Gerber Fmt 4.6, Leading zero omitted, Abs format (unit mm)*
G04 Created by KiCad (PCBNEW 8.0.6-8.0.6-0~ubuntu24.04.1) date 2024-10-19 21:07:47*
%MOMM*%
%LPD*%
G01*
G04 APERTURE LIST*
G04 Aperture macros list*
%AMRoundRect*
0 Rectangle with rounded corners*
0 $1 Rounding radius*
0 $2 $3 $4 $5 $6 $7 $8 $9 X,Y pos of 4 corners*
0 Add a 4 corners polygon primitive as box body*
4,1,4,$2,$3,$4,$5,$6,$7,$8,$9,$2,$3,0*
0 Add four circle primitives for the rounded corners*
1,1,$1+$1,$2,$3*
1,1,$1+$1,$4,$5*
1,1,$1+$1,$6,$7*
1,1,$1+$1,$8,$9*
0 Add four rect primitives between the rounded corners*
20,1,$1+$1,$2,$3,$4,$5,0*
20,1,$1+$1,$4,$5,$6,$7,0*
20,1,$1+$1,$6,$7,$8,$9,0*
20,1,$1+$1,$8,$9,$2,$3,0*%
G04 Aperture macros list end*
%TA.AperFunction,ComponentPad*%
%ADD10R,1.700000X1.700000*%
%TD*%
%TA.AperFunction,ComponentPad*%
%ADD11O,1.700000X1.700000*%
%TD*%
%TA.AperFunction,ComponentPad*%
%ADD12C,5.000000*%
%TD*%
%TA.AperFunction,ComponentPad*%
%ADD13C,2.500000*%
%TD*%
%TA.AperFunction,ComponentPad*%
%ADD14RoundRect,0.250000X-1.000000X1.000000X-1.000000X-1.000000X1.000000X-1.000000X1.000000X1.000000X0*%
%TD*%
%TA.AperFunction,ComponentPad*%
%ADD15R,2.800000X2.800000*%
%TD*%
%TA.AperFunction,ComponentPad*%
%ADD16C,2.800000*%
%TD*%
%TA.AperFunction,ComponentPad*%
%ADD17R,1.778000X1.778000*%
%TD*%
%TA.AperFunction,ComponentPad*%
%ADD18C,1.778000*%
%TD*%
%TA.AperFunction,ComponentPad*%
%ADD19C,2.032000*%
%TD*%
%TA.AperFunction,ComponentPad*%
%ADD20C,2.540000*%
%TD*%
%TA.AperFunction,ComponentPad*%
%ADD21R,1.800000X1.800000*%
%TD*%
%TA.AperFunction,ComponentPad*%
%ADD22C,1.800000*%
%TD*%
%TA.AperFunction,ComponentPad*%
%ADD23O,1.000000X2.100000*%
%TD*%
%TA.AperFunction,ComponentPad*%
%ADD24O,1.000000X1.800000*%
%TD*%
%TA.AperFunction,ViaPad*%
%ADD25C,0.700000*%
%TD*%
%TA.AperFunction,ViaPad*%
%ADD26C,0.600000*%
%TD*%
%TA.AperFunction,Conductor*%
%ADD27C,0.200000*%
%TD*%
%TA.AperFunction,Conductor*%
%ADD28C,0.300000*%
%TD*%
%TA.AperFunction,Conductor*%
%ADD29C,0.500000*%
%TD*%
%TA.AperFunction,Conductor*%
%ADD30C,0.700000*%
%TD*%
G04 APERTURE END LIST*
D10*
%TO.P,REF\u002A\u002A,1*%
%TO.N,N/C*%
X118300000Y-83300000D03*
D11*
%TO.P,REF\u002A\u002A,2*%
X120840000Y-83300000D03*
%TO.P,REF\u002A\u002A,3*%
X123380000Y-83300000D03*
%TO.P,REF\u002A\u002A,4*%
X125920000Y-83300000D03*
%TD*%
D12*
%TO.P,H2,1,1*%
%TO.N,GND*%
X205000000Y-104000000D03*
%TD*%
%TO.P,H3,1,1*%
%TO.N,GND*%
X165000000Y-58400000D03*
%TD*%
%TO.P,H2,1,1*%
%TO.N,GND*%
X227500000Y-80000000D03*
%TD*%
D13*
%TO.P,K2,11*%
%TO.N,/IO/K2_1*%
X164184166Y-119417500D03*
%TO.P,K2,12*%
%TO.N,unconnected-(K2-Pad12)*%
X170184166Y-133617500D03*
%TO.P,K2,14*%
%TO.N,/IO/K2_2*%
X158184166Y-133617500D03*
D14*
%TO.P,K2,A1*%
%TO.N,Net-(K2-PadA1)*%
X170184166Y-121417500D03*
D13*
%TO.P,K2,A2*%
%TO.N,Net-(D40-K)*%
X158184166Y-121417500D03*
%TD*%
D15*
%TO.P,J15,1,Pin_1*%
%TO.N,/IO/K3_2*%
X177250000Y-146395000D03*
D16*
%TO.P,J15,2,Pin_2*%
%TO.N,/IO/K3_1*%
X182250000Y-146395000D03*
%TD*%
D13*
%TO.P,K3,11*%
%TO.N,/IO/K3_1*%
X181000832Y-119417500D03*
%TO.P,K3,12*%
%TO.N,unconnected-(K3-Pad12)*%
X187000832Y-133617500D03*
%TO.P,K3,14*%
%TO.N,/IO/K3_2*%
X175000832Y-133617500D03*
D14*
%TO.P,K3,A1*%
%TO.N,Net-(K3-PadA1)*%
X187000832Y-121417500D03*
D13*
%TO.P,K3,A2*%
%TO.N,Net-(D41-K)*%
X175000832Y-121417500D03*
%TD*%
D17*
%TO.P,J1,1,TD+*%
%TO.N,TXP*%
X224350000Y-132495000D03*
D18*
%TO.P,J1,2,TCT*%
%TO.N,Net-(J1-TCT)*%
X223080000Y-135035000D03*
%TO.P,J1,3,TD-*%
%TO.N,TXN*%
X221810000Y-132495000D03*
%TO.P,J1,4,RD+*%
%TO.N,RXP*%
X220540000Y-135035000D03*
%TO.P,J1,5,RCT*%
%TO.N,Net-(J1-RCT)*%
X219270000Y-132495000D03*
%TO.P,J1,6,RD-*%
%TO.N,RXN*%
X218000000Y-135035000D03*
%TO.P,J1,7,NC*%
%TO.N,unconnected-(J1-NC-Pad7)*%
X216730000Y-132495000D03*
%TO.P,J1,8*%
%TO.N,Earth*%
X215460000Y-135035000D03*
D19*
%TO.P,J1,9*%
%TO.N,N/C*%
X213605800Y-122030200D03*
%TO.P,J1,10*%
X216120400Y-122030200D03*
%TO.P,J1,11*%
X223715000Y-122030200D03*
%TO.P,J1,12*%
X226229600Y-122030200D03*
D20*
%TO.P,J1,SH*%
%TO.N,Earth*%
X227779000Y-130031200D03*
X212031000Y-130031200D03*
%TD*%
D12*
%TO.P,H1,1,1*%
%TO.N,Earth*%
X227550000Y-146600000D03*
%TD*%
D13*
%TO.P,K1,11*%
%TO.N,/IO/K1_1*%
X147367500Y-119417500D03*
%TO.P,K1,12*%
%TO.N,unconnected-(K1-Pad12)*%
X153367500Y-133617500D03*
%TO.P,K1,14*%
%TO.N,/IO/K1_2*%
X141367500Y-133617500D03*
D14*
%TO.P,K1,A1*%
%TO.N,Net-(K1-PadA1)*%
X153367500Y-121417500D03*
D13*
%TO.P,K1,A2*%
%TO.N,Net-(D39-K)*%
X141367500Y-121417500D03*
%TD*%
D21*
%TO.P,D36,1,K*%
%TO.N,GND*%
X170091666Y-109550000D03*
D22*
%TO.P,D36,2,A*%
%TO.N,Net-(D36-A)*%
X167551666Y-109550000D03*
%TD*%
D15*
%TO.P,J13,1,Pin_1*%
%TO.N,/IO/K1_2*%
X143650000Y-146395000D03*
D16*
%TO.P,J13,2,Pin_2*%
%TO.N,/IO/K1_1*%
X148650000Y-146395000D03*
%TD*%
D23*
%TO.P,J3,S1,SHIELD*%
%TO.N,Net-(J3-SHIELD)*%
X147270000Y-74500000D03*
D24*
X147270000Y-70300000D03*
D23*
X138630000Y-74500000D03*
D24*
X138630000Y-70300000D03*
%TD*%
D21*
%TO.P,D35,1,K*%
%TO.N,GND*%
X153225000Y-109550000D03*
D22*
%TO.P,D35,2,A*%
%TO.N,Net-(D35-A)*%
X150685000Y-109550000D03*
%TD*%
D21*
%TO.P,D37,1,K*%
%TO.N,GND*%
X186958332Y-109550000D03*
D22*
%TO.P,D37,2,A*%
%TO.N,Net-(D37-A)*%
X184418332Y-109550000D03*
%TD*%
D15*
%TO.P,J12,1,Pin_1*%
%TO.N,Net-(D32-A2)*%
X218700000Y-71800000D03*
D16*
%TO.P,J12,2,Pin_2*%
%TO.N,GND*%
X223700000Y-71800000D03*
%TO.P,J12,3,Pin_3*%
%TO.N,Net-(D33-A2)*%
X228700000Y-71800000D03*
%TD*%
D15*
%TO.P,J9,1,Pin_1*%
%TO.N,Net-(D9-K)*%
X151800000Y-71700000D03*
D16*
%TO.P,J9,2,Pin_2*%
X156800000Y-71700000D03*
%TO.P,J9,3,Pin_3*%
%TO.N,GND*%
X161800000Y-71700000D03*
%TO.P,J9,4,Pin_4*%
X166800000Y-71700000D03*
%TO.P,J9,5,Pin_5*%
%TO.N,IN1*%
X171800000Y-71700000D03*
%TO.P,J9,6,Pin_6*%
%TO.N,IN2*%
X176800000Y-71700000D03*
%TD*%
D15*
%TO.P,J14,1,Pin_1*%
%TO.N,/IO/K2_2*%
X160450000Y-146445000D03*
D16*
%TO.P,J14,2,Pin_2*%
%TO.N,/IO/K2_1*%
X165450000Y-146445000D03*
%TD*%
D21*
%TO.P,D38,1,K*%
%TO.N,GND*%
X203825000Y-109550000D03*
D22*
%TO.P,D38,2,A*%
%TO.N,Net-(D38-A)*%
X201285000Y-109550000D03*
%TD*%
D15*
%TO.P,J16,1,Pin_1*%
%TO.N,/IO/K4_2*%
X194050000Y-146412500D03*
D16*
%TO.P,J16,2,Pin_2*%
%TO.N,/IO/K4_1*%
X199050000Y-146412500D03*
%TD*%
D15*
%TO.P,J11,1,Pin_1*%
%TO.N,IN3*%
X181800000Y-71700000D03*
D16*
%TO.P,J11,2,Pin_2*%
%TO.N,IN4*%
X186800000Y-71700000D03*
%TO.P,J11,3,Pin_3*%
%TO.N,IN5*%
X191800000Y-71700000D03*
%TO.P,J11,4,Pin_4*%
%TO.N,IN6*%
X196800000Y-71700000D03*
%TO.P,J11,5,Pin_5*%
%TO.N,IN7*%
X201800000Y-71700000D03*
%TO.P,J11,6,Pin_6*%
%TO.N,IN8*%
X206800000Y-71700000D03*
%TD*%
D13*
%TO.P,K4,11*%
%TO.N,/IO/K4_1*%
X197817500Y-119417500D03*
%TO.P,K4,12*%
%TO.N,unconnected-(K4-Pad12)*%
X203817500Y-133617500D03*
%TO.P,K4,14*%
%TO.N,/IO/K4_2*%
X191817500Y-133617500D03*
D14*
%TO.P,K4,A1*%
%TO.N,Net-(K4-PadA1)*%
X203817500Y-121417500D03*
D13*
%TO.P,K4,A2*%
%TO.N,Net-(D42-K)*%
X191817500Y-121417500D03*
%TD*%
D25*
%TO.N,GND*%
X145900000Y-82800000D03*
%TO.N,Net-(U6-RO)*%
X206500000Y-83400000D03*
X147700000Y-82840000D03*
%TO.N,Net-(U6-DI)*%
X210300000Y-83600000D03*
X155800000Y-83900000D03*
%TO.N,Net-(U6-DE)*%
X158922446Y-87116893D03*
X209000000Y-83600000D03*
%TO.N,IO0*%
X168200000Y-80200000D03*
X147200000Y-97900000D03*
%TO.N,EN*%
X160500000Y-81300000D03*
X144800000Y-82800000D03*
%TO.N,GND*%
X160100000Y-106750000D03*
X143400000Y-107900000D03*
X194000000Y-107900000D03*
X177250000Y-106250000D03*
%TO.N,VIN*%
X188450000Y-105800000D03*
X185150000Y-92000000D03*
%TO.N,IO18*%
X160199992Y-99300000D03*
X161900000Y-93500000D03*
%TO.N,IO17*%
X159304490Y-99617129D03*
X161150000Y-94300000D03*
%TO.N,IO16*%
X160413068Y-95097005D03*
X158588132Y-100241097D03*
%TO.N,GND*%
X156900000Y-85244500D03*
X156900000Y-99244500D03*
%TO.N,IO15*%
X144900000Y-105400000D03*
X153500000Y-95644500D03*
%TO.N,GND*%
X160060000Y-114200000D03*
X177070000Y-114200000D03*
X193960000Y-114100000D03*
X143310000Y-114350000D03*
%TO.N,+3.3V*%
X198900000Y-106450000D03*
X183700000Y-107900000D03*
X166700000Y-107900000D03*
X149860000Y-107948291D03*
X205650000Y-88550000D03*
%TO.N,IO10*%
X160100000Y-97100000D03*
X156900000Y-100650000D03*
%TO.N,IO12*%
X159197426Y-97117525D03*
X158100010Y-98194493D03*
%TO.N,+3.3V*%
X209175000Y-89375000D03*
%TO.N,GND*%
X142900000Y-97244500D03*
X142900000Y-95244500D03*
X142900000Y-93244500D03*
X142900000Y-91244500D03*
X142900000Y-89244500D03*
X142900000Y-87244500D03*
D26*
%TO.N,+3.3V*%
X213550000Y-92850000D03*
D25*
%TO.N,GND*%
X149900000Y-93894500D03*
X148400000Y-104900000D03*
X149900000Y-92244500D03*
X151550000Y-90594500D03*
X212400000Y-75700000D03*
X202400000Y-79900000D03*
X229300000Y-92600000D03*
X182739688Y-89250001D03*
D26*
X146250000Y-103100000D03*
D25*
X151550000Y-92244500D03*
X221950000Y-93000000D03*
X217200000Y-86270000D03*
X142900000Y-85244500D03*
X204500000Y-84800000D03*
X148250000Y-93894500D03*
X219000000Y-85170000D03*
X211000000Y-69100000D03*
X211000000Y-79000000D03*
X151550000Y-93894500D03*
X146600000Y-76500000D03*
X220700000Y-106000000D03*
X213800000Y-76700000D03*
D26*
X149000000Y-100300000D03*
D25*
X225500000Y-90100000D03*
X149900000Y-90594500D03*
X138900000Y-76300000D03*
X200900000Y-79900000D03*
X198300000Y-84800000D03*
X183710000Y-89250000D03*
X143000000Y-80500000D03*
X225700000Y-102500000D03*
X148600000Y-79400000D03*
X223500000Y-84800000D03*
X201600000Y-82600000D03*
X148250000Y-92244500D03*
X148250000Y-90594500D03*
%TO.N,+3.3V*%
X142900000Y-83000000D03*
D26*
X192560012Y-85650000D03*
D25*
X145700000Y-98100000D03*
D26*
X224800000Y-87170000D03*
D25*
X146150000Y-104350000D03*
%TO.N,VIN*%
X187050000Y-114500012D03*
X203900000Y-114450000D03*
X153100000Y-114450006D03*
X170050000Y-114500000D03*
%TO.N,AGND*%
X223262500Y-95750000D03*
X218562520Y-98750000D03*
X215700000Y-105186637D03*
X221600000Y-97800000D03*
X226941920Y-97069386D03*
X219462500Y-98150000D03*
X227200000Y-93800000D03*
X227000000Y-99000000D03*
X224900000Y-100400000D03*
%TO.N,+3.3VA*%
X220600000Y-103900000D03*
X223700000Y-93400000D03*
X216590008Y-103890010D03*
X224409999Y-89600000D03*
X214955000Y-109100000D03*
X220600000Y-98700000D03*
%TO.N,RXN*%
X222700000Y-102700000D03*
X220854603Y-102050650D03*
%TO.N,Net-(U4-EXRES1)*%
X222949988Y-98400000D03*
X224700000Y-103100000D03*
%TO.N,IN1*%
X147300000Y-103000000D03*
%TO.N,IN2*%
X148300002Y-103000000D03*
%TO.N,IN3*%
X151200000Y-103100000D03*
D26*
%TO.N,IN4*%
X152516519Y-101832011D03*
%TO.N,IN5*%
X153800000Y-104050000D03*
%TO.N,IN6*%
X156499998Y-103750000D03*
%TO.N,IN7*%
X159150000Y-103800000D03*
%TO.N,IN8*%
X161800000Y-103100000D03*
D25*
%TO.N,GND*%
X142900000Y-99244500D03*
%TD*%
D27*
%TO.N,EN*%
X146300000Y-81300000D02*
X160500000Y-81300000D01*
X144800000Y-82800000D02*
X146300000Y-81300000D01*
%TO.N,Net-(U6-DI)*%
X160900000Y-83900000D02*
X155800000Y-83900000D01*
X170400000Y-68900000D02*
X168900000Y-70400000D01*
X210300000Y-71100000D02*
X208100000Y-68900000D01*
X168900000Y-70400000D02*
X168900000Y-75900000D01*
X168900000Y-75900000D02*
X160900000Y-83900000D01*
X210300000Y-83600000D02*
X210300000Y-71100000D01*
X208100000Y-68900000D02*
X170400000Y-68900000D01*
%TO.N,AGND*%
X218900000Y-100500000D02*
X215700000Y-103700000D01*
X215700000Y-103700000D02*
X215700000Y-105186637D01*
%TO.N,+3.3VA*%
X214955000Y-109100000D02*
X214955000Y-108600000D01*
X214955000Y-108600000D02*
X216590008Y-106964992D01*
X216590008Y-106964992D02*
X216590008Y-103890010D01*
%TO.N,Net-(U6-RO)*%
X147700000Y-82840000D02*
X153260000Y-88400000D01*
X169700000Y-77329289D02*
X169700000Y-70800000D01*
X153260000Y-88400000D02*
X158629289Y-88400000D01*
X158629289Y-88400000D02*
X169700000Y-77329289D01*
X169700000Y-70800000D02*
X170800000Y-69700000D01*
X170800000Y-69700000D02*
X207734314Y-69700000D01*
X207734314Y-69700000D02*
X209200000Y-71165686D01*
X209200000Y-71165686D02*
X209200000Y-80700000D01*
X209200000Y-80700000D02*
X206500000Y-83400000D01*
%TO.N,Net-(U6-DE)*%
X209000000Y-83600000D02*
X209600000Y-83000000D01*
X170600000Y-69300000D02*
X169300000Y-70600000D01*
X209600000Y-83000000D02*
X209600000Y-71000000D01*
X207900000Y-69300000D02*
X170600000Y-69300000D01*
X209600000Y-71000000D02*
X207900000Y-69300000D01*
X169300000Y-70600000D02*
X169300000Y-76739339D01*
X169300000Y-76739339D02*
X158922446Y-87116893D01*
D28*
%TO.N,+3.3V*%
X145700000Y-85800000D02*
X142900000Y-83000000D01*
X145700000Y-98100000D02*
X145700000Y-85800000D01*
D27*
%TO.N,IO12*%
X159176978Y-97117525D02*
X159197426Y-97117525D01*
X158100010Y-98194493D02*
X159176978Y-97117525D01*
%TO.N,IO16*%
X158588132Y-99361997D02*
X158588132Y-100241097D01*
X160800000Y-97500000D02*
X160100000Y-98200000D01*
X160100000Y-98200000D02*
X159750129Y-98200000D01*
%TO.N,IO10*%
X156900000Y-100484443D02*
X160100000Y-97284443D01*
%TO.N,IO16*%
X160413068Y-95097005D02*
X160800000Y-95483937D01*
%TO.N,IO17*%
X161200000Y-97700000D02*
X160300000Y-98600000D01*
X161200000Y-94350000D02*
X161200000Y-97700000D01*
X159304490Y-99211323D02*
X159304490Y-99617129D01*
X160300000Y-98600000D02*
X159915813Y-98600000D01*
X159915813Y-98600000D02*
X159304490Y-99211323D01*
X161150000Y-94300000D02*
X161200000Y-94350000D01*
%TO.N,IO16*%
X160800000Y-95483937D02*
X160800000Y-97500000D01*
X159750129Y-98200000D02*
X158588132Y-99361997D01*
%TO.N,IO10*%
X156900000Y-100650000D02*
X156900000Y-100484443D01*
X160100000Y-97284443D02*
X160100000Y-97100000D01*
D29*
%TO.N,+3.3VA*%
X224409999Y-89600000D02*
X224400000Y-89609999D01*
X224400000Y-89609999D02*
X224400000Y-92700000D01*
X224400000Y-92700000D02*
X223700000Y-93400000D01*
D27*
%TO.N,IO0*%
X168200000Y-80200000D02*
X153800000Y-94600000D01*
X152800000Y-94600000D02*
X149500000Y-97900000D01*
X153800000Y-94600000D02*
X152800000Y-94600000D01*
X149500000Y-97900000D02*
X147200000Y-97900000D01*
%TO.N,IO15*%
X152655500Y-95644500D02*
X153500000Y-95644500D01*
X144900000Y-103400000D02*
X152655500Y-95644500D01*
X144900000Y-105400000D02*
X144900000Y-103400000D01*
D29*
%TO.N,VIN*%
X185150000Y-92000000D02*
X188450000Y-95300000D01*
X188450000Y-95300000D02*
X188450000Y-105800000D01*
%TO.N,+3.3V*%
X149908291Y-107900000D02*
X149860000Y-107948291D01*
X166700000Y-107900000D02*
X149908291Y-107900000D01*
X149748291Y-107948291D02*
X149860000Y-107948291D01*
X146150000Y-104350000D02*
X149748291Y-107948291D01*
D27*
%TO.N,IN7*%
X201800000Y-71700000D02*
X199137664Y-74362336D01*
X199137664Y-74362336D02*
X188571978Y-74362336D01*
X188571978Y-74362336D02*
X159150000Y-103784314D01*
X159150000Y-103784314D02*
X159150000Y-103800000D01*
%TO.N,IN8*%
X188737664Y-74762336D02*
X161800000Y-101700000D01*
X161800000Y-101700000D02*
X161800000Y-103100000D01*
X206800000Y-71700000D02*
X203500000Y-71700000D01*
X203500000Y-71700000D02*
X203500000Y-72404164D01*
X203500000Y-72404164D02*
X201141828Y-74762336D01*
X201141828Y-74762336D02*
X188737664Y-74762336D01*
%TO.N,IN5*%
X153800000Y-104050000D02*
X154639950Y-104050000D01*
X154639950Y-104050000D02*
X155989950Y-102700000D01*
X155989950Y-102700000D02*
X159000000Y-102700000D01*
X159000000Y-102700000D02*
X190000000Y-71700000D01*
X190000000Y-71700000D02*
X191800000Y-71700000D01*
%TO.N,IN6*%
X194537664Y-73962336D02*
X188350000Y-73962336D01*
X156499998Y-103750000D02*
X157149998Y-103100000D01*
X157149998Y-103100000D02*
X159200000Y-103100000D01*
X159200000Y-103100000D02*
X188337664Y-73962336D01*
X188337664Y-73962336D02*
X188350000Y-73962336D01*
X196800000Y-71700000D02*
X194537664Y-73962336D01*
%TO.N,IN3*%
X151200000Y-102300000D02*
X151200000Y-103100000D01*
X181800000Y-71700000D02*
X151200000Y-102300000D01*
%TO.N,IN2*%
X176800000Y-71700000D02*
X176800000Y-74500002D01*
X176800000Y-74500002D02*
X148300002Y-103000000D01*
%TO.N,IN1*%
X171800000Y-78500000D02*
X147300000Y-103000000D01*
X171800000Y-71700000D02*
X171800000Y-78500000D01*
%TO.N,GND*%
X193960000Y-114100000D02*
X193960000Y-110190000D01*
X193960000Y-110190000D02*
X194000000Y-110150000D01*
X177070000Y-114200000D02*
X177070000Y-110430000D01*
X177070000Y-110430000D02*
X177100000Y-110400000D01*
X160060000Y-114200000D02*
X160060000Y-110240000D01*
X160060000Y-110240000D02*
X160150000Y-110150000D01*
X143310000Y-114350000D02*
X143310000Y-109760000D01*
X143310000Y-109760000D02*
X143300000Y-109750000D01*
D29*
%TO.N,VIN*%
X187050000Y-114500000D02*
X187500000Y-114950000D01*
X187500000Y-114950000D02*
X203400000Y-114950000D01*
X203400000Y-114950000D02*
X203900000Y-114450000D01*
X170050000Y-114500000D02*
X170550000Y-115000000D01*
X170550000Y-115000000D02*
X186550000Y-115000000D01*
X186550000Y-115000000D02*
X187050000Y-114500000D01*
X170050000Y-114500000D02*
X169550000Y-115000000D01*
X169550000Y-115000000D02*
X153649994Y-115000000D01*
X153649994Y-115000000D02*
X153100000Y-114450006D01*
X187050000Y-114500000D02*
X187050000Y-114500012D01*
%TO.N,+3.3V*%
X188800000Y-107900000D02*
X183700000Y-107900000D01*
X190800000Y-105900000D02*
X188800000Y-107900000D01*
X179900000Y-107900000D02*
X183700000Y-107900000D01*
D27*
X198900000Y-106450000D02*
X191350000Y-106450000D01*
X191350000Y-106450000D02*
X190800000Y-105900000D01*
D29*
X166700000Y-107900000D02*
X179900000Y-107900000D01*
D28*
X205450000Y-85650000D02*
X207325000Y-87525000D01*
X207325000Y-87525000D02*
X209175000Y-89375000D01*
D27*
X206300000Y-88550000D02*
X207325000Y-87525000D01*
X205650000Y-88550000D02*
X206300000Y-88550000D01*
%TO.N,IN4*%
X152516519Y-101743531D02*
X180860050Y-73400000D01*
X180860050Y-73400000D02*
X183500000Y-73400000D01*
X152516519Y-101832011D02*
X152516519Y-101743531D01*
X183500000Y-73400000D02*
X185200000Y-71700000D01*
X185200000Y-71700000D02*
X186800000Y-71700000D01*
D28*
%TO.N,+3.3V*%
X214325000Y-93625000D02*
X213550000Y-92850000D01*
X218345000Y-93625000D02*
X214325000Y-93625000D01*
X224800000Y-87170000D02*
X218345000Y-93625000D01*
X212650000Y-92850000D02*
X213550000Y-92850000D01*
X209175000Y-89375000D02*
X212650000Y-92850000D01*
X192560012Y-85650000D02*
X205450000Y-85650000D01*
D29*
X190800000Y-87410012D02*
X192560012Y-85650000D01*
X190800000Y-105900000D02*
X190800000Y-87410012D01*
D27*
X179800000Y-108000000D02*
X179900000Y-107900000D01*
D28*
%TO.N,GND*%
X222000000Y-92950000D02*
X221950000Y-93000000D01*
%TO.N,AGND*%
X224900000Y-100400000D02*
X226300000Y-99000000D01*
X226300000Y-99000000D02*
X227000000Y-99000000D01*
%TO.N,+3.3VA*%
X220600000Y-103900000D02*
X216599998Y-103900000D01*
X220600000Y-103900000D02*
X219900000Y-103200000D01*
X219900000Y-99400000D02*
X220600000Y-98700000D01*
X219900000Y-103200000D02*
X219900000Y-99400000D01*
X216599998Y-103900000D02*
X216590008Y-103890010D01*
D30*
%TO.N,RXN*%
X221503953Y-102700000D02*
X222700000Y-102700000D01*
X220854603Y-102050650D02*
X221503953Y-102700000D01*
D27*
%TO.N,Net-(U4-EXRES1)*%
X224700000Y-103100000D02*
X222949988Y-101349988D01*
X222949988Y-101349988D02*
X222949988Y-98400000D01*
%TO.N,IO18*%
X161900000Y-93500000D02*
X162050000Y-93650000D01*
X162050000Y-93650000D02*
X162050000Y-97449992D01*
X162050000Y-97449992D02*
X160199992Y-99300000D01*
%TD*%
%TA.AperFunction,Conductor*%
%TO.N,GND*%
G36*
X231625000Y-67320462D02*
G01*
X231679538Y-67375000D01*
X231699500Y-67449500D01*
X231699500Y-110696532D01*
X231679538Y-110771032D01*
X231625000Y-110825570D01*
X231550808Y-110845532D01*
X208047870Y-110894192D01*
X208047858Y-110894193D01*
X207969321Y-110904631D01*
X207969318Y-110904632D01*
X207969311Y-110904633D01*
X207969310Y-110904634D01*
X207895284Y-110924502D01*
X207879851Y-110929933D01*
X207851429Y-110939935D01*
X207851426Y-110939937D01*
X207758729Y-111003264D01*
X207758725Y-111003268D01*
X207705366Y-111056492D01*
X207638525Y-111094971D01*
X207600142Y-111100000D01*
X142449000Y-111100000D01*
X142374500Y-111080038D01*
X142319962Y-111025500D01*
X142300000Y-110951000D01*
X142300000Y-104053129D01*
X142300500Y-104045504D01*
X142300500Y-83666312D01*
X142320462Y-83591812D01*
X142375000Y-83537274D01*
X142449500Y-83517312D01*
X142519296Y-83536013D01*
X142519779Y-83535094D01*
X142523862Y-83537237D01*
X142524000Y-83537274D01*
X142524328Y-83537481D01*
X142527758Y-83539281D01*
X142527760Y-83539283D01*
X142667635Y-83612696D01*
X142821015Y-83650500D01*
X142851679Y-83650500D01*
X142926179Y-83670462D01*
X142957038Y-83694141D01*
X145205859Y-85942962D01*
X145244423Y-86009757D01*
X145249500Y-86048321D01*
X145249500Y-97563830D01*
X145229538Y-97638330D01*
X145212028Y-97662635D01*
X145209520Y-97665464D01*
X145119779Y-97795477D01*
X145063763Y-97943179D01*
X145044722Y-98100000D01*
X145063763Y-98256820D01*
X145119779Y-98404522D01*
X145202249Y-98524000D01*
X145209517Y-98534530D01*
X145327760Y-98639283D01*
X145467635Y-98712696D01*
X145621015Y-98750500D01*
X145621017Y-98750500D01*
X145778983Y-98750500D01*
X145778985Y-98750500D01*
X145932365Y-98712696D01*
X146072240Y-98639283D01*
X146190483Y-98534530D01*
X146280220Y-98404523D01*
X146336237Y-98256818D01*
X146337030Y-98250281D01*
X146365823Y-98178731D01*
X146426535Y-98131162D01*
X146502897Y-98120322D01*
X146574449Y-98149115D01*
X146616877Y-98198993D01*
X146619776Y-98204517D01*
X146699806Y-98320462D01*
X146709517Y-98334530D01*
X146827760Y-98439283D01*
X146967635Y-98512696D01*
X147121015Y-98550500D01*
X147121017Y-98550500D01*
X147278983Y-98550500D01*
X147278985Y-98550500D01*
X147432365Y-98512696D01*
X147572240Y-98439283D01*
X147686598Y-98337972D01*
X147755600Y-98303511D01*
X147785403Y-98300500D01*
X149073389Y-98300500D01*
X149147889Y-98320462D01*
X149202427Y-98375000D01*
X149222389Y-98449500D01*
X149202427Y-98524000D01*
X149178748Y-98554859D01*
X144579518Y-103154089D01*
X144579515Y-103154093D01*
X144526794Y-103245408D01*
X144526791Y-103245414D01*
X144502523Y-103335991D01*
X144502522Y-103335995D01*
X144499500Y-103347271D01*
X144499500Y-104818692D01*
X144479538Y-104893192D01*
X144449306Y-104930219D01*
X144409520Y-104965465D01*
X144409517Y-104965469D01*
X144319779Y-105095477D01*
X144263763Y-105243179D01*
X144244722Y-105400000D01*
X144263763Y-105556820D01*
X144319779Y-105704522D01*
X144401137Y-105822389D01*
X144409517Y-105834530D01*
X144527760Y-105939283D01*
X144667635Y-106012696D01*
X144821015Y-106050500D01*
X144821017Y-106050500D01*
X144978983Y-106050500D01*
X144978985Y-106050500D01*
X145132365Y-106012696D01*
X145272240Y-105939283D01*
X145390483Y-105834530D01*
X145480220Y-105704523D01*
X145536237Y-105556818D01*
X145555278Y-105400000D01*
X145536237Y-105243182D01*
X145527601Y-105220412D01*
X145480220Y-105095477D01*
X145390482Y-104965469D01*
X145390479Y-104965465D01*
X145350694Y-104930219D01*
X145308168Y-104865875D01*
X145300500Y-104818692D01*
X145300500Y-104742561D01*
X145320462Y-104668061D01*
X145375000Y-104613523D01*
X145449500Y-104593561D01*
X145524000Y-104613523D01*
X145572124Y-104657919D01*
X145659517Y-104784530D01*
X145777760Y-104889283D01*
X145917635Y-104962696D01*
X145965603Y-104974518D01*
X146033160Y-105011728D01*
X146035305Y-105013830D01*
X149282442Y-108260967D01*
X149299708Y-108281685D01*
X149369517Y-108382821D01*
X149487760Y-108487574D01*
X149627635Y-108560987D01*
X149654563Y-108567624D01*
X149660998Y-108569210D01*
X149728556Y-108606421D01*
X149768458Y-108672425D01*
X149770012Y-108749538D01*
X149744246Y-108803673D01*
X149659939Y-108915314D01*
X149560770Y-109114471D01*
X149499884Y-109328465D01*
X149499884Y-109328468D01*
X149479357Y-109549995D01*
X149479357Y-109550004D01*
X149499884Y-109771531D01*
X149499884Y-109771534D01*
X149560770Y-109985528D01*
X149659939Y-110184685D01*
X149659941Y-110184688D01*
X149659942Y-110184689D01*
X149794019Y-110362236D01*
X149958438Y-110512124D01*
X150147599Y-110629247D01*
X150147601Y-110629247D01*
X150147603Y-110629249D01*
X150147605Y-110629250D01*
X150321281Y-110696532D01*
X150355060Y-110709618D01*
X150573757Y-110750500D01*
X150573759Y-110750500D01*
X150796241Y-110750500D01*
X150796243Y-110750500D01*
X151014940Y-110709618D01*
X151141449Y-110660607D01*
X151222394Y-110629250D01*
X151222396Y-110629249D01*
X151222396Y-110629248D01*
X151222401Y-110629247D01*
X151411562Y-110512124D01*
X151575981Y-110362236D01*
X151710058Y-110184689D01*
X151742621Y-110119293D01*
X151793696Y-110061502D01*
X151866826Y-110036991D01*
X151942413Y-110052328D01*
X152000206Y-110103404D01*
X152024717Y-110176534D01*
X152025000Y-110185708D01*
X152025000Y-110494794D01*
X152027909Y-110519874D01*
X152073212Y-110622477D01*
X152152521Y-110701786D01*
X152255128Y-110747091D01*
X152280204Y-110749999D01*
X153075000Y-110749999D01*
X153075000Y-109975681D01*
X153165756Y-110000000D01*
X153284244Y-110000000D01*
X153375000Y-109975681D01*
X153375000Y-110749999D01*
X154169795Y-110749999D01*
X154194874Y-110747090D01*
X154297477Y-110701787D01*
X154297478Y-110701787D01*
X154376786Y-110622478D01*
X154422091Y-110519871D01*
X154425000Y-110494795D01*
X154425000Y-109700000D01*
X153650682Y-109700000D01*
X153675000Y-109609244D01*
X153675000Y-109490756D01*
X153650682Y-109400000D01*
X154424999Y-109400000D01*
X154424999Y-108600906D01*
X154426649Y-108600906D01*
X154440809Y-108532545D01*
X154492120Y-108474961D01*
X154565348Y-108450747D01*
X154573918Y-108450500D01*
X166312406Y-108450500D01*
X166381650Y-108467567D01*
X166467635Y-108512696D01*
X166554226Y-108534038D01*
X166621782Y-108571247D01*
X166661685Y-108637251D01*
X166663239Y-108714364D01*
X166637473Y-108768500D01*
X166526605Y-108915314D01*
X166427436Y-109114471D01*
X166366550Y-109328465D01*
X166366550Y-109328468D01*
X166346023Y-109549995D01*
X166346023Y-109550004D01*
X166366550Y-109771531D01*
X166366550Y-109771534D01*
X166427436Y-109985528D01*
X166526605Y-110184685D01*
X166526607Y-110184688D01*
X166526608Y-110184689D01*
X166660685Y-110362236D01*
X166825104Y-110512124D01*
X167014265Y-110629247D01*
X167014267Y-110629247D01*
X167014269Y-110629249D01*
X167014271Y-110629250D01*
X167187947Y-110696532D01*
X167221726Y-110709618D01*
X167440423Y-110750500D01*
X167440425Y-110750500D01*
X167662907Y-110750500D01*
X167662909Y-110750500D01*
X167881606Y-110709618D01*
X168008115Y-110660607D01*
X168089060Y-110629250D01*
X168089062Y-110629249D01*
X168089062Y-110629248D01*
X168089067Y-110629247D01*
X168278228Y-110512124D01*
X168442647Y-110362236D01*
X168576724Y-110184689D01*
X168609287Y-110119293D01*
X168660362Y-110061502D01*
X168733492Y-110036991D01*
X168809079Y-110052328D01*
X168866872Y-110103404D01*
X168891383Y-110176534D01*
X168891666Y-110185708D01*
X168891666Y-110494794D01*
X168894575Y-110519874D01*
X168939878Y-110622477D01*
X169019187Y-110701786D01*
X169121794Y-110747091D01*
X169146870Y-110749999D01*
X169941666Y-110749999D01*
X169941666Y-109975681D01*
X170032422Y-110000000D01*
X170150910Y-110000000D01*
X170241666Y-109975681D01*
X170241666Y-110749999D01*
X171036461Y-110749999D01*
X171061540Y-110747090D01*
X171164143Y-110701787D01*
X171164144Y-110701787D01*
X171243452Y-110622478D01*
X171288757Y-110519871D01*
X171291666Y-110494795D01*
X171291666Y-109700000D01*
X170517348Y-109700000D01*
X170541666Y-109609244D01*
X170541666Y-109490756D01*
X170517348Y-109400000D01*
X171291665Y-109400000D01*
X171291665Y-108600906D01*
X171293315Y-108600906D01*
X171307475Y-108532545D01*
X171358786Y-108474961D01*
X171432014Y-108450747D01*
X171440584Y-108450500D01*
X179827525Y-108450500D01*
X183312406Y-108450500D01*
X183381650Y-108467567D01*
X183467631Y-108512694D01*
X183475615Y-108516884D01*
X183474065Y-108519835D01*
X183522858Y-108554949D01*
X183554547Y-108625267D01*
X183546831Y-108702008D01*
X183526393Y-108739032D01*
X183393271Y-108915314D01*
X183294102Y-109114471D01*
X183233216Y-109328465D01*
X183233216Y-109328468D01*
X183212689Y-109549995D01*
X183212689Y-109550004D01*
X183233216Y-109771531D01*
X183233216Y-109771534D01*
X183294102Y-109985528D01*
X183393271Y-110184685D01*
X183393273Y-110184688D01*
X183393274Y-110184689D01*
X183527351Y-110362236D01*
X183691770Y-110512124D01*
X183880931Y-110629247D01*
X183880933Y-110629247D01*
X183880935Y-110629249D01*
X183880937Y-110629250D01*
X184054613Y-110696532D01*
X184088392Y-110709618D01*
X184307089Y-110750500D01*
X184307091Y-110750500D01*
X184529573Y-110750500D01*
X184529575Y-110750500D01*
X184748272Y-110709618D01*
X184874781Y-110660607D01*
X184955726Y-110629250D01*
X184955728Y-110629249D01*
X184955728Y-110629248D01*
X184955733Y-110629247D01*
X185144894Y-110512124D01*
X185309313Y-110362236D01*
X185443390Y-110184689D01*
X185475953Y-110119293D01*
X185527028Y-110061502D01*
X185600158Y-110036991D01*
X185675745Y-110052328D01*
X185733538Y-110103404D01*
X185758049Y-110176534D01*
X185758332Y-110185708D01*
X185758332Y-110494794D01*
X185761241Y-110519874D01*
X185806544Y-110622477D01*
X185885853Y-110701786D01*
X185988460Y-110747091D01*
X186013536Y-110749999D01*
X186808332Y-110749999D01*
X186808332Y-109975681D01*
X186899088Y-110000000D01*
X187017576Y-110000000D01*
X187108332Y-109975681D01*
X187108332Y-110749999D01*
X187903127Y-110749999D01*
X187928206Y-110747090D01*
X188030809Y-110701787D01*
X188030810Y-110701787D01*
X188110118Y-110622478D01*
X188155423Y-110519871D01*
X188158332Y-110494795D01*
X188158332Y-109700000D01*
X187384014Y-109700000D01*
X187408332Y-109609244D01*
X187408332Y-109549995D01*
X200079357Y-109549995D01*
X200079357Y-109550004D01*
X200099884Y-109771531D01*
X200099884Y-109771534D01*
X200160770Y-109985528D01*
X200259939Y-110184685D01*
X200259941Y-110184688D01*
X200259942Y-110184689D01*
X200394019Y-110362236D01*
X200558438Y-110512124D01*
X200747599Y-110629247D01*
X200747601Y-110629247D01*
X200747603Y-110629249D01*
X200747605Y-110629250D01*
X200921281Y-110696532D01*
X200955060Y-110709618D01*
X201173757Y-110750500D01*
X201173759Y-110750500D01*
X201396241Y-110750500D01*
X201396243Y-110750500D01*
X201614940Y-110709618D01*
X201741449Y-110660607D01*
X201822394Y-110629250D01*
X201822396Y-110629249D01*
X201822396Y-110629248D01*
X201822401Y-110629247D01*
X202011562Y-110512124D01*
X202175981Y-110362236D01*
X202310058Y-110184689D01*
X202342621Y-110119293D01*
X202393696Y-110061502D01*
X202466826Y-110036991D01*
X202542413Y-110052328D01*
X202600206Y-110103404D01*
X202624717Y-110176534D01*
X202625000Y-110185708D01*
X202625000Y-110494794D01*
X202627909Y-110519874D01*
X202673212Y-110622477D01*
X202752521Y-110701786D01*
X202855128Y-110747091D01*
X202880204Y-110749999D01*
X203675000Y-110749999D01*
X203675000Y-109975681D01*
X203765756Y-110000000D01*
X203884244Y-110000000D01*
X203975000Y-109975681D01*
X203975000Y-110749999D01*
X204769795Y-110749999D01*
X204794874Y-110747090D01*
X204897477Y-110701787D01*
X204897478Y-110701787D01*
X204976786Y-110622478D01*
X205022091Y-110519871D01*
X205025000Y-110494795D01*
X205025000Y-109700000D01*
X204250682Y-109700000D01*
X204275000Y-109609244D01*
X204275000Y-109490756D01*
X204250682Y-109400000D01*
X205024999Y-109400000D01*
X205024999Y-108605205D01*
X205022090Y-108580125D01*
X204976787Y-108477522D01*
X204897478Y-108398213D01*
X204794871Y-108352908D01*
X204769796Y-108350000D01*
X203975000Y-108350000D01*
X203975000Y-109124318D01*
X203884244Y-109100000D01*
X203765756Y-109100000D01*
X203675000Y-109124318D01*
X203675000Y-108350000D01*
X202880205Y-108350000D01*
X202855125Y-108352909D01*
X202752522Y-108398212D01*
X202752522Y-108398213D01*
X202673213Y-108477521D01*
X202627908Y-108580128D01*
X202625000Y-108605204D01*
X202625000Y-108914289D01*
X202605038Y-108988789D01*
X202550500Y-109043327D01*
X202476000Y-109063289D01*
X202401500Y-109043327D01*
X202346962Y-108988789D01*
X202342621Y-108980705D01*
X202310059Y-108915312D01*
X202184872Y-108749538D01*
X202175981Y-108737764D01*
X202150312Y-108714364D01*
X202054951Y-108627430D01*
X202011562Y-108587876D01*
X201822401Y-108470753D01*
X201822400Y-108470752D01*
X201822396Y-108470750D01*
X201822394Y-108470749D01*
X201614944Y-108390383D01*
X201614941Y-108390382D01*
X201614940Y-108390382D01*
X201559775Y-108380069D01*
X201396247Y-108349500D01*
X201396243Y-108349500D01*
X201173757Y-108349500D01*
X201173752Y-108349500D01*
X200955055Y-108390383D01*
X200747605Y-108470749D01*
X200747603Y-108470750D01*
X200558436Y-108587877D01*
X200394019Y-108737763D01*
X200259939Y-108915314D01*
X200160770Y-109114471D01*
X200099884Y-109328465D01*
X200099884Y-109328468D01*
X200079357Y-109549995D01*
X187408332Y-109549995D01*
X187408332Y-109490756D01*
X187384014Y-109400000D01*
X188158331Y-109400000D01*
X188158331Y-108600906D01*
X188159981Y-108600906D01*
X188174141Y-108532545D01*
X188225452Y-108474961D01*
X188298680Y-108450747D01*
X188307250Y-108450500D01*
X188872475Y-108450500D01*
X189012485Y-108412984D01*
X189051633Y-108390382D01*
X189138015Y-108340510D01*
X189778525Y-107700000D01*
X200600000Y-107700000D01*
X208700000Y-107700000D01*
X208700000Y-100400000D01*
X200600000Y-100400000D01*
X200600000Y-107700000D01*
X189778525Y-107700000D01*
X190800707Y-106677818D01*
X190867502Y-106639254D01*
X190944630Y-106639254D01*
X191011425Y-106677818D01*
X191104088Y-106770481D01*
X191134529Y-106788055D01*
X191195413Y-106823207D01*
X191297273Y-106850500D01*
X191402727Y-106850500D01*
X198314597Y-106850500D01*
X198389097Y-106870462D01*
X198413402Y-106887972D01*
X198527757Y-106989281D01*
X198527758Y-106989281D01*
X198527760Y-106989283D01*
X198667635Y-107062696D01*
X198821015Y-107100500D01*
X198821017Y-107100500D01*
X198978983Y-107100500D01*
X198978985Y-107100500D01*
X199132365Y-107062696D01*
X199272240Y-106989283D01*
X199390483Y-106884530D01*
X199480220Y-106754523D01*
X199536237Y-106606818D01*
X199555278Y-106450000D01*
X199536237Y-106293182D01*
X199519765Y-106249750D01*
X199480220Y-106145477D01*
X199390483Y-106015470D01*
X199272239Y-105910716D01*
X199132363Y-105837303D01*
X199054591Y-105818134D01*
X198978985Y-105799500D01*
X198821015Y-105799500D01*
X198760359Y-105814450D01*
X198667636Y-105837303D01*
X198527757Y-105910718D01*
X198413402Y-106012028D01*
X198344400Y-106046489D01*
X198314597Y-106049500D01*
X191577611Y-106049500D01*
X191503111Y-106029538D01*
X191472252Y-106005859D01*
X191394141Y-105927748D01*
X191355577Y-105860953D01*
X191350500Y-105822389D01*
X191350500Y-87699754D01*
X191370462Y-87625254D01*
X191394137Y-87594399D01*
X192758503Y-86230032D01*
X192806838Y-86197737D01*
X192862853Y-86174536D01*
X192919213Y-86131289D01*
X192990469Y-86101775D01*
X193009917Y-86100500D01*
X205201679Y-86100500D01*
X205276179Y-86120462D01*
X205307038Y-86144141D01*
X206617892Y-87454995D01*
X206656456Y-87521790D01*
X206656456Y-87598918D01*
X206617892Y-87665713D01*
X206254323Y-88029282D01*
X206187528Y-88067846D01*
X206110400Y-88067846D01*
X206050158Y-88035450D01*
X206022242Y-88010718D01*
X205882363Y-87937303D01*
X205804591Y-87918134D01*
X205728985Y-87899500D01*
X205571015Y-87899500D01*
X205510359Y-87914450D01*
X205417636Y-87937303D01*
X205277760Y-88010716D01*
X205159516Y-88115470D01*
X205069779Y-88245477D01*
X205013763Y-88393179D01*
X204994722Y-88550000D01*
X205013763Y-88706820D01*
X205069779Y-88854522D01*
X205135338Y-88949500D01*
X205159517Y-88984530D01*
X205277760Y-89089283D01*
X205417635Y-89162696D01*
X205571015Y-89200500D01*
X205571017Y-89200500D01*
X205728983Y-89200500D01*
X205728985Y-89200500D01*
X205882365Y-89162696D01*
X206022240Y-89089283D01*
X206136598Y-88987972D01*
X206205600Y-88953511D01*
X206235403Y-88950500D01*
X206352725Y-88950500D01*
X206352727Y-88950500D01*
X206454588Y-88923207D01*
X206545913Y-88870480D01*
X207184289Y-88232103D01*
X207251080Y-88193542D01*
X207328208Y-88193542D01*
X207395003Y-88232106D01*
X208480852Y-89317955D01*
X208519416Y-89384750D01*
X208523406Y-89405353D01*
X208538762Y-89531813D01*
X208538763Y-89531820D01*
X208594779Y-89679522D01*
X208648133Y-89756818D01*
X208684517Y-89809530D01*
X208802760Y-89914283D01*
X208942635Y-89987696D01*
X209096015Y-90025500D01*
X209126679Y-90025500D01*
X209201179Y-90045462D01*
X209232038Y-90069141D01*
X212373386Y-93210489D01*
X212373388Y-93210490D01*
X212373389Y-93210491D01*
X212476115Y-93269800D01*
X212490424Y-93273633D01*
X212500317Y-93276283D01*
X212500324Y-93276287D01*
X212500325Y-93276286D01*
X212524539Y-93282774D01*
X212590691Y-93300500D01*
X213100095Y-93300500D01*
X213174595Y-93320462D01*
X213190795Y-93331287D01*
X213247159Y-93374536D01*
X213393238Y-93435044D01*
X213463669Y-93444316D01*
X213534924Y-93473830D01*
X213549579Y-93486682D01*
X214048387Y-93985490D01*
X214124650Y-94029520D01*
X214124652Y-94029521D01*
X214124653Y-94029522D01*
X214151110Y-94044797D01*
X214151111Y-94044797D01*
X214151114Y-94044799D01*
X214265691Y-94075500D01*
X217608000Y-94075500D01*
X217682500Y-94095462D01*
X217737038Y-94150000D01*
X217757000Y-94224500D01*
X217757000Y-100701007D01*
X217767406Y-100780055D01*
X217767410Y-100780075D01*
X217787370Y-100854567D01*
X217787375Y-100854582D01*
X217806120Y-100907777D01*
X217812053Y-100984676D01*
X217778741Y-101054240D01*
X217770949Y-101062656D01*
X215379518Y-103454089D01*
X215379515Y-103454093D01*
X215326794Y-103545408D01*
X215326793Y-103545412D01*
X215306348Y-103621717D01*
X215306347Y-103621719D01*
X215299500Y-103647268D01*
X215299500Y-104605329D01*
X215279538Y-104679829D01*
X215249306Y-104716856D01*
X215209520Y-104752102D01*
X215209517Y-104752106D01*
X215119779Y-104882114D01*
X215063763Y-105029816D01*
X215044722Y-105186637D01*
X215063763Y-105343457D01*
X215119779Y-105491159D01*
X215194907Y-105600000D01*
X215209517Y-105621167D01*
X215327760Y-105725920D01*
X215467635Y-105799333D01*
X215621015Y-105837137D01*
X215621017Y-105837137D01*
X215778983Y-105837137D01*
X215778985Y-105837137D01*
X215932365Y-105799333D01*
X215971265Y-105778916D01*
X216046505Y-105761970D01*
X216120141Y-105784914D01*
X216172440Y-105841603D01*
X216189508Y-105910849D01*
X216189508Y-106737381D01*
X216169546Y-106811881D01*
X216145867Y-106842740D01*
X214634518Y-108354089D01*
X214634515Y-108354093D01*
X214581794Y-108445408D01*
X214581791Y-108445414D01*
X214563765Y-108512694D01*
X214563764Y-108512699D01*
X214552570Y-108554471D01*
X214514004Y-108621265D01*
X214507454Y-108627430D01*
X214464520Y-108665465D01*
X214464517Y-108665469D01*
X214374779Y-108795477D01*
X214318763Y-108943179D01*
X214299722Y-109100000D01*
X214318763Y-109256820D01*
X214374779Y-109404522D01*
X214385437Y-109419962D01*
X214464517Y-109534530D01*
X214582760Y-109639283D01*
X214722635Y-109712696D01*
X214876015Y-109750500D01*
X214876017Y-109750500D01*
X215033983Y-109750500D01*
X215033985Y-109750500D01*
X215187365Y-109712696D01*
X215327240Y-109639283D01*
X215445483Y-109534530D01*
X215535220Y-109404523D01*
X215591237Y-109256818D01*
X215610278Y-109100000D01*
X215591237Y-108943182D01*
X215535220Y-108795477D01*
X215520285Y-108773840D01*
X215494393Y-108701190D01*
X215508295Y-108625325D01*
X215537548Y-108583843D01*
X216910488Y-107210905D01*
X216963214Y-107119580D01*
X216963215Y-107119579D01*
X216990508Y-107017719D01*
X216990508Y-104499500D01*
X217010470Y-104425000D01*
X217065008Y-104370462D01*
X217139508Y-104350500D01*
X220071036Y-104350500D01*
X220145536Y-104370462D01*
X220169841Y-104387972D01*
X220227757Y-104439281D01*
X220227758Y-104439281D01*
X220227760Y-104439283D01*
X220367635Y-104512696D01*
X220521015Y-104550500D01*
X220521017Y-104550500D01*
X220678983Y-104550500D01*
X220678985Y-104550500D01*
X220832365Y-104512696D01*
X220972240Y-104439283D01*
X221090483Y-104334530D01*
X221180220Y-104204523D01*
X221236237Y-104056818D01*
X221255278Y-103900000D01*
X221236237Y-103743182D01*
X221234007Y-103737303D01*
X221214188Y-103685044D01*
X221180220Y-103595477D01*
X221178675Y-103593238D01*
X221151342Y-103553639D01*
X221125450Y-103480987D01*
X221139353Y-103405122D01*
X221189326Y-103346373D01*
X221261978Y-103320481D01*
X221306786Y-103325295D01*
X221307030Y-103324073D01*
X221314209Y-103325501D01*
X221439884Y-103350500D01*
X221439888Y-103350500D01*
X222778984Y-103350500D01*
X222778985Y-103350500D01*
X222838119Y-103335924D01*
X222844675Y-103334466D01*
X222889740Y-103325502D01*
X222889740Y-103325501D01*
X222889744Y-103325501D01*
X222893031Y-103324139D01*
X222914398Y-103317123D01*
X222932365Y-103312696D01*
X222970233Y-103292820D01*
X222982432Y-103287107D01*
X223008127Y-103276465D01*
X223026223Y-103264372D01*
X223039751Y-103256334D01*
X223072240Y-103239283D01*
X223090633Y-103222986D01*
X223106653Y-103210631D01*
X223114669Y-103205276D01*
X223142893Y-103177050D01*
X223149414Y-103170911D01*
X223190483Y-103134530D01*
X223194945Y-103128064D01*
X223202401Y-103118170D01*
X223205268Y-103114676D01*
X223205276Y-103114669D01*
X223237503Y-103066434D01*
X223238696Y-103064677D01*
X223280220Y-103004523D01*
X223297989Y-102957670D01*
X223303955Y-102941939D01*
X223305614Y-102937754D01*
X223325501Y-102889744D01*
X223325502Y-102889736D01*
X223327627Y-102882736D01*
X223327721Y-102882764D01*
X223331836Y-102868422D01*
X223336235Y-102856822D01*
X223336237Y-102856818D01*
X223342118Y-102808375D01*
X223343894Y-102797275D01*
X223350500Y-102764069D01*
X223350500Y-102748365D01*
X223351586Y-102730406D01*
X223355278Y-102700000D01*
X223355038Y-102698024D01*
X223355278Y-102696334D01*
X223355278Y-102690987D01*
X223356037Y-102690987D01*
X223365872Y-102621662D01*
X223413437Y-102560947D01*
X223484986Y-102532148D01*
X223561350Y-102542982D01*
X223608310Y-102574702D01*
X224003046Y-102969438D01*
X224041610Y-103036233D01*
X224045602Y-103092750D01*
X224044722Y-103099998D01*
X224063763Y-103256820D01*
X224119779Y-103404522D01*
X224205204Y-103528281D01*
X224209517Y-103534530D01*
X224327760Y-103639283D01*
X224467635Y-103712696D01*
X224621015Y-103750500D01*
X224621017Y-103750500D01*
X224778983Y-103750500D01*
X224778985Y-103750500D01*
X224932365Y-103712696D01*
X225072240Y-103639283D01*
X225190483Y-103534530D01*
X225280220Y-103404523D01*
X225336237Y-103256818D01*
X225355278Y-103100000D01*
X225336237Y-102943182D01*
X225334178Y-102937754D01*
X225280220Y-102795477D01*
X225190483Y-102665470D01*
X225072239Y-102560716D01*
X224932363Y-102487303D01*
X224845495Y-102465893D01*
X224778985Y-102449500D01*
X224677611Y-102449500D01*
X224603111Y-102429538D01*
X224572252Y-102405859D01*
X223576252Y-101409859D01*
X223537688Y-101343064D01*
X223537688Y-101265936D01*
X223576252Y-101199141D01*
X223643047Y-101160577D01*
X223681611Y-101155500D01*
X227613500Y-101155500D01*
X227630406Y-101153274D01*
X227692555Y-101145093D01*
X227692559Y-101145092D01*
X227692568Y-101145091D01*
X227767068Y-101125129D01*
X227767073Y-101125126D01*
X227767087Y-101125123D01*
X227788226Y-101117673D01*
X227811398Y-101109508D01*
X227904021Y-101046059D01*
X227958559Y-100991521D01*
X227989139Y-100955828D01*
X228037629Y-100854568D01*
X228057591Y-100780068D01*
X228068000Y-100701000D01*
X228068000Y-93099000D01*
X228063586Y-93065470D01*
X228057593Y-93019944D01*
X228057589Y-93019924D01*
X228037629Y-92945432D01*
X228037623Y-92945412D01*
X228022009Y-92901106D01*
X228022008Y-92901102D01*
X227958559Y-92808479D01*
X227904021Y-92753941D01*
X227868328Y-92723361D01*
X227817698Y-92699116D01*
X227767069Y-92674871D01*
X227692575Y-92654910D01*
X227692555Y-92654906D01*
X227613507Y-92644500D01*
X227613500Y-92644500D01*
X225099500Y-92644500D01*
X225025000Y-92624538D01*
X224970462Y-92570000D01*
X224950500Y-92495500D01*
X224950500Y-90008496D01*
X224970462Y-89933996D01*
X224976876Y-89923853D01*
X224990219Y-89904523D01*
X225046236Y-89756818D01*
X225065277Y-89600000D01*
X225046236Y-89443182D01*
X224990219Y-89295477D01*
X224900482Y-89165470D01*
X224814484Y-89089283D01*
X224782238Y-89060716D01*
X224642362Y-88987303D01*
X224564590Y-88968134D01*
X224488984Y-88949500D01*
X224331014Y-88949500D01*
X224270358Y-88964450D01*
X224177635Y-88987303D01*
X224037759Y-89060716D01*
X223919515Y-89165470D01*
X223829778Y-89295477D01*
X223773762Y-89443179D01*
X223773762Y-89443182D01*
X223754721Y-89600000D01*
X223773762Y-89756818D01*
X223829779Y-89904522D01*
X223829781Y-89904528D01*
X223832432Y-89909578D01*
X223849500Y-89978823D01*
X223849500Y-92410256D01*
X223829538Y-92484756D01*
X223805859Y-92515615D01*
X223585304Y-92736169D01*
X223518509Y-92774733D01*
X223515605Y-92775480D01*
X223485973Y-92782784D01*
X223467635Y-92787304D01*
X223455045Y-92793912D01*
X223443609Y-92799914D01*
X223368365Y-92816859D01*
X223294730Y-92793912D01*
X223269008Y-92773339D01*
X223249611Y-92753942D01*
X223249610Y-92753941D01*
X223213917Y-92723361D01*
X223163287Y-92699116D01*
X223112658Y-92674871D01*
X223038164Y-92654910D01*
X223038144Y-92654906D01*
X222959096Y-92644500D01*
X222959089Y-92644500D01*
X222743352Y-92644500D01*
X222743344Y-92644500D01*
X222682255Y-92650672D01*
X222682242Y-92650674D01*
X222623825Y-92662600D01*
X222596137Y-92669617D01*
X222596136Y-92669617D01*
X222496547Y-92721434D01*
X222435824Y-92769007D01*
X222401175Y-92800745D01*
X222401174Y-92800745D01*
X222340828Y-92895425D01*
X222312033Y-92966967D01*
X222312031Y-92966972D01*
X222292166Y-93044208D01*
X222292162Y-93044233D01*
X222289614Y-93065215D01*
X222281018Y-93100090D01*
X222264139Y-93144594D01*
X222247448Y-93176395D01*
X222220414Y-93215562D01*
X222196591Y-93242453D01*
X222160958Y-93274020D01*
X222131400Y-93294422D01*
X222089255Y-93316542D01*
X222055669Y-93329280D01*
X222009456Y-93340670D01*
X221973801Y-93345000D01*
X221926202Y-93345000D01*
X221890542Y-93340670D01*
X221844325Y-93329278D01*
X221810741Y-93316541D01*
X221768597Y-93294422D01*
X221739037Y-93274018D01*
X221703410Y-93242456D01*
X221679589Y-93215568D01*
X221652548Y-93176392D01*
X221635856Y-93144587D01*
X221618979Y-93100086D01*
X221610383Y-93065211D01*
X221607834Y-93044219D01*
X221607833Y-93044215D01*
X221607833Y-93044212D01*
X221594339Y-92984297D01*
X221575464Y-92927759D01*
X221565156Y-92901102D01*
X221501707Y-92808479D01*
X221447169Y-92753941D01*
X221411476Y-92723361D01*
X221360846Y-92699116D01*
X221310217Y-92674871D01*
X221235723Y-92654910D01*
X221235703Y-92654906D01*
X221156655Y-92644500D01*
X221156648Y-92644500D01*
X220322321Y-92644500D01*
X220247821Y-92624538D01*
X220193283Y-92570000D01*
X220173321Y-92495500D01*
X220193283Y-92421000D01*
X220216962Y-92390141D01*
X223653591Y-88953511D01*
X224800421Y-87806680D01*
X224867214Y-87768118D01*
X224886316Y-87764318D01*
X224956762Y-87755044D01*
X225102841Y-87694536D01*
X225228282Y-87598282D01*
X225324536Y-87472841D01*
X225385044Y-87326762D01*
X225392029Y-87273711D01*
X225405682Y-87170002D01*
X225405682Y-87169997D01*
X225385045Y-87013242D01*
X225385044Y-87013240D01*
X225385044Y-87013238D01*
X225324536Y-86867159D01*
X225228282Y-86741718D01*
X225102841Y-86645464D01*
X225102840Y-86645463D01*
X225022944Y-86612369D01*
X224956762Y-86584956D01*
X224956760Y-86584955D01*
X224956756Y-86584954D01*
X224956759Y-86584954D01*
X224800003Y-86564318D01*
X224799997Y-86564318D01*
X224643242Y-86584954D01*
X224497159Y-86645463D01*
X224371718Y-86741717D01*
X224371717Y-86741718D01*
X224275463Y-86867159D01*
X224214956Y-87013237D01*
X224205683Y-87083669D01*
X224176167Y-87154926D01*
X224163317Y-87169578D01*
X218202038Y-93130859D01*
X218135243Y-93169423D01*
X218096679Y-93174500D01*
X214573321Y-93174500D01*
X214498821Y-93154538D01*
X214467962Y-93130859D01*
X214186682Y-92849579D01*
X214148118Y-92782784D01*
X214144317Y-92763678D01*
X214135044Y-92693238D01*
X214074536Y-92547159D01*
X213978282Y-92421718D01*
X213977347Y-92421000D01*
X213852840Y-92325463D01*
X213772944Y-92292369D01*
X213706762Y-92264956D01*
X213706760Y-92264955D01*
X213706756Y-92264954D01*
X213706759Y-92264954D01*
X213550003Y-92244318D01*
X213549997Y-92244318D01*
X213393242Y-92264954D01*
X213247159Y-92325463D01*
X213207547Y-92355859D01*
X213190798Y-92368710D01*
X213119543Y-92398225D01*
X213100095Y-92399500D01*
X212898321Y-92399500D01*
X212823821Y-92379538D01*
X212792962Y-92355859D01*
X209869146Y-89432043D01*
X209830582Y-89365248D01*
X209826593Y-89344657D01*
X209811237Y-89218182D01*
X209755220Y-89070477D01*
X209665483Y-88940470D01*
X209547240Y-88835717D01*
X209547239Y-88835716D01*
X209407363Y-88762303D01*
X209329591Y-88743134D01*
X209253985Y-88724500D01*
X209253983Y-88724500D01*
X209223321Y-88724500D01*
X209148821Y-88704538D01*
X209117962Y-88680859D01*
X207601614Y-87164511D01*
X206667138Y-86230035D01*
X205726614Y-85289511D01*
X205726611Y-85289509D01*
X205726607Y-85289506D01*
X205623888Y-85230201D01*
X205623887Y-85230200D01*
X205597421Y-85223109D01*
X205592229Y-85221718D01*
X205592226Y-85221716D01*
X205592226Y-85221717D01*
X205509309Y-85199500D01*
X193009917Y-85199500D01*
X192935417Y-85179538D01*
X192919216Y-85168712D01*
X192862853Y-85125464D01*
X192862852Y-85125463D01*
X192782956Y-85092369D01*
X192716774Y-85064956D01*
X192716772Y-85064955D01*
X192716768Y-85064954D01*
X192716771Y-85064954D01*
X192560015Y-85044318D01*
X192560009Y-85044318D01*
X192403254Y-85064954D01*
X192257171Y-85125463D01*
X192131730Y-85221717D01*
X192131730Y-85221718D01*
X192035478Y-85347154D01*
X192035477Y-85347157D01*
X192012273Y-85403174D01*
X191979975Y-85451510D01*
X190359489Y-87071997D01*
X190306079Y-87164509D01*
X190306077Y-87164512D01*
X190287017Y-87197522D01*
X190249500Y-87337535D01*
X190249500Y-105610257D01*
X190229538Y-105684757D01*
X190205859Y-105715616D01*
X188615616Y-107305859D01*
X188548821Y-107344423D01*
X188510257Y-107349500D01*
X184087594Y-107349500D01*
X184018350Y-107332433D01*
X183932363Y-107287303D01*
X183854591Y-107268134D01*
X183778985Y-107249500D01*
X183621015Y-107249500D01*
X183560359Y-107264450D01*
X183467636Y-107287303D01*
X183381650Y-107332433D01*
X183312406Y-107349500D01*
X167087594Y-107349500D01*
X167018350Y-107332433D01*
X166932363Y-107287303D01*
X166854591Y-107268134D01*
X166778985Y-107249500D01*
X166621015Y-107249500D01*
X166560359Y-107264450D01*
X166467636Y-107287303D01*
X166381650Y-107332433D01*
X166312406Y-107349500D01*
X150155584Y-107349500D01*
X150101764Y-107336235D01*
X150100795Y-107338792D01*
X150092365Y-107335595D01*
X149938985Y-107297791D01*
X149938034Y-107297791D01*
X149937243Y-107297579D01*
X149930036Y-107296704D01*
X149930160Y-107295681D01*
X149863534Y-107277829D01*
X149832675Y-107254150D01*
X146817729Y-104239204D01*
X146783773Y-104186686D01*
X146730220Y-104045477D01*
X146640483Y-103915470D01*
X146623021Y-103900000D01*
X146522239Y-103810716D01*
X146382363Y-103737303D01*
X146282524Y-103712696D01*
X146228985Y-103699500D01*
X146071015Y-103699500D01*
X146017476Y-103712696D01*
X145917636Y-103737303D01*
X145777760Y-103810716D01*
X145659516Y-103915470D01*
X145572125Y-104042080D01*
X145513375Y-104092052D01*
X145437511Y-104105955D01*
X145364858Y-104080063D01*
X145314886Y-104021313D01*
X145300500Y-103957438D01*
X145300500Y-103627611D01*
X145320462Y-103553111D01*
X145344141Y-103522252D01*
X152777752Y-96088641D01*
X152844547Y-96050077D01*
X152883111Y-96045000D01*
X152914597Y-96045000D01*
X152989097Y-96064962D01*
X153013402Y-96082472D01*
X153127757Y-96183781D01*
X153127760Y-96183783D01*
X153225250Y-96234951D01*
X153281939Y-96287249D01*
X153304884Y-96360885D01*
X153287937Y-96436128D01*
X153261364Y-96472242D01*
X147427747Y-102305859D01*
X147360952Y-102344423D01*
X147322388Y-102349500D01*
X147221015Y-102349500D01*
X147160359Y-102364450D01*
X147067636Y-102387303D01*
X146927760Y-102460716D01*
X146809516Y-102565470D01*
X146719779Y-102695477D01*
X146663763Y-102843179D01*
X146644722Y-103000000D01*
X146663763Y-103156820D01*
X146719779Y-103304522D01*
X146793986Y-103412029D01*
X146809517Y-103434530D01*
X146927760Y-103539283D01*
X147067635Y-103612696D01*
X147221015Y-103650500D01*
X147221017Y-103650500D01*
X147378983Y-103650500D01*
X147378985Y-103650500D01*
X147532365Y-103612696D01*
X147672240Y-103539283D01*
X147687840Y-103525463D01*
X147701196Y-103513631D01*
X147770198Y-103479170D01*
X147847185Y-103483827D01*
X147898806Y-103513631D01*
X147927759Y-103539281D01*
X147927760Y-103539281D01*
X147927762Y-103539283D01*
X148067637Y-103612696D01*
X148221017Y-103650500D01*
X148221019Y-103650500D01*
X148378985Y-103650500D01*
X148378987Y-103650500D01*
X148532367Y-103612696D01*
X148672242Y-103539283D01*
X148790485Y-103434530D01*
X148880222Y-103304523D01*
X148936239Y-103156818D01*
X148955280Y-103000000D01*
X148954401Y-102992759D01*
X148965236Y-102916395D01*
X148996952Y-102869441D01*
X177033645Y-74832747D01*
X177033650Y-74832744D01*
X177045911Y-74820482D01*
X177045913Y-74820482D01*
X177120480Y-74745915D01*
X177173207Y-74654589D01*
X177199758Y-74555500D01*
X177200501Y-74552729D01*
X177200501Y-74447275D01*
X177200501Y-74438147D01*
X177200500Y-74438129D01*
X177200500Y-73465988D01*
X177220462Y-73391488D01*
X177275000Y-73336950D01*
X177305572Y-73323611D01*
X177423004Y-73287389D01*
X177652634Y-73176805D01*
X177863217Y-73033232D01*
X178050050Y-72859877D01*
X178208959Y-72660612D01*
X178336393Y-72439888D01*
X178429508Y-72202637D01*
X178486222Y-71954157D01*
X178497774Y-71800000D01*
X178505268Y-71700005D01*
X178505268Y-71699994D01*
X178486223Y-71445855D01*
X178486222Y-71445853D01*
X178486222Y-71445843D01*
X178429508Y-71197363D01*
X178375642Y-71060115D01*
X178336394Y-70960114D01*
X178336391Y-70960108D01*
X178309462Y-70913466D01*
X178208959Y-70739388D01*
X178104442Y-70608328D01*
X178050053Y-70540126D01*
X178001395Y-70494978D01*
X177863217Y-70366768D01*
X177863213Y-70366765D01*
X177862249Y-70365996D01*
X177861953Y-70365596D01*
X177859130Y-70362976D01*
X177859625Y-70362441D01*
X177816447Y-70303941D01*
X177807808Y-70227298D01*
X177838649Y-70156604D01*
X177900704Y-70110802D01*
X177955145Y-70100500D01*
X179950577Y-70100500D01*
X180025077Y-70120462D01*
X180079615Y-70175000D01*
X180099577Y-70249500D01*
X180099500Y-70252160D01*
X180099500Y-72772388D01*
X180079538Y-72846888D01*
X180055859Y-72877747D01*
X150879518Y-102054089D01*
X150879515Y-102054093D01*
X150826794Y-102145407D01*
X150803454Y-102232514D01*
X150799500Y-102247272D01*
X150799500Y-102518692D01*
X150779538Y-102593192D01*
X150749306Y-102630219D01*
X150709520Y-102665465D01*
X150709517Y-102665469D01*
X150619779Y-102795477D01*
X150563763Y-102943179D01*
X150544722Y-103100000D01*
X150563763Y-103256820D01*
X150619779Y-103404522D01*
X150705204Y-103528281D01*
X150709517Y-103534530D01*
X150827760Y-103639283D01*
X150967635Y-103712696D01*
X151121015Y-103750500D01*
X151121017Y-103750500D01*
X151278983Y-103750500D01*
X151278985Y-103750500D01*
X151432365Y-103712696D01*
X151572240Y-103639283D01*
X151690483Y-103534530D01*
X151780220Y-103404523D01*
X151836237Y-103256818D01*
X151855278Y-103100000D01*
X151836237Y-102943182D01*
X151834178Y-102937754D01*
X151780220Y-102795477D01*
X151742780Y-102741236D01*
X151690483Y-102665470D01*
X151655423Y-102634409D01*
X151612897Y-102570067D01*
X151608239Y-102493080D01*
X151642699Y-102424078D01*
X151648855Y-102417537D01*
X151845604Y-102220788D01*
X151912396Y-102182226D01*
X151989524Y-102182226D01*
X152056319Y-102220790D01*
X152069167Y-102235440D01*
X152088237Y-102260293D01*
X152213678Y-102356547D01*
X152359757Y-102417055D01*
X152359760Y-102417055D01*
X152359762Y-102417056D01*
X152359759Y-102417056D01*
X152516516Y-102437693D01*
X152516519Y-102437693D01*
X152516522Y-102437693D01*
X152673276Y-102417056D01*
X152673277Y-102417055D01*
X152673281Y-102417055D01*
X152819360Y-102356547D01*
X152944801Y-102260293D01*
X153041055Y-102134852D01*
X153101563Y-101988773D01*
X153108108Y-101939064D01*
X153122201Y-101832013D01*
X153122201Y-101832011D01*
X153120916Y-101822251D01*
X153116927Y-101791955D01*
X153126993Y-101715490D01*
X153159290Y-101667151D01*
X159557725Y-95268716D01*
X159624518Y-95230154D01*
X159701646Y-95230154D01*
X159768441Y-95268718D01*
X159802399Y-95321241D01*
X159832847Y-95401527D01*
X159892316Y-95487682D01*
X159922585Y-95531535D01*
X160040828Y-95636288D01*
X160180703Y-95709701D01*
X160286158Y-95735692D01*
X160353715Y-95772903D01*
X160393617Y-95838907D01*
X160399500Y-95880363D01*
X160399500Y-96313667D01*
X160379538Y-96388167D01*
X160325000Y-96442705D01*
X160250500Y-96462667D01*
X160214845Y-96458338D01*
X160178985Y-96449500D01*
X160021015Y-96449500D01*
X159985157Y-96458338D01*
X159867634Y-96487303D01*
X159727761Y-96560716D01*
X159720338Y-96565840D01*
X159718475Y-96563141D01*
X159664446Y-96590099D01*
X159587461Y-96585413D01*
X159565455Y-96576032D01*
X159429789Y-96504828D01*
X159352017Y-96485659D01*
X159276411Y-96467025D01*
X159118441Y-96467025D01*
X159057785Y-96481975D01*
X158965062Y-96504828D01*
X158825186Y-96578241D01*
X158706942Y-96682995D01*
X158617205Y-96813002D01*
X158561189Y-96960704D01*
X158542148Y-97117528D01*
X158542148Y-97124243D01*
X158522186Y-97198743D01*
X158498507Y-97229602D01*
X158227757Y-97500352D01*
X158160962Y-97538916D01*
X158122398Y-97543993D01*
X158021025Y-97543993D01*
X157960369Y-97558943D01*
X157867646Y-97581796D01*
X157727770Y-97655209D01*
X157609526Y-97759963D01*
X157519789Y-97889970D01*
X157463773Y-98037672D01*
X157444732Y-98194493D01*
X157463773Y-98351313D01*
X157519789Y-98499015D01*
X157609526Y-98629022D01*
X157727771Y-98733777D01*
X157782265Y-98762378D01*
X157838954Y-98814676D01*
X157861899Y-98888311D01*
X157844952Y-98963555D01*
X157818379Y-98999669D01*
X156847113Y-99970935D01*
X156780318Y-100009499D01*
X156777413Y-100010246D01*
X156667634Y-100037304D01*
X156527760Y-100110716D01*
X156409516Y-100215470D01*
X156319779Y-100345477D01*
X156263763Y-100493179D01*
X156244722Y-100650000D01*
X156263763Y-100806820D01*
X156319779Y-100954522D01*
X156394419Y-101062656D01*
X156409517Y-101084530D01*
X156527760Y-101189283D01*
X156667635Y-101262696D01*
X156821015Y-101300500D01*
X156821017Y-101300500D01*
X156978983Y-101300500D01*
X156978985Y-101300500D01*
X157132365Y-101262696D01*
X157272240Y-101189283D01*
X157390483Y-101084530D01*
X157480220Y-100954523D01*
X157536237Y-100806818D01*
X157555278Y-100650000D01*
X157536472Y-100495122D01*
X157547309Y-100418763D01*
X157579024Y-100371810D01*
X157692311Y-100258523D01*
X157759104Y-100219961D01*
X157836232Y-100219961D01*
X157903027Y-100258525D01*
X157941591Y-100325320D01*
X157945581Y-100345922D01*
X157951894Y-100397911D01*
X157951895Y-100397917D01*
X158007911Y-100545619D01*
X158007912Y-100545620D01*
X158097649Y-100675627D01*
X158215892Y-100780380D01*
X158355767Y-100853793D01*
X158509147Y-100891597D01*
X158509149Y-100891597D01*
X158667115Y-100891597D01*
X158667117Y-100891597D01*
X158820497Y-100853793D01*
X158960372Y-100780380D01*
X159078615Y-100675627D01*
X159168352Y-100545620D01*
X159224369Y-100397915D01*
X159224369Y-100397910D01*
X159226526Y-100389163D01*
X159227960Y-100389516D01*
X159253076Y-100327116D01*
X159313791Y-100279551D01*
X159372191Y-100267629D01*
X159383473Y-100267629D01*
X159383475Y-100267629D01*
X159536855Y-100229825D01*
X159676730Y-100156412D01*
X159794973Y-100051659D01*
X159843626Y-99981172D01*
X159902372Y-99931202D01*
X159978237Y-99917298D01*
X160001905Y-99921144D01*
X160121007Y-99950500D01*
X160278975Y-99950500D01*
X160278977Y-99950500D01*
X160432357Y-99912696D01*
X160572232Y-99839283D01*
X160690475Y-99734530D01*
X160780212Y-99604523D01*
X160836229Y-99456818D01*
X160855270Y-99300000D01*
X160854391Y-99292759D01*
X160865226Y-99216395D01*
X160896942Y-99169441D01*
X162370480Y-97695905D01*
X162384412Y-97671774D01*
X162389689Y-97662635D01*
X162393976Y-97655209D01*
X162423207Y-97604579D01*
X162450500Y-97502719D01*
X162450500Y-93894010D01*
X162470462Y-93819510D01*
X162476878Y-93809365D01*
X162480219Y-93804524D01*
X162480218Y-93804524D01*
X162480220Y-93804523D01*
X162536237Y-93656818D01*
X162555278Y-93500000D01*
X162536237Y-93343182D01*
X162527620Y-93320462D01*
X162480220Y-93195477D01*
X162390483Y-93065470D01*
X162272239Y-92960716D01*
X162229054Y-92938051D01*
X162184945Y-92914900D01*
X162128257Y-92862604D01*
X162105312Y-92788968D01*
X162122258Y-92713725D01*
X162148829Y-92677613D01*
X180982302Y-73844141D01*
X181049097Y-73805577D01*
X181087661Y-73800500D01*
X183552725Y-73800500D01*
X183552727Y-73800500D01*
X183654588Y-73773207D01*
X183745913Y-73720480D01*
X185039516Y-72426875D01*
X185106309Y-72388313D01*
X185183437Y-72388313D01*
X185250232Y-72426877D01*
X185273911Y-72457736D01*
X185305213Y-72511953D01*
X185391041Y-72660612D01*
X185391045Y-72660617D01*
X185549946Y-72859873D01*
X185549949Y-72859875D01*
X185549950Y-72859877D01*
X185736783Y-73033232D01*
X185947366Y-73176805D01*
X185947369Y-73176806D01*
X185947370Y-73176807D01*
X185983520Y-73194216D01*
X186176996Y-73287389D01*
X186418957Y-73362024D01*
X186420536Y-73362511D01*
X186420538Y-73362512D01*
X186420539Y-73362512D01*
X186420542Y-73362513D01*
X186672565Y-73400500D01*
X186672567Y-73400500D01*
X186927433Y-73400500D01*
X186927435Y-73400500D01*
X187179458Y-73362513D01*
X187423004Y-73287389D01*
X187449244Y-73274752D01*
X187525023Y-73260412D01*
X187597823Y-73285884D01*
X187648135Y-73344344D01*
X187662476Y-73420127D01*
X187637004Y-73492927D01*
X187619251Y-73514355D01*
X158877748Y-102255859D01*
X158810953Y-102294423D01*
X158772389Y-102299500D01*
X155937223Y-102299500D01*
X155835363Y-102326793D01*
X155835361Y-102326793D01*
X155835361Y-102326794D01*
X155779965Y-102358777D01*
X155779964Y-102358777D01*
X155744041Y-102379516D01*
X155744036Y-102379520D01*
X154517698Y-103605859D01*
X154450903Y-103644423D01*
X154412339Y-103649500D01*
X154315067Y-103649500D01*
X154240567Y-103629538D01*
X154224362Y-103618710D01*
X154102840Y-103525463D01*
X154022944Y-103492369D01*
X153956762Y-103464956D01*
X153956760Y-103464955D01*
X153956756Y-103464954D01*
X153956759Y-103464954D01*
X153800003Y-103444318D01*
X153799997Y-103444318D01*
X153643242Y-103464954D01*
X153497159Y-103525463D01*
X153371718Y-103621717D01*
X153371717Y-103621718D01*
X153275463Y-103747159D01*
X153214954Y-103893242D01*
X153194318Y-104049997D01*
X153194318Y-104050002D01*
X153214954Y-104206757D01*
X153275463Y-104352840D01*
X153351379Y-104451775D01*
X153371718Y-104478282D01*
X153497159Y-104574536D01*
X153643238Y-104635044D01*
X153643241Y-104635044D01*
X153643243Y-104635045D01*
X153643240Y-104635045D01*
X153799997Y-104655682D01*
X153800000Y-104655682D01*
X153800003Y-104655682D01*
X153956757Y-104635045D01*
X153956758Y-104635044D01*
X153956762Y-104635044D01*
X154102841Y-104574536D01*
X154224362Y-104481290D01*
X154295619Y-104451775D01*
X154315067Y-104450500D01*
X154692675Y-104450500D01*
X154692677Y-104450500D01*
X154794538Y-104423207D01*
X154885863Y-104370480D01*
X155642762Y-103613580D01*
X155709555Y-103575018D01*
X155786683Y-103575018D01*
X155853478Y-103613582D01*
X155892042Y-103680377D01*
X155895845Y-103738388D01*
X155894316Y-103750002D01*
X155914952Y-103906757D01*
X155975461Y-104052840D01*
X156031540Y-104125923D01*
X156071716Y-104178282D01*
X156197157Y-104274536D01*
X156343236Y-104335044D01*
X156343239Y-104335044D01*
X156343241Y-104335045D01*
X156343238Y-104335045D01*
X156499995Y-104355682D01*
X156499998Y-104355682D01*
X156500001Y-104355682D01*
X156656755Y-104335045D01*
X156656756Y-104335044D01*
X156656760Y-104335044D01*
X156802839Y-104274536D01*
X156928280Y-104178282D01*
X157024534Y-104052841D01*
X157085042Y-103906762D01*
X157085933Y-103900000D01*
X157105035Y-103754899D01*
X157134550Y-103683642D01*
X157147393Y-103668996D01*
X157272251Y-103544140D01*
X157339046Y-103505577D01*
X157377609Y-103500500D01*
X158413846Y-103500500D01*
X158488346Y-103520462D01*
X158542884Y-103575000D01*
X158562846Y-103649500D01*
X158561571Y-103668948D01*
X158544318Y-103799997D01*
X158544318Y-103800002D01*
X158564954Y-103956757D01*
X158625463Y-104102840D01*
X158709326Y-104212132D01*
X158721718Y-104228282D01*
X158847159Y-104324536D01*
X158993238Y-104385044D01*
X158993241Y-104385044D01*
X158993243Y-104385045D01*
X158993240Y-104385045D01*
X159149997Y-104405682D01*
X159150000Y-104405682D01*
X159150003Y-104405682D01*
X159306757Y-104385045D01*
X159306758Y-104385044D01*
X159306762Y-104385044D01*
X159452841Y-104324536D01*
X159578282Y-104228282D01*
X159674536Y-104102841D01*
X159735044Y-103956762D01*
X159735045Y-103956757D01*
X159756957Y-103790318D01*
X159759976Y-103790715D01*
X159775644Y-103732242D01*
X159799323Y-103701383D01*
X160562952Y-102937754D01*
X161145143Y-102355563D01*
X161211936Y-102317001D01*
X161289064Y-102317001D01*
X161355859Y-102355565D01*
X161394423Y-102422360D01*
X161399500Y-102460924D01*
X161399500Y-102584932D01*
X161379538Y-102659432D01*
X161368710Y-102675637D01*
X161275463Y-102797159D01*
X161214954Y-102943242D01*
X161194318Y-103099997D01*
X161194318Y-103100002D01*
X161214954Y-103256757D01*
X161275463Y-103402840D01*
X161369556Y-103525464D01*
X161371718Y-103528282D01*
X161497159Y-103624536D01*
X161643238Y-103685044D01*
X161643241Y-103685044D01*
X161643243Y-103685045D01*
X161643240Y-103685045D01*
X161799997Y-103705682D01*
X161800000Y-103705682D01*
X161800003Y-103705682D01*
X161956757Y-103685045D01*
X161956758Y-103685044D01*
X161956762Y-103685044D01*
X162102841Y-103624536D01*
X162228282Y-103528282D01*
X162324536Y-103402841D01*
X162385044Y-103256762D01*
X162385101Y-103256334D01*
X162405682Y-103100002D01*
X162405682Y-103099997D01*
X162385045Y-102943242D01*
X162385044Y-102943240D01*
X162385044Y-102943238D01*
X162324536Y-102797159D01*
X162299145Y-102764069D01*
X162231290Y-102675637D01*
X162201775Y-102604379D01*
X162200500Y-102584932D01*
X162200500Y-101927610D01*
X162220462Y-101853110D01*
X162244141Y-101822251D01*
X172066392Y-92000000D01*
X184494722Y-92000000D01*
X184513763Y-92156820D01*
X184569779Y-92304522D01*
X184650674Y-92421718D01*
X184659517Y-92434530D01*
X184777760Y-92539283D01*
X184917635Y-92612696D01*
X184965603Y-92624518D01*
X185033160Y-92661728D01*
X185035305Y-92663830D01*
X187855859Y-95484384D01*
X187894423Y-95551179D01*
X187899500Y-95589743D01*
X187899500Y-105405989D01*
X187879538Y-105480489D01*
X187873129Y-105490624D01*
X187869779Y-105495476D01*
X187813763Y-105643181D01*
X187794722Y-105800000D01*
X187813763Y-105956820D01*
X187869779Y-106104522D01*
X187869780Y-106104523D01*
X187959517Y-106234530D01*
X188077760Y-106339283D01*
X188217635Y-106412696D01*
X188371015Y-106450500D01*
X188371017Y-106450500D01*
X188528983Y-106450500D01*
X188528985Y-106450500D01*
X188682365Y-106412696D01*
X188822240Y-106339283D01*
X188940483Y-106234530D01*
X189030220Y-106104523D01*
X189086237Y-105956818D01*
X189105278Y-105800000D01*
X189086237Y-105643182D01*
X189030220Y-105495477D01*
X189030219Y-105495476D01*
X189030220Y-105495476D01*
X189026871Y-105490624D01*
X189000983Y-105417971D01*
X189000500Y-105405989D01*
X189000500Y-95227525D01*
X189000499Y-95227523D01*
X188995796Y-95209970D01*
X188962984Y-95087515D01*
X188949831Y-95064734D01*
X188938023Y-95044281D01*
X188938022Y-95044280D01*
X188938021Y-95044278D01*
X188890510Y-94961985D01*
X185817729Y-91889204D01*
X185783773Y-91836686D01*
X185730220Y-91695477D01*
X185640483Y-91565470D01*
X185522240Y-91460717D01*
X185522239Y-91460716D01*
X185382363Y-91387303D01*
X185304591Y-91368134D01*
X185228985Y-91349500D01*
X185071015Y-91349500D01*
X185010359Y-91364450D01*
X184917636Y-91387303D01*
X184777760Y-91460716D01*
X184659516Y-91565470D01*
X184569779Y-91695477D01*
X184513763Y-91843179D01*
X184494722Y-92000000D01*
X172066392Y-92000000D01*
X188859915Y-75206477D01*
X188926710Y-75167913D01*
X188965274Y-75162836D01*
X201194553Y-75162836D01*
X201194555Y-75162836D01*
X201296416Y-75135543D01*
X201387741Y-75082816D01*
X203820480Y-72650077D01*
X203873207Y-72558752D01*
X203900500Y-72456891D01*
X203900500Y-72351437D01*
X203900500Y-72249500D01*
X203920462Y-72175000D01*
X203975000Y-72120462D01*
X204049500Y-72100500D01*
X205029020Y-72100500D01*
X205103520Y-72120462D01*
X205158058Y-72175000D01*
X205167939Y-72197649D01*
X205168455Y-72197447D01*
X205263605Y-72439884D01*
X205263608Y-72439891D01*
X205321343Y-72539891D01*
X205391041Y-72660612D01*
X205391045Y-72660617D01*
X205549946Y-72859873D01*
X205549949Y-72859875D01*
X205549950Y-72859877D01*
X205736783Y-73033232D01*
X205947366Y-73176805D01*
X205947369Y-73176806D01*
X205947370Y-73176807D01*
X205983520Y-73194216D01*
X206176996Y-73287389D01*
X206418957Y-73362024D01*
X206420536Y-73362511D01*
X206420538Y-73362512D01*
X206420539Y-73362512D01*
X206420542Y-73362513D01*
X206672565Y-73400500D01*
X206672567Y-73400500D01*
X206927433Y-73400500D01*
X206927435Y-73400500D01*
X207179458Y-73362513D01*
X207423004Y-73287389D01*
X207652634Y-73176805D01*
X207863217Y-73033232D01*
X208050050Y-72859877D01*
X208208959Y-72660612D01*
X208336393Y-72439888D01*
X208429508Y-72202637D01*
X208486222Y-71954157D01*
X208497774Y-71800004D01*
X208501917Y-71744723D01*
X208527390Y-71671923D01*
X208585851Y-71621613D01*
X208661634Y-71607274D01*
X208734434Y-71632747D01*
X208784744Y-71691208D01*
X208799500Y-71755857D01*
X208799500Y-80472388D01*
X208779538Y-80546888D01*
X208755859Y-80577747D01*
X206627747Y-82705859D01*
X206560952Y-82744423D01*
X206522388Y-82749500D01*
X206421015Y-82749500D01*
X206369756Y-82762134D01*
X206267636Y-82787303D01*
X206127760Y-82860716D01*
X206009516Y-82965470D01*
X205919779Y-83095477D01*
X205863763Y-83243179D01*
X205844722Y-83400000D01*
X205863763Y-83556820D01*
X205919779Y-83704522D01*
X205919780Y-83704523D01*
X206009517Y-83834530D01*
X206127760Y-83939283D01*
X206267635Y-84012696D01*
X206421015Y-84050500D01*
X206421017Y-84050500D01*
X206578983Y-84050500D01*
X206578985Y-84050500D01*
X206732365Y-84012696D01*
X206872240Y-83939283D01*
X206990483Y-83834530D01*
X207080220Y-83704523D01*
X207136237Y-83556818D01*
X207155278Y-83400000D01*
X207154399Y-83392759D01*
X207165234Y-83316395D01*
X207196950Y-83269441D01*
X208945141Y-81521251D01*
X209011936Y-81482687D01*
X209089064Y-81482687D01*
X209155859Y-81521251D01*
X209194423Y-81588046D01*
X209199500Y-81626610D01*
X209199500Y-82772389D01*
X209179538Y-82846889D01*
X209155860Y-82877746D01*
X209127746Y-82905859D01*
X209060953Y-82944423D01*
X209022389Y-82949500D01*
X208921015Y-82949500D01*
X208860359Y-82964450D01*
X208767636Y-82987303D01*
X208627760Y-83060716D01*
X208509516Y-83165470D01*
X208419779Y-83295477D01*
X208363763Y-83443179D01*
X208344722Y-83600000D01*
X208363763Y-83756820D01*
X208419779Y-83904522D01*
X208472625Y-83981082D01*
X208509517Y-84034530D01*
X208627760Y-84139283D01*
X208767635Y-84212696D01*
X208921015Y-84250500D01*
X208921017Y-84250500D01*
X209078983Y-84250500D01*
X209078985Y-84250500D01*
X209232365Y-84212696D01*
X209372240Y-84139283D01*
X209490483Y-84034530D01*
X209527375Y-83981081D01*
X209586124Y-83931109D01*
X209661988Y-83917206D01*
X209734641Y-83943098D01*
X209772623Y-83981080D01*
X209809517Y-84034530D01*
X209927760Y-84139283D01*
X210067635Y-84212696D01*
X210221015Y-84250500D01*
X210221017Y-84250500D01*
X210378983Y-84250500D01*
X210378985Y-84250500D01*
X210532365Y-84212696D01*
X210672240Y-84139283D01*
X210790483Y-84034530D01*
X210880220Y-83904523D01*
X210936237Y-83756818D01*
X210943136Y-83700000D01*
X223100000Y-83700000D01*
X231200000Y-83700000D01*
X231200000Y-76400000D01*
X223100000Y-76400000D01*
X223100000Y-83700000D01*
X210943136Y-83700000D01*
X210955278Y-83600000D01*
X210936237Y-83443182D01*
X210880220Y-83295477D01*
X210790483Y-83165470D01*
X210790482Y-83165469D01*
X210790479Y-83165465D01*
X210750694Y-83130219D01*
X210708168Y-83065875D01*
X210700500Y-83018692D01*
X210700500Y-71047274D01*
X210700499Y-71047267D01*
X210677146Y-70960111D01*
X210677146Y-70960110D01*
X210673209Y-70945418D01*
X210673208Y-70945416D01*
X210673207Y-70945412D01*
X210620480Y-70854087D01*
X210121528Y-70355135D01*
X216999500Y-70355135D01*
X216999500Y-70355136D01*
X216999500Y-70355140D01*
X216999500Y-73244866D01*
X217002414Y-73269989D01*
X217002415Y-73269992D01*
X217047793Y-73372764D01*
X217047794Y-73372765D01*
X217127235Y-73452206D01*
X217230009Y-73497585D01*
X217255135Y-73500500D01*
X220144864Y-73500499D01*
X220144866Y-73500499D01*
X220157427Y-73499042D01*
X220169991Y-73497585D01*
X220272765Y-73452206D01*
X220352206Y-73372765D01*
X220397585Y-73269991D01*
X220400500Y-73244865D01*
X220400499Y-71799995D01*
X221995233Y-71799995D01*
X221995233Y-71800004D01*
X222014272Y-72054070D01*
X222014275Y-72054092D01*
X222070968Y-72302481D01*
X222070970Y-72302488D01*
X222164056Y-72539666D01*
X222164058Y-72539671D01*
X222291454Y-72760326D01*
X222291459Y-72760334D01*
X222396196Y-72891670D01*
X223146407Y-72141458D01*
X223195112Y-72214351D01*
X223285649Y-72304888D01*
X223358539Y-72353591D01*
X222607111Y-73105019D01*
X222637095Y-73132841D01*
X222847618Y-73276372D01*
X223077169Y-73386918D01*
X223077190Y-73386926D01*
X223320648Y-73462023D01*
X223320652Y-73462024D01*
X223572599Y-73499999D01*
X223572606Y-73500000D01*
X223827394Y-73500000D01*
X223827400Y-73499999D01*
X224079347Y-73462024D01*
X224079351Y-73462023D01*
X224322812Y-73386925D01*
X224322817Y-73386924D01*
X224552380Y-73276374D01*
X224762901Y-73132843D01*
X224762908Y-73132838D01*
X224792887Y-73105020D01*
X224792888Y-73105020D01*
X224041459Y-72353591D01*
X224114351Y-72304888D01*
X224204888Y-72214351D01*
X224253591Y-72141459D01*
X225003802Y-72891670D01*
X225003803Y-72891670D01*
X225108540Y-72760334D01*
X225108545Y-72760326D01*
X225235941Y-72539671D01*
X225235943Y-72539666D01*
X225329029Y-72302488D01*
X225329031Y-72302481D01*
X225385724Y-72054092D01*
X225385727Y-72054070D01*
X225404767Y-71800004D01*
X225404767Y-71799995D01*
X225404767Y-71799994D01*
X226994732Y-71799994D01*
X226994732Y-71800005D01*
X227013776Y-72054144D01*
X227013779Y-72054164D01*
X227070490Y-72302632D01*
X227070491Y-72302636D01*
X227163605Y-72539884D01*
X227163608Y-72539891D01*
X227220803Y-72638955D01*
X227291041Y-72760612D01*
X227291045Y-72760617D01*
X227449946Y-72959873D01*
X227449949Y-72959875D01*
X227449950Y-72959877D01*
X227636783Y-73133232D01*
X227847366Y-73276805D01*
X227847369Y-73276806D01*
X227847370Y-73276807D01*
X227869340Y-73287387D01*
X228076996Y-73387389D01*
X228318957Y-73462024D01*
X228320536Y-73462511D01*
X228320538Y-73462512D01*
X228320539Y-73462512D01*
X228320542Y-73462513D01*
X228572565Y-73500500D01*
X228572567Y-73500500D01*
X228827433Y-73500500D01*
X228827435Y-73500500D01*
X229079458Y-73462513D01*
X229323004Y-73387389D01*
X229552634Y-73276805D01*
X229763217Y-73133232D01*
X229950050Y-72959877D01*
X230108959Y-72760612D01*
X230236393Y-72539888D01*
X230329508Y-72302637D01*
X230386222Y-72054157D01*
X230405268Y-71800000D01*
X230403542Y-71776970D01*
X230386223Y-71545855D01*
X230386222Y-71545853D01*
X230386222Y-71545843D01*
X230335082Y-71321785D01*
X230329509Y-71297367D01*
X230329508Y-71297363D01*
X230290262Y-71197367D01*
X230236393Y-71060112D01*
X230228980Y-71047273D01*
X230178783Y-70960328D01*
X230108959Y-70839388D01*
X230029438Y-70739672D01*
X229950053Y-70640126D01*
X229763640Y-70467161D01*
X229763217Y-70466768D01*
X229552634Y-70323195D01*
X229552631Y-70323194D01*
X229552629Y-70323192D01*
X229323013Y-70212615D01*
X229323009Y-70212613D01*
X229323004Y-70212611D01*
X229322996Y-70212608D01*
X229322992Y-70212607D01*
X229079463Y-70137488D01*
X229079461Y-70137487D01*
X228827437Y-70099500D01*
X228827435Y-70099500D01*
X228572565Y-70099500D01*
X228572562Y-70099500D01*
X228320538Y-70137487D01*
X228320536Y-70137488D01*
X228077007Y-70212607D01*
X228076986Y-70212615D01*
X227847370Y-70323192D01*
X227636780Y-70466770D01*
X227449946Y-70640126D01*
X227291045Y-70839382D01*
X227291042Y-70839386D01*
X227291041Y-70839388D01*
X227282555Y-70854087D01*
X227163608Y-71060108D01*
X227163605Y-71060115D01*
X227070491Y-71297363D01*
X227070490Y-71297367D01*
X227013779Y-71545835D01*
X227013776Y-71545855D01*
X226994732Y-71799994D01*
X225404767Y-71799994D01*
X225385727Y-71545929D01*
X225385724Y-71545907D01*
X225329031Y-71297518D01*
X225329029Y-71297511D01*
X225235943Y-71060333D01*
X225235941Y-71060328D01*
X225108545Y-70839673D01*
X225108540Y-70839665D01*
X225003802Y-70708328D01*
X224253591Y-71458539D01*
X224204888Y-71385649D01*
X224114351Y-71295112D01*
X224041458Y-71246407D01*
X224792887Y-70494979D01*
X224762907Y-70467161D01*
X224552377Y-70323624D01*
X224322817Y-70213075D01*
X224322812Y-70213074D01*
X224079351Y-70137976D01*
X224079347Y-70137975D01*
X223827400Y-70100000D01*
X223572599Y-70100000D01*
X223320652Y-70137975D01*
X223320648Y-70137976D01*
X223077190Y-70213073D01*
X223077169Y-70213081D01*
X222847621Y-70323625D01*
X222637089Y-70467164D01*
X222607110Y-70494978D01*
X223358540Y-71246408D01*
X223285649Y-71295112D01*
X223195112Y-71385649D01*
X223146408Y-71458540D01*
X222396196Y-70708328D01*
X222396195Y-70708328D01*
X222291454Y-70839673D01*
X222164058Y-71060328D01*
X222164056Y-71060333D01*
X222070970Y-71297511D01*
X222070968Y-71297518D01*
X222014275Y-71545907D01*
X222014272Y-71545929D01*
X221995233Y-71799995D01*
X220400499Y-71799995D01*
X220400499Y-70355136D01*
X220397585Y-70330009D01*
X220352206Y-70227235D01*
X220272765Y-70147794D01*
X220272764Y-70147793D01*
X220169994Y-70102416D01*
X220169991Y-70102415D01*
X220169982Y-70102414D01*
X220144865Y-70099500D01*
X220144859Y-70099500D01*
X217255133Y-70099500D01*
X217230010Y-70102414D01*
X217230007Y-70102415D01*
X217127235Y-70147793D01*
X217047793Y-70227235D01*
X217002416Y-70330005D01*
X217002415Y-70330008D01*
X217002415Y-70330009D01*
X216999500Y-70355135D01*
X210121528Y-70355135D01*
X208345913Y-68579520D01*
X208345910Y-68579518D01*
X208345906Y-68579515D01*
X208254591Y-68526794D01*
X208254588Y-68526793D01*
X208227295Y-68519480D01*
X208152729Y-68499500D01*
X208152727Y-68499500D01*
X170347273Y-68499500D01*
X170245413Y-68526793D01*
X170245411Y-68526793D01*
X170245411Y-68526794D01*
X170154088Y-68579518D01*
X170154086Y-68579520D01*
X168579518Y-70154089D01*
X168579517Y-70154090D01*
X168526793Y-70245410D01*
X168526794Y-70245410D01*
X168526793Y-70245413D01*
X168499500Y-70347269D01*
X168499500Y-70687544D01*
X168479538Y-70762044D01*
X168425000Y-70816582D01*
X168350500Y-70836544D01*
X168276000Y-70816582D01*
X168221463Y-70762046D01*
X168208545Y-70739672D01*
X168208540Y-70739665D01*
X168103802Y-70608328D01*
X167353591Y-71358539D01*
X167304888Y-71285649D01*
X167214351Y-71195112D01*
X167141458Y-71146407D01*
X167892887Y-70394979D01*
X167862907Y-70367161D01*
X167652377Y-70223624D01*
X167422817Y-70113075D01*
X167422812Y-70113074D01*
X167179351Y-70037976D01*
X167179347Y-70037975D01*
X166927400Y-70000000D01*
X166672599Y-70000000D01*
X166420652Y-70037975D01*
X166420648Y-70037976D01*
X166177190Y-70113073D01*
X166177169Y-70113081D01*
X165947621Y-70223625D01*
X165737089Y-70367164D01*
X165707110Y-70394978D01*
X166458540Y-71146408D01*
X166385649Y-71195112D01*
X166295112Y-71285649D01*
X166246408Y-71358540D01*
X165496196Y-70608328D01*
X165496195Y-70608328D01*
X165391454Y-70739673D01*
X165264058Y-70960328D01*
X165264056Y-70960333D01*
X165170970Y-71197511D01*
X165170968Y-71197518D01*
X165114275Y-71445907D01*
X165114272Y-71445929D01*
X165095233Y-71699995D01*
X165095233Y-71700004D01*
X165114272Y-71954070D01*
X165114275Y-71954092D01*
X165170968Y-72202481D01*
X165170970Y-72202488D01*
X165264056Y-72439666D01*
X165264058Y-72439671D01*
X165391454Y-72660326D01*
X165391459Y-72660334D01*
X165496196Y-72791670D01*
X166246407Y-72041458D01*
X166295112Y-72114351D01*
X166385649Y-72204888D01*
X166458539Y-72253591D01*
X165707111Y-73005019D01*
X165737095Y-73032841D01*
X165947618Y-73176372D01*
X166177169Y-73286918D01*
X166177190Y-73286926D01*
X166420648Y-73362023D01*
X166420652Y-73362024D01*
X166672599Y-73399999D01*
X166672606Y-73400000D01*
X166927394Y-73400000D01*
X166927400Y-73399999D01*
X167179347Y-73362024D01*
X167179351Y-73362023D01*
X167422812Y-73286925D01*
X167422817Y-73286924D01*
X167652380Y-73176374D01*
X167862901Y-73032843D01*
X167862908Y-73032838D01*
X167892887Y-73005020D01*
X167892888Y-73005020D01*
X167141459Y-72253591D01*
X167214351Y-72204888D01*
X167304888Y-72114351D01*
X167353591Y-72041459D01*
X168103802Y-72791670D01*
X168103803Y-72791670D01*
X168208540Y-72660334D01*
X168208545Y-72660326D01*
X168221462Y-72637955D01*
X168276000Y-72583417D01*
X168350500Y-72563455D01*
X168425000Y-72583417D01*
X168479538Y-72637955D01*
X168499500Y-72712455D01*
X168499500Y-75672389D01*
X168479538Y-75746889D01*
X168455859Y-75777748D01*
X160777748Y-83455859D01*
X160710953Y-83494423D01*
X160672389Y-83499500D01*
X156385403Y-83499500D01*
X156310903Y-83479538D01*
X156286598Y-83462028D01*
X156172242Y-83360718D01*
X156032363Y-83287303D01*
X155954591Y-83268134D01*
X155878985Y-83249500D01*
X155721015Y-83249500D01*
X155660359Y-83264450D01*
X155567636Y-83287303D01*
X155427760Y-83360716D01*
X155309516Y-83465470D01*
X155219779Y-83595477D01*
X155163763Y-83743179D01*
X155144722Y-83900000D01*
X155163763Y-84056820D01*
X155219779Y-84204522D01*
X155299807Y-84320462D01*
X155309517Y-84334530D01*
X155427760Y-84439283D01*
X155567635Y-84512696D01*
X155721015Y-84550500D01*
X155721017Y-84550500D01*
X155878983Y-84550500D01*
X155878985Y-84550500D01*
X156032365Y-84512696D01*
X156172240Y-84439283D01*
X156286598Y-84337972D01*
X156355600Y-84303511D01*
X156385403Y-84300500D01*
X160812727Y-84300500D01*
X160887227Y-84320462D01*
X160941765Y-84375000D01*
X160961727Y-84449500D01*
X160941765Y-84524000D01*
X160918086Y-84554859D01*
X159050193Y-86422752D01*
X158983398Y-86461316D01*
X158944834Y-86466393D01*
X158843461Y-86466393D01*
X158782805Y-86481343D01*
X158690082Y-86504196D01*
X158550206Y-86577609D01*
X158431962Y-86682363D01*
X158342225Y-86812370D01*
X158286209Y-86960072D01*
X158267168Y-87116893D01*
X158286209Y-87273713D01*
X158342225Y-87421415D01*
X158342226Y-87421416D01*
X158431963Y-87551423D01*
X158485574Y-87598918D01*
X158550211Y-87656180D01*
X158554828Y-87659367D01*
X158604800Y-87718116D01*
X158618703Y-87793981D01*
X158592810Y-87866633D01*
X158575546Y-87887349D01*
X158507038Y-87955858D01*
X158440243Y-87994423D01*
X158401678Y-87999500D01*
X153487611Y-87999500D01*
X153413111Y-87979538D01*
X153382252Y-87955859D01*
X148396953Y-82970560D01*
X148358389Y-82903765D01*
X148354399Y-82847237D01*
X148355278Y-82840000D01*
X148336237Y-82683182D01*
X148280220Y-82535477D01*
X148190483Y-82405470D01*
X148072240Y-82300717D01*
X148072239Y-82300716D01*
X147932363Y-82227303D01*
X147854591Y-82208134D01*
X147778985Y-82189500D01*
X147621015Y-82189500D01*
X147560359Y-82204450D01*
X147467636Y-82227303D01*
X147327760Y-82300716D01*
X147209516Y-82405470D01*
X147119779Y-82535477D01*
X147063763Y-82683179D01*
X147044722Y-82840000D01*
X147063763Y-82996820D01*
X147119779Y-83144522D01*
X147195129Y-83253685D01*
X147209517Y-83274530D01*
X147327760Y-83379283D01*
X147467635Y-83452696D01*
X147621015Y-83490500D01*
X147621017Y-83490500D01*
X147722389Y-83490500D01*
X147796889Y-83510462D01*
X147827748Y-83534141D01*
X153014088Y-88720481D01*
X153044529Y-88738055D01*
X153105413Y-88773207D01*
X153207273Y-88800500D01*
X158673389Y-88800500D01*
X158747889Y-88820462D01*
X158802427Y-88875000D01*
X158822389Y-88949500D01*
X158802427Y-89024000D01*
X158778748Y-89054859D01*
X153677748Y-94155859D01*
X153610953Y-94194423D01*
X153572389Y-94199500D01*
X152861872Y-94199500D01*
X152861856Y-94199499D01*
X152852727Y-94199499D01*
X152747273Y-94199499D01*
X152747272Y-94199499D01*
X152645414Y-94226792D01*
X152645412Y-94226793D01*
X152604351Y-94250500D01*
X152554090Y-94279517D01*
X149377748Y-97455859D01*
X149310953Y-97494423D01*
X149272389Y-97499500D01*
X147785403Y-97499500D01*
X147710903Y-97479538D01*
X147686598Y-97462028D01*
X147572242Y-97360718D01*
X147432363Y-97287303D01*
X147354591Y-97268134D01*
X147278985Y-97249500D01*
X147121015Y-97249500D01*
X147060359Y-97264450D01*
X146967636Y-97287303D01*
X146827760Y-97360716D01*
X146709516Y-97465470D01*
X146619779Y-97595477D01*
X146563763Y-97743179D01*
X146563762Y-97743184D01*
X146562968Y-97749727D01*
X146534170Y-97821277D01*
X146473454Y-97868841D01*
X146397091Y-97879676D01*
X146325541Y-97850878D01*
X146283120Y-97801002D01*
X146280222Y-97795481D01*
X146280220Y-97795479D01*
X146280220Y-97795477D01*
X146190483Y-97665470D01*
X146190479Y-97665464D01*
X146187972Y-97662635D01*
X146186522Y-97659733D01*
X146185363Y-97658053D01*
X146185601Y-97657888D01*
X146153511Y-97593634D01*
X146150500Y-97563830D01*
X146150500Y-85740691D01*
X146150499Y-85740689D01*
X146119799Y-85626115D01*
X146119798Y-85626111D01*
X146060491Y-85523389D01*
X146060490Y-85523388D01*
X146060489Y-85523386D01*
X143594146Y-83057043D01*
X143555582Y-82990248D01*
X143551593Y-82969657D01*
X143536237Y-82843182D01*
X143519860Y-82800000D01*
X144144722Y-82800000D01*
X144163763Y-82956820D01*
X144219779Y-83104522D01*
X144261849Y-83165470D01*
X144309517Y-83234530D01*
X144427760Y-83339283D01*
X144567635Y-83412696D01*
X144721015Y-83450500D01*
X144721017Y-83450500D01*
X144878983Y-83450500D01*
X144878985Y-83450500D01*
X145032365Y-83412696D01*
X145172240Y-83339283D01*
X145290483Y-83234530D01*
X145380220Y-83104523D01*
X145436237Y-82956818D01*
X145455278Y-82800000D01*
X145454399Y-82792759D01*
X145465234Y-82716395D01*
X145496950Y-82669441D01*
X146422252Y-81744141D01*
X146489047Y-81705577D01*
X146527611Y-81700500D01*
X159914597Y-81700500D01*
X159989097Y-81720462D01*
X160013402Y-81737972D01*
X160127757Y-81839281D01*
X160127758Y-81839281D01*
X160127760Y-81839283D01*
X160267635Y-81912696D01*
X160421015Y-81950500D01*
X160421017Y-81950500D01*
X160578983Y-81950500D01*
X160578985Y-81950500D01*
X160732365Y-81912696D01*
X160872240Y-81839283D01*
X160990483Y-81734530D01*
X161080220Y-81604523D01*
X161136237Y-81456818D01*
X161155278Y-81300000D01*
X161136237Y-81143182D01*
X161080220Y-80995477D01*
X160990483Y-80865470D01*
X160872240Y-80760717D01*
X160872239Y-80760716D01*
X160732363Y-80687303D01*
X160654591Y-80668134D01*
X160578985Y-80649500D01*
X160421015Y-80649500D01*
X160360359Y-80664450D01*
X160267636Y-80687303D01*
X160127757Y-80760718D01*
X160013402Y-80862028D01*
X159944400Y-80896489D01*
X159914597Y-80899500D01*
X146247273Y-80899500D01*
X146145413Y-80926793D01*
X146145411Y-80926793D01*
X146145411Y-80926794D01*
X146094768Y-80956033D01*
X146054086Y-80979520D01*
X144927747Y-82105859D01*
X144860952Y-82144423D01*
X144822388Y-82149500D01*
X144721015Y-82149500D01*
X144660359Y-82164450D01*
X144567636Y-82187303D01*
X144427760Y-82260716D01*
X144309516Y-82365470D01*
X144219779Y-82495477D01*
X144163763Y-82643179D01*
X144144722Y-82800000D01*
X143519860Y-82800000D01*
X143480220Y-82695477D01*
X143390483Y-82565470D01*
X143311476Y-82495477D01*
X143272239Y-82460716D01*
X143132363Y-82387303D01*
X143043779Y-82365470D01*
X142978985Y-82349500D01*
X142821015Y-82349500D01*
X142760359Y-82364450D01*
X142667636Y-82387303D01*
X142519779Y-82464906D01*
X142518244Y-82461983D01*
X142461450Y-82482207D01*
X142385589Y-82468284D01*
X142326853Y-82418296D01*
X142300980Y-82345637D01*
X142300500Y-82333687D01*
X142300500Y-80954503D01*
X142300000Y-80946873D01*
X142300000Y-77000000D01*
X138486689Y-77000000D01*
X138412189Y-76980038D01*
X138381330Y-76956359D01*
X137344141Y-75919170D01*
X137305577Y-75852375D01*
X137300500Y-75813811D01*
X137300500Y-73871157D01*
X137829500Y-73871157D01*
X137829500Y-75128842D01*
X137860262Y-75283494D01*
X137860263Y-75283498D01*
X137920604Y-75429176D01*
X137920605Y-75429178D01*
X137920606Y-75429179D01*
X138008211Y-75560289D01*
X138119711Y-75671789D01*
X138250821Y-75759394D01*
X138396503Y-75819737D01*
X138551158Y-75850500D01*
X138708842Y-75850500D01*
X138863497Y-75819737D01*
X139009179Y-75759394D01*
X139140289Y-75671789D01*
X139251789Y-75560289D01*
X139339394Y-75429179D01*
X139399737Y-75283497D01*
X139430500Y-75128842D01*
X139430500Y-74524097D01*
X139450462Y-74449597D01*
X139505000Y-74395059D01*
X139579500Y-74375097D01*
X139654000Y-74395059D01*
X139684854Y-74418734D01*
X139706635Y-74440515D01*
X139706637Y-74440516D01*
X139706638Y-74440517D01*
X139722365Y-74449597D01*
X139837865Y-74516281D01*
X139984234Y-74555500D01*
X140135766Y-74555500D01*
X140282135Y-74516281D01*
X140413365Y-74440515D01*
X140520515Y-74333365D01*
X140596281Y-74202135D01*
X140635500Y-74055766D01*
X140635500Y-73904234D01*
X140635499Y-73904230D01*
X145264500Y-73904230D01*
X145264500Y-74055769D01*
X145303720Y-74202137D01*
X145379482Y-74333361D01*
X145379483Y-74333362D01*
X145379485Y-74333365D01*
X145486635Y-74440515D01*
X145486637Y-74440516D01*
X145486638Y-74440517D01*
X145502365Y-74449597D01*
X145617865Y-74516281D01*
X145764234Y-74555500D01*
X145915766Y-74555500D01*
X146062135Y-74516281D01*
X146193365Y-74440515D01*
X146215143Y-74418736D01*
X146281936Y-74380174D01*
X146359064Y-74380174D01*
X146425859Y-74418738D01*
X146464423Y-74485533D01*
X146469500Y-74524097D01*
X146469500Y-75128842D01*
X146500262Y-75283494D01*
X146500263Y-75283498D01*
X146560604Y-75429176D01*
X146560605Y-75429178D01*
X146560606Y-75429179D01*
X146648211Y-75560289D01*
X146759711Y-75671789D01*
X146890821Y-75759394D01*
X147036503Y-75819737D01*
X147191158Y-75850500D01*
X147348842Y-75850500D01*
X147503497Y-75819737D01*
X147649179Y-75759394D01*
X147780289Y-75671789D01*
X147891789Y-75560289D01*
X147979394Y-75429179D01*
X148039737Y-75283497D01*
X148070500Y-75128842D01*
X148070500Y-73871158D01*
X148039737Y-73716503D01*
X148004594Y-73631659D01*
X147979395Y-73570823D01*
X147973390Y-73561836D01*
X147891789Y-73439711D01*
X147780289Y-73328211D01*
X147649179Y-73240606D01*
X147649178Y-73240605D01*
X147649176Y-73240604D01*
X147503498Y-73180263D01*
X147503494Y-73180262D01*
X147348842Y-73149500D01*
X147191158Y-73149500D01*
X147036505Y-73180262D01*
X147036501Y-73180263D01*
X146890823Y-73240604D01*
X146823058Y-73285884D01*
X146766602Y-73323607D01*
X146759707Y-73328214D01*
X146648214Y-73439707D01*
X146648211Y-73439710D01*
X146648211Y-73439711D01*
X146639862Y-73452206D01*
X146560605Y-73570822D01*
X146553170Y-73588771D01*
X146506215Y-73649959D01*
X146434957Y-73679472D01*
X146358489Y-73669402D01*
X146309301Y-73631659D01*
X146307420Y-73633541D01*
X146300516Y-73626637D01*
X146300515Y-73626635D01*
X146193365Y-73519485D01*
X146193362Y-73519483D01*
X146193361Y-73519482D01*
X146062137Y-73443720D01*
X146062136Y-73443719D01*
X146062135Y-73443719D01*
X146008561Y-73429364D01*
X145915769Y-73404500D01*
X145915766Y-73404500D01*
X145764234Y-73404500D01*
X145764230Y-73404500D01*
X145640506Y-73437652D01*
X145617865Y-73443719D01*
X145617864Y-73443719D01*
X145617862Y-73443720D01*
X145486638Y-73519482D01*
X145379482Y-73626638D01*
X145303720Y-73757862D01*
X145264500Y-73904230D01*
X140635499Y-73904230D01*
X140596281Y-73757865D01*
X140520515Y-73626635D01*
X140413365Y-73519485D01*
X140413362Y-73519483D01*
X140413361Y-73519482D01*
X140282137Y-73443720D01*
X140282136Y-73443719D01*
X140282135Y-73443719D01*
X140228561Y-73429364D01*
X140135769Y-73404500D01*
X140135766Y-73404500D01*
X139984234Y-73404500D01*
X139984230Y-73404500D01*
X139860506Y-73437652D01*
X139837865Y-73443719D01*
X139837864Y-73443719D01*
X139837862Y-73443720D01*
X139706638Y-73519482D01*
X139706637Y-73519483D01*
X139706635Y-73519484D01*
X139706635Y-73519485D01*
X139599485Y-73626635D01*
X139599483Y-73626637D01*
X139592580Y-73633541D01*
X139590700Y-73631661D01*
X139541475Y-73669417D01*
X139465004Y-73679467D01*
X139393754Y-73649936D01*
X139346827Y-73588766D01*
X139339394Y-73570821D01*
X139305092Y-73519485D01*
X139251789Y-73439711D01*
X139140289Y-73328211D01*
X139009179Y-73240606D01*
X139009178Y-73240605D01*
X139009176Y-73240604D01*
X138863498Y-73180263D01*
X138863494Y-73180262D01*
X138708842Y-73149500D01*
X138551158Y-73149500D01*
X138396505Y-73180262D01*
X138396501Y-73180263D01*
X138250823Y-73240604D01*
X138183058Y-73285884D01*
X138126602Y-73323607D01*
X138119707Y-73328214D01*
X138008214Y-73439707D01*
X138008211Y-73439710D01*
X138008211Y-73439711D01*
X137999862Y-73452206D01*
X137920604Y-73570823D01*
X137860263Y-73716501D01*
X137860262Y-73716505D01*
X137829500Y-73871157D01*
X137300500Y-73871157D01*
X137300500Y-69821157D01*
X137829500Y-69821157D01*
X137829500Y-70778842D01*
X137860262Y-70933494D01*
X137860263Y-70933498D01*
X137920604Y-71079176D01*
X137920605Y-71079178D01*
X137920606Y-71079179D01*
X138008211Y-71210289D01*
X138119711Y-71321789D01*
X138250821Y-71409394D01*
X138396503Y-71469737D01*
X138551158Y-71500500D01*
X138708842Y-71500500D01*
X138863497Y-71469737D01*
X139009179Y-71409394D01*
X139140289Y-71321789D01*
X139251789Y-71210289D01*
X139339394Y-71079179D01*
X139399737Y-70933497D01*
X139430500Y-70778842D01*
X139430500Y-69821158D01*
X139430500Y-69821157D01*
X146469500Y-69821157D01*
X146469500Y-70778842D01*
X146500262Y-70933494D01*
X146500263Y-70933498D01*
X146560604Y-71079176D01*
X146560605Y-71079178D01*
X146560606Y-71079179D01*
X146648211Y-71210289D01*
X146759711Y-71321789D01*
X146890821Y-71409394D01*
X147036503Y-71469737D01*
X147191158Y-71500500D01*
X147348842Y-71500500D01*
X147503497Y-71469737D01*
X147649179Y-71409394D01*
X147780289Y-71321789D01*
X147891789Y-71210289D01*
X147979394Y-71079179D01*
X148039737Y-70933497D01*
X148070500Y-70778842D01*
X148070500Y-70255135D01*
X150099500Y-70255135D01*
X150099500Y-70255136D01*
X150099500Y-70255140D01*
X150099500Y-73144866D01*
X150102414Y-73169989D01*
X150102415Y-73169992D01*
X150147793Y-73272764D01*
X150147794Y-73272765D01*
X150227235Y-73352206D01*
X150330009Y-73397585D01*
X150355135Y-73400500D01*
X153244864Y-73400499D01*
X153244866Y-73400499D01*
X153257427Y-73399042D01*
X153269991Y-73397585D01*
X153372765Y-73352206D01*
X153452206Y-73272765D01*
X153497585Y-73169991D01*
X153500500Y-73144865D01*
X153500499Y-71699994D01*
X155094732Y-71699994D01*
X155094732Y-71700005D01*
X155113776Y-71954144D01*
X155113779Y-71954164D01*
X155170490Y-72202632D01*
X155170491Y-72202636D01*
X155263605Y-72439884D01*
X155263608Y-72439891D01*
X155321343Y-72539891D01*
X155391041Y-72660612D01*
X155391045Y-72660617D01*
X155549946Y-72859873D01*
X155549949Y-72859875D01*
X155549950Y-72859877D01*
X155736783Y-73033232D01*
X155947366Y-73176805D01*
X155947369Y-73176806D01*
X155947370Y-73176807D01*
X155983520Y-73194216D01*
X156176996Y-73287389D01*
X156418957Y-73362024D01*
X156420536Y-73362511D01*
X156420538Y-73362512D01*
X156420539Y-73362512D01*
X156420542Y-73362513D01*
X156672565Y-73400500D01*
X156672567Y-73400500D01*
X156927433Y-73400500D01*
X156927435Y-73400500D01*
X157179458Y-73362513D01*
X157423004Y-73287389D01*
X157652634Y-73176805D01*
X157863217Y-73033232D01*
X158050050Y-72859877D01*
X158208959Y-72660612D01*
X158336393Y-72439888D01*
X158429508Y-72202637D01*
X158486222Y-71954157D01*
X158497774Y-71800000D01*
X158505268Y-71700005D01*
X158505268Y-71699995D01*
X160095233Y-71699995D01*
X160095233Y-71700004D01*
X160114272Y-71954070D01*
X160114275Y-71954092D01*
X160170968Y-72202481D01*
X160170970Y-72202488D01*
X160264056Y-72439666D01*
X160264058Y-72439671D01*
X160391454Y-72660326D01*
X160391459Y-72660334D01*
X160496196Y-72791670D01*
X161246407Y-72041458D01*
X161295112Y-72114351D01*
X161385649Y-72204888D01*
X161458539Y-72253591D01*
X160707111Y-73005019D01*
X160737095Y-73032841D01*
X160947618Y-73176372D01*
X161177169Y-73286918D01*
X161177190Y-73286926D01*
X161420648Y-73362023D01*
X161420652Y-73362024D01*
X161672599Y-73399999D01*
X161672606Y-73400000D01*
X161927394Y-73400000D01*
X161927400Y-73399999D01*
X162179347Y-73362024D01*
X162179351Y-73362023D01*
X162422812Y-73286925D01*
X162422817Y-73286924D01*
X162652380Y-73176374D01*
X162862901Y-73032843D01*
X162862908Y-73032838D01*
X162892887Y-73005020D01*
X162892888Y-73005020D01*
X162141459Y-72253591D01*
X162214351Y-72204888D01*
X162304888Y-72114351D01*
X162353591Y-72041459D01*
X163103802Y-72791670D01*
X163103803Y-72791670D01*
X163208540Y-72660334D01*
X163208545Y-72660326D01*
X163335941Y-72439671D01*
X163335943Y-72439666D01*
X163429029Y-72202488D01*
X163429031Y-72202481D01*
X163485724Y-71954092D01*
X163485727Y-71954070D01*
X163504767Y-71700004D01*
X163504767Y-71699995D01*
X163485727Y-71445929D01*
X163485724Y-71445907D01*
X163429031Y-71197518D01*
X163429029Y-71197511D01*
X163335943Y-70960333D01*
X163335941Y-70960328D01*
X163208545Y-70739673D01*
X163208540Y-70739665D01*
X163103802Y-70608328D01*
X162353591Y-71358539D01*
X162304888Y-71285649D01*
X162214351Y-71195112D01*
X162141458Y-71146407D01*
X162892887Y-70394979D01*
X162862907Y-70367161D01*
X162652377Y-70223624D01*
X162422817Y-70113075D01*
X162422812Y-70113074D01*
X162179351Y-70037976D01*
X162179347Y-70037975D01*
X161927400Y-70000000D01*
X161672599Y-70000000D01*
X161420652Y-70037975D01*
X161420648Y-70037976D01*
X161177190Y-70113073D01*
X161177169Y-70113081D01*
X160947621Y-70223625D01*
X160737089Y-70367164D01*
X160707110Y-70394978D01*
X161458540Y-71146408D01*
X161385649Y-71195112D01*
X161295112Y-71285649D01*
X161246408Y-71358540D01*
X160496196Y-70608328D01*
X160496195Y-70608328D01*
X160391454Y-70739673D01*
X160264058Y-70960328D01*
X160264056Y-70960333D01*
X160170970Y-71197511D01*
X160170968Y-71197518D01*
X160114275Y-71445907D01*
X160114272Y-71445929D01*
X160095233Y-71699995D01*
X158505268Y-71699995D01*
X158505268Y-71699994D01*
X158486223Y-71445855D01*
X158486222Y-71445853D01*
X158486222Y-71445843D01*
X158429508Y-71197363D01*
X158375642Y-71060115D01*
X158336394Y-70960114D01*
X158336391Y-70960108D01*
X158309462Y-70913466D01*
X158208959Y-70739388D01*
X158104442Y-70608328D01*
X158050053Y-70540126D01*
X157971418Y-70467164D01*
X157863217Y-70366768D01*
X157652634Y-70223195D01*
X157652631Y-70223194D01*
X157652629Y-70223192D01*
X157423013Y-70112615D01*
X157423009Y-70112613D01*
X157423004Y-70112611D01*
X157422996Y-70112608D01*
X157422992Y-70112607D01*
X157179463Y-70037488D01*
X157179461Y-70037487D01*
X156927437Y-69999500D01*
X156927435Y-69999500D01*
X156672565Y-69999500D01*
X156672562Y-69999500D01*
X156420538Y-70037487D01*
X156420536Y-70037488D01*
X156177007Y-70112607D01*
X156176986Y-70112615D01*
X155947370Y-70223192D01*
X155736780Y-70366770D01*
X155549946Y-70540126D01*
X155391045Y-70739382D01*
X155391042Y-70739386D01*
X155391041Y-70739388D01*
X155388788Y-70743291D01*
X155263608Y-70960108D01*
X155263606Y-70960114D01*
X155170491Y-71197363D01*
X155170490Y-71197367D01*
X155113779Y-71445835D01*
X155113776Y-71445855D01*
X155094732Y-71699994D01*
X153500499Y-71699994D01*
X153500499Y-70255136D01*
X153499845Y-70249500D01*
X153497585Y-70230010D01*
X153497584Y-70230008D01*
X153452206Y-70127235D01*
X153372765Y-70047794D01*
X153372764Y-70047793D01*
X153269994Y-70002416D01*
X153269991Y-70002415D01*
X153269982Y-70002414D01*
X153244865Y-69999500D01*
X153244859Y-69999500D01*
X150355133Y-69999500D01*
X150330010Y-70002414D01*
X150330007Y-70002415D01*
X150227235Y-70047793D01*
X150147793Y-70127235D01*
X150102416Y-70230005D01*
X150102415Y-70230008D01*
X150102415Y-70230009D01*
X150099500Y-70255135D01*
X148070500Y-70255135D01*
X148070500Y-69821158D01*
X148039737Y-69666503D01*
X147979394Y-69520821D01*
X147891789Y-69389711D01*
X147780289Y-69278211D01*
X147649179Y-69190606D01*
X147649178Y-69190605D01*
X147649176Y-69190604D01*
X147503498Y-69130263D01*
X147503494Y-69130262D01*
X147348842Y-69099500D01*
X147191158Y-69099500D01*
X147036505Y-69130262D01*
X147036501Y-69130263D01*
X146890823Y-69190604D01*
X146759707Y-69278214D01*
X146648214Y-69389707D01*
X146560604Y-69520823D01*
X146500263Y-69666501D01*
X146500262Y-69666505D01*
X146469500Y-69821157D01*
X139430500Y-69821157D01*
X139399737Y-69666503D01*
X139339394Y-69520821D01*
X139251789Y-69389711D01*
X139140289Y-69278211D01*
X139009179Y-69190606D01*
X139009178Y-69190605D01*
X139009176Y-69190604D01*
X138863498Y-69130263D01*
X138863494Y-69130262D01*
X138708842Y-69099500D01*
X138551158Y-69099500D01*
X138396505Y-69130262D01*
X138396501Y-69130263D01*
X138250823Y-69190604D01*
X138119707Y-69278214D01*
X138008214Y-69389707D01*
X137920604Y-69520823D01*
X137860263Y-69666501D01*
X137860262Y-69666505D01*
X137829500Y-69821157D01*
X137300500Y-69821157D01*
X137300500Y-67449500D01*
X137320462Y-67375000D01*
X137375000Y-67320462D01*
X137449500Y-67300500D01*
X231550500Y-67300500D01*
X231625000Y-67320462D01*
G37*
%TD.AperFunction*%
%TD*%
%TA.AperFunction,Conductor*%
%TO.N,Earth*%
G36*
X231624733Y-111170842D02*
G01*
X231679383Y-111225267D01*
X231699500Y-111299726D01*
X231699500Y-150550500D01*
X231679538Y-150625000D01*
X231625000Y-150679538D01*
X231550500Y-150699500D01*
X207999441Y-150699500D01*
X207924941Y-150679538D01*
X207870403Y-150625000D01*
X207850441Y-150550500D01*
X207850441Y-150550312D01*
X207855416Y-146600000D01*
X224745255Y-146600000D01*
X224764219Y-146925604D01*
X224764221Y-146925621D01*
X224820854Y-147246811D01*
X224820856Y-147246817D01*
X224914399Y-147559270D01*
X224914401Y-147559278D01*
X225043586Y-147858763D01*
X225043588Y-147858767D01*
X225206669Y-148141231D01*
X225398090Y-148398355D01*
X226255747Y-147540697D01*
X226329588Y-147642330D01*
X226507670Y-147820412D01*
X226609300Y-147894251D01*
X225754780Y-148748771D01*
X225875119Y-148849748D01*
X225875123Y-148849750D01*
X226147625Y-149028979D01*
X226439091Y-149175359D01*
X226439093Y-149175360D01*
X226745587Y-149286915D01*
X227062962Y-149362134D01*
X227386922Y-149400000D01*
X227713078Y-149400000D01*
X228037037Y-149362134D01*
X228354411Y-149286915D01*
X228354412Y-149286915D01*
X228660906Y-149175360D01*
X228660908Y-149175359D01*
X228952374Y-149028979D01*
X229224880Y-148849748D01*
X229224887Y-148849743D01*
X229345219Y-148748772D01*
X228490698Y-147894251D01*
X228592330Y-147820412D01*
X228770412Y-147642330D01*
X228844251Y-147540698D01*
X229701907Y-148398354D01*
X229893330Y-148141231D01*
X230056411Y-147858767D01*
X230056413Y-147858763D01*
X230185598Y-147559278D01*
X230185600Y-147559270D01*
X230279143Y-147246817D01*
X230279145Y-147246811D01*
X230335778Y-146925621D01*
X230335780Y-146925604D01*
X230354744Y-146600000D01*
X230335780Y-146274395D01*
X230335778Y-146274378D01*
X230279145Y-145953188D01*
X230279143Y-145953182D01*
X230185600Y-145640729D01*
X230185598Y-145640721D01*
X230056413Y-145341236D01*
X230056411Y-145341232D01*
X229893330Y-145058768D01*
X229701908Y-144801643D01*
X228844250Y-145659300D01*
X228770412Y-145557670D01*
X228592330Y-145379588D01*
X228490697Y-145305747D01*
X229345218Y-144451227D01*
X229224880Y-144350251D01*
X229224876Y-144350249D01*
X228952374Y-144171020D01*
X228660908Y-144024640D01*
X228660906Y-144024639D01*
X228354412Y-143913084D01*
X228037037Y-143837865D01*
X227713078Y-143800000D01*
X227386922Y-143800000D01*
X227062962Y-143837865D01*
X226745588Y-143913084D01*
X226745587Y-143913084D01*
X226439093Y-144024639D01*
X226439091Y-144024640D01*
X226147625Y-144171020D01*
X225875115Y-144350253D01*
X225754780Y-144451227D01*
X226609301Y-145305748D01*
X226507670Y-145379588D01*
X226329588Y-145557670D01*
X226255748Y-145659301D01*
X225398091Y-144801644D01*
X225206669Y-145058768D01*
X225043588Y-145341232D01*
X225043586Y-145341236D01*
X224914401Y-145640721D01*
X224914399Y-145640729D01*
X224820856Y-145953182D01*
X224820854Y-145953188D01*
X224764221Y-146274378D01*
X224764219Y-146274395D01*
X224745255Y-146600000D01*
X207855416Y-146600000D01*
X207869981Y-135034995D01*
X214265906Y-135034995D01*
X214265906Y-135035004D01*
X214286236Y-135254409D01*
X214286237Y-135254412D01*
X214346540Y-135466357D01*
X214444759Y-135663607D01*
X214458992Y-135682453D01*
X215022352Y-135119092D01*
X215045792Y-135206571D01*
X215104311Y-135307930D01*
X215187070Y-135390689D01*
X215288429Y-135449208D01*
X215375905Y-135472647D01*
X214814662Y-136033890D01*
X214927740Y-136103905D01*
X214927751Y-136103911D01*
X215133214Y-136183508D01*
X215133221Y-136183509D01*
X215349818Y-136223999D01*
X215349826Y-136224000D01*
X215570174Y-136224000D01*
X215570181Y-136223999D01*
X215786778Y-136183509D01*
X215786785Y-136183507D01*
X215992249Y-136103911D01*
X215992254Y-136103908D01*
X216105336Y-136033890D01*
X215544094Y-135472647D01*
X215631571Y-135449208D01*
X215732930Y-135390689D01*
X215815689Y-135307930D01*
X215874208Y-135206571D01*
X215897647Y-135119094D01*
X216461006Y-135682453D01*
X216461007Y-135682453D01*
X216475237Y-135663610D01*
X216475241Y-135663603D01*
X216573458Y-135466360D01*
X216586426Y-135420779D01*
X216626013Y-135354585D01*
X216693393Y-135317053D01*
X216770512Y-135318239D01*
X216836706Y-135357826D01*
X216873051Y-135420775D01*
X216886071Y-135466536D01*
X216886075Y-135466547D01*
X216984331Y-135663871D01*
X216998364Y-135682453D01*
X217117183Y-135839794D01*
X217280094Y-135988307D01*
X217280099Y-135988311D01*
X217467518Y-136104355D01*
X217467529Y-136104361D01*
X217655551Y-136177201D01*
X217673083Y-136183993D01*
X217889777Y-136224500D01*
X217889780Y-136224500D01*
X218110220Y-136224500D01*
X218110223Y-136224500D01*
X218326917Y-136183993D01*
X218452269Y-136135430D01*
X218532470Y-136104361D01*
X218532471Y-136104360D01*
X218532477Y-136104358D01*
X218719905Y-135988308D01*
X218882817Y-135839794D01*
X219015666Y-135663874D01*
X219015666Y-135663872D01*
X219015668Y-135663871D01*
X219113924Y-135466547D01*
X219113924Y-135466544D01*
X219113928Y-135466538D01*
X219126688Y-135421690D01*
X219166275Y-135355498D01*
X219233656Y-135317966D01*
X219310775Y-135319154D01*
X219376968Y-135358741D01*
X219413312Y-135421691D01*
X219426070Y-135466532D01*
X219426075Y-135466547D01*
X219524331Y-135663871D01*
X219538364Y-135682453D01*
X219657183Y-135839794D01*
X219820094Y-135988307D01*
X219820099Y-135988311D01*
X220007518Y-136104355D01*
X220007529Y-136104361D01*
X220195551Y-136177201D01*
X220213083Y-136183993D01*
X220429777Y-136224500D01*
X220429780Y-136224500D01*
X220650220Y-136224500D01*
X220650223Y-136224500D01*
X220866917Y-136183993D01*
X220992269Y-136135430D01*
X221072470Y-136104361D01*
X221072471Y-136104360D01*
X221072477Y-136104358D01*
X221259905Y-135988308D01*
X221422817Y-135839794D01*
X221555666Y-135663874D01*
X221555666Y-135663872D01*
X221555668Y-135663871D01*
X221653924Y-135466547D01*
X221653924Y-135466544D01*
X221653928Y-135466538D01*
X221666688Y-135421690D01*
X221706275Y-135355498D01*
X221773656Y-135317966D01*
X221850775Y-135319154D01*
X221916968Y-135358741D01*
X221953312Y-135421691D01*
X221966070Y-135466532D01*
X221966075Y-135466547D01*
X222064331Y-135663871D01*
X222078364Y-135682453D01*
X222197183Y-135839794D01*
X222360094Y-135988307D01*
X222360099Y-135988311D01*
X222547518Y-136104355D01*
X222547529Y-136104361D01*
X222735551Y-136177201D01*
X222753083Y-136183993D01*
X222969777Y-136224500D01*
X222969780Y-136224500D01*
X223190220Y-136224500D01*
X223190223Y-136224500D01*
X223406917Y-136183993D01*
X223532269Y-136135430D01*
X223612470Y-136104361D01*
X223612471Y-136104360D01*
X223612477Y-136104358D01*
X223799905Y-135988308D01*
X223962817Y-135839794D01*
X224095666Y-135663874D01*
X224095666Y-135663872D01*
X224095668Y-135663871D01*
X224193924Y-135466547D01*
X224193924Y-135466544D01*
X224193928Y-135466538D01*
X224254256Y-135254506D01*
X224265556Y-135132558D01*
X224274596Y-135035004D01*
X224274596Y-135034995D01*
X224254265Y-134815590D01*
X224254256Y-134815494D01*
X224193928Y-134603462D01*
X224193925Y-134603457D01*
X224193924Y-134603452D01*
X224095668Y-134406128D01*
X223962819Y-134230209D01*
X223962817Y-134230206D01*
X223799905Y-134081692D01*
X223799900Y-134081688D01*
X223606620Y-133962015D01*
X223607621Y-133960396D01*
X223557159Y-133915786D01*
X223532657Y-133842653D01*
X223548005Y-133767067D01*
X223599089Y-133709282D01*
X223672222Y-133684780D01*
X223681348Y-133684499D01*
X225283864Y-133684499D01*
X225283867Y-133684499D01*
X225298940Y-133682750D01*
X225308991Y-133681585D01*
X225411765Y-133636206D01*
X225491206Y-133556765D01*
X225536585Y-133453991D01*
X225539500Y-133428865D01*
X225539499Y-131561136D01*
X225536585Y-131536009D01*
X225491206Y-131433235D01*
X225411765Y-131353794D01*
X225411764Y-131353793D01*
X225308994Y-131308416D01*
X225308991Y-131308415D01*
X225308982Y-131308414D01*
X225283865Y-131305500D01*
X225283859Y-131305500D01*
X223416133Y-131305500D01*
X223391010Y-131308414D01*
X223391007Y-131308415D01*
X223288235Y-131353793D01*
X223208793Y-131433235D01*
X223163416Y-131536005D01*
X223163415Y-131536008D01*
X223163415Y-131536009D01*
X223160500Y-131561135D01*
X223160500Y-131561136D01*
X223160500Y-131561140D01*
X223160500Y-131905053D01*
X223140538Y-131979553D01*
X223086000Y-132034091D01*
X223011500Y-132054053D01*
X222937000Y-132034091D01*
X222882462Y-131979553D01*
X222878121Y-131971468D01*
X222825668Y-131866128D01*
X222692819Y-131690209D01*
X222692817Y-131690206D01*
X222529905Y-131541692D01*
X222529900Y-131541688D01*
X222342481Y-131425644D01*
X222342470Y-131425638D01*
X222136921Y-131346008D01*
X222136918Y-131346007D01*
X222136917Y-131346007D01*
X222082255Y-131335788D01*
X221920227Y-131305500D01*
X221920223Y-131305500D01*
X221699777Y-131305500D01*
X221699772Y-131305500D01*
X221483078Y-131346008D01*
X221277529Y-131425638D01*
X221277518Y-131425644D01*
X221090099Y-131541688D01*
X221090094Y-131541692D01*
X220927180Y-131690209D01*
X220794331Y-131866128D01*
X220696075Y-132063452D01*
X220696071Y-132063464D01*
X220683312Y-132108309D01*
X220643724Y-132174502D01*
X220576343Y-132212033D01*
X220499224Y-132210845D01*
X220433031Y-132171257D01*
X220396688Y-132108309D01*
X220383929Y-132063467D01*
X220383928Y-132063462D01*
X220383925Y-132063457D01*
X220383924Y-132063452D01*
X220285668Y-131866128D01*
X220152819Y-131690209D01*
X220152817Y-131690206D01*
X219989905Y-131541692D01*
X219989900Y-131541688D01*
X219802481Y-131425644D01*
X219802470Y-131425638D01*
X219596921Y-131346008D01*
X219596918Y-131346007D01*
X219596917Y-131346007D01*
X219542255Y-131335788D01*
X219380227Y-131305500D01*
X219380223Y-131305500D01*
X219159777Y-131305500D01*
X219159772Y-131305500D01*
X218943078Y-131346008D01*
X218737529Y-131425638D01*
X218737518Y-131425644D01*
X218550099Y-131541688D01*
X218550094Y-131541692D01*
X218387180Y-131690209D01*
X218254331Y-131866128D01*
X218156075Y-132063452D01*
X218156071Y-132063464D01*
X218143312Y-132108309D01*
X218103724Y-132174502D01*
X218036343Y-132212033D01*
X217959224Y-132210845D01*
X217893031Y-132171257D01*
X217856688Y-132108309D01*
X217843929Y-132063467D01*
X217843928Y-132063462D01*
X217843925Y-132063457D01*
X217843924Y-132063452D01*
X217745668Y-131866128D01*
X217612819Y-131690209D01*
X217612817Y-131690206D01*
X217449905Y-131541692D01*
X217449900Y-131541688D01*
X217262481Y-131425644D01*
X217262470Y-131425638D01*
X217056921Y-131346008D01*
X217056918Y-131346007D01*
X217056917Y-131346007D01*
X217002255Y-131335788D01*
X216840227Y-131305500D01*
X216840223Y-131305500D01*
X216619777Y-131305500D01*
X216619772Y-131305500D01*
X216403078Y-131346008D01*
X216197529Y-131425638D01*
X216197518Y-131425644D01*
X216010099Y-131541688D01*
X216010094Y-131541692D01*
X215847180Y-131690209D01*
X215714331Y-131866128D01*
X215616075Y-132063452D01*
X215616070Y-132063467D01*
X215555743Y-132275495D01*
X215555743Y-132275498D01*
X215535404Y-132494995D01*
X215535404Y-132495004D01*
X215555743Y-132714501D01*
X215555743Y-132714504D01*
X215616070Y-132926532D01*
X215616075Y-132926547D01*
X215714331Y-133123871D01*
X215843544Y-133294975D01*
X215847183Y-133299794D01*
X215988766Y-133428864D01*
X216010094Y-133448307D01*
X216010099Y-133448311D01*
X216197518Y-133564355D01*
X216197529Y-133564361D01*
X216382983Y-133636206D01*
X216403083Y-133643993D01*
X216619777Y-133684500D01*
X216619780Y-133684500D01*
X216840220Y-133684500D01*
X216840223Y-133684500D01*
X217056917Y-133643993D01*
X217193343Y-133591141D01*
X217262470Y-133564361D01*
X217262471Y-133564360D01*
X217262477Y-133564358D01*
X217449905Y-133448308D01*
X217612817Y-133299794D01*
X217745666Y-133123874D01*
X217745666Y-133123872D01*
X217745668Y-133123871D01*
X217843924Y-132926547D01*
X217843924Y-132926544D01*
X217843928Y-132926538D01*
X217856688Y-132881690D01*
X217896275Y-132815498D01*
X217963656Y-132777966D01*
X218040775Y-132779154D01*
X218106968Y-132818741D01*
X218143312Y-132881691D01*
X218156070Y-132926532D01*
X218156075Y-132926547D01*
X218254331Y-133123871D01*
X218383544Y-133294975D01*
X218387183Y-133299794D01*
X218528766Y-133428864D01*
X218550094Y-133448307D01*
X218550099Y-133448311D01*
X218737518Y-133564355D01*
X218737529Y-133564361D01*
X218922983Y-133636206D01*
X218943083Y-133643993D01*
X219159777Y-133684500D01*
X219159780Y-133684500D01*
X219380220Y-133684500D01*
X219380223Y-133684500D01*
X219596917Y-133643993D01*
X219733343Y-133591141D01*
X219802470Y-133564361D01*
X219802471Y-133564360D01*
X219802477Y-133564358D01*
X219989905Y-133448308D01*
X220152817Y-133299794D01*
X220285666Y-133123874D01*
X220285666Y-133123872D01*
X220285668Y-133123871D01*
X220383924Y-132926547D01*
X220383924Y-132926544D01*
X220383928Y-132926538D01*
X220396688Y-132881690D01*
X220436275Y-132815498D01*
X220503656Y-132777966D01*
X220580775Y-132779154D01*
X220646968Y-132818741D01*
X220683312Y-132881691D01*
X220696070Y-132926532D01*
X220696075Y-132926547D01*
X220794331Y-133123871D01*
X220923544Y-133294975D01*
X220927183Y-133299794D01*
X221068766Y-133428864D01*
X221090094Y-133448307D01*
X221090099Y-133448311D01*
X221277518Y-133564355D01*
X221277529Y-133564361D01*
X221462983Y-133636206D01*
X221483083Y-133643993D01*
X221699777Y-133684500D01*
X221699780Y-133684500D01*
X221920220Y-133684500D01*
X221920223Y-133684500D01*
X222136917Y-133643993D01*
X222273343Y-133591141D01*
X222342470Y-133564361D01*
X222342471Y-133564360D01*
X222342477Y-133564358D01*
X222529905Y-133448308D01*
X222692817Y-133299794D01*
X222825666Y-133123874D01*
X222878121Y-133018529D01*
X222929197Y-132960739D01*
X223002326Y-132936228D01*
X223077914Y-132951565D01*
X223135706Y-133002642D01*
X223160217Y-133075771D01*
X223160500Y-133084945D01*
X223160500Y-133428866D01*
X223163414Y-133453989D01*
X223163415Y-133453992D01*
X223208793Y-133556764D01*
X223243170Y-133591141D01*
X223281734Y-133657936D01*
X223281734Y-133735064D01*
X223243170Y-133801859D01*
X223176375Y-133840423D01*
X223137811Y-133845500D01*
X222969772Y-133845500D01*
X222753078Y-133886008D01*
X222547529Y-133965638D01*
X222547518Y-133965644D01*
X222360099Y-134081688D01*
X222360094Y-134081692D01*
X222197180Y-134230209D01*
X222064331Y-134406128D01*
X221966075Y-134603452D01*
X221966071Y-134603464D01*
X221953312Y-134648309D01*
X221913724Y-134714502D01*
X221846343Y-134752033D01*
X221769224Y-134750845D01*
X221703031Y-134711257D01*
X221666688Y-134648309D01*
X221653928Y-134603462D01*
X221653925Y-134603457D01*
X221653924Y-134603452D01*
X221555668Y-134406128D01*
X221422819Y-134230209D01*
X221422817Y-134230206D01*
X221259905Y-134081692D01*
X221259900Y-134081688D01*
X221072481Y-133965644D01*
X221072470Y-133965638D01*
X220866921Y-133886008D01*
X220866918Y-133886007D01*
X220866917Y-133886007D01*
X220812255Y-133875788D01*
X220650227Y-133845500D01*
X220650223Y-133845500D01*
X220429777Y-133845500D01*
X220429772Y-133845500D01*
X220213078Y-133886008D01*
X220007529Y-133965638D01*
X220007518Y-133965644D01*
X219820099Y-134081688D01*
X219820094Y-134081692D01*
X219657180Y-134230209D01*
X219524331Y-134406128D01*
X219426075Y-134603452D01*
X219426071Y-134603464D01*
X219413312Y-134648309D01*
X219373724Y-134714502D01*
X219306343Y-134752033D01*
X219229224Y-134750845D01*
X219163031Y-134711257D01*
X219126688Y-134648309D01*
X219113928Y-134603462D01*
X219113925Y-134603457D01*
X219113924Y-134603452D01*
X219015668Y-134406128D01*
X218882819Y-134230209D01*
X218882817Y-134230206D01*
X218719905Y-134081692D01*
X218719900Y-134081688D01*
X218532481Y-133965644D01*
X218532470Y-133965638D01*
X218326921Y-133886008D01*
X218326918Y-133886007D01*
X218326917Y-133886007D01*
X218272255Y-133875788D01*
X218110227Y-133845500D01*
X218110223Y-133845500D01*
X217889777Y-133845500D01*
X217889772Y-133845500D01*
X217673078Y-133886008D01*
X217467529Y-133965638D01*
X217467518Y-133965644D01*
X217280099Y-134081688D01*
X217280094Y-134081692D01*
X217117180Y-134230209D01*
X216984331Y-134406128D01*
X216886075Y-134603452D01*
X216886069Y-134603470D01*
X216873050Y-134649225D01*
X216833461Y-134715418D01*
X216766080Y-134752947D01*
X216688961Y-134751758D01*
X216622768Y-134712169D01*
X216586426Y-134649221D01*
X216573457Y-134603638D01*
X216475241Y-134406394D01*
X216461006Y-134387545D01*
X215897647Y-134950904D01*
X215874208Y-134863429D01*
X215815689Y-134762070D01*
X215732930Y-134679311D01*
X215631571Y-134620792D01*
X215544092Y-134597352D01*
X216105336Y-134036109D01*
X215992251Y-133966090D01*
X215992248Y-133966088D01*
X215786785Y-133886491D01*
X215786778Y-133886490D01*
X215570181Y-133846000D01*
X215349818Y-133846000D01*
X215133221Y-133886490D01*
X215133214Y-133886491D01*
X214927751Y-133966088D01*
X214927743Y-133966093D01*
X214814661Y-134036108D01*
X215375905Y-134597352D01*
X215288429Y-134620792D01*
X215187070Y-134679311D01*
X215104311Y-134762070D01*
X215045792Y-134863429D01*
X215022352Y-134950905D01*
X214458992Y-134387545D01*
X214444760Y-134406392D01*
X214346540Y-134603642D01*
X214286237Y-134815587D01*
X214286236Y-134815590D01*
X214265906Y-135034995D01*
X207869981Y-135034995D01*
X207870773Y-134406128D01*
X207876283Y-130031200D01*
X210456145Y-130031200D01*
X210475534Y-130277565D01*
X210475535Y-130277569D01*
X210533224Y-130517856D01*
X210627792Y-130746166D01*
X210754959Y-130953685D01*
X211295636Y-130413008D01*
X211299452Y-130422221D01*
X211389792Y-130557425D01*
X211504775Y-130672408D01*
X211639979Y-130762748D01*
X211649189Y-130766562D01*
X211108512Y-131307239D01*
X211316028Y-131434404D01*
X211316029Y-131434405D01*
X211544343Y-131528975D01*
X211784630Y-131586664D01*
X211784634Y-131586665D01*
X212031000Y-131606054D01*
X212277365Y-131586665D01*
X212277369Y-131586664D01*
X212517659Y-131528974D01*
X212745959Y-131434410D01*
X212745974Y-131434403D01*
X212953486Y-131307239D01*
X212412810Y-130766563D01*
X212422021Y-130762748D01*
X212557225Y-130672408D01*
X212672208Y-130557425D01*
X212762548Y-130422221D01*
X212766363Y-130413010D01*
X213307039Y-130953686D01*
X213434203Y-130746174D01*
X213434210Y-130746159D01*
X213528774Y-130517859D01*
X213586464Y-130277569D01*
X213586465Y-130277565D01*
X213605854Y-130031200D01*
X226204145Y-130031200D01*
X226223534Y-130277565D01*
X226223535Y-130277569D01*
X226281224Y-130517856D01*
X226375792Y-130746166D01*
X226502959Y-130953685D01*
X227043636Y-130413008D01*
X227047452Y-130422221D01*
X227137792Y-130557425D01*
X227252775Y-130672408D01*
X227387979Y-130762748D01*
X227397189Y-130766562D01*
X226856512Y-131307239D01*
X227064028Y-131434404D01*
X227064029Y-131434405D01*
X227292343Y-131528975D01*
X227532630Y-131586664D01*
X227532634Y-131586665D01*
X227779000Y-131606054D01*
X228025365Y-131586665D01*
X228025369Y-131586664D01*
X228265659Y-131528974D01*
X228493959Y-131434410D01*
X228493974Y-131434403D01*
X228701486Y-131307239D01*
X228160810Y-130766563D01*
X228170021Y-130762748D01*
X228305225Y-130672408D01*
X228420208Y-130557425D01*
X228510548Y-130422221D01*
X228514363Y-130413010D01*
X229055039Y-130953686D01*
X229182203Y-130746174D01*
X229182210Y-130746159D01*
X229276774Y-130517859D01*
X229334464Y-130277569D01*
X229334465Y-130277565D01*
X229353854Y-130031200D01*
X229334465Y-129784834D01*
X229334464Y-129784830D01*
X229276775Y-129544543D01*
X229182205Y-129316229D01*
X229182204Y-129316228D01*
X229055039Y-129108712D01*
X228514362Y-129649388D01*
X228510548Y-129640179D01*
X228420208Y-129504975D01*
X228305225Y-129389992D01*
X228170021Y-129299652D01*
X228160808Y-129295836D01*
X228701486Y-128755159D01*
X228493966Y-128627992D01*
X228265656Y-128533424D01*
X228025369Y-128475735D01*
X228025365Y-128475734D01*
X227779000Y-128456345D01*
X227532634Y-128475734D01*
X227532630Y-128475735D01*
X227292343Y-128533424D01*
X227064037Y-128627991D01*
X227064029Y-128627995D01*
X226856512Y-128755159D01*
X227397189Y-129295836D01*
X227387979Y-129299652D01*
X227252775Y-129389992D01*
X227137792Y-129504975D01*
X227047452Y-129640179D01*
X227043636Y-129649389D01*
X226502959Y-129108712D01*
X226375795Y-129316229D01*
X226375791Y-129316237D01*
X226281224Y-129544543D01*
X226223535Y-129784830D01*
X226223534Y-129784834D01*
X226204145Y-130031200D01*
X213605854Y-130031200D01*
X213586465Y-129784834D01*
X213586464Y-129784830D01*
X213528775Y-129544543D01*
X213434205Y-129316229D01*
X213434204Y-129316228D01*
X213307039Y-129108712D01*
X212766362Y-129649388D01*
X212762548Y-129640179D01*
X212672208Y-129504975D01*
X212557225Y-129389992D01*
X212422021Y-129299652D01*
X212412808Y-129295836D01*
X212953486Y-128755159D01*
X212745966Y-128627992D01*
X212517656Y-128533424D01*
X212277369Y-128475735D01*
X212277365Y-128475734D01*
X212031000Y-128456345D01*
X211784634Y-128475734D01*
X211784630Y-128475735D01*
X211544343Y-128533424D01*
X211316037Y-128627991D01*
X211316029Y-128627995D01*
X211108512Y-128755159D01*
X211649189Y-129295836D01*
X211639979Y-129299652D01*
X211504775Y-129389992D01*
X211389792Y-129504975D01*
X211299452Y-129640179D01*
X211295636Y-129649389D01*
X210754959Y-129108712D01*
X210627795Y-129316229D01*
X210627791Y-129316237D01*
X210533224Y-129544543D01*
X210475535Y-129784830D01*
X210475534Y-129784834D01*
X210456145Y-130031200D01*
X207876283Y-130031200D01*
X207881332Y-126022028D01*
X212313900Y-126022028D01*
X212313900Y-126267971D01*
X212345998Y-126511779D01*
X212346000Y-126511792D01*
X212346001Y-126511794D01*
X212409653Y-126749346D01*
X212503767Y-126976558D01*
X212626733Y-127189541D01*
X212776447Y-127384653D01*
X212950347Y-127558553D01*
X213145459Y-127708267D01*
X213358442Y-127831233D01*
X213585654Y-127925347D01*
X213823206Y-127988999D01*
X213823212Y-127988999D01*
X213823220Y-127989001D01*
X213927437Y-128002721D01*
X214067029Y-128021099D01*
X214067032Y-128021100D01*
X214067034Y-128021100D01*
X214312968Y-128021100D01*
X214312969Y-128021099D01*
X214556794Y-127988999D01*
X214794346Y-127925347D01*
X215021558Y-127831233D01*
X215234541Y-127708267D01*
X215429653Y-127558553D01*
X215603553Y-127384653D01*
X215753267Y-127189541D01*
X215876233Y-126976558D01*
X215970347Y-126749346D01*
X216033999Y-126511794D01*
X216066100Y-126267966D01*
X216066100Y-126022034D01*
X216066099Y-126022028D01*
X223743900Y-126022028D01*
X223743900Y-126267971D01*
X223775998Y-126511779D01*
X223776000Y-126511792D01*
X223776001Y-126511794D01*
X223839653Y-126749346D01*
X223933767Y-126976558D01*
X224056733Y-127189541D01*
X224206447Y-127384653D01*
X224380347Y-127558553D01*
X224575459Y-127708267D01*
X224788442Y-127831233D01*
X225015654Y-127925347D01*
X225253206Y-127988999D01*
X225253212Y-127988999D01*
X225253220Y-127989001D01*
X225357437Y-128002721D01*
X225497029Y-128021099D01*
X225497032Y-128021100D01*
X225497034Y-128021100D01*
X225742968Y-128021100D01*
X225742969Y-128021099D01*
X225986794Y-127988999D01*
X226224346Y-127925347D01*
X226451558Y-127831233D01*
X226664541Y-127708267D01*
X226859653Y-127558553D01*
X227033553Y-127384653D01*
X227183267Y-127189541D01*
X227306233Y-126976558D01*
X227400347Y-126749346D01*
X227463999Y-126511794D01*
X227496100Y-126267966D01*
X227496100Y-126022034D01*
X227463999Y-125778206D01*
X227400347Y-125540654D01*
X227306233Y-125313442D01*
X227183267Y-125100459D01*
X227033553Y-124905347D01*
X226859653Y-124731447D01*
X226664541Y-124581733D01*
X226593546Y-124540744D01*
X226451562Y-124458769D01*
X226451560Y-124458768D01*
X226451558Y-124458767D01*
X226318462Y-124403637D01*
X226224349Y-124364654D01*
X226224347Y-124364653D01*
X226224346Y-124364653D01*
X226153774Y-124345743D01*
X225986792Y-124301000D01*
X225986779Y-124300998D01*
X225742971Y-124268900D01*
X225742966Y-124268900D01*
X225497034Y-124268900D01*
X225497028Y-124268900D01*
X225253220Y-124300998D01*
X225253207Y-124301000D01*
X225015650Y-124364654D01*
X224788437Y-124458769D01*
X224575460Y-124581732D01*
X224380345Y-124731448D01*
X224206448Y-124905345D01*
X224056732Y-125100460D01*
X223933769Y-125313437D01*
X223839654Y-125540650D01*
X223776000Y-125778207D01*
X223775998Y-125778220D01*
X223743900Y-126022028D01*
X216066099Y-126022028D01*
X216033999Y-125778206D01*
X215970347Y-125540654D01*
X215876233Y-125313442D01*
X215753267Y-125100459D01*
X215603553Y-124905347D01*
X215429653Y-124731447D01*
X215234541Y-124581733D01*
X215163546Y-124540744D01*
X215021562Y-124458769D01*
X215021560Y-124458768D01*
X215021558Y-124458767D01*
X214888462Y-124403637D01*
X214794349Y-124364654D01*
X214794347Y-124364653D01*
X214794346Y-124364653D01*
X214723774Y-124345743D01*
X214556792Y-124301000D01*
X214556779Y-124300998D01*
X214312971Y-124268900D01*
X214312966Y-124268900D01*
X214067034Y-124268900D01*
X214067028Y-124268900D01*
X213823220Y-124300998D01*
X213823207Y-124301000D01*
X213585650Y-124364654D01*
X213358437Y-124458769D01*
X213145460Y-124581732D01*
X212950345Y-124731448D01*
X212776448Y-124905345D01*
X212626732Y-125100460D01*
X212503769Y-125313437D01*
X212409654Y-125540650D01*
X212346000Y-125778207D01*
X212345998Y-125778220D01*
X212313900Y-126022028D01*
X207881332Y-126022028D01*
X207886359Y-122030200D01*
X212284271Y-122030200D01*
X212304348Y-122259682D01*
X212363968Y-122482188D01*
X212363969Y-122482190D01*
X212461319Y-122690959D01*
X212461326Y-122690972D01*
X212593448Y-122879660D01*
X212756339Y-123042551D01*
X212945027Y-123174673D01*
X212945030Y-123174675D01*
X212945035Y-123174678D01*
X213153810Y-123272031D01*
X213376319Y-123331652D01*
X213605800Y-123351729D01*
X213835281Y-123331652D01*
X214057790Y-123272031D01*
X214266565Y-123174678D01*
X214455262Y-123042550D01*
X214618150Y-122879662D01*
X214741048Y-122704145D01*
X214800130Y-122654571D01*
X214876086Y-122641178D01*
X214948563Y-122667557D01*
X214985150Y-122704144D01*
X215108049Y-122879660D01*
X215108051Y-122879663D01*
X215270939Y-123042551D01*
X215459627Y-123174673D01*
X215459630Y-123174675D01*
X215459635Y-123174678D01*
X215668410Y-123272031D01*
X215890919Y-123331652D01*
X216120400Y-123351729D01*
X216349881Y-123331652D01*
X216572390Y-123272031D01*
X216781165Y-123174678D01*
X216969862Y-123042550D01*
X217132750Y-122879662D01*
X217264878Y-122690965D01*
X217362231Y-122482190D01*
X217421852Y-122259681D01*
X217441929Y-122030200D01*
X222393471Y-122030200D01*
X222413548Y-122259682D01*
X222473168Y-122482188D01*
X222473169Y-122482190D01*
X222570519Y-122690959D01*
X222570526Y-122690972D01*
X222702648Y-122879660D01*
X222865539Y-123042551D01*
X223054227Y-123174673D01*
X223054230Y-123174675D01*
X223054235Y-123174678D01*
X223263010Y-123272031D01*
X223485519Y-123331652D01*
X223715000Y-123351729D01*
X223944481Y-123331652D01*
X224166990Y-123272031D01*
X224375765Y-123174678D01*
X224564462Y-123042550D01*
X224727350Y-122879662D01*
X224850248Y-122704145D01*
X224909330Y-122654571D01*
X224985286Y-122641178D01*
X225057763Y-122667557D01*
X225094350Y-122704144D01*
X225217249Y-122879660D01*
X225217251Y-122879663D01*
X225380139Y-123042551D01*
X225568827Y-123174673D01*
X225568830Y-123174675D01*
X225568835Y-123174678D01*
X225777610Y-123272031D01*
X226000119Y-123331652D01*
X226229600Y-123351729D01*
X226459081Y-123331652D01*
X226681590Y-123272031D01*
X226890365Y-123174678D01*
X227079062Y-123042550D01*
X227241950Y-122879662D01*
X227374078Y-122690965D01*
X227471431Y-122482190D01*
X227531052Y-122259681D01*
X227551129Y-122030200D01*
X227531052Y-121800719D01*
X227471431Y-121578210D01*
X227374078Y-121369436D01*
X227241950Y-121180738D01*
X227079062Y-121017850D01*
X227079060Y-121017848D01*
X226890372Y-120885726D01*
X226890359Y-120885719D01*
X226681590Y-120788369D01*
X226681588Y-120788368D01*
X226459081Y-120728748D01*
X226459082Y-120728748D01*
X226229600Y-120708671D01*
X226000117Y-120728748D01*
X225777611Y-120788368D01*
X225777609Y-120788369D01*
X225568835Y-120885722D01*
X225568834Y-120885723D01*
X225380136Y-121017851D01*
X225217248Y-121180739D01*
X225094353Y-121356251D01*
X225035270Y-121405828D01*
X224959313Y-121419221D01*
X224886837Y-121392841D01*
X224850247Y-121356251D01*
X224727351Y-121180739D01*
X224564460Y-121017848D01*
X224375772Y-120885726D01*
X224375759Y-120885719D01*
X224166990Y-120788369D01*
X224166988Y-120788368D01*
X223944481Y-120728748D01*
X223944482Y-120728748D01*
X223715000Y-120708671D01*
X223485517Y-120728748D01*
X223263011Y-120788368D01*
X223263009Y-120788369D01*
X223054235Y-120885722D01*
X223054234Y-120885723D01*
X222865536Y-121017851D01*
X222702651Y-121180736D01*
X222570523Y-121369434D01*
X222570522Y-121369435D01*
X222473169Y-121578209D01*
X222473168Y-121578211D01*
X222413548Y-121800717D01*
X222393471Y-122030200D01*
X217441929Y-122030200D01*
X217421852Y-121800719D01*
X217362231Y-121578210D01*
X217264878Y-121369436D01*
X217132750Y-121180738D01*
X216969862Y-121017850D01*
X216969860Y-121017848D01*
X216781172Y-120885726D01*
X216781159Y-120885719D01*
X216572390Y-120788369D01*
X216572388Y-120788368D01*
X216349881Y-120728748D01*
X216349882Y-120728748D01*
X216120400Y-120708671D01*
X215890917Y-120728748D01*
X215668411Y-120788368D01*
X215668409Y-120788369D01*
X215459635Y-120885722D01*
X215459634Y-120885723D01*
X215270936Y-121017851D01*
X215108048Y-121180739D01*
X214985153Y-121356251D01*
X214926070Y-121405828D01*
X214850113Y-121419221D01*
X214777637Y-121392841D01*
X214741047Y-121356251D01*
X214618151Y-121180739D01*
X214455260Y-121017848D01*
X214266572Y-120885726D01*
X214266559Y-120885719D01*
X214057790Y-120788369D01*
X214057788Y-120788368D01*
X213835281Y-120728748D01*
X213835282Y-120728748D01*
X213605800Y-120708671D01*
X213376317Y-120728748D01*
X213153811Y-120788368D01*
X213153809Y-120788369D01*
X212945035Y-120885722D01*
X212945034Y-120885723D01*
X212756336Y-121017851D01*
X212593451Y-121180736D01*
X212461323Y-121369434D01*
X212461322Y-121369435D01*
X212363969Y-121578209D01*
X212363968Y-121578211D01*
X212304348Y-121800717D01*
X212284271Y-122030200D01*
X207886359Y-122030200D01*
X207899812Y-111348500D01*
X207919868Y-111274030D01*
X207974475Y-111219560D01*
X208048501Y-111199692D01*
X231550193Y-111151034D01*
X231624733Y-111170842D01*
G37*
%TD.AperFunction*%
%TD*%
%TA.AperFunction,Conductor*%
%TO.N,/IO/K4_1*%
G36*
X201743039Y-117719685D02*
G01*
X201788794Y-117772489D01*
X201800000Y-117824000D01*
X201800000Y-124500000D01*
X205426000Y-124500000D01*
X205493039Y-124519685D01*
X205538794Y-124572489D01*
X205550000Y-124624000D01*
X205550000Y-132654504D01*
X205530315Y-132721543D01*
X205477511Y-132767298D01*
X205408353Y-132777242D01*
X205344797Y-132748217D01*
X205318613Y-132716505D01*
X205267886Y-132628643D01*
X205104305Y-132423519D01*
X205104304Y-132423518D01*
X205104301Y-132423514D01*
X204911979Y-132245067D01*
X204695204Y-132097272D01*
X204695200Y-132097270D01*
X204695197Y-132097268D01*
X204695196Y-132097267D01*
X204458825Y-131983438D01*
X204458827Y-131983438D01*
X204208123Y-131906106D01*
X204208119Y-131906105D01*
X204208115Y-131906104D01*
X204083323Y-131887294D01*
X203948687Y-131867000D01*
X203948682Y-131867000D01*
X203686318Y-131867000D01*
X203686312Y-131867000D01*
X203524747Y-131891353D01*
X203426885Y-131906104D01*
X203426882Y-131906105D01*
X203426876Y-131906106D01*
X203176173Y-131983438D01*
X202939803Y-132097267D01*
X202939802Y-132097268D01*
X202723020Y-132245067D01*
X202530698Y-132423514D01*
X202367114Y-132628643D01*
X202235932Y-132855856D01*
X202140082Y-133100078D01*
X202140076Y-133100097D01*
X202081697Y-133355874D01*
X202081696Y-133355879D01*
X202062092Y-133617495D01*
X202062092Y-133617504D01*
X202081696Y-133879120D01*
X202081697Y-133879125D01*
X202140076Y-134134902D01*
X202140078Y-134134911D01*
X202140080Y-134134916D01*
X202235932Y-134379143D01*
X202367114Y-134606357D01*
X202499236Y-134772033D01*
X202530698Y-134811485D01*
X202712253Y-134979941D01*
X202723021Y-134989933D01*
X202939796Y-135137728D01*
X202939801Y-135137730D01*
X202939802Y-135137731D01*
X202939803Y-135137732D01*
X203065343Y-135198188D01*
X203176173Y-135251561D01*
X203176174Y-135251561D01*
X203176177Y-135251563D01*
X203426885Y-135328896D01*
X203686318Y-135368000D01*
X203948682Y-135368000D01*
X204208115Y-135328896D01*
X204458823Y-135251563D01*
X204695204Y-135137728D01*
X204911979Y-134989933D01*
X205104305Y-134811481D01*
X205267886Y-134606357D01*
X205318613Y-134518494D01*
X205369180Y-134470279D01*
X205437787Y-134457056D01*
X205502652Y-134483024D01*
X205543180Y-134539939D01*
X205550000Y-134580495D01*
X205550000Y-150575500D01*
X205530315Y-150642539D01*
X205477511Y-150688294D01*
X205426000Y-150699500D01*
X196824000Y-150699500D01*
X196756961Y-150679815D01*
X196711206Y-150627011D01*
X196700000Y-150575500D01*
X196700000Y-131100000D01*
X196405501Y-131100000D01*
X196353989Y-131088794D01*
X196272081Y-131051387D01*
X196235462Y-131034663D01*
X196168417Y-131014976D01*
X196106354Y-131006053D01*
X196026000Y-130994500D01*
X193624000Y-130994500D01*
X193556961Y-130974815D01*
X193511206Y-130922011D01*
X193500000Y-130870500D01*
X193500000Y-121926630D01*
X193503109Y-121899037D01*
X193553302Y-121679130D01*
X193572908Y-121417500D01*
X193553302Y-121155870D01*
X193503109Y-120935960D01*
X193500000Y-120908368D01*
X193500000Y-117824000D01*
X193519685Y-117756961D01*
X193572489Y-117711206D01*
X193624000Y-117700000D01*
X201676000Y-117700000D01*
X201743039Y-117719685D01*
G37*
%TD.AperFunction*%
%TD*%
%TA.AperFunction,Conductor*%
%TO.N,/IO/K4_2*%
G36*
X196093039Y-131519685D02*
G01*
X196138794Y-131572489D01*
X196150000Y-131624000D01*
X196150000Y-150575500D01*
X196130315Y-150642539D01*
X196077511Y-150688294D01*
X196026000Y-150699500D01*
X190124000Y-150699500D01*
X190056961Y-150679815D01*
X190011206Y-150627011D01*
X190000000Y-150575500D01*
X190000000Y-131624000D01*
X190019685Y-131556961D01*
X190072489Y-131511206D01*
X190124000Y-131500000D01*
X196026000Y-131500000D01*
X196093039Y-131519685D01*
G37*
%TD.AperFunction*%
%TD*%
%TA.AperFunction,Conductor*%
%TO.N,AGND*%
G36*
X221231148Y-92969962D02*
G01*
X221285686Y-93024500D01*
X221304561Y-93081038D01*
X221313763Y-93156818D01*
X221313764Y-93156820D01*
X221369779Y-93304522D01*
X221435683Y-93400000D01*
X221459517Y-93434530D01*
X221577760Y-93539283D01*
X221717635Y-93612696D01*
X221871015Y-93650500D01*
X221871017Y-93650500D01*
X222028983Y-93650500D01*
X222028985Y-93650500D01*
X222182365Y-93612696D01*
X222322240Y-93539283D01*
X222440483Y-93434530D01*
X222530220Y-93304523D01*
X222586237Y-93156818D01*
X222595438Y-93081038D01*
X222624236Y-93009489D01*
X222684950Y-92961923D01*
X222743352Y-92950000D01*
X222959089Y-92950000D01*
X223033589Y-92969962D01*
X223088127Y-93024500D01*
X223108089Y-93099000D01*
X223098406Y-93151835D01*
X223096516Y-93156820D01*
X223063763Y-93243179D01*
X223044722Y-93400000D01*
X223063763Y-93556820D01*
X223119779Y-93704522D01*
X223119780Y-93704523D01*
X223209517Y-93834530D01*
X223327760Y-93939283D01*
X223467635Y-94012696D01*
X223621015Y-94050500D01*
X223621017Y-94050500D01*
X223778983Y-94050500D01*
X223778985Y-94050500D01*
X223932365Y-94012696D01*
X224072240Y-93939283D01*
X224190483Y-93834530D01*
X224280220Y-93704523D01*
X224333773Y-93563314D01*
X224367729Y-93510794D01*
X224840509Y-93038015D01*
X224840970Y-93037214D01*
X224848312Y-93024501D01*
X224902849Y-92969963D01*
X224977349Y-92950000D01*
X227613500Y-92950000D01*
X227688000Y-92969962D01*
X227742538Y-93024500D01*
X227762500Y-93099000D01*
X227762500Y-100701000D01*
X227742538Y-100775500D01*
X227688000Y-100830038D01*
X227613500Y-100850000D01*
X223499488Y-100850000D01*
X223424988Y-100830038D01*
X223370450Y-100775500D01*
X223350488Y-100701000D01*
X223350488Y-98981307D01*
X223370450Y-98906807D01*
X223400681Y-98869780D01*
X223440471Y-98834530D01*
X223530208Y-98704523D01*
X223586225Y-98556818D01*
X223605266Y-98400000D01*
X223586225Y-98243182D01*
X223530208Y-98095477D01*
X223440471Y-97965470D01*
X223322228Y-97860717D01*
X223322227Y-97860716D01*
X223182351Y-97787303D01*
X223104579Y-97768134D01*
X223028973Y-97749500D01*
X222871003Y-97749500D01*
X222810347Y-97764450D01*
X222717624Y-97787303D01*
X222577748Y-97860716D01*
X222459504Y-97965470D01*
X222369767Y-98095477D01*
X222313751Y-98243179D01*
X222294710Y-98400000D01*
X222313751Y-98556820D01*
X222369767Y-98704522D01*
X222406020Y-98757043D01*
X222459505Y-98834530D01*
X222499294Y-98869779D01*
X222541820Y-98934123D01*
X222549488Y-98981307D01*
X222549488Y-100701000D01*
X222529526Y-100775500D01*
X222474988Y-100830038D01*
X222400488Y-100850000D01*
X220499500Y-100850000D01*
X220425000Y-100830038D01*
X220370462Y-100775500D01*
X220350500Y-100701000D01*
X220350500Y-99648321D01*
X220370462Y-99573821D01*
X220394141Y-99542962D01*
X220542962Y-99394141D01*
X220609757Y-99355577D01*
X220648321Y-99350500D01*
X220678983Y-99350500D01*
X220678985Y-99350500D01*
X220832365Y-99312696D01*
X220972240Y-99239283D01*
X221090483Y-99134530D01*
X221180220Y-99004523D01*
X221236237Y-98856818D01*
X221255278Y-98700000D01*
X221236237Y-98543182D01*
X221180220Y-98395477D01*
X221090483Y-98265470D01*
X220972240Y-98160717D01*
X220972239Y-98160716D01*
X220832363Y-98087303D01*
X220754591Y-98068134D01*
X220678985Y-98049500D01*
X220521015Y-98049500D01*
X220460359Y-98064450D01*
X220367636Y-98087303D01*
X220227760Y-98160716D01*
X220109516Y-98265470D01*
X220019779Y-98395477D01*
X219963763Y-98543179D01*
X219948408Y-98669644D01*
X219919611Y-98741195D01*
X219905853Y-98757043D01*
X219539509Y-99123388D01*
X219539508Y-99123389D01*
X219480201Y-99226111D01*
X219480202Y-99226111D01*
X219480201Y-99226113D01*
X219480201Y-99226114D01*
X219469967Y-99264306D01*
X219449500Y-99340689D01*
X219449500Y-100701000D01*
X219429538Y-100775500D01*
X219375000Y-100830038D01*
X219300500Y-100850000D01*
X218211500Y-100850000D01*
X218137000Y-100830038D01*
X218082462Y-100775500D01*
X218062500Y-100701000D01*
X218062500Y-94224500D01*
X218082462Y-94150000D01*
X218137000Y-94095462D01*
X218211500Y-94075500D01*
X218404309Y-94075500D01*
X218497610Y-94050500D01*
X218518887Y-94044799D01*
X218621614Y-93985489D01*
X219613462Y-92993641D01*
X219680257Y-92955077D01*
X219718821Y-92950000D01*
X221156648Y-92950000D01*
X221231148Y-92969962D01*
G37*
%TD.AperFunction*%
%TD*%
%TA.AperFunction,Conductor*%
%TO.N,GND*%
G36*
X231200000Y-83700000D02*
G01*
X223100000Y-83700000D01*
X223100000Y-76400000D01*
X231200000Y-76400000D01*
X231200000Y-83700000D01*
G37*
%TD.AperFunction*%
%TD*%
%TA.AperFunction,Conductor*%
%TO.N,GND*%
G36*
X208700000Y-107700000D02*
G01*
X200600000Y-107700000D01*
X200600000Y-100400000D01*
X208700000Y-100400000D01*
X208700000Y-107700000D01*
G37*
%TD.AperFunction*%
%TD*%
%TA.AperFunction,Conductor*%
%TO.N,/IO/K3_1*%
G36*
X184943039Y-117719685D02*
G01*
X184988794Y-117772489D01*
X185000000Y-117824000D01*
X185000000Y-124500000D01*
X188626000Y-124500000D01*
X188693039Y-124519685D01*
X188738794Y-124572489D01*
X188750000Y-124624000D01*
X188750000Y-132683374D01*
X188730315Y-132750413D01*
X188677511Y-132796168D01*
X188608353Y-132806112D01*
X188544797Y-132777087D01*
X188518613Y-132745374D01*
X188482817Y-132683374D01*
X188451218Y-132628643D01*
X188287637Y-132423519D01*
X188287636Y-132423518D01*
X188287633Y-132423514D01*
X188095311Y-132245067D01*
X187878536Y-132097272D01*
X187878532Y-132097270D01*
X187878529Y-132097268D01*
X187878528Y-132097267D01*
X187642157Y-131983438D01*
X187642159Y-131983438D01*
X187391455Y-131906106D01*
X187391451Y-131906105D01*
X187391447Y-131906104D01*
X187266655Y-131887294D01*
X187132019Y-131867000D01*
X187132014Y-131867000D01*
X186869650Y-131867000D01*
X186869644Y-131867000D01*
X186708079Y-131891353D01*
X186610217Y-131906104D01*
X186610214Y-131906105D01*
X186610208Y-131906106D01*
X186359505Y-131983438D01*
X186123135Y-132097267D01*
X186123134Y-132097268D01*
X185906352Y-132245067D01*
X185714030Y-132423514D01*
X185550446Y-132628643D01*
X185419264Y-132855856D01*
X185323414Y-133100078D01*
X185323408Y-133100097D01*
X185265029Y-133355874D01*
X185265028Y-133355879D01*
X185245424Y-133617495D01*
X185245424Y-133617504D01*
X185265028Y-133879120D01*
X185265029Y-133879125D01*
X185323408Y-134134902D01*
X185323410Y-134134911D01*
X185323412Y-134134916D01*
X185419264Y-134379143D01*
X185550446Y-134606357D01*
X185682568Y-134772033D01*
X185714030Y-134811485D01*
X185895585Y-134979941D01*
X185906353Y-134989933D01*
X186123128Y-135137728D01*
X186123133Y-135137730D01*
X186123134Y-135137731D01*
X186123135Y-135137732D01*
X186248675Y-135198188D01*
X186359505Y-135251561D01*
X186359506Y-135251561D01*
X186359509Y-135251563D01*
X186610217Y-135328896D01*
X186869650Y-135368000D01*
X187132014Y-135368000D01*
X187391447Y-135328896D01*
X187642155Y-135251563D01*
X187878536Y-135137728D01*
X188095311Y-134989933D01*
X188287637Y-134811481D01*
X188451218Y-134606357D01*
X188518613Y-134489624D01*
X188569180Y-134441409D01*
X188637787Y-134428186D01*
X188702652Y-134454154D01*
X188743180Y-134511069D01*
X188750000Y-134551625D01*
X188750000Y-150575500D01*
X188730315Y-150642539D01*
X188677511Y-150688294D01*
X188626000Y-150699500D01*
X180024000Y-150699500D01*
X179956961Y-150679815D01*
X179911206Y-150627011D01*
X179900000Y-150575500D01*
X179900000Y-131100000D01*
X179605501Y-131100000D01*
X179553989Y-131088794D01*
X179472081Y-131051387D01*
X179435462Y-131034663D01*
X179368417Y-131014976D01*
X179306354Y-131006053D01*
X179226000Y-130994500D01*
X176824000Y-130994500D01*
X176756961Y-130974815D01*
X176711206Y-130922011D01*
X176700000Y-130870500D01*
X176700000Y-121853603D01*
X176703109Y-121826010D01*
X176736634Y-121679130D01*
X176756240Y-121417500D01*
X176736634Y-121155870D01*
X176703109Y-121008987D01*
X176700000Y-120981395D01*
X176700000Y-117824000D01*
X176719685Y-117756961D01*
X176772489Y-117711206D01*
X176824000Y-117700000D01*
X184876000Y-117700000D01*
X184943039Y-117719685D01*
G37*
%TD.AperFunction*%
%TD*%
%TA.AperFunction,Conductor*%
%TO.N,/IO/K3_2*%
G36*
X179293039Y-131519685D02*
G01*
X179338794Y-131572489D01*
X179350000Y-131624000D01*
X179350000Y-150575500D01*
X179330315Y-150642539D01*
X179277511Y-150688294D01*
X179226000Y-150699500D01*
X173324000Y-150699500D01*
X173256961Y-150679815D01*
X173211206Y-150627011D01*
X173200000Y-150575500D01*
X173200000Y-131624000D01*
X173219685Y-131556961D01*
X173272489Y-131511206D01*
X173324000Y-131500000D01*
X179226000Y-131500000D01*
X179293039Y-131519685D01*
G37*
%TD.AperFunction*%
%TD*%
%TA.AperFunction,Conductor*%
%TO.N,/IO/K2_1*%
G36*
X168143039Y-117719685D02*
G01*
X168188794Y-117772489D01*
X168200000Y-117824000D01*
X168200000Y-124500000D01*
X171826000Y-124500000D01*
X171893039Y-124519685D01*
X171938794Y-124572489D01*
X171950000Y-124624000D01*
X171950000Y-132712240D01*
X171930315Y-132779279D01*
X171877511Y-132825034D01*
X171808353Y-132834978D01*
X171744797Y-132805953D01*
X171718613Y-132774240D01*
X171682817Y-132712240D01*
X171634552Y-132628643D01*
X171470971Y-132423519D01*
X171470970Y-132423518D01*
X171470967Y-132423514D01*
X171278645Y-132245067D01*
X171061870Y-132097272D01*
X171061866Y-132097270D01*
X171061863Y-132097268D01*
X171061862Y-132097267D01*
X170825491Y-131983438D01*
X170825493Y-131983438D01*
X170574789Y-131906106D01*
X170574785Y-131906105D01*
X170574781Y-131906104D01*
X170449989Y-131887294D01*
X170315353Y-131867000D01*
X170315348Y-131867000D01*
X170052984Y-131867000D01*
X170052978Y-131867000D01*
X169891413Y-131891353D01*
X169793551Y-131906104D01*
X169793548Y-131906105D01*
X169793542Y-131906106D01*
X169542839Y-131983438D01*
X169306469Y-132097267D01*
X169306468Y-132097268D01*
X169089686Y-132245067D01*
X168897364Y-132423514D01*
X168733780Y-132628643D01*
X168602598Y-132855856D01*
X168506748Y-133100078D01*
X168506742Y-133100097D01*
X168448363Y-133355874D01*
X168448362Y-133355879D01*
X168428758Y-133617495D01*
X168428758Y-133617504D01*
X168448362Y-133879120D01*
X168448363Y-133879125D01*
X168506742Y-134134902D01*
X168506744Y-134134911D01*
X168506746Y-134134916D01*
X168602598Y-134379143D01*
X168733780Y-134606357D01*
X168865902Y-134772033D01*
X168897364Y-134811485D01*
X169078919Y-134979941D01*
X169089687Y-134989933D01*
X169306462Y-135137728D01*
X169306467Y-135137730D01*
X169306468Y-135137731D01*
X169306469Y-135137732D01*
X169432009Y-135198188D01*
X169542839Y-135251561D01*
X169542840Y-135251561D01*
X169542843Y-135251563D01*
X169793551Y-135328896D01*
X170052984Y-135368000D01*
X170315348Y-135368000D01*
X170574781Y-135328896D01*
X170825489Y-135251563D01*
X171061870Y-135137728D01*
X171278645Y-134989933D01*
X171470971Y-134811481D01*
X171634552Y-134606357D01*
X171718613Y-134460758D01*
X171769180Y-134412543D01*
X171837787Y-134399320D01*
X171902652Y-134425288D01*
X171943180Y-134482203D01*
X171950000Y-134522759D01*
X171950000Y-150575500D01*
X171930315Y-150642539D01*
X171877511Y-150688294D01*
X171826000Y-150699500D01*
X163224000Y-150699500D01*
X163156961Y-150679815D01*
X163111206Y-150627011D01*
X163100000Y-150575500D01*
X163100000Y-131100000D01*
X162805501Y-131100000D01*
X162753989Y-131088794D01*
X162672081Y-131051387D01*
X162635462Y-131034663D01*
X162568417Y-131014976D01*
X162506354Y-131006053D01*
X162426000Y-130994500D01*
X160024000Y-130994500D01*
X159956961Y-130974815D01*
X159911206Y-130922011D01*
X159900000Y-130870500D01*
X159900000Y-121780585D01*
X159903109Y-121752993D01*
X159919968Y-121679130D01*
X159939574Y-121417500D01*
X159919968Y-121155870D01*
X159903109Y-121082005D01*
X159900000Y-121054413D01*
X159900000Y-117824000D01*
X159919685Y-117756961D01*
X159972489Y-117711206D01*
X160024000Y-117700000D01*
X168076000Y-117700000D01*
X168143039Y-117719685D01*
G37*
%TD.AperFunction*%
%TD*%
%TA.AperFunction,Conductor*%
%TO.N,/IO/K2_2*%
G36*
X162493039Y-131519685D02*
G01*
X162538794Y-131572489D01*
X162550000Y-131624000D01*
X162550000Y-150575500D01*
X162530315Y-150642539D01*
X162477511Y-150688294D01*
X162426000Y-150699500D01*
X156524000Y-150699500D01*
X156456961Y-150679815D01*
X156411206Y-150627011D01*
X156400000Y-150575500D01*
X156400000Y-131624000D01*
X156419685Y-131556961D01*
X156472489Y-131511206D01*
X156524000Y-131500000D01*
X162426000Y-131500000D01*
X162493039Y-131519685D01*
G37*
%TD.AperFunction*%
%TD*%
%TA.AperFunction,Conductor*%
%TO.N,/IO/K1_1*%
G36*
X151243039Y-117719685D02*
G01*
X151288794Y-117772489D01*
X151300000Y-117824000D01*
X151300000Y-124500000D01*
X154926000Y-124500000D01*
X154993039Y-124519685D01*
X155038794Y-124572489D01*
X155050000Y-124624000D01*
X155050000Y-132567902D01*
X155030315Y-132634941D01*
X154977511Y-132680696D01*
X154908353Y-132690640D01*
X154844797Y-132661615D01*
X154820649Y-132632370D01*
X154820498Y-132632474D01*
X154819372Y-132630823D01*
X154818616Y-132629907D01*
X154817887Y-132628644D01*
X154654301Y-132423514D01*
X154461979Y-132245067D01*
X154245204Y-132097272D01*
X154245200Y-132097270D01*
X154245197Y-132097268D01*
X154245196Y-132097267D01*
X154008825Y-131983438D01*
X154008827Y-131983438D01*
X153758123Y-131906106D01*
X153758119Y-131906105D01*
X153758115Y-131906104D01*
X153633323Y-131887294D01*
X153498687Y-131867000D01*
X153498682Y-131867000D01*
X153236318Y-131867000D01*
X153236312Y-131867000D01*
X153074747Y-131891353D01*
X152976885Y-131906104D01*
X152976882Y-131906105D01*
X152976876Y-131906106D01*
X152726173Y-131983438D01*
X152489803Y-132097267D01*
X152489802Y-132097268D01*
X152273020Y-132245067D01*
X152080698Y-132423514D01*
X151917114Y-132628643D01*
X151785932Y-132855856D01*
X151690082Y-133100078D01*
X151690076Y-133100097D01*
X151631697Y-133355874D01*
X151631696Y-133355879D01*
X151612092Y-133617495D01*
X151612092Y-133617504D01*
X151631696Y-133879120D01*
X151631697Y-133879125D01*
X151690076Y-134134902D01*
X151690078Y-134134911D01*
X151690080Y-134134916D01*
X151785932Y-134379143D01*
X151917114Y-134606357D01*
X151965553Y-134667097D01*
X152080698Y-134811485D01*
X152262253Y-134979941D01*
X152273021Y-134989933D01*
X152489796Y-135137728D01*
X152489801Y-135137730D01*
X152489802Y-135137731D01*
X152489803Y-135137732D01*
X152615343Y-135198188D01*
X152726173Y-135251561D01*
X152726174Y-135251561D01*
X152726177Y-135251563D01*
X152976885Y-135328896D01*
X153236318Y-135368000D01*
X153498682Y-135368000D01*
X153758115Y-135328896D01*
X154008823Y-135251563D01*
X154245204Y-135137728D01*
X154461979Y-134989933D01*
X154654305Y-134811481D01*
X154817886Y-134606357D01*
X154818611Y-134605100D01*
X154818986Y-134604742D01*
X154820498Y-134602526D01*
X154820972Y-134602849D01*
X154869176Y-134556883D01*
X154937782Y-134543658D01*
X155002648Y-134569624D01*
X155043179Y-134626536D01*
X155050000Y-134667097D01*
X155050000Y-150575500D01*
X155030315Y-150642539D01*
X154977511Y-150688294D01*
X154926000Y-150699500D01*
X146324000Y-150699500D01*
X146256961Y-150679815D01*
X146211206Y-150627011D01*
X146200000Y-150575500D01*
X146200000Y-131100000D01*
X145905501Y-131100000D01*
X145853989Y-131088794D01*
X145772081Y-131051387D01*
X145735462Y-131034663D01*
X145668417Y-131014976D01*
X145606354Y-131006053D01*
X145526000Y-130994500D01*
X143124000Y-130994500D01*
X143056961Y-130974815D01*
X143011206Y-130922011D01*
X143000000Y-130870500D01*
X143000000Y-122072830D01*
X143008571Y-122027531D01*
X143044920Y-121934916D01*
X143103302Y-121679130D01*
X143122908Y-121417500D01*
X143103302Y-121155870D01*
X143044920Y-120900084D01*
X143008570Y-120807466D01*
X143000000Y-120762168D01*
X143000000Y-117824000D01*
X143019685Y-117756961D01*
X143072489Y-117711206D01*
X143124000Y-117700000D01*
X151176000Y-117700000D01*
X151243039Y-117719685D01*
G37*
%TD.AperFunction*%
%TD*%
%TA.AperFunction,Conductor*%
%TO.N,/IO/K1_2*%
G36*
X145593039Y-131519685D02*
G01*
X145638794Y-131572489D01*
X145650000Y-131624000D01*
X145650000Y-150575500D01*
X145630315Y-150642539D01*
X145577511Y-150688294D01*
X145526000Y-150699500D01*
X139624000Y-150699500D01*
X139556961Y-150679815D01*
X139511206Y-150627011D01*
X139500000Y-150575500D01*
X139500000Y-131624000D01*
X139519685Y-131556961D01*
X139572489Y-131511206D01*
X139624000Y-131500000D01*
X145526000Y-131500000D01*
X145593039Y-131519685D01*
G37*
%TD.AperFunction*%
%TD*%
M02*
