%TF.GenerationSoftware,KiCad,Pcbnew,8.0.6-8.0.6-0~ubuntu24.04.1*%
%TF.CreationDate,2024-10-19T21:07:47+02:00*%
%TF.ProjectId,ESP_PLC,4553505f-504c-4432-9e6b-696361645f70,rev?*%
%TF.SameCoordinates,Original*%
%TF.FileFunction,Soldermask,Top*%
%TF.FilePolarity,Negative*%
%FSLAX46Y46*%
G04 Gerber Fmt 4.6, Leading zero omitted, Abs format (unit mm)*
G04 Created by KiCad (PCBNEW 8.0.6-8.0.6-0~ubuntu24.04.1) date 2024-10-19 21:07:47*
%MOMM*%
%LPD*%
G01*
G04 APERTURE LIST*
G04 Aperture macros list*
%AMRoundRect*
0 Rectangle with rounded corners*
0 $1 Rounding radius*
0 $2 $3 $4 $5 $6 $7 $8 $9 X,Y pos of 4 corners*
0 Add a 4 corners polygon primitive as box body*
4,1,4,$2,$3,$4,$5,$6,$7,$8,$9,$2,$3,0*
0 Add four circle primitives for the rounded corners*
1,1,$1+$1,$2,$3*
1,1,$1+$1,$4,$5*
1,1,$1+$1,$6,$7*
1,1,$1+$1,$8,$9*
0 Add four rect primitives between the rounded corners*
20,1,$1+$1,$2,$3,$4,$5,0*
20,1,$1+$1,$4,$5,$6,$7,0*
20,1,$1+$1,$6,$7,$8,$9,0*
20,1,$1+$1,$8,$9,$2,$3,0*%
%AMOutline5P*
0 Free polygon, 5 corners , with rotation*
0 The origin of the aperture is its center*
0 number of corners: always 5*
0 $1 to $10 corner X, Y*
0 $11 Rotation angle, in degrees counterclockwise*
0 create outline with 5 corners*
4,1,5,$1,$2,$3,$4,$5,$6,$7,$8,$9,$10,$1,$2,$11*%
%AMOutline6P*
0 Free polygon, 6 corners , with rotation*
0 The origin of the aperture is its center*
0 number of corners: always 6*
0 $1 to $12 corner X, Y*
0 $13 Rotation angle, in degrees counterclockwise*
0 create outline with 6 corners*
4,1,6,$1,$2,$3,$4,$5,$6,$7,$8,$9,$10,$11,$12,$1,$2,$13*%
%AMOutline7P*
0 Free polygon, 7 corners , with rotation*
0 The origin of the aperture is its center*
0 number of corners: always 7*
0 $1 to $14 corner X, Y*
0 $15 Rotation angle, in degrees counterclockwise*
0 create outline with 7 corners*
4,1,7,$1,$2,$3,$4,$5,$6,$7,$8,$9,$10,$11,$12,$13,$14,$1,$2,$15*%
%AMOutline8P*
0 Free polygon, 8 corners , with rotation*
0 The origin of the aperture is its center*
0 number of corners: always 8*
0 $1 to $16 corner X, Y*
0 $17 Rotation angle, in degrees counterclockwise*
0 create outline with 8 corners*
4,1,8,$1,$2,$3,$4,$5,$6,$7,$8,$9,$10,$11,$12,$13,$14,$15,$16,$1,$2,$17*%
%AMFreePoly0*
4,1,19,0.500000,-0.750000,0.000000,-0.750000,0.000000,-0.744911,-0.071157,-0.744911,-0.207708,-0.704816,-0.327430,-0.627875,-0.420627,-0.520320,-0.479746,-0.390866,-0.500000,-0.250000,-0.500000,0.250000,-0.479746,0.390866,-0.420627,0.520320,-0.327430,0.627875,-0.207708,0.704816,-0.071157,0.744911,0.000000,0.744911,0.000000,0.750000,0.500000,0.750000,0.500000,-0.750000,0.500000,-0.750000,
$1*%
%AMFreePoly1*
4,1,19,0.000000,0.744911,0.071157,0.744911,0.207708,0.704816,0.327430,0.627875,0.420627,0.520320,0.479746,0.390866,0.500000,0.250000,0.500000,-0.250000,0.479746,-0.390866,0.420627,-0.520320,0.327430,-0.627875,0.207708,-0.704816,0.071157,-0.744911,0.000000,-0.744911,0.000000,-0.750000,-0.500000,-0.750000,-0.500000,0.750000,0.000000,0.750000,0.000000,0.744911,0.000000,0.744911,
$1*%
G04 Aperture macros list end*
%ADD10R,1.700000X1.700000*%
%ADD11O,1.700000X1.700000*%
%ADD12RoundRect,0.250000X0.312500X0.625000X-0.312500X0.625000X-0.312500X-0.625000X0.312500X-0.625000X0*%
%ADD13RoundRect,0.250000X0.625000X-0.312500X0.625000X0.312500X-0.625000X0.312500X-0.625000X-0.312500X0*%
%ADD14RoundRect,0.250000X0.650000X-0.325000X0.650000X0.325000X-0.650000X0.325000X-0.650000X-0.325000X0*%
%ADD15FreePoly0,270.000000*%
%ADD16FreePoly1,270.000000*%
%ADD17C,5.000000*%
%ADD18C,2.500000*%
%ADD19RoundRect,0.250000X-1.000000X1.000000X-1.000000X-1.000000X1.000000X-1.000000X1.000000X1.000000X0*%
%ADD20RoundRect,0.135000X-0.135000X-0.185000X0.135000X-0.185000X0.135000X0.185000X-0.135000X0.185000X0*%
%ADD21RoundRect,0.140000X0.140000X0.170000X-0.140000X0.170000X-0.140000X-0.170000X0.140000X-0.170000X0*%
%ADD22RoundRect,0.135000X0.135000X0.185000X-0.135000X0.185000X-0.135000X-0.185000X0.135000X-0.185000X0*%
%ADD23R,0.500000X1.100000*%
%ADD24R,2.800000X2.800000*%
%ADD25C,2.800000*%
%ADD26RoundRect,0.140000X0.170000X-0.140000X0.170000X0.140000X-0.170000X0.140000X-0.170000X-0.140000X0*%
%ADD27RoundRect,0.140000X-0.140000X-0.170000X0.140000X-0.170000X0.140000X0.170000X-0.140000X0.170000X0*%
%ADD28C,3.251200*%
%ADD29R,1.778000X1.778000*%
%ADD30C,1.778000*%
%ADD31C,2.032000*%
%ADD32C,2.540000*%
%ADD33RoundRect,0.200000X0.800000X-0.200000X0.800000X0.200000X-0.800000X0.200000X-0.800000X-0.200000X0*%
%ADD34R,1.100000X0.500000*%
%ADD35RoundRect,0.112500X0.112500X-0.187500X0.112500X0.187500X-0.112500X0.187500X-0.112500X-0.187500X0*%
%ADD36RoundRect,0.135000X-0.185000X0.135000X-0.185000X-0.135000X0.185000X-0.135000X0.185000X0.135000X0*%
%ADD37RoundRect,0.135000X0.185000X-0.135000X0.185000X0.135000X-0.185000X0.135000X-0.185000X-0.135000X0*%
%ADD38FreePoly0,0.000000*%
%ADD39FreePoly1,0.000000*%
%ADD40RoundRect,0.150000X-0.512500X-0.150000X0.512500X-0.150000X0.512500X0.150000X-0.512500X0.150000X0*%
%ADD41RoundRect,0.150000X-0.150000X0.662500X-0.150000X-0.662500X0.150000X-0.662500X0.150000X0.662500X0*%
%ADD42R,1.800000X1.800000*%
%ADD43C,1.800000*%
%ADD44RoundRect,0.140000X-0.170000X0.140000X-0.170000X-0.140000X0.170000X-0.140000X0.170000X0.140000X0*%
%ADD45C,0.650000*%
%ADD46R,0.600000X1.240000*%
%ADD47R,0.300000X1.240000*%
%ADD48O,1.000000X2.100000*%
%ADD49O,1.000000X1.800000*%
%ADD50FreePoly0,90.000000*%
%ADD51FreePoly1,90.000000*%
%ADD52R,1.400000X1.200000*%
%ADD53RoundRect,0.250000X0.475000X-0.250000X0.475000X0.250000X-0.475000X0.250000X-0.475000X-0.250000X0*%
%ADD54RoundRect,0.250000X0.250000X0.475000X-0.250000X0.475000X-0.250000X-0.475000X0.250000X-0.475000X0*%
%ADD55RoundRect,0.250000X-0.475000X0.250000X-0.475000X-0.250000X0.475000X-0.250000X0.475000X0.250000X0*%
%ADD56R,3.600000X1.500000*%
%ADD57RoundRect,0.147500X0.147500X0.172500X-0.147500X0.172500X-0.147500X-0.172500X0.147500X-0.172500X0*%
%ADD58RoundRect,0.150000X0.150000X-0.512500X0.150000X0.512500X-0.150000X0.512500X-0.150000X-0.512500X0*%
%ADD59RoundRect,0.075000X0.075000X-0.662500X0.075000X0.662500X-0.075000X0.662500X-0.075000X-0.662500X0*%
%ADD60RoundRect,0.075000X0.662500X-0.075000X0.662500X0.075000X-0.662500X0.075000X-0.662500X-0.075000X0*%
%ADD61RoundRect,0.150000X0.150000X-0.825000X0.150000X0.825000X-0.150000X0.825000X-0.150000X-0.825000X0*%
%ADD62R,0.400000X0.800000*%
%ADD63R,0.800000X0.400000*%
%ADD64Outline5P,-0.600000X0.204000X-0.204000X0.600000X0.600000X0.600000X0.600000X-0.600000X-0.600000X-0.600000X90.000000*%
%ADD65R,1.200000X1.200000*%
%ADD66R,0.800000X0.800000*%
%ADD67RoundRect,0.147500X-0.172500X0.147500X-0.172500X-0.147500X0.172500X-0.147500X0.172500X0.147500X0*%
%ADD68RoundRect,0.147500X0.172500X-0.147500X0.172500X0.147500X-0.172500X0.147500X-0.172500X-0.147500X0*%
G04 APERTURE END LIST*
D10*
%TO.C,REF\u002A\u002A*%
X118300000Y-83300000D03*
D11*
X120840000Y-83300000D03*
X123380000Y-83300000D03*
X125920000Y-83300000D03*
%TD*%
D12*
%TO.C,R33*%
X204612500Y-116250000D03*
X201687500Y-116250000D03*
%TD*%
%TO.C,R32*%
X187512500Y-116250000D03*
X184587500Y-116250000D03*
%TD*%
%TO.C,R31*%
X153612500Y-116250000D03*
X150687500Y-116250000D03*
%TD*%
%TO.C,R30*%
X170612500Y-116250000D03*
X167687500Y-116250000D03*
%TD*%
D13*
%TO.C,R29*%
X145060000Y-141192500D03*
X145060000Y-138267500D03*
%TD*%
%TO.C,R28*%
X161800000Y-141162500D03*
X161800000Y-138237500D03*
%TD*%
%TO.C,R27*%
X195270000Y-141062500D03*
X195270000Y-138137500D03*
%TD*%
%TO.C,R26*%
X178600000Y-141162500D03*
X178600000Y-138237500D03*
%TD*%
D14*
%TO.C,C27*%
X147330000Y-141175000D03*
X147330000Y-138225000D03*
%TD*%
%TO.C,C26*%
X164200000Y-141175000D03*
X164200000Y-138225000D03*
%TD*%
%TO.C,C10*%
X197600000Y-141075000D03*
X197600000Y-138125000D03*
%TD*%
%TO.C,C3*%
X180900000Y-141175000D03*
X180900000Y-138225000D03*
%TD*%
D15*
%TO.C,JP12*%
X196000000Y-109800000D03*
D16*
X196000000Y-111100000D03*
%TD*%
D15*
%TO.C,JP11*%
X179070000Y-109800000D03*
D16*
X179070000Y-111100000D03*
%TD*%
D15*
%TO.C,JP10*%
X162100000Y-109800000D03*
D16*
X162100000Y-111100000D03*
%TD*%
%TO.C,JP9*%
X145350000Y-111100000D03*
D15*
X145350000Y-109800000D03*
%TD*%
D17*
%TO.C,H2*%
X205000000Y-104000000D03*
%TD*%
%TO.C,H3*%
X165000000Y-58400000D03*
%TD*%
%TO.C,H2*%
X227500000Y-80000000D03*
%TD*%
D18*
%TO.C,K2*%
X164184166Y-119417500D03*
X170184166Y-133617500D03*
X158184166Y-133617500D03*
D19*
X170184166Y-121417500D03*
D18*
X158184166Y-121417500D03*
%TD*%
D20*
%TO.C,R19*%
X236390000Y-95100000D03*
X237410000Y-95100000D03*
%TD*%
D21*
%TO.C,C34*%
X147280000Y-101000000D03*
X146320000Y-101000000D03*
%TD*%
D22*
%TO.C,R7*%
X214510000Y-93950000D03*
X213490000Y-93950000D03*
%TD*%
D21*
%TO.C,C38*%
X153030000Y-103100000D03*
X152070000Y-103100000D03*
%TD*%
D23*
%TO.C,D31*%
X202400000Y-77150000D03*
X202400000Y-78650000D03*
%TD*%
%TO.C,D1*%
X149600000Y-78350000D03*
X149600000Y-76850000D03*
%TD*%
D24*
%TO.C,J15*%
X177250000Y-146395000D03*
D25*
X182250000Y-146395000D03*
%TD*%
D26*
%TO.C,C42*%
X205200000Y-80055000D03*
X205200000Y-79095000D03*
%TD*%
D27*
%TO.C,C35*%
X148320000Y-101000000D03*
X149280000Y-101000000D03*
%TD*%
D22*
%TO.C,R106*%
X177070000Y-113200000D03*
X176050000Y-113200000D03*
%TD*%
D18*
%TO.C,K3*%
X181000832Y-119417500D03*
X187000832Y-133617500D03*
X175000832Y-133617500D03*
D19*
X187000832Y-121417500D03*
D18*
X175000832Y-121417500D03*
%TD*%
D28*
%TO.C,J1*%
X225620000Y-126145000D03*
X214190000Y-126145000D03*
D29*
X224350000Y-132495000D03*
D30*
X223080000Y-135035000D03*
X221810000Y-132495000D03*
X220540000Y-135035000D03*
X219270000Y-132495000D03*
X218000000Y-135035000D03*
X216730000Y-132495000D03*
X215460000Y-135035000D03*
D31*
X213605800Y-122030200D03*
X216120400Y-122030200D03*
X223715000Y-122030200D03*
X226229600Y-122030200D03*
D32*
X227779000Y-130031200D03*
X212031000Y-130031200D03*
%TD*%
D33*
%TO.C,SW1*%
X165350000Y-81300000D03*
X165350000Y-77100000D03*
%TD*%
D23*
%TO.C,D27*%
X185100000Y-77150000D03*
X185100000Y-78650000D03*
%TD*%
D34*
%TO.C,D8*%
X219850000Y-118200000D03*
X218350000Y-118200000D03*
%TD*%
D22*
%TO.C,R104*%
X143310000Y-113200000D03*
X142290000Y-113200000D03*
%TD*%
D35*
%TO.C,D40*%
X155400000Y-116550000D03*
X155400000Y-114450000D03*
%TD*%
D36*
%TO.C,R73*%
X161050000Y-103090000D03*
X161050000Y-104110000D03*
%TD*%
D27*
%TO.C,C20*%
X215075000Y-108100000D03*
X216035000Y-108100000D03*
%TD*%
D20*
%TO.C,R16*%
X213145000Y-110100000D03*
X214165000Y-110100000D03*
%TD*%
D37*
%TO.C,R96*%
X212700000Y-72110000D03*
X212700000Y-71090000D03*
%TD*%
D38*
%TO.C,JP4*%
X147950000Y-114100000D03*
D39*
X149250000Y-114100000D03*
%TD*%
D22*
%TO.C,R100*%
X150560000Y-106000000D03*
X149540000Y-106000000D03*
%TD*%
D40*
%TO.C,Q8*%
X193475000Y-115350000D03*
X191200000Y-116300000D03*
X191200000Y-114400000D03*
%TD*%
D34*
%TO.C,D34*%
X213750000Y-69100000D03*
X212250000Y-69100000D03*
%TD*%
D37*
%TO.C,R93*%
X209300000Y-88510000D03*
X209300000Y-87490000D03*
%TD*%
D41*
%TO.C,U8*%
X146000000Y-107912500D03*
X144730000Y-107912500D03*
X144730000Y-114287500D03*
X146000000Y-114287500D03*
%TD*%
D20*
%TO.C,R1*%
X143180000Y-83800000D03*
X144200000Y-83800000D03*
%TD*%
D41*
%TO.C,U7*%
X179720000Y-107912500D03*
X178450000Y-107912500D03*
X178450000Y-114287500D03*
X179720000Y-114287500D03*
%TD*%
D37*
%TO.C,R92*%
X210350000Y-88510000D03*
X210350000Y-87490000D03*
%TD*%
D17*
%TO.C,H1*%
X227550000Y-146600000D03*
%TD*%
D18*
%TO.C,K1*%
X147367500Y-119417500D03*
X153367500Y-133617500D03*
X141367500Y-133617500D03*
D19*
X153367500Y-121417500D03*
D18*
X141367500Y-121417500D03*
%TD*%
D22*
%TO.C,R102*%
X179520000Y-105300000D03*
X178500000Y-105300000D03*
%TD*%
%TO.C,R107*%
X192940000Y-113150000D03*
X193960000Y-113150000D03*
%TD*%
D27*
%TO.C,C17*%
X220020000Y-85170000D03*
X220980000Y-85170000D03*
%TD*%
D23*
%TO.C,D24*%
X173600000Y-77150000D03*
X173600000Y-78650000D03*
%TD*%
D38*
%TO.C,JP3*%
X164650000Y-114100000D03*
D39*
X165950000Y-114100000D03*
%TD*%
D42*
%TO.C,D36*%
X170091666Y-109550000D03*
D43*
X167551666Y-109550000D03*
%TD*%
D22*
%TO.C,R101*%
X162560000Y-105300000D03*
X161540000Y-105300000D03*
%TD*%
D24*
%TO.C,J13*%
X143650000Y-146395000D03*
D25*
X148650000Y-146395000D03*
%TD*%
D44*
%TO.C,C37*%
X150650000Y-101070000D03*
X150650000Y-102030000D03*
%TD*%
D36*
%TO.C,R71*%
X155650000Y-103090000D03*
X155650000Y-104110000D03*
%TD*%
D26*
%TO.C,C23*%
X147000000Y-83800000D03*
X147000000Y-82840000D03*
%TD*%
D20*
%TO.C,R24*%
X144890000Y-106300000D03*
X145910000Y-106300000D03*
%TD*%
D22*
%TO.C,R99*%
X205860000Y-77900000D03*
X204840000Y-77900000D03*
%TD*%
D44*
%TO.C,C41*%
X160050000Y-103120000D03*
X160050000Y-104080000D03*
%TD*%
D22*
%TO.C,R66*%
X147310000Y-102000000D03*
X146290000Y-102000000D03*
%TD*%
D26*
%TO.C,C24*%
X158250000Y-87400000D03*
X158250000Y-86440000D03*
%TD*%
D34*
%TO.C,D2*%
X147050000Y-79750000D03*
X145550000Y-79750000D03*
%TD*%
D22*
%TO.C,R90*%
X211960000Y-77900000D03*
X210940000Y-77900000D03*
%TD*%
D45*
%TO.C,J3*%
X145840000Y-73980000D03*
X140060000Y-73980000D03*
D46*
X146150000Y-75100000D03*
X145350000Y-75100000D03*
D47*
X144200000Y-75100000D03*
X143200000Y-75100000D03*
X142700000Y-75100000D03*
X141700000Y-75100000D03*
D46*
X140550000Y-75100000D03*
X139750000Y-75100000D03*
X139750000Y-75100000D03*
X140550000Y-75100000D03*
D47*
X141200000Y-75100000D03*
X142200000Y-75100000D03*
X143700000Y-75100000D03*
X144700000Y-75100000D03*
D46*
X145350000Y-75100000D03*
X146150000Y-75100000D03*
D48*
X147270000Y-74500000D03*
D49*
X147270000Y-70300000D03*
D48*
X138630000Y-74500000D03*
D49*
X138630000Y-70300000D03*
%TD*%
D23*
%TO.C,D25*%
X175100000Y-77150000D03*
X175100000Y-78650000D03*
%TD*%
D35*
%TO.C,D39*%
X138600000Y-116450000D03*
X138600000Y-114350000D03*
%TD*%
D20*
%TO.C,R13*%
X213500000Y-98000000D03*
X214520000Y-98000000D03*
%TD*%
D22*
%TO.C,R9*%
X223710000Y-103900000D03*
X222690000Y-103900000D03*
%TD*%
%TO.C,R8*%
X221810000Y-104900000D03*
X220790000Y-104900000D03*
%TD*%
D41*
%TO.C,U9*%
X162735000Y-107912500D03*
X161465000Y-107912500D03*
X161465000Y-114287500D03*
X162735000Y-114287500D03*
%TD*%
D50*
%TO.C,JP8*%
X198850000Y-109200000D03*
D51*
X198850000Y-107900000D03*
%TD*%
D33*
%TO.C,SW2*%
X168900000Y-81300000D03*
X168900000Y-77100000D03*
%TD*%
D35*
%TO.C,D5*%
X151000000Y-78950000D03*
X151000000Y-76850000D03*
%TD*%
D23*
%TO.C,D26*%
X183600000Y-77150000D03*
X183600000Y-78650000D03*
%TD*%
D22*
%TO.C,R95*%
X208910000Y-76700000D03*
X207890000Y-76700000D03*
%TD*%
D36*
%TO.C,R21*%
X158250000Y-88310000D03*
X158250000Y-89330000D03*
%TD*%
D37*
%TO.C,R20*%
X148500000Y-83860000D03*
X148500000Y-82840000D03*
%TD*%
D36*
%TO.C,R68*%
X150350000Y-103090000D03*
X150350000Y-104110000D03*
%TD*%
D52*
%TO.C,Y1*%
X218800000Y-88320000D03*
X221000000Y-88320000D03*
X221000000Y-86620000D03*
X218800000Y-86620000D03*
%TD*%
D53*
%TO.C,C11*%
X223500000Y-87320000D03*
X223500000Y-85420000D03*
%TD*%
D22*
%TO.C,R4*%
X141210000Y-77100000D03*
X140190000Y-77100000D03*
%TD*%
D23*
%TO.C,D30*%
X200900000Y-77150000D03*
X200900000Y-78650000D03*
%TD*%
D34*
%TO.C,D7*%
X229300000Y-118400000D03*
X230800000Y-118400000D03*
%TD*%
D42*
%TO.C,D35*%
X153225000Y-109550000D03*
D43*
X150685000Y-109550000D03*
%TD*%
D53*
%TO.C,C7*%
X186600000Y-87600000D03*
X186600000Y-85700000D03*
%TD*%
D42*
%TO.C,D37*%
X186958332Y-109550000D03*
D43*
X184418332Y-109550000D03*
%TD*%
D24*
%TO.C,J12*%
X218700000Y-71800000D03*
D25*
X223700000Y-71800000D03*
X228700000Y-71800000D03*
%TD*%
D34*
%TO.C,D9*%
X162550000Y-76800000D03*
X161050000Y-76800000D03*
%TD*%
D23*
%TO.C,D29*%
X195000000Y-77150000D03*
X195000000Y-78650000D03*
%TD*%
D22*
%TO.C,R103*%
X195490000Y-105300000D03*
X196510000Y-105300000D03*
%TD*%
D23*
%TO.C,D33*%
X213775000Y-72350000D03*
X213775000Y-70850000D03*
%TD*%
D27*
%TO.C,C21*%
X215075000Y-110100000D03*
X216035000Y-110100000D03*
%TD*%
D41*
%TO.C,U5*%
X196620000Y-107912500D03*
X195350000Y-107912500D03*
X195350000Y-114287500D03*
X196620000Y-114287500D03*
%TD*%
D38*
%TO.C,JP2*%
X181650000Y-114100000D03*
D39*
X182950000Y-114100000D03*
%TD*%
D20*
%TO.C,R6*%
X216590000Y-102900000D03*
X217610000Y-102900000D03*
%TD*%
D40*
%TO.C,Q6*%
X157325000Y-114450000D03*
X157325000Y-116350000D03*
X159600000Y-115400000D03*
%TD*%
D27*
%TO.C,C13*%
X223720000Y-102200000D03*
X224680000Y-102200000D03*
%TD*%
D54*
%TO.C,C12*%
X229250000Y-91300000D03*
X227350000Y-91300000D03*
%TD*%
D44*
%TO.C,C40*%
X157350000Y-103120000D03*
X157350000Y-104080000D03*
%TD*%
D20*
%TO.C,R14*%
X220690000Y-89670000D03*
X221710000Y-89670000D03*
%TD*%
D21*
%TO.C,C1*%
X146080000Y-83800000D03*
X145120000Y-83800000D03*
%TD*%
D27*
%TO.C,C15*%
X226820000Y-94700000D03*
X227780000Y-94700000D03*
%TD*%
D55*
%TO.C,C25*%
X198267500Y-81675000D03*
X198267500Y-83575000D03*
%TD*%
D20*
%TO.C,R67*%
X148290000Y-102000000D03*
X149310000Y-102000000D03*
%TD*%
D40*
%TO.C,Q5*%
X140562500Y-114450000D03*
X140562500Y-116350000D03*
X142837500Y-115400000D03*
%TD*%
D20*
%TO.C,R12*%
X213490000Y-97000000D03*
X214510000Y-97000000D03*
%TD*%
D26*
%TO.C,C4*%
X148600000Y-78290000D03*
X148600000Y-77330000D03*
%TD*%
D44*
%TO.C,C14*%
X220000000Y-101820000D03*
X220000000Y-102780000D03*
%TD*%
D22*
%TO.C,R97*%
X207760000Y-77900000D03*
X206740000Y-77900000D03*
%TD*%
D27*
%TO.C,C9*%
X222620000Y-89600000D03*
X223580000Y-89600000D03*
%TD*%
D40*
%TO.C,Q7*%
X174325000Y-114450000D03*
X174325000Y-116350000D03*
X176600000Y-115400000D03*
%TD*%
D20*
%TO.C,R2*%
X218490000Y-103900000D03*
X219510000Y-103900000D03*
%TD*%
%TO.C,R11*%
X213490000Y-96000000D03*
X214510000Y-96000000D03*
%TD*%
D22*
%TO.C,R70*%
X153060000Y-104100000D03*
X152040000Y-104100000D03*
%TD*%
D26*
%TO.C,C5*%
X180310000Y-87030000D03*
X180310000Y-86070000D03*
%TD*%
D22*
%TO.C,R91*%
X210060000Y-77900000D03*
X209040000Y-77900000D03*
%TD*%
D26*
%TO.C,C44*%
X150500000Y-83830000D03*
X150500000Y-82870000D03*
%TD*%
D24*
%TO.C,J9*%
X151800000Y-71700000D03*
D25*
X156800000Y-71700000D03*
X161800000Y-71700000D03*
X166800000Y-71700000D03*
X171800000Y-71700000D03*
X176800000Y-71700000D03*
%TD*%
D22*
%TO.C,R105*%
X160060000Y-113200000D03*
X159040000Y-113200000D03*
%TD*%
D56*
%TO.C,L1*%
X183210000Y-86075000D03*
X183210000Y-83025000D03*
%TD*%
D44*
%TO.C,C36*%
X149400000Y-103120000D03*
X149400000Y-104080000D03*
%TD*%
D26*
%TO.C,C22*%
X225600000Y-92180000D03*
X225600000Y-91220000D03*
%TD*%
D57*
%TO.C,FB5*%
X182785000Y-92000000D03*
X181815000Y-92000000D03*
%TD*%
D36*
%TO.C,R69*%
X151650000Y-100990000D03*
X151650000Y-102010000D03*
%TD*%
D20*
%TO.C,R17*%
X236390000Y-91120000D03*
X237410000Y-91120000D03*
%TD*%
D21*
%TO.C,C16*%
X228680000Y-97200000D03*
X227720000Y-97200000D03*
%TD*%
D24*
%TO.C,J14*%
X160450000Y-146445000D03*
D25*
X165450000Y-146445000D03*
%TD*%
D53*
%TO.C,C19*%
X229300000Y-95650000D03*
X229300000Y-93750000D03*
%TD*%
D42*
%TO.C,D38*%
X203825000Y-109550000D03*
D43*
X201285000Y-109550000D03*
%TD*%
D44*
%TO.C,C39*%
X154650000Y-103120000D03*
X154650000Y-104080000D03*
%TD*%
D35*
%TO.C,D41*%
X172400000Y-116400000D03*
X172400000Y-114300000D03*
%TD*%
D37*
%TO.C,R94*%
X206500000Y-88510000D03*
X206500000Y-87490000D03*
%TD*%
D26*
%TO.C,C18*%
X217200000Y-88350000D03*
X217200000Y-87390000D03*
%TD*%
D58*
%TO.C,U3*%
X182260000Y-90387500D03*
X183210000Y-90387500D03*
X184160000Y-90387500D03*
X184160000Y-88112500D03*
X183210000Y-88112500D03*
X182260000Y-88112500D03*
%TD*%
D24*
%TO.C,J16*%
X194050000Y-146412500D03*
D25*
X199050000Y-146412500D03*
%TD*%
D39*
%TO.C,JP1*%
X199850000Y-114100000D03*
D38*
X198550000Y-114100000D03*
%TD*%
D36*
%TO.C,R18*%
X225700000Y-103490000D03*
X225700000Y-104510000D03*
%TD*%
D59*
%TO.C,U4*%
X218450000Y-100162500D03*
X218950000Y-100162500D03*
X219450000Y-100162500D03*
X219950000Y-100162500D03*
X220450000Y-100162500D03*
X220950000Y-100162500D03*
X221450000Y-100162500D03*
X221950000Y-100162500D03*
X222450000Y-100162500D03*
X222950000Y-100162500D03*
X223450000Y-100162500D03*
X223950000Y-100162500D03*
D60*
X225362500Y-98750000D03*
X225362500Y-98250000D03*
X225362500Y-97750000D03*
X225362500Y-97250000D03*
X225362500Y-96750000D03*
X225362500Y-96250000D03*
X225362500Y-95750000D03*
X225362500Y-95250000D03*
X225362500Y-94750000D03*
X225362500Y-94250000D03*
X225362500Y-93750000D03*
X225362500Y-93250000D03*
D59*
X223950000Y-91837500D03*
X223450000Y-91837500D03*
X222950000Y-91837500D03*
X222450000Y-91837500D03*
X221950000Y-91837500D03*
X221450000Y-91837500D03*
X220950000Y-91837500D03*
X220450000Y-91837500D03*
X219950000Y-91837500D03*
X219450000Y-91837500D03*
X218950000Y-91837500D03*
X218450000Y-91837500D03*
D60*
X217037500Y-93250000D03*
X217037500Y-93750000D03*
X217037500Y-94250000D03*
X217037500Y-94750000D03*
X217037500Y-95250000D03*
X217037500Y-95750000D03*
X217037500Y-96250000D03*
X217037500Y-96750000D03*
X217037500Y-97250000D03*
X217037500Y-97750000D03*
X217037500Y-98250000D03*
X217037500Y-98750000D03*
%TD*%
D20*
%TO.C,R22*%
X195490000Y-106300000D03*
X196510000Y-106300000D03*
%TD*%
%TO.C,R5*%
X144690000Y-77100000D03*
X145710000Y-77100000D03*
%TD*%
D61*
%TO.C,U6*%
X206500000Y-85550000D03*
X207770000Y-85550000D03*
X209040000Y-85550000D03*
X210310000Y-85550000D03*
X210310000Y-80600000D03*
X209040000Y-80600000D03*
X207770000Y-80600000D03*
X206500000Y-80600000D03*
%TD*%
D20*
%TO.C,R25*%
X161540000Y-106300000D03*
X162560000Y-106300000D03*
%TD*%
D53*
%TO.C,C8*%
X188610000Y-87600000D03*
X188610000Y-85700000D03*
%TD*%
D35*
%TO.C,D42*%
X189300000Y-114300000D03*
X189300000Y-116400000D03*
%TD*%
D50*
%TO.C,JP5*%
X148250000Y-109200000D03*
D51*
X148250000Y-107900000D03*
%TD*%
D23*
%TO.C,D28*%
X193500000Y-77150000D03*
X193500000Y-78650000D03*
%TD*%
D37*
%TO.C,R98*%
X149500000Y-83860000D03*
X149500000Y-82840000D03*
%TD*%
D57*
%TO.C,FB1*%
X191095000Y-85650000D03*
X190125000Y-85650000D03*
%TD*%
D62*
%TO.C,U1*%
X143950000Y-99244500D03*
X144800000Y-99244500D03*
X145650000Y-99244500D03*
X146500000Y-99244500D03*
X147350000Y-99244500D03*
X148200000Y-99244500D03*
X149050000Y-99244500D03*
X149900000Y-99244500D03*
X150750000Y-99244500D03*
X151600000Y-99244500D03*
X152450000Y-99244500D03*
X153300000Y-99244500D03*
X154150000Y-99244500D03*
X155000000Y-99244500D03*
X155850000Y-99244500D03*
D63*
X156900000Y-98194500D03*
X156900000Y-97344500D03*
X156900000Y-96494500D03*
X156900000Y-95644500D03*
X156900000Y-94794500D03*
X156900000Y-93944500D03*
X156900000Y-93094500D03*
X156900000Y-92244500D03*
X156900000Y-91394500D03*
X156900000Y-90544500D03*
X156900000Y-89694500D03*
X156900000Y-88844500D03*
X156900000Y-87994500D03*
X156900000Y-87144500D03*
X156900000Y-86294500D03*
D62*
X155850000Y-85244500D03*
X155000000Y-85244500D03*
X154150000Y-85244500D03*
X153300000Y-85244500D03*
X152450000Y-85244500D03*
X151600000Y-85244500D03*
X150750000Y-85244500D03*
X149900000Y-85244500D03*
X149050000Y-85244500D03*
X148200000Y-85244500D03*
X147350000Y-85244500D03*
X146500000Y-85244500D03*
X145650000Y-85244500D03*
X144800000Y-85244500D03*
X143950000Y-85244500D03*
D63*
X142900000Y-86294500D03*
X142900000Y-87144500D03*
X142900000Y-87994500D03*
X142900000Y-88844500D03*
X142900000Y-89694500D03*
X142900000Y-90544500D03*
X142900000Y-91394500D03*
X142900000Y-92244500D03*
X142900000Y-93094500D03*
X142900000Y-93944500D03*
X142900000Y-94794500D03*
X142900000Y-95644500D03*
X142900000Y-96494500D03*
X142900000Y-97344500D03*
X142900000Y-98194500D03*
D64*
X148250000Y-93894500D03*
D65*
X149900000Y-93894500D03*
X151550000Y-93894500D03*
X148250000Y-92244500D03*
X149900000Y-92244500D03*
X151550000Y-92244500D03*
X148250000Y-90594500D03*
X149900000Y-90594500D03*
X151550000Y-90594500D03*
D66*
X142900000Y-99244500D03*
X156900000Y-99244500D03*
X156900000Y-85244500D03*
X142900000Y-85244500D03*
%TD*%
D55*
%TO.C,C6*%
X186610000Y-89100000D03*
X186610000Y-91000000D03*
%TD*%
D36*
%TO.C,R3*%
X147500000Y-77290000D03*
X147500000Y-78310000D03*
%TD*%
D20*
%TO.C,R10*%
X213490000Y-95000000D03*
X214510000Y-95000000D03*
%TD*%
D24*
%TO.C,J11*%
X181800000Y-71700000D03*
D25*
X186800000Y-71700000D03*
X191800000Y-71700000D03*
X196800000Y-71700000D03*
X201800000Y-71700000D03*
X206800000Y-71700000D03*
%TD*%
D57*
%TO.C,FB3*%
X223585000Y-88600000D03*
X222615000Y-88600000D03*
%TD*%
D18*
%TO.C,K4*%
X197817500Y-119417500D03*
X203817500Y-133617500D03*
X191817500Y-133617500D03*
D19*
X203817500Y-121417500D03*
D18*
X191817500Y-121417500D03*
%TD*%
D55*
%TO.C,C2*%
X144100000Y-101550000D03*
X144100000Y-103450000D03*
%TD*%
D67*
%TO.C,FB2*%
X184200000Y-92465000D03*
X184200000Y-93435000D03*
%TD*%
D50*
%TO.C,JP7*%
X181970000Y-109200000D03*
D51*
X181970000Y-107900000D03*
%TD*%
D68*
%TO.C,FB4*%
X225700000Y-101385000D03*
X225700000Y-100415000D03*
%TD*%
D20*
%TO.C,R23*%
X178510000Y-106300000D03*
X179530000Y-106300000D03*
%TD*%
D23*
%TO.C,D32*%
X213800000Y-75450000D03*
X213800000Y-73950000D03*
%TD*%
D37*
%TO.C,R15*%
X214055000Y-109110000D03*
X214055000Y-108090000D03*
%TD*%
D40*
%TO.C,U2*%
X200230000Y-81675000D03*
X200230000Y-82625000D03*
X200230000Y-83575000D03*
X202505000Y-83575000D03*
X202505000Y-81675000D03*
%TD*%
D34*
%TO.C,D3*%
X144050000Y-81450000D03*
X145550000Y-81450000D03*
%TD*%
D50*
%TO.C,JP6*%
X165000000Y-109200000D03*
D51*
X165000000Y-107900000D03*
%TD*%
D36*
%TO.C,R72*%
X158350000Y-103090000D03*
X158350000Y-104110000D03*
%TD*%
D55*
%TO.C,C43*%
X204467500Y-81675000D03*
X204467500Y-83575000D03*
%TD*%
M02*
