M48
; DRILL file {KiCad 8.0.6-8.0.6-0~ubuntu24.04.1} date 2024-10-19T21:07:49+0200
; FORMAT={-:-/ absolute / inch / decimal}
; #@! TF.CreationDate,2024-10-19T21:07:49+02:00
; #@! TF.GenerationSoftware,Kicad,Pcbnew,8.0.6-8.0.6-0~ubuntu24.04.1
; #@! TF.FileFunction,Plated,1,2,PTH
FMAT,2
INCH
; #@! TA.AperFunction,Plated,PTH,ViaDrill
T1C0.0118
; #@! TA.AperFunction,Plated,PTH,ComponentDrill
T2C0.0236
; #@! TA.AperFunction,Plated,PTH,ComponentDrill
T3C0.0350
; #@! TA.AperFunction,Plated,PTH,ComponentDrill
T4C0.0354
; #@! TA.AperFunction,Plated,PTH,ComponentDrill
T5C0.0394
; #@! TA.AperFunction,Plated,PTH,ComponentDrill
T6C0.0400
; #@! TA.AperFunction,Plated,PTH,ComponentDrill
T7C0.0512
; #@! TA.AperFunction,Plated,PTH,ComponentDrill
T8C0.0650
; #@! TA.AperFunction,Plated,PTH,ComponentDrill
T9C0.1260
%
G90
G05
T1
X5.4685Y-3.0039
X5.626Y-3.2677
X5.626Y-3.3561
X5.626Y-3.4348
X5.626Y-3.5136
X5.626Y-3.5923
X5.626Y-3.671
X5.626Y-3.7498
X5.626Y-3.8285
X5.626Y-3.9073
X5.6299Y-3.1693
X5.6421Y-4.502
X5.6457Y-4.248
X5.7008Y-3.2598
X5.7047Y-4.1496
X5.7362Y-3.8622
X5.7441Y-3.2598
X5.7539Y-4.1083
X5.7579Y-4.0591
X5.7717Y-3.0118
X5.7953Y-3.8543
X5.7992Y-4.0551
X5.815Y-3.2614
X5.8366Y-3.5667
X5.8366Y-3.6317
X5.8366Y-3.6966
X5.8386Y-4.0551
X5.8425Y-4.1299
X5.8504Y-3.126
X5.8661Y-3.9488
X5.9Y-4.2499
X5.9016Y-3.5667
X5.9016Y-3.6317
X5.9016Y-3.6966
X5.9528Y-4.0591
X5.9665Y-3.5667
X5.9665Y-3.6317
X5.9665Y-3.6966
X6.0046Y-4.0091
X6.0276Y-4.5059
X6.0433Y-3.7655
X6.0551Y-4.0965
X6.1339Y-3.3031
X6.1614Y-4.0846
X6.1772Y-3.3561
X6.1772Y-3.9073
X6.1772Y-3.9626
X6.2244Y-3.8659
X6.2436Y-3.9465
X6.2568Y-3.4298
X6.2657Y-4.0866
X6.2676Y-3.8235
X6.2718Y-3.9219
X6.3016Y-4.4961
X6.3031Y-3.8228
X6.3031Y-4.2028
X6.3071Y-3.9094
X6.3155Y-3.744
X6.3189Y-3.2008
X6.3445Y-3.7126
X6.3701Y-4.0591
X6.374Y-3.6811
X6.563Y-4.248
X6.622Y-3.1575
X6.6949Y-4.5079
X6.9713Y-4.4961
X6.9783Y-4.1831
X7.1945Y-3.5138
X7.2323Y-4.248
X7.2327Y-3.5138
X7.2894Y-3.622
X7.3642Y-4.5079
X7.4193Y-4.1654
X7.5811Y-3.372
X7.6362Y-4.4921
X7.6378Y-4.248
X7.8071Y-3.3386
X7.8307Y-4.1909
X7.9094Y-3.1457
X7.937Y-3.252
X7.9685Y-3.1457
X8.0276Y-4.5059
X8.0512Y-3.3386
X8.0965Y-3.4862
X8.1299Y-3.2835
X8.2283Y-3.2913
X8.2352Y-3.5187
X8.2795Y-3.2913
X8.3071Y-2.7205
X8.3071Y-3.1102
X8.3622Y-2.9803
X8.4075Y-3.6555
X8.4173Y-3.0197
X8.4628Y-4.2953
X8.4921Y-4.1412
X8.5272Y-4.0902
X8.5512Y-3.3965
X8.6048Y-3.8878
X8.622Y-3.3531
X8.6403Y-3.8642
X8.685Y-3.8858
X8.685Y-4.0906
X8.689Y-4.1732
X8.6951Y-4.0177
X8.7244Y-3.8504
X8.7382Y-3.6614
X8.7677Y-4.0433
X8.7776Y-3.874
X8.7899Y-3.7697
X8.7992Y-3.3386
X8.8071Y-3.6772
X8.835Y-3.5276
X8.8465Y-4.0591
X8.8504Y-3.4319
X8.8543Y-3.9528
X8.878Y-3.5472
X8.8858Y-4.0354
X8.9347Y-3.8216
X8.937Y-3.8976
X8.9449Y-3.6929
X9.0276Y-3.6457
T3
X8.4827Y-5.3163
X8.5327Y-5.2163
X8.5827Y-5.3163
X8.6327Y-5.2163
X8.6827Y-5.3163
X8.7327Y-5.2163
X8.7827Y-5.3163
X8.8327Y-5.2163
T4
X5.9325Y-4.313
X6.0325Y-4.313
X6.5965Y-4.313
X6.6965Y-4.313
X7.2606Y-4.313
X7.3606Y-4.313
X7.9246Y-4.313
X8.0246Y-4.313
T5
X4.6575Y-3.2795
X4.7575Y-3.2795
X4.8575Y-3.2795
X4.9575Y-3.2795
T6
X8.4097Y-4.8043
X8.5087Y-4.8043
X8.8077Y-4.8043
X8.9067Y-4.8043
T7
X5.5656Y-4.7802
X5.5656Y-5.2605
X5.6555Y-5.7636
X5.8019Y-4.7015
X5.8524Y-5.7636
X5.9764Y-2.8228
X6.0381Y-4.7802
X6.0381Y-5.2605
X6.1732Y-2.8228
X6.2277Y-4.7802
X6.2277Y-5.2605
X6.3169Y-5.7656
X6.3701Y-2.8228
X6.4639Y-4.7015
X6.5138Y-5.7656
X6.5669Y-2.8228
X6.7002Y-4.7802
X6.7002Y-5.2605
X6.7638Y-2.8228
X6.8898Y-4.7802
X6.8898Y-5.2605
X6.9606Y-2.8228
X6.9783Y-5.7636
X7.126Y-4.7015
X7.1575Y-2.8228
X7.1752Y-5.7636
X7.3543Y-2.8228
X7.3622Y-4.7802
X7.3622Y-5.2605
X7.5512Y-2.8228
X7.5519Y-4.7802
X7.5519Y-5.2605
X7.6398Y-5.7643
X7.748Y-2.8228
X7.7881Y-4.7015
X7.8366Y-5.7643
X7.9449Y-2.8228
X8.0243Y-4.7802
X8.0243Y-5.2605
X8.1417Y-2.8228
X8.6102Y-2.8268
X8.8071Y-2.8268
X9.0039Y-2.8268
T8
X8.3477Y-5.1193
X8.9677Y-5.1193
T9
X6.4961Y-2.2992
X8.0709Y-4.0945
X8.9567Y-3.1496
X8.9587Y-5.7717
T2
G00X5.4579Y-2.7835
M15
G01X5.4579Y-2.752
M16
G05
G00X5.4579Y-2.9547
M15
G01X5.4579Y-2.9114
M16
G05
G00X5.798Y-2.7835
M15
G01X5.798Y-2.752
M16
G05
G00X5.798Y-2.9547
M15
G01X5.798Y-2.9114
M16
G05
M30
